{"asset":{"generator":"Khronos glTF Blender I/O v4.0.44","version":"2.0"},"scene":0,"scenes":[{"name":"Scene","nodes":[0]}],"nodes":[{"mesh":0,"name":"Corner_Interior_Big"}],"materials":[{"doubleSided":true,"name":"MI_WoodTrim","normalTexture":{"index":0},"pbrMetallicRoughness":{"baseColorTexture":{"index":1},"metallicFactor":0,"metallicRoughnessTexture":{"index":2}}}],"meshes":[{"name":"Cube.087","primitives":[{"attributes":{"POSITION":0,"NORMAL":1,"TEXCOORD_0":2},"indices":3,"material":0}]}],"textures":[{"sampler":0,"extensions":{"KHR_texture_basisu":{"source":0}}},{"sampler":0,"extensions":{"KHR_texture_basisu":{"source":1}}},{"sampler":0,"extensions":{"KHR_texture_basisu":{"source":2}}}],"images":[{"mimeType":"image/ktx2","name":"T_WoodTrim_Normal","uri":"T_WoodTrim_Normal.ktx2"},{"mimeType":"image/ktx2","name":"T_WoodTrim_BaseColor","uri":"T_WoodTrim_BaseColor.ktx2"},{"mimeType":"image/ktx2","name":"T_WoodTrim_Roughness","uri":"T_WoodTrim_Roughness.ktx2"}],"accessors":[{"bufferView":0,"componentType":5126,"count":36,"max":[0.323878675699234,2.999999761581421,0.044233668595552444],"min":[-0.009263996034860611,-1.1920928955078125e-07,-0.32389143109321594],"type":"VEC3"},{"bufferView":1,"componentType":5126,"count":36,"type":"VEC3"},{"bufferView":2,"componentType":5126,"count":36,"type":"VEC2"},{"bufferView":3,"componentType":5123,"count":72,"type":"SCALAR"}],"bufferViews":[{"buffer":0,"byteLength":432,"byteOffset":0,"target":34962},{"buffer":0,"byteLength":432,"byteOffset":432,"target":34962},{"buffer":0,"byteLength":288,"byteOffset":864,"target":34962},{"buffer":0,"byteLength":144,"byteOffset":1152,"target":34963}],"samplers":[{"magFilter":9729,"minFilter":9987}],"buffers":[{"byteLength":1296,"uri":"Corner_Interior_Big.bin"}],"extensionsUsed":["KHR_texture_basisu"],"extensionsRequired":["KHR_texture_basisu"]}