{
 "asset": {
  "generator": "Khronos glTF Blender I/O v4.5.51",
  "version": "2.0",
  "extras": {
   "data": "0923869125f53081ea1ef2c33d635096"
  }
 },
 "scene": 0,
 "scenes": [
  {
   "name": "Scene",
   "nodes": [
    70
   ]
  }
 ],
 "nodes": [
  {
   "name": "Head",
   "rotation": [
    -0.11761949956417084,
    -2.2141905731132283e-07,
    -3.010525233548833e-06,
    0.9930587410926819
   ],
   "translation": [
    6.661338147750939e-15,
    0.08259861171245575,
    1.1175870007207322e-08
   ]
  },
  {
   "children": [
    0
   ],
   "name": "neck_01",
   "rotation": [
    0.2231902927160263,
    -6.007262687290904e-09,
    3.88361840464313e-08,
    0.9747748970985413
   ],
   "translation": [
    -4.440892098500626e-15,
    0.26398828625679016,
    1.862645149230957e-08
   ]
  },
  {
   "name": "index_04_leaf_l",
   "rotation": [
    -5.704350769519806e-09,
    1,
    -4.7439248085368035e-09,
    3.5353004932403564e-06
   ],
   "scale": [
    1,
    0.9999999403953552,
    1
   ],
   "translation": [
    1.1874362826347351e-08,
    0.030100101605057716,
    -1.910957507789135e-07
   ]
  },
  {
   "children": [
    2
   ],
   "name": "index_03_l",
   "rotation": [
    0.012105108238756657,
    -4.237862185618724e-07,
    0.004006620962172747,
    0.9999186992645264
   ],
   "scale": [
    0.9999999403953552,
    1,
    0.9999999403953552
   ],
   "translation": [
    -6.51925802230835e-09,
    0.02818247862160206,
    1.2776581570506096e-08
   ]
  },
  {
   "children": [
    3
   ],
   "name": "index_02_l",
   "rotation": [
    0.10989626497030258,
    1.5561427346710843e-07,
    -0.030358633026480675,
    0.993479311466217
   ],
   "scale": [
    1,
    0.9999998807907104,
    1
   ],
   "translation": [
    7.450580596923828e-09,
    0.03089151158928871,
    8.792267180979252e-08
   ]
  },
  {
   "children": [
    4
   ],
   "name": "index_01_l",
   "rotation": [
    -0.00943039171397686,
    0.7070736885070801,
    0.003526271553710103,
    0.7070682048797607
   ],
   "scale": [
    0.9999998211860657,
    0.9999998211860657,
    0.9999999403953552
   ],
   "translation": [
    0.00601259246468544,
    0.1281808316707611,
    0.02604752779006958
   ]
  },
  {
   "name": "middle_04_leaf_l",
   "rotation": [
    2.3283064365386963e-09,
    1,
    -9.546056389808655e-09,
    3.6526471376419067e-06
   ],
   "translation": [
    7.450580596923828e-09,
    0.03443717584013939,
    8.195638656616211e-08
   ]
  },
  {
   "children": [
    6
   ],
   "name": "middle_03_l",
   "rotation": [
    0.0005137118278071284,
    -6.389206532730896e-07,
    0.010132299736142159,
    0.9999485611915588
   ],
   "scale": [
    0.9999999403953552,
    1,
    1
   ],
   "translation": [
    0,
    0.031105799600481987,
    3.306195139884949e-08
   ]
  },
  {
   "children": [
    7
   ],
   "name": "middle_02_l",
   "rotation": [
    0.11376678943634033,
    0.00017226197815034539,
    -0.04893263056874275,
    0.9923017621040344
   ],
   "scale": [
    0.9999999403953552,
    1.0000001192092896,
    0.9999999403953552
   ],
   "translation": [
    7.450580596923828e-09,
    0.03485651686787605,
    9.033828973770142e-08
   ]
  },
  {
   "children": [
    8
   ],
   "name": "middle_01_l",
   "rotation": [
    -0.007998891174793243,
    0.7071942090988159,
    0.001128928386606276,
    0.7069733142852783
   ],
   "scale": [
    0.9999999403953552,
    0.9999999403953552,
    1
   ],
   "translation": [
    2.1420419216156006e-07,
    0.12831149995326996,
    -2.421438694000244e-08
   ]
  },
  {
   "name": "pinky_04_leaf_l",
   "rotation": [
    2.591405063867569e-07,
    1,
    7.42729810099263e-07,
    4.369881935417652e-06
   ],
   "scale": [
    1,
    1,
    0.9999999403953552
   ],
   "translation": [
    1.862645149230957e-09,
    0.02816423401236534,
    2.8870999813079834e-08
   ]
  },
  {
   "children": [
    10
   ],
   "name": "pinky_03_l",
   "rotation": [
    -0.017429951578378677,
    -1.0290284080838319e-05,
    0.004625735804438591,
    0.9998373985290527
   ],
   "translation": [
    -1.0244548320770264e-08,
    0.02304605394601822,
    -3.3527612686157227e-08
   ]
  },
  {
   "children": [
    11
   ],
   "name": "pinky_02_l",
   "rotation": [
    -0.015049012377858162,
    1.2427484762156382e-05,
    -0.007742131594568491,
    0.9998568296432495
   ],
   "scale": [
    0.9999999403953552,
    0.9999998211860657,
    0.9999999403953552
   ],
   "translation": [
    1.3504177331924438e-08,
    0.02458452805876732,
    8.381903171539307e-08
   ]
  },
  {
   "children": [
    12
   ],
   "name": "pinky_01_l",
   "rotation": [
    -0.011546679772436619,
    0.6985994577407837,
    -0.13425475358963013,
    0.7027098536491394
   ],
   "scale": [
    0.9999998807907104,
    1.0000001192092896,
    1
   ],
   "translation": [
    -0.003249170258641243,
    0.11280001699924469,
    -0.04492819309234619
   ]
  },
  {
   "name": "ring_04_leaf_l",
   "rotation": [
    1.8626449271863521e-09,
    1,
    5.592592060565948e-07,
    4.133180482313037e-06
   ],
   "scale": [
    1,
    0.9999999403953552,
    1
   ],
   "translation": [
    -5.122274160385132e-09,
    0.03182276710867882,
    -1.6763806343078613e-07
   ]
  },
  {
   "children": [
    14
   ],
   "name": "ring_03_l",
   "rotation": [
    -0.034807611256837845,
    3.8098620279924944e-05,
    -0.011716693639755249,
    0.9993253946304321
   ],
   "scale": [
    1,
    1.0000001192092896,
    0.9999999403953552
   ],
   "translation": [
    -1.30385160446167e-08,
    0.027127576991915703,
    2.514570951461792e-08
   ]
  },
  {
   "children": [
    15
   ],
   "name": "ring_02_l",
   "rotation": [
    0.12512251734733582,
    8.260376489488408e-07,
    -0.04683397710323334,
    0.9910353422164917
   ],
   "scale": [
    1,
    0.9999999403953552,
    0.9999999403953552
   ],
   "translation": [
    7.450580596923828e-09,
    0.030405884608626366,
    -5.774199962615967e-08
   ]
  },
  {
   "children": [
    16
   ],
   "name": "ring_01_l",
   "rotation": [
    -0.03600794076919556,
    0.7065655589103699,
    -0.023554200306534767,
    0.7063382863998413
   ],
   "scale": [
    0.9999998807907104,
    0.9999998211860657,
    0.9999998211860657
   ],
   "translation": [
    -0.0022219279780983925,
    0.12319976091384888,
    -0.023185059428215027
   ]
  },
  {
   "name": "thumb_04_leaf_l",
   "rotation": [
    -8.666064132967222e-08,
    0.5061784386634827,
    -6.911253649377613e-07,
    0.8624287843704224
   ],
   "scale": [
    0.9999999403953552,
    1,
    1
   ],
   "translation": [
    2.0489096641540527e-08,
    0.04086242616176605,
    3.026798367500305e-08
   ]
  },
  {
   "children": [
    18
   ],
   "name": "thumb_03_l",
   "rotation": [
    0.038206856697797775,
    6.0704936913680285e-05,
    -0.003949312027543783,
    0.9992620348930359
   ],
   "scale": [
    0.9999999403953552,
    1,
    1
   ],
   "translation": [
    8.009374141693115e-08,
    0.030296513810753822,
    5.960464477539063e-08
   ]
  },
  {
   "children": [
    19
   ],
   "name": "thumb_02_l",
   "rotation": [
    0.08123720437288284,
    -6.545388168888167e-05,
    0.03416353464126587,
    0.996109127998352
   ],
   "scale": [
    0.9999998807907104,
    0.9999998807907104,
    1
   ],
   "translation": [
    -2.0954757928848267e-08,
    0.06359592080116272,
    -4.0978193283081055e-08
   ]
  },
  {
   "children": [
    20
   ],
   "name": "thumb_01_l",
   "rotation": [
    0.19879724085330963,
    0.9399301409721375,
    0.26572659611701965,
    0.08000247925519943
   ],
   "scale": [
    1,
    1.0000004768371582,
    0.9999998807907104
   ],
   "translation": [
    0.014041760936379433,
    0.033058807253837585,
    0.02252725511789322
   ]
  },
  {
   "children": [
    5,
    9,
    13,
    17,
    21
   ],
   "name": "hand_l",
   "rotation": [
    -0.031026145443320274,
    -0.00039722936344332993,
    -0.04603857174515724,
    0.998457670211792
   ],
   "scale": [
    1,
    0.9999999403953552,
    0.9999999403953552
   ],
   "translation": [
    -1.2479722499847412e-07,
    0.2155425101518631,
    -2.60770320892334e-08
   ]
  },
  {
   "children": [
    22
   ],
   "name": "lowerarm_l",
   "rotation": [
    0.08169202506542206,
    -0.002163646975532174,
    0.12474946677684784,
    0.9888171553611755
   ],
   "scale": [
    0.9999999403953552,
    0.9999999403953552,
    0.9999998807907104
   ],
   "translation": [
    -7.776543498039246e-08,
    0.2526191771030426,
    7.450580596923828e-09
   ]
  },
  {
   "children": [
    23
   ],
   "name": "upperarm_l",
   "rotation": [
    -0.309012770652771,
    0.7203134298324585,
    -0.09680739045143127,
    0.613423228263855
   ],
   "scale": [
    0.9999998807907104,
    0.9999995827674866,
    0.9999998807907104
   ],
   "translation": [
    -3.0573573894798756e-08,
    0.16089306771755219,
    -5.3085386753082275e-08
   ]
  },
  {
   "children": [
    24
   ],
   "name": "clavicle_l",
   "rotation": [
    -0.5739023685455322,
    -0.43809181451797485,
    -0.555611789226532,
    0.4123193919658661
   ],
   "translation": [
    0.03674304485321045,
    0.20328763127326965,
    -0.020137686282396317
   ]
  },
  {
   "name": "index_04_leaf_r",
   "rotation": [
    7.450580596923828e-08,
    -1,
    -7.455236641362717e-07,
    3.772787522393628e-06
   ],
   "scale": [
    1,
    1,
    1.0000001192092896
   ],
   "translation": [
    -4.470348358154297e-08,
    0.030100125819444656,
    2.6542693376541138e-08
   ]
  },
  {
   "children": [
    26
   ],
   "name": "index_03_r",
   "rotation": [
    -0.04849317669868469,
    -5.970544236788555e-08,
    -0.03197126463055611,
    0.9983116984367371
   ],
   "translation": [
    -4.190951585769653e-09,
    0.025925416499376297,
    -4.2869942262768745e-08
   ]
  },
  {
   "children": [
    27
   ],
   "name": "index_02_r",
   "rotation": [
    0.053899090737104416,
    6.099721190366836e-07,
    0.0012244933750480413,
    0.9985456466674805
   ],
   "translation": [
    1.2398231774568558e-08,
    0.025076476857066154,
    -6.292248144745827e-08
   ]
  },
  {
   "children": [
    28
   ],
   "name": "index_01_r",
   "rotation": [
    0.01883687824010849,
    -0.7063117623329163,
    0.04360330104827881,
    0.7063056230545044
   ],
   "scale": [
    0.9999999403953552,
    1,
    1
   ],
   "translation": [
    -0.007182867266237736,
    0.13896213471889496,
    0.022565681487321854
   ]
  },
  {
   "name": "middle_04_leaf_r",
   "rotation": [
    1.0803342576082287e-07,
    -1,
    6.100162863731384e-08,
    3.6507842651190003e-06
   ],
   "scale": [
    1,
    0.9999999403953552,
    1.0000001192092896
   ],
   "translation": [
    -9.313225746154785e-09,
    0.034437306225299835,
    3.306195139884949e-08
   ]
  },
  {
   "children": [
    30
   ],
   "name": "middle_03_r",
   "rotation": [
    -0.01961713843047619,
    -2.2268040993367322e-05,
    0.01453420426696539,
    0.9997019171714783
   ],
   "scale": [
    0.9999999403953552,
    1,
    0.9999999403953552
   ],
   "translation": [
    -1.862645149230957e-09,
    0.0318969190120697,
    3.4924596548080444e-08
   ]
  },
  {
   "children": [
    31
   ],
   "name": "middle_02_r",
   "rotation": [
    0.012513923458755016,
    -1.849291038524825e-05,
    -0.014413032680749893,
    0.9998177886009216
   ],
   "scale": [
    1.0000001192092896,
    1,
    1.0000001192092896
   ],
   "translation": [
    -9.313225746154785e-09,
    0.02895512245595455,
    -1.4994293451309204e-07
   ]
  },
  {
   "children": [
    32
   ],
   "name": "middle_01_r",
   "rotation": [
    -0.0008581651491113007,
    -0.7037793397903442,
    0.08184970915317535,
    0.7056872844696045
   ],
   "scale": [
    0.9999999403953552,
    0.9999998211860657,
    0.9999999403953552
   ],
   "translation": [
    -8.66129994392395e-08,
    0.13515622913837433,
    1.862645149230957e-08
   ]
  },
  {
   "name": "pinky_04_leaf_r",
   "rotation": [
    9.313225746154785e-10,
    -1,
    -2.7008359992919395e-08,
    3.77558171749115e-06
   ],
   "scale": [
    1,
    0.9999997019767761,
    1
   ],
   "translation": [
    -4.842877388000488e-08,
    0.02816421166062355,
    7.450580596923828e-09
   ]
  },
  {
   "children": [
    34
   ],
   "name": "pinky_03_r",
   "rotation": [
    -0.04854918271303177,
    2.9768805688945577e-05,
    0.00458739697933197,
    0.9988102912902832
   ],
   "scale": [
    1,
    0.9999999403953552,
    0.9999998807907104
   ],
   "translation": [
    -1.1175870895385742e-08,
    0.020910026505589485,
    -6.798654794692993e-08
   ]
  },
  {
   "children": [
    35
   ],
   "name": "pinky_02_r",
   "rotation": [
    0.014203323051333427,
    1.1767256182793062e-05,
    0.02742159552872181,
    0.9995230436325073
   ],
   "scale": [
    1,
    0.9999999403953552,
    0.9999999403953552
   ],
   "translation": [
    9.313225746154785e-10,
    0.02278725430369377,
    2.421438694000244e-08
   ]
  },
  {
   "children": [
    36
   ],
   "name": "pinky_01_r",
   "rotation": [
    -0.028429139405488968,
    -0.6997609734535217,
    0.12398549169301987,
    0.7029609084129333
   ],
   "scale": [
    0.9999998807907104,
    0.9999998211860657,
    0.9999998807907104
   ],
   "translation": [
    0.0014907028526067734,
    0.12021058797836304,
    -0.04615413397550583
   ]
  },
  {
   "name": "ring_04_leaf_r",
   "rotation": [
    2.062879644881832e-07,
    -1,
    -7.338821887969971e-07,
    3.5339037367521087e-06
   ],
   "scale": [
    0.9999999403953552,
    1,
    1
   ],
   "translation": [
    3.725290298461914e-09,
    0.031822726130485535,
    -6.51925802230835e-09
   ]
  },
  {
   "children": [
    38
   ],
   "name": "ring_03_r",
   "rotation": [
    -0.01863565295934677,
    -1.9874332792824134e-05,
    -0.0043523130007088184,
    0.99981689453125
   ],
   "scale": [
    1,
    0.9999998807907104,
    0.9999999403953552
   ],
   "translation": [
    -1.1175870895385742e-08,
    0.027077876031398773,
    7.450580596923828e-08
   ]
  },
  {
   "children": [
    39
   ],
   "name": "ring_02_r",
   "rotation": [
    0.027483073994517326,
    -2.3664566128900333e-07,
    -0.00174393889028579,
    0.999620795249939
   ],
   "scale": [
    1,
    0.9999999403953552,
    1
   ],
   "translation": [
    -2.0489096641540527e-08,
    0.02871740236878395,
    6.984919309616089e-08
   ]
  },
  {
   "children": [
    40
   ],
   "name": "ring_01_r",
   "rotation": [
    -0.029861100018024445,
    -0.7029565572738647,
    0.09575458616018295,
    0.7041246891021729
   ],
   "scale": [
    0.9999999403953552,
    1,
    0.9999999403953552
   ],
   "translation": [
    0.001923925243318081,
    0.12688565254211426,
    -0.023495782166719437
   ]
  },
  {
   "name": "thumb_04_leaf_r",
   "rotation": [
    7.370201160483703e-08,
    -0.5061777830123901,
    -4.751484894427449e-08,
    0.862429141998291
   ],
   "translation": [
    2.60770320892334e-08,
    0.04086232930421829,
    -7.916241884231567e-08
   ]
  },
  {
   "children": [
    42
   ],
   "name": "thumb_03_r",
   "rotation": [
    0.010224630124866962,
    -9.307137952418998e-05,
    0.07255624979734421,
    0.9973118901252747
   ],
   "translation": [
    2.7939677238464355e-09,
    0.02526702545583248,
    -3.725290298461914e-08
   ]
  },
  {
   "children": [
    43
   ],
   "name": "thumb_02_r",
   "rotation": [
    0.05516009032726288,
    7.162708061514422e-05,
    0.005940041970461607,
    0.9984598755836487
   ],
   "scale": [
    1.0000001192092896,
    0.9999999403953552,
    0.9999999403953552
   ],
   "translation": [
    -1.0617077350616455e-07,
    0.07067813724279404,
    7.450580596923828e-09
   ]
  },
  {
   "children": [
    44
   ],
   "name": "thumb_01_r",
   "rotation": [
    0.2504635453224182,
    -0.9378892183303833,
    -0.23243092000484467,
    0.06006409227848053
   ],
   "scale": [
    0.9999999403953552,
    0.9999998807907104,
    1
   ],
   "translation": [
    -0.006966069340705872,
    0.0337512381374836,
    0.024693407118320465
   ]
  },
  {
   "children": [
    29,
    33,
    37,
    41,
    45
   ],
   "name": "hand_r",
   "rotation": [
    -0.02897755242884159,
    0.0004170025058556348,
    0.04835359379649162,
    0.9984097480773926
   ],
   "translation": [
    -2.4633482098579407e-07,
    0.21606512367725372,
    -5.21540641784668e-08
   ]
  },
  {
   "children": [
    46
   ],
   "name": "lowerarm_r",
   "rotation": [
    0.08376288414001465,
    0.002205439144745469,
    -0.12716363370418549,
    0.9883361458778381
   ],
   "scale": [
    1,
    1,
    1.0000001192092896
   ],
   "translation": [
    3.818422555923462e-08,
    0.25064903497695923,
    -3.725290298461914e-09
   ]
  },
  {
   "children": [
    47
   ],
   "name": "upperarm_r",
   "rotation": [
    -0.3119966387748718,
    -0.7200558185577393,
    0.09840615838766098,
    0.6119590997695923
   ],
   "scale": [
    0.9999999403953552,
    0.9999999403953552,
    1
   ],
   "translation": [
    1.2965756468474865e-08,
    0.1608930230140686,
    -5.21540641784668e-08
   ]
  },
  {
   "children": [
    48
   ],
   "name": "clavicle_r",
   "rotation": [
    -0.5739057064056396,
    0.43808916211128235,
    0.5556118488311768,
    0.41231730580329895
   ],
   "scale": [
    0.9999998807907104,
    0.9999998211860657,
    0.9999998807907104
   ],
   "translation": [
    -0.03674301505088806,
    0.20328809320926666,
    -0.020137496292591095
   ]
  },
  {
   "name": "breast_l",
   "rotation": [
    0.8276686072349548,
    -6.548595621325148e-08,
    5.933883784337013e-08,
    0.5612172484397888
   ],
   "scale": [
    1,
    0.9999999403953552,
    0.9999999403953552
   ],
   "translation": [
    0.09149465709924698,
    0.02670389972627163,
    0.07059912383556366
   ]
  },
  {
   "name": "breast_r",
   "rotation": [
    0.8276686668395996,
    -6.548590647525998e-08,
    5.933885560693852e-08,
    0.5612170696258545
   ],
   "scale": [
    1,
    0.9999999403953552,
    1
   ],
   "translation": [
    -0.08786919713020325,
    0.028753157705068588,
    0.07116828113794327
   ]
  },
  {
   "children": [
    1,
    25,
    49,
    50,
    51
   ],
   "name": "spine_03",
   "rotation": [
    -0.15560832619667053,
    -5.241359346541685e-09,
    -9.067619544111949e-09,
    0.9878188371658325
   ],
   "scale": [
    1,
    0.9999999403953552,
    1
   ],
   "translation": [
    -4.2782617726278005e-16,
    0.11817018687725067,
    -1.862645149230957e-09
   ]
  },
  {
   "children": [
    52
   ],
   "name": "spine_02",
   "rotation": [
    -0.018412182107567787,
    -6.344914282863101e-08,
    -3.766788658765563e-09,
    0.9998304843902588
   ],
   "translation": [
    -1.571225788365993e-15,
    0.04734303057193756,
    7.2177499532699585e-09
   ]
  },
  {
   "children": [
    53
   ],
   "name": "spine_01",
   "rotation": [
    -0.16446825861930847,
    1.1722862325314054e-07,
    -2.4440698354055712e-08,
    0.9863823652267456
   ],
   "translation": [
    1.24683249835833e-16,
    0.10225912183523178,
    1.1175870895385742e-08
   ]
  },
  {
   "name": "ball_leaf_l",
   "rotation": [
    -3.359400579938665e-08,
    -6.461050361394882e-08,
    4.6566128730773926e-09,
    1
   ],
   "translation": [
    -5.995389074087143e-09,
    0.07889994978904724,
    -4.394678398966789e-09
   ]
  },
  {
   "children": [
    55
   ],
   "name": "ball_l",
   "rotation": [
    0.017003396525979042,
    -0.9840686917304993,
    0.17689868807792664,
    0.005153439473360777
   ],
   "scale": [
    0.9999999403953552,
    0.9999993443489075,
    1
   ],
   "translation": [
    4.0745362639427185e-09,
    0.13257987797260284,
    4.190951585769653e-09
   ]
  },
  {
   "children": [
    56
   ],
   "name": "foot_l",
   "rotation": [
    -0.5259309411048889,
    -0.013976658694446087,
    -0.021548721939325333,
    0.8501393795013428
   ],
   "scale": [
    0.9999999403953552,
    0.9999998807907104,
    0.9999998807907104
   ],
   "translation": [
    9.677023626863956e-09,
    0.45252469182014465,
    4.132743924856186e-09
   ]
  },
  {
   "children": [
    57
   ],
   "name": "calf_l",
   "rotation": [
    0.038200005888938904,
    -0.00152471917681396,
    0.0380624383687973,
    0.9985437989234924
   ],
   "scale": [
    1,
    1.0000001192092896,
    1
   ],
   "translation": [
    -6.9776433520019054e-09,
    0.4935515522956848,
    8.675851859152317e-08
   ]
  },
  {
   "children": [
    58
   ],
   "name": "thigh_l",
   "rotation": [
    0.9831892251968384,
    0.02927211858332157,
    -0.0036092603113502264,
    0.18019181489944458
   ],
   "scale": [
    1,
    1,
    1.0000011920928955
   ],
   "translation": [
    0.07348603755235672,
    -0.030424252152442932,
    -0.013960655778646469
   ]
  },
  {
   "name": "ball_leaf_r",
   "rotation": [
    5.609308573184535e-08,
    -6.711343303322792e-08,
    -4.656612873077393e-10,
    1
   ],
   "translation": [
    -4.773028194904327e-09,
    0.07890014350414276,
    1.1059455573558807e-09
   ]
  },
  {
   "children": [
    60
   ],
   "name": "ball_r",
   "rotation": [
    0.017126688733696938,
    0.9840770363807678,
    -0.1768653392791748,
    0.004218255635350943
   ],
   "scale": [
    1,
    0.9999999403953552,
    0.9999998807907104
   ],
   "translation": [
    -5.704350769519806e-09,
    0.132900670170784,
    2.1187588572502136e-08
   ]
  },
  {
   "children": [
    61
   ],
   "name": "foot_r",
   "rotation": [
    -0.5289507508277893,
    0.013429847545921803,
    0.022409554570913315,
    0.8482503294944763
   ],
   "scale": [
    0.9999999403953552,
    0.9999999403953552,
    0.9999999403953552
   ],
   "translation": [
    6.170012056827545e-09,
    0.45272567868232727,
    1.5352270565927029e-09
   ]
  },
  {
   "children": [
    62
   ],
   "name": "calf_r",
   "rotation": [
    0.0408739298582077,
    0.0012973396806046367,
    -0.03902268037199974,
    0.9984011650085449
   ],
   "scale": [
    0.9999999403953552,
    0.9999999403953552,
    1
   ],
   "translation": [
    -7.254129741340876e-09,
    0.4935506582260132,
    9.569339454174042e-08
   ]
  },
  {
   "children": [
    63
   ],
   "name": "thigh_r",
   "rotation": [
    0.9831891655921936,
    -0.029272256419062614,
    0.0036091753281652927,
    0.18019215762615204
   ],
   "scale": [
    0.9999999403953552,
    0.9999998807907104,
    0.999998927116394
   ],
   "translation": [
    -0.07348602265119553,
    -0.030424252152442932,
    -0.013960659503936768
   ]
  },
  {
   "name": "glute_l",
   "rotation": [
    -0.8960705399513245,
    -2.7964134119429218e-08,
    -2.3932640758062007e-08,
    0.44391173124313354
   ],
   "scale": [
    1,
    0.9999999403953552,
    0.9999998807907104
   ],
   "translation": [
    0.08805271238088608,
    -0.08445273339748383,
    -0.03423186019062996
   ]
  },
  {
   "name": "glute_r",
   "rotation": [
    -0.8960707187652588,
    -2.7964123461288182e-08,
    -2.3932656745273562e-08,
    0.4439113140106201
   ],
   "scale": [
    1,
    1.0000001192092896,
    1.0000001192092896
   ],
   "translation": [
    -0.07445123046636581,
    -0.08491348475217819,
    -0.033823803067207336
   ]
  },
  {
   "children": [
    54,
    59,
    64,
    65,
    66
   ],
   "name": "pelvis",
   "rotation": [
    0.8221108913421631,
    8.480421698209284e-09,
    1.2252897363396187e-08,
    0.5693274140357971
   ],
   "scale": [
    1,
    0.9999999403953552,
    0.9999998807907104
   ],
   "translation": [
    2.2872988225675073e-12,
    4.172325134277344e-07,
    1.0722957849502563
   ]
  },
  {
   "children": [
    67
   ],
   "name": "root",
   "rotation": [
    -0.7071067690849304,
    0,
    0,
    0.7071067690849304
   ]
  },
  {
   "mesh": 0,
   "name": "hair_pixie",
   "skin": 0
  },
  {
   "children": [
    69,
    68
   ],
   "name": "Armature"
  }
 ],
 "materials": [
  {
   "alphaMode": "BLEND",
   "doubleSided": true,
   "name": "hair",
   "pbrMetallicRoughness": {
    "baseColorTexture": {
     "index": 0
    },
    "metallicFactor": 0,
    "roughnessFactor": 0.5
   }
  },
  {
   "alphaMode": "BLEND",
   "doubleSided": true,
   "name": "hair_cap",
   "pbrMetallicRoughness": {
    "baseColorTexture": {
     "index": 1
    },
    "metallicFactor": 0,
    "roughnessFactor": 0.5
   }
  },
  {
   "alphaMode": "BLEND",
   "doubleSided": true,
   "name": "hair_fine",
   "pbrMetallicRoughness": {
    "baseColorTexture": {
     "index": 2
    },
    "metallicFactor": 0,
    "roughnessFactor": 0.5
   }
  }
 ],
 "meshes": [
  {
   "extras": {
    "targetNames": [
     "forehead_height+",
     "forehead_height-",
     "forehead_slope+",
     "forehead_slope-",
     "forehead_round+",
     "forehead_round-",
     "temples+",
     "temples-",
     "brow_ridge+",
     "brow_ridge-",
     "face_width+",
     "face_width-",
     "face_shape+",
     "face_shape-",
     "brows_height+",
     "brows_height-",
     "brows_arch+",
     "brows_arch-",
     "jaw_width+",
     "jaw_width-",
     "chin_length+",
     "ears_size+",
     "ears_size-",
     "ears_pointed+",
     "ears_pointed-",
     "ears_out+",
     "ears_out-",
     "ears_lobes+",
     "ears_lobes-",
     "face_doe",
     "face_fey",
     "face_hardwon",
     "face_highborn",
     "face_moonlit",
     "face_saffron",
     "face_sunborn",
     "face_vixen",
     "face_wildling"
    ]
   },
   "name": "hair_pixie",
   "primitives": [
    {
     "attributes": {
      "POSITION": 0,
      "NORMAL": 1,
      "TEXCOORD_0": 2,
      "TEXCOORD_1": 3,
      "TANGENT": 4,
      "COLOR_0": 5,
      "JOINTS_0": 6,
      "WEIGHTS_0": 7
     },
     "indices": 8,
     "material": 0,
     "targets": [
      {
       "POSITION": 9
      },
      {
       "POSITION": 10
      },
      {
       "POSITION": 11
      },
      {
       "POSITION": 12
      },
      {
       "POSITION": 13
      },
      {
       "POSITION": 14
      },
      {
       "POSITION": 15
      },
      {
       "POSITION": 16
      },
      {
       "POSITION": 17
      },
      {
       "POSITION": 18
      },
      {
       "POSITION": 19
      },
      {
       "POSITION": 20
      },
      {
       "POSITION": 21
      },
      {
       "POSITION": 22
      },
      {
       "POSITION": 23
      },
      {
       "POSITION": 24
      },
      {
       "POSITION": 25
      },
      {
       "POSITION": 26
      },
      {
       "POSITION": 27
      },
      {
       "POSITION": 28
      },
      {
       "POSITION": 29
      },
      {
       "POSITION": 30
      },
      {
       "POSITION": 31
      },
      {
       "POSITION": 32
      },
      {
       "POSITION": 33
      },
      {
       "POSITION": 34
      },
      {
       "POSITION": 35
      },
      {
       "POSITION": 36
      },
      {
       "POSITION": 37
      },
      {
       "POSITION": 38
      },
      {
       "POSITION": 39
      },
      {
       "POSITION": 40
      },
      {
       "POSITION": 41
      },
      {
       "POSITION": 42
      },
      {
       "POSITION": 43
      },
      {
       "POSITION": 44
      },
      {
       "POSITION": 45
      },
      {
       "POSITION": 46
      }
     ]
    },
    {
     "attributes": {
      "POSITION": 47,
      "NORMAL": 48,
      "TEXCOORD_0": 49,
      "TEXCOORD_1": 50,
      "TANGENT": 51,
      "COLOR_0": 52,
      "JOINTS_0": 53,
      "WEIGHTS_0": 54
     },
     "indices": 55,
     "material": 1,
     "targets": [
      {
       "POSITION": 56
      },
      {
       "POSITION": 57
      },
      {
       "POSITION": 58
      },
      {
       "POSITION": 59
      },
      {
       "POSITION": 60
      },
      {
       "POSITION": 61
      },
      {
       "POSITION": 62
      },
      {
       "POSITION": 63
      },
      {
       "POSITION": 64
      },
      {
       "POSITION": 65
      },
      {
       "POSITION": 66
      },
      {
       "POSITION": 67
      },
      {
       "POSITION": 68
      },
      {
       "POSITION": 69
      },
      {
       "POSITION": 70
      },
      {
       "POSITION": 71
      },
      {
       "POSITION": 72
      },
      {
       "POSITION": 73
      },
      {
       "POSITION": 74
      },
      {
       "POSITION": 75
      },
      {
       "POSITION": 76
      },
      {
       "POSITION": 77
      },
      {
       "POSITION": 78
      },
      {
       "POSITION": 79
      },
      {
       "POSITION": 80
      },
      {
       "POSITION": 81
      },
      {
       "POSITION": 82
      },
      {
       "POSITION": 83
      },
      {
       "POSITION": 84
      },
      {
       "POSITION": 85
      },
      {
       "POSITION": 86
      },
      {
       "POSITION": 87
      },
      {
       "POSITION": 88
      },
      {
       "POSITION": 89
      },
      {
       "POSITION": 90
      },
      {
       "POSITION": 91
      },
      {
       "POSITION": 92
      },
      {
       "POSITION": 93
      }
     ]
    },
    {
     "attributes": {
      "POSITION": 94,
      "NORMAL": 95,
      "TEXCOORD_0": 96,
      "TEXCOORD_1": 97,
      "TANGENT": 98,
      "COLOR_0": 99,
      "JOINTS_0": 100,
      "WEIGHTS_0": 101
     },
     "indices": 102,
     "material": 2,
     "targets": [
      {
       "POSITION": 103
      },
      {
       "POSITION": 104
      },
      {
       "POSITION": 105
      },
      {
       "POSITION": 106
      },
      {
       "POSITION": 107
      },
      {
       "POSITION": 108
      },
      {
       "POSITION": 109
      },
      {
       "POSITION": 110
      },
      {
       "POSITION": 111
      },
      {
       "POSITION": 112
      },
      {
       "POSITION": 113
      },
      {
       "POSITION": 114
      },
      {
       "POSITION": 115
      },
      {
       "POSITION": 116
      },
      {
       "POSITION": 117
      },
      {
       "POSITION": 118
      },
      {
       "POSITION": 119
      },
      {
       "POSITION": 120
      },
      {
       "POSITION": 121
      },
      {
       "POSITION": 122
      },
      {
       "POSITION": 123
      },
      {
       "POSITION": 124
      },
      {
       "POSITION": 125
      },
      {
       "POSITION": 126
      },
      {
       "POSITION": 127
      },
      {
       "POSITION": 128
      },
      {
       "POSITION": 129
      },
      {
       "POSITION": 130
      },
      {
       "POSITION": 131
      },
      {
       "POSITION": 132
      },
      {
       "POSITION": 133
      },
      {
       "POSITION": 134
      },
      {
       "POSITION": 135
      },
      {
       "POSITION": 136
      },
      {
       "POSITION": 137
      },
      {
       "POSITION": 138
      },
      {
       "POSITION": 139
      },
      {
       "POSITION": 140
      }
     ]
    }
   ],
   "weights": [
    0,
    0,
    0,
    0,
    0,
    0,
    0,
    0,
    0,
    0,
    0,
    0,
    0,
    0,
    0,
    0,
    0,
    0,
    0,
    0,
    0,
    0,
    0,
    0,
    0,
    0,
    0,
    0,
    0,
    0,
    0,
    0,
    0,
    0,
    0,
    0,
    0,
    0
   ]
  }
 ],
 "textures": [
  {
   "sampler": 0,
   "source": 0
  },
  {
   "sampler": 0,
   "source": 1
  },
  {
   "sampler": 0,
   "source": 0
  }
 ],
 "images": [
  {
   "mimeType": "image/png",
   "name": "hair_strands",
   "uri": "head_tex/hair_strands.png"
  },
  {
   "mimeType": "image/png",
   "name": "hair_scalp",
   "uri": "head_tex/hair_scalp.png"
  }
 ],
 "skins": [
  {
   "inverseBindMatrices": 141,
   "joints": [
    68,
    67,
    54,
    53,
    52,
    1,
    0,
    25,
    24,
    23,
    22,
    5,
    4,
    3,
    2,
    9,
    8,
    7,
    6,
    13,
    12,
    11,
    10,
    17,
    16,
    15,
    14,
    21,
    20,
    19,
    18,
    49,
    48,
    47,
    46,
    29,
    28,
    27,
    26,
    33,
    32,
    31,
    30,
    37,
    36,
    35,
    34,
    41,
    40,
    39,
    38,
    45,
    44,
    43,
    42,
    50,
    51,
    59,
    58,
    57,
    56,
    55,
    64,
    63,
    62,
    61,
    60,
    65,
    66
   ],
   "name": "Armature"
  }
 ],
 "accessors": [
  {
   "bufferView": 0,
   "componentType": 5126,
   "count": 55296,
   "max": [
    0.08113616704940796,
    1.876499891281128,
    0.1063896045088768
   ],
   "min": [
    -0.0834074318408966,
    1.6457164287567139,
    -0.10066162794828415
   ],
   "type": "VEC3"
  },
  {
   "bufferView": 1,
   "componentType": 5126,
   "count": 55296,
   "type": "VEC3"
  },
  {
   "bufferView": 2,
   "componentType": 5126,
   "count": 55296,
   "type": "VEC2"
  },
  {
   "bufferView": 3,
   "componentType": 5126,
   "count": 55296,
   "type": "VEC2"
  },
  {
   "bufferView": 4,
   "componentType": 5126,
   "count": 55296,
   "type": "VEC4"
  },
  {
   "bufferView": 5,
   "componentType": 5123,
   "count": 55296,
   "normalized": true,
   "type": "VEC4"
  },
  {
   "bufferView": 6,
   "componentType": 5121,
   "count": 55296,
   "type": "VEC4"
  },
  {
   "bufferView": 7,
   "componentType": 5126,
   "count": 55296,
   "type": "VEC4"
  },
  {
   "bufferView": 8,
   "componentType": 5123,
   "count": 202752,
   "type": "SCALAR"
  },
  {
   "componentType": 5126,
   "count": 55296,
   "max": [
    1.866370439529419e-06,
    0.052043914794921875,
    0.003960659261792898
   ],
   "min": [
    -0.0006660891231149435,
    -0.00014579296112060547,
    -1.109391450881958e-05
   ],
   "sparse": {
    "count": 23760,
    "indices": {
     "bufferView": 9,
     "componentType": 5123
    },
    "values": {
     "bufferView": 10
    }
   },
   "type": "VEC3"
  },
  {
   "componentType": 5126,
   "count": 55296,
   "max": [
    0.00038317081634886563,
    0,
    0
   ],
   "min": [
    0,
    -0.029938459396362305,
    -0.0022783884778618813
   ],
   "sparse": {
    "count": 22944,
    "indices": {
     "bufferView": 11,
     "componentType": 5123
    },
    "values": {
     "bufferView": 12
    }
   },
   "type": "VEC3"
  },
  {
   "componentType": 5126,
   "count": 55296,
   "max": [
    0.0001299144933000207,
    0.0009616613388061523,
    0.015231087803840637
   ],
   "min": [
    0,
    -0.0009387731552124023,
    0
   ],
   "sparse": {
    "count": 19239,
    "indices": {
     "bufferView": 13,
     "componentType": 5123
    },
    "values": {
     "bufferView": 14
    }
   },
   "type": "VEC3"
  },
  {
   "componentType": 5126,
   "count": 55296,
   "max": [
    0,
    0.0023543834686279297,
    0
   ],
   "min": [
    -0.00017677343566901982,
    -0.0005190372467041016,
    -0.02384372428059578
   ],
   "sparse": {
    "count": 19215,
    "indices": {
     "bufferView": 15,
     "componentType": 5123
    },
    "values": {
     "bufferView": 16
    }
   },
   "type": "VEC3"
  },
  {
   "componentType": 5126,
   "count": 55296,
   "max": [
    0,
    0.060421109199523926,
    0
   ],
   "min": [
    -0.0013733884552493691,
    -0.00037980079650878906,
    -0.07399457693099976
   ],
   "sparse": {
    "count": 43560,
    "indices": {
     "bufferView": 17,
     "componentType": 5123
    },
    "values": {
     "bufferView": 18
    }
   },
   "type": "VEC3"
  },
  {
   "componentType": 5126,
   "count": 55296,
   "max": [
    0.0005545297171920538,
    0.0001342296600341797,
    0.02988908626139164
   ],
   "min": [
    0,
    -0.024389982223510742,
    0
   ],
   "sparse": {
    "count": 42153,
    "indices": {
     "bufferView": 19,
     "componentType": 5123
    },
    "values": {
     "bufferView": 20
    }
   },
   "type": "VEC3"
  },
  {
   "componentType": 5126,
   "count": 55296,
   "max": [
    0.006386555731296539,
    0.0002665519714355469,
    6.385520100593567e-05
   ],
   "min": [
    -0.006460756063461304,
    -2.4199485778808594e-05,
    -3.551691770553589e-05
   ],
   "sparse": {
    "count": 9744,
    "indices": {
     "bufferView": 21,
     "componentType": 5123
    },
    "values": {
     "bufferView": 22
    }
   },
   "type": "VEC3"
  },
  {
   "componentType": 5126,
   "count": 55296,
   "max": [
    0.007632903754711151,
    0.00010216236114501953,
    5.7812780141830444e-05
   ],
   "min": [
    -0.0075030140578746796,
    -0.00010037422180175781,
    -5.881115794181824e-05
   ],
   "sparse": {
    "count": 6645,
    "indices": {
     "bufferView": 23,
     "componentType": 5123
    },
    "values": {
     "bufferView": 24
    }
   },
   "type": "VEC3"
  },
  {
   "componentType": 5126,
   "count": 55296,
   "max": [
    2.269074320793152e-05,
    0.00048828125,
    0.003239959478378296
   ],
   "min": [
    -6.332993507385254e-08,
    -0.00013327598571777344,
    0
   ],
   "sparse": {
    "count": 1665,
    "indices": {
     "bufferView": 25,
     "componentType": 5123
    },
    "values": {
     "bufferView": 26
    }
   },
   "type": "VEC3"
  },
  {
   "componentType": 5126,
   "count": 55296,
   "max": [
    0,
    0.0006961822509765625,
    0
   ],
   "min": [
    -4.9054622650146484e-05,
    -0.0002497434616088867,
    -0.005885481834411621
   ],
   "sparse": {
    "count": 4086,
    "indices": {
     "bufferView": 27,
     "componentType": 5123
    },
    "values": {
     "bufferView": 28
    }
   },
   "type": "VEC3"
  },
  {
   "bufferView": 29,
   "componentType": 5126,
   "count": 55296,
   "max": [
    0.014034196734428406,
    0.00018787384033203125,
    0.00010941922664642334
   ],
   "min": [
    -0.014200747013092041,
    -0.0001900196075439453,
    -0.00010813679546117783
   ],
   "type": "VEC3"
  },
  {
   "bufferView": 30,
   "componentType": 5126,
   "count": 55296,
   "max": [
    0.014200747013092041,
    0.0001901388168334961,
    0.00010813586413860321
   ],
   "min": [
    -0.014034196734428406,
    -0.00018775463104248047,
    -0.00010941922664642334
   ],
   "type": "VEC3"
  },
  {
   "bufferView": 31,
   "componentType": 5126,
   "count": 55296,
   "max": [
    0.01316092163324356,
    0.012684226036071777,
    0.006156843155622482
   ],
   "min": [
    -0.013190411031246185,
    -0.0001575946807861328,
    -0.0052040740847587585
   ],
   "type": "VEC3"
  },
  {
   "componentType": 5126,
   "count": 55296,
   "max": [
    0.005041845142841339,
    6.747245788574219e-05,
    3.878399729728699e-05
   ],
   "min": [
    -0.005033358931541443,
    -6.73532485961914e-05,
    -3.884918987751007e-05
   ],
   "sparse": {
    "count": 16134,
    "indices": {
     "bufferView": 32,
     "componentType": 5123
    },
    "values": {
     "bufferView": 33
    }
   },
   "type": "VEC3"
  },
  {
   "componentType": 5126,
   "count": 55296,
   "max": [
    0.0010831132531166077,
    0.011124968528747559,
    0.0008523538708686829
   ],
   "min": [
    -0.0013727899640798569,
    0,
    0
   ],
   "sparse": {
    "count": 9804,
    "indices": {
     "bufferView": 34,
     "componentType": 5123
    },
    "values": {
     "bufferView": 35
    }
   },
   "type": "VEC3"
  },
  {
   "componentType": 5126,
   "count": 55296,
   "max": [
    7.041916251182556e-05,
    0,
    0
   ],
   "min": [
    0,
    -0.005501985549926758,
    -0.0004187077283859253
   ],
   "sparse": {
    "count": 2346,
    "indices": {
     "bufferView": 36,
     "componentType": 5123
    },
    "values": {
     "bufferView": 37
    }
   },
   "type": "VEC3"
  },
  {
   "componentType": 5126,
   "count": 55296,
   "max": [
    7.202103734016418e-05,
    0,
    0
   ],
   "min": [
    -9.041279554367065e-05,
    -0.0005375146865844727,
    -4.0061771869659424e-05
   ],
   "sparse": {
    "count": 63,
    "indices": {
     "bufferView": 38,
     "componentType": 5123
    },
    "values": {
     "bufferView": 39
    }
   },
   "type": "VEC3"
  },
  {
   "componentType": 5126,
   "count": 55296,
   "max": [
    0.0005481690168380737,
    0.004612326622009277,
    0.0003469511866569519
   ],
   "min": [
    -0.0006602145731449127,
    0,
    0
   ],
   "sparse": {
    "count": 3624,
    "indices": {
     "bufferView": 40,
     "componentType": 5123
    },
    "values": {
     "bufferView": 41
    }
   },
   "type": "VEC3"
  },
  {
   "componentType": 5126,
   "count": 55296,
   "max": [
    1.5877187252044678e-05,
    0,
    0
   ],
   "min": [
    -4.470348358154297e-08,
    -0.002562284469604492,
    -0.0018586739897727966
   ],
   "sparse": {
    "count": 1014,
    "indices": {
     "bufferView": 42,
     "componentType": 5123
    },
    "values": {
     "bufferView": 43
    }
   },
   "type": "VEC3"
  },
  {
   "componentType": 5126,
   "count": 55296,
   "max": [
    0.0024181976914405823,
    0.0002516508102416992,
    0.0002871975302696228
   ],
   "min": [
    -0.002048168331384659,
    -2.384185791015625e-06,
    -0.0007910523563623428
   ],
   "sparse": {
    "count": 1164,
    "indices": {
     "bufferView": 44,
     "componentType": 5123
    },
    "values": {
     "bufferView": 45
    }
   },
   "type": "VEC3"
  },
  {
   "componentType": 5126,
   "count": 55296,
   "max": [
    0.00013449788093566895,
    0,
    0
   ],
   "min": [
    0,
    -0.011348485946655273,
    -0.002258243039250374
   ],
   "sparse": {
    "count": 1272,
    "indices": {
     "bufferView": 46,
     "componentType": 5123
    },
    "values": {
     "bufferView": 47
    }
   },
   "type": "VEC3"
  },
  {
   "componentType": 5126,
   "count": 55296,
   "max": [
    0.0051909685134887695,
    0.010438203811645508,
    0.00775415264070034
   ],
   "min": [
    -0.005148772150278091,
    -0.00775301456451416,
    -0.0059950090944767
   ],
   "sparse": {
    "count": 20133,
    "indices": {
     "bufferView": 48,
     "componentType": 5123
    },
    "values": {
     "bufferView": 49
    }
   },
   "type": "VEC3"
  },
  {
   "componentType": 5126,
   "count": 55296,
   "max": [
    0.005158700048923492,
    0.0077321529388427734,
    0.005885293707251549
   ],
   "min": [
    -0.005240965634584427,
    -0.010028362274169922,
    -0.007354920729994774
   ],
   "sparse": {
    "count": 19383,
    "indices": {
     "bufferView": 50,
     "componentType": 5123
    },
    "values": {
     "bufferView": 51
    }
   },
   "type": "VEC3"
  },
  {
   "componentType": 5126,
   "count": 55296,
   "max": [
    0,
    0.016525745391845703,
    0
   ],
   "min": [
    -0.00031094253063201904,
    0,
    -0.0116472989320755
   ],
   "sparse": {
    "count": 762,
    "indices": {
     "bufferView": 52,
     "componentType": 5123
    },
    "values": {
     "bufferView": 53
    }
   },
   "type": "VEC3"
  },
  {
   "componentType": 5126,
   "count": 55296,
   "max": [
    8.210539817810059e-05,
    0.0013254880905151367,
    0.008467791602015495
   ],
   "min": [
    -3.501027822494507e-05,
    -0.0015543699264526367,
    -0.003596944734454155
   ],
   "sparse": {
    "count": 4341,
    "indices": {
     "bufferView": 54,
     "componentType": 5123
    },
    "values": {
     "bufferView": 55
    }
   },
   "type": "VEC3"
  },
  {
   "componentType": 5126,
   "count": 55296,
   "max": [
    0.008365482091903687,
    0.0006537437438964844,
    0.007881415076553822
   ],
   "min": [
    -0.00898769497871399,
    -0.0007147789001464844,
    -0.0014808475971221924
   ],
   "sparse": {
    "count": 3891,
    "indices": {
     "bufferView": 56,
     "componentType": 5123
    },
    "values": {
     "bufferView": 57
    }
   },
   "type": "VEC3"
  },
  {
   "componentType": 5126,
   "count": 55296,
   "max": [
    0.004862740635871887,
    0.00013577938079833984,
    0.0013960693031549454
   ],
   "min": [
    -0.00416439026594162,
    -0.0001437664031982422,
    -0.0009661801159381866
   ],
   "sparse": {
    "count": 1842,
    "indices": {
     "bufferView": 58,
     "componentType": 5123
    },
    "values": {
     "bufferView": 59
    }
   },
   "type": "VEC3"
  },
  {
   "componentType": 5126,
   "count": 55296,
   "max": [
    0,
    0,
    0
   ],
   "min": [
    0,
    0,
    0
   ],
   "sparse": {
    "count": 1,
    "indices": {
     "bufferView": 60,
     "componentType": 5121
    },
    "values": {
     "bufferView": 61
    }
   },
   "type": "VEC3"
  },
  {
   "componentType": 5126,
   "count": 55296,
   "max": [
    0,
    0,
    0
   ],
   "min": [
    0,
    0,
    0
   ],
   "sparse": {
    "count": 1,
    "indices": {
     "bufferView": 62,
     "componentType": 5121
    },
    "values": {
     "bufferView": 63
    }
   },
   "type": "VEC3"
  },
  {
   "componentType": 5126,
   "count": 55296,
   "max": [
    0.003349974751472473,
    7.748603820800781e-05,
    0.0006791059859097004
   ],
   "min": [
    -0.003283020108938217,
    -0.0072803497314453125,
    -0.005098573863506317
   ],
   "sparse": {
    "count": 47370,
    "indices": {
     "bufferView": 64,
     "componentType": 5123
    },
    "values": {
     "bufferView": 65
    }
   },
   "type": "VEC3"
  },
  {
   "bufferView": 66,
   "componentType": 5126,
   "count": 55296,
   "max": [
    0.004650156944990158,
    0.0023572444915771484,
    0.0013673603534698486
   ],
   "min": [
    -0.004637662321329117,
    -0.005350708961486816,
    -0.00685323029756546
   ],
   "type": "VEC3"
  },
  {
   "componentType": 5126,
   "count": 55296,
   "max": [
    0.0030891671776771545,
    5.5670738220214844e-05,
    0.003391057252883911
   ],
   "min": [
    -0.003076113760471344,
    -0.003125905990600586,
    -0.0028235912322998047
   ],
   "sparse": {
    "count": 46902,
    "indices": {
     "bufferView": 67,
     "componentType": 5123
    },
    "values": {
     "bufferView": 68
    }
   },
   "type": "VEC3"
  },
  {
   "componentType": 5126,
   "count": 55296,
   "max": [
    0.00510985404253006,
    0.002797722816467285,
    0.0029480382800102234
   ],
   "min": [
    -0.005011860281229019,
    -0.004532456398010254,
    -0.00537225604057312
   ],
   "sparse": {
    "count": 47340,
    "indices": {
     "bufferView": 69,
     "componentType": 5123
    },
    "values": {
     "bufferView": 70
    }
   },
   "type": "VEC3"
  },
  {
   "bufferView": 71,
   "componentType": 5126,
   "count": 55296,
   "max": [
    0.0056916214525699615,
    0.00018680095672607422,
    0.0028653889894485474
   ],
   "min": [
    -0.005558077245950699,
    -0.009336709976196289,
    -0.009959354996681213
   ],
   "type": "VEC3"
  },
  {
   "componentType": 5126,
   "count": 55296,
   "max": [
    0.006757259368896484,
    0.00022137165069580078,
    0.009521760046482086
   ],
   "min": [
    -0.006180919706821442,
    -0.0076904296875,
    -0.0024609267711639404
   ],
   "sparse": {
    "count": 46794,
    "indices": {
     "bufferView": 72,
     "componentType": 5123
    },
    "values": {
     "bufferView": 73
    }
   },
   "type": "VEC3"
  },
  {
   "bufferView": 74,
   "componentType": 5126,
   "count": 55296,
   "max": [
    0.007587838917970657,
    0.002753019332885742,
    0.03608742728829384
   ],
   "min": [
    -0.0072997137904167175,
    -0.010608553886413574,
    -0.0008296668529510498
   ],
   "type": "VEC3"
  },
  {
   "bufferView": 75,
   "componentType": 5126,
   "count": 55296,
   "max": [
    0.01372632198035717,
    0.0002218484878540039,
    0.005176406353712082
   ],
   "min": [
    -0.013667993247509003,
    -0.011218667030334473,
    -0.004558898508548737
   ],
   "type": "VEC3"
  },
  {
   "componentType": 5126,
   "count": 55296,
   "max": [
    0.002558574080467224,
    0.005682587623596191,
    0.0005449838936328888
   ],
   "min": [
    -0.002598702907562256,
    -0.0038400888442993164,
    -0.006719805300235748
   ],
   "sparse": {
    "count": 46647,
    "indices": {
     "bufferView": 76,
     "componentType": 5123
    },
    "values": {
     "bufferView": 77
    }
   },
   "type": "VEC3"
  },
  {
   "bufferView": 78,
   "componentType": 5126,
   "count": 2131,
   "max": [
    0.07181835174560547,
    1.8656049966812134,
    0.0990196019411087
   ],
   "min": [
    -0.07022389769554138,
    1.6596177816390991,
    -0.09132831543684006
   ],
   "type": "VEC3"
  },
  {
   "bufferView": 79,
   "componentType": 5126,
   "count": 2131,
   "type": "VEC3"
  },
  {
   "bufferView": 80,
   "componentType": 5126,
   "count": 2131,
   "type": "VEC2"
  },
  {
   "bufferView": 81,
   "componentType": 5126,
   "count": 2131,
   "type": "VEC2"
  },
  {
   "bufferView": 82,
   "componentType": 5126,
   "count": 2131,
   "type": "VEC4"
  },
  {
   "bufferView": 83,
   "componentType": 5123,
   "count": 2131,
   "normalized": true,
   "type": "VEC4"
  },
  {
   "bufferView": 84,
   "componentType": 5121,
   "count": 2131,
   "type": "VEC4"
  },
  {
   "bufferView": 85,
   "componentType": 5126,
   "count": 2131,
   "type": "VEC4"
  },
  {
   "bufferView": 86,
   "componentType": 5123,
   "count": 11025,
   "type": "SCALAR"
  },
  {
   "componentType": 5126,
   "count": 2131,
   "max": [
    0,
    0.05214130878448486,
    0.003968070261180401
   ],
   "min": [
    -0.0006673353491351008,
    0,
    0
   ],
   "sparse": {
    "count": 756,
    "indices": {
     "bufferView": 87,
     "componentType": 5123
    },
    "values": {
     "bufferView": 88
    }
   },
   "type": "VEC3"
  },
  {
   "componentType": 5126,
   "count": 2131,
   "max": [
    0.00038402300560846925,
    0,
    0
   ],
   "min": [
    0,
    -0.03000509738922119,
    -0.002283455803990364
   ],
   "sparse": {
    "count": 738,
    "indices": {
     "bufferView": 89,
     "componentType": 5123
    },
    "values": {
     "bufferView": 90
    }
   },
   "type": "VEC3"
  },
  {
   "componentType": 5126,
   "count": 2131,
   "max": [
    0.0001299317373195663,
    0.000966191291809082,
    0.01523011177778244
   ],
   "min": [
    0,
    -0.0009398460388183594,
    0
   ],
   "sparse": {
    "count": 754,
    "indices": {
     "bufferView": 91,
     "componentType": 5123
    },
    "values": {
     "bufferView": 92
    }
   },
   "type": "VEC3"
  },
  {
   "componentType": 5126,
   "count": 2131,
   "max": [
    0,
    0.0023429393768310547,
    0
   ],
   "min": [
    -0.0001771279494278133,
    -0.0005201101303100586,
    -0.023868363350629807
   ],
   "sparse": {
    "count": 702,
    "indices": {
     "bufferView": 93,
     "componentType": 5123
    },
    "values": {
     "bufferView": 94
    }
   },
   "type": "VEC3"
  },
  {
   "componentType": 5126,
   "count": 2131,
   "max": [
    0,
    0.06053924560546875,
    0
   ],
   "min": [
    -0.0013749325880780816,
    -0.00030100345611572266,
    -0.07415585964918137
   ],
   "sparse": {
    "count": 1263,
    "indices": {
     "bufferView": 95,
     "componentType": 5123
    },
    "values": {
     "bufferView": 96
    }
   },
   "type": "VEC3"
  },
  {
   "componentType": 5126,
   "count": 2131,
   "max": [
    0.0005551459034904838,
    0.00010013580322265625,
    0.029952235519886017
   ],
   "min": [
    0,
    -0.02443695068359375,
    0
   ],
   "sparse": {
    "count": 1196,
    "indices": {
     "bufferView": 97,
     "componentType": 5123
    },
    "values": {
     "bufferView": 98
    }
   },
   "type": "VEC3"
  },
  {
   "componentType": 5126,
   "count": 2131,
   "max": [
    0.006477370858192444,
    0.00027239322662353516,
    6.405636668205261e-05
   ],
   "min": [
    -0.006482124328613281,
    -2.396106719970703e-05,
    -3.5800039768218994e-05
   ],
   "sparse": {
    "count": 432,
    "indices": {
     "bufferView": 99,
     "componentType": 5123
    },
    "values": {
     "bufferView": 100
    }
   },
   "type": "VEC3"
  },
  {
   "componentType": 5126,
   "count": 2131,
   "max": [
    0.007670942693948746,
    0.00010263919830322266,
    5.910545587539673e-05
   ],
   "min": [
    -0.007670946419239044,
    -0.00010263919830322266,
    -5.910545587539673e-05
   ],
   "sparse": {
    "count": 317,
    "indices": {
     "bufferView": 101,
     "componentType": 5123
    },
    "values": {
     "bufferView": 102
    }
   },
   "type": "VEC3"
  },
  {
   "componentType": 5126,
   "count": 2131,
   "max": [
    3.729015588760376e-05,
    0.0005072355270385742,
    0.004349350929260254
   ],
   "min": [
    0,
    -0.0002485513687133789,
    0
   ],
   "sparse": {
    "count": 146,
    "indices": {
     "bufferView": 103,
     "componentType": 5123
    },
    "values": {
     "bufferView": 104
    }
   },
   "type": "VEC3"
  },
  {
   "componentType": 5126,
   "count": 2131,
   "max": [
    0,
    0.0007328987121582031,
    0
   ],
   "min": [
    -5.294010043144226e-05,
    -0.0003151893615722656,
    -0.006678842008113861
   ],
   "sparse": {
    "count": 239,
    "indices": {
     "bufferView": 105,
     "componentType": 5123
    },
    "values": {
     "bufferView": 106
    }
   },
   "type": "VEC3"
  },
  {
   "bufferView": 107,
   "componentType": 5126,
   "count": 2131,
   "max": [
    0.012542404234409332,
    0.0001678466796875,
    9.664171375334263e-05
   ],
   "min": [
    -0.012542404234409332,
    -0.00016796588897705078,
    -9.664171375334263e-05
   ],
   "type": "VEC3"
  },
  {
   "bufferView": 108,
   "componentType": 5126,
   "count": 2131,
   "max": [
    0.012542400509119034,
    0.0001678466796875,
    9.664171375334263e-05
   ],
   "min": [
    -0.012542404234409332,
    -0.0001678466796875,
    -9.664171375334263e-05
   ],
   "type": "VEC3"
  },
  {
   "bufferView": 109,
   "componentType": 5126,
   "count": 2131,
   "max": [
    0.013155005872249603,
    0.012707829475402832,
    0.006138011813163757
   ],
   "min": [
    -0.013209737837314606,
    -0.00015819072723388672,
    -0.005192536860704422
   ],
   "type": "VEC3"
  },
  {
   "componentType": 5126,
   "count": 2131,
   "max": [
    0.005048617720603943,
    6.759166717529297e-05,
    3.890041261911392e-05
   ],
   "min": [
    -0.00504862517118454,
    -6.759166717529297e-05,
    -3.890041261911392e-05
   ],
   "sparse": {
    "count": 761,
    "indices": {
     "bufferView": 110,
     "componentType": 5123
    },
    "values": {
     "bufferView": 111
    }
   },
   "type": "VEC3"
  },
  {
   "componentType": 5126,
   "count": 2131,
   "max": [
    0.00108999852091074,
    0.011139392852783203,
    0.0008548647165298462
   ],
   "min": [
    -0.0013729799538850784,
    0,
    0
   ],
   "sparse": {
    "count": 438,
    "indices": {
     "bufferView": 112,
     "componentType": 5123
    },
    "values": {
     "bufferView": 113
    }
   },
   "type": "VEC3"
  },
  {
   "componentType": 5126,
   "count": 2131,
   "max": [
    8.889473974704742e-05,
    0,
    0
   ],
   "min": [
    0,
    -0.0069457292556762695,
    -0.000528581440448761
   ],
   "sparse": {
    "count": 156,
    "indices": {
     "bufferView": 114,
     "componentType": 5123
    },
    "values": {
     "bufferView": 115
    }
   },
   "type": "VEC3"
  },
  {
   "componentType": 5126,
   "count": 2131,
   "max": [
    0.0002361796796321869,
    0,
    0
   ],
   "min": [
    -0.00020692124962806702,
    -0.001146078109741211,
    -8.869916200637817e-05
   ],
   "sparse": {
    "count": 32,
    "indices": {
     "bufferView": 116,
     "componentType": 5123
    },
    "values": {
     "bufferView": 117
    }
   },
   "type": "VEC3"
  },
  {
   "componentType": 5126,
   "count": 2131,
   "max": [
    0.0005872920155525208,
    0.005809426307678223,
    0.0004400089383125305
   ],
   "min": [
    -0.0006795823574066162,
    -0.0001844167709350586,
    -1.4007091522216797e-05
   ],
   "sparse": {
    "count": 194,
    "indices": {
     "bufferView": 118,
     "componentType": 5123
    },
    "values": {
     "bufferView": 119
    }
   },
   "type": "VEC3"
  },
  {
   "componentType": 5126,
   "count": 2131,
   "max": [
    0.0002604164183139801,
    0,
    0
   ],
   "min": [
    -1.8749386072158813e-05,
    -0.009257912635803223,
    -0.003724629059433937
   ],
   "sparse": {
    "count": 238,
    "indices": {
     "bufferView": 120,
     "componentType": 5123
    },
    "values": {
     "bufferView": 121
    }
   },
   "type": "VEC3"
  },
  {
   "componentType": 5126,
   "count": 2131,
   "max": [
    0.0032892636954784393,
    0.0008060932159423828,
    0.00034233182668685913
   ],
   "min": [
    -0.0033616460859775543,
    -1.0728836059570312e-06,
    -0.0034530088305473328
   ],
   "sparse": {
    "count": 81,
    "indices": {
     "bufferView": 122,
     "componentType": 5123
    },
    "values": {
     "bufferView": 123
    }
   },
   "type": "VEC3"
  },
  {
   "componentType": 5126,
   "count": 2131,
   "max": [
    0.00021898001432418823,
    0,
    0
   ],
   "min": [
    0,
    -0.018167734146118164,
    -0.0031397584825754166
   ],
   "sparse": {
    "count": 72,
    "indices": {
     "bufferView": 124,
     "componentType": 5123
    },
    "values": {
     "bufferView": 125
    }
   },
   "type": "VEC3"
  },
  {
   "componentType": 5126,
   "count": 2131,
   "max": [
    0.005460649728775024,
    0.010406732559204102,
    0.00861000269651413
   ],
   "min": [
    -0.005271840840578079,
    -0.009684324264526367,
    -0.006111755967140198
   ],
   "sparse": {
    "count": 903,
    "indices": {
     "bufferView": 126,
     "componentType": 5123
    },
    "values": {
     "bufferView": 127
    }
   },
   "type": "VEC3"
  },
  {
   "componentType": 5126,
   "count": 2131,
   "max": [
    0.0052374862134456635,
    0.009367823600769043,
    0.0060508884489536285
   ],
   "min": [
    -0.005421403795480728,
    -0.009973645210266113,
    -0.00829085148870945
   ],
   "sparse": {
    "count": 883,
    "indices": {
     "bufferView": 128,
     "componentType": 5123
    },
    "values": {
     "bufferView": 129
    }
   },
   "type": "VEC3"
  },
  {
   "componentType": 5126,
   "count": 2131,
   "max": [
    0,
    0,
    0
   ],
   "min": [
    0,
    0,
    0
   ],
   "sparse": {
    "count": 1,
    "indices": {
     "bufferView": 130,
     "componentType": 5121
    },
    "values": {
     "bufferView": 131
    }
   },
   "type": "VEC3"
  },
  {
   "componentType": 5126,
   "count": 2131,
   "max": [
    8.37668776512146e-05,
    0.0008220672607421875,
    0.008711479604244232
   ],
   "min": [
    -9.067356586456299e-06,
    -0.001661062240600586,
    -0.00042508356273174286
   ],
   "sparse": {
    "count": 387,
    "indices": {
     "bufferView": 132,
     "componentType": 5123
    },
    "values": {
     "bufferView": 133
    }
   },
   "type": "VEC3"
  },
  {
   "componentType": 5126,
   "count": 2131,
   "max": [
    0.0003437325358390808,
    0.0002657175064086914,
    0
   ],
   "min": [
    -0.00034680217504501343,
    -0.00011157989501953125,
    -0.00044266413897275925
   ],
   "sparse": {
    "count": 101,
    "indices": {
     "bufferView": 134,
     "componentType": 5123
    },
    "values": {
     "bufferView": 135
    }
   },
   "type": "VEC3"
  },
  {
   "componentType": 5126,
   "count": 2131,
   "max": [
    0.00026863813400268555,
    0,
    9.505264461040497e-05
   ],
   "min": [
    -0.0002675652503967285,
    -9.5367431640625e-06,
    0
   ],
   "sparse": {
    "count": 17,
    "indices": {
     "bufferView": 136,
     "componentType": 5123
    },
    "values": {
     "bufferView": 137
    }
   },
   "type": "VEC3"
  },
  {
   "componentType": 5126,
   "count": 2131,
   "max": [
    0,
    0,
    0
   ],
   "min": [
    0,
    0,
    0
   ],
   "sparse": {
    "count": 1,
    "indices": {
     "bufferView": 138,
     "componentType": 5121
    },
    "values": {
     "bufferView": 139
    }
   },
   "type": "VEC3"
  },
  {
   "componentType": 5126,
   "count": 2131,
   "max": [
    0,
    0.0005846023559570312,
    0
   ],
   "min": [
    -1.0862946510314941e-05,
    0,
    -0.00039411638863384724
   ],
   "sparse": {
    "count": 10,
    "indices": {
     "bufferView": 140,
     "componentType": 5123
    },
    "values": {
     "bufferView": 141
    }
   },
   "type": "VEC3"
  },
  {
   "componentType": 5126,
   "count": 2131,
   "max": [
    0.0033485665917396545,
    4.494190216064453e-05,
    0.0005725463852286339
   ],
   "min": [
    -0.0032897330820560455,
    -0.00730288028717041,
    -0.005073472857475281
   ],
   "sparse": {
    "count": 1794,
    "indices": {
     "bufferView": 142,
     "componentType": 5123
    },
    "values": {
     "bufferView": 143
    }
   },
   "type": "VEC3"
  },
  {
   "bufferView": 144,
   "componentType": 5126,
   "count": 2131,
   "max": [
    0.004682067781686783,
    0.0024341344833374023,
    0.001511886715888977
   ],
   "min": [
    -0.004699762910604477,
    -0.0053424835205078125,
    -0.00689166784286499
   ],
   "type": "VEC3"
  },
  {
   "componentType": 5126,
   "count": 2131,
   "max": [
    0.003191418945789337,
    0.00046634674072265625,
    0.0033806562423706055
   ],
   "min": [
    -0.003134585916996002,
    -0.0032750368118286133,
    -0.002816498279571533
   ],
   "sparse": {
    "count": 1682,
    "indices": {
     "bufferView": 145,
     "componentType": 5123
    },
    "values": {
     "bufferView": 146
    }
   },
   "type": "VEC3"
  },
  {
   "componentType": 5126,
   "count": 2131,
   "max": [
    0.005799472332000732,
    0.0029107332229614258,
    0.0030001848936080933
   ],
   "min": [
    -0.005818042904138565,
    -0.004571795463562012,
    -0.0053732916712760925
   ],
   "sparse": {
    "count": 1721,
    "indices": {
     "bufferView": 147,
     "componentType": 5123
    },
    "values": {
     "bufferView": 148
    }
   },
   "type": "VEC3"
  },
  {
   "componentType": 5126,
   "count": 2131,
   "max": [
    0.005917444825172424,
    5.328655242919922e-05,
    0.0028954148292541504
   ],
   "min": [
    -0.005886208266019821,
    -0.009334087371826172,
    -0.009983591735363007
   ],
   "sparse": {
    "count": 1746,
    "indices": {
     "bufferView": 149,
     "componentType": 5123
    },
    "values": {
     "bufferView": 150
    }
   },
   "type": "VEC3"
  },
  {
   "componentType": 5126,
   "count": 2131,
   "max": [
    0.00680779293179512,
    0.00021708011627197266,
    0.009546570479869843
   ],
   "min": [
    -0.007088426500558853,
    -0.0077092647552490234,
    -0.0026722997426986694
   ],
   "sparse": {
    "count": 1725,
    "indices": {
     "bufferView": 151,
     "componentType": 5123
    },
    "values": {
     "bufferView": 152
    }
   },
   "type": "VEC3"
  },
  {
   "bufferView": 153,
   "componentType": 5126,
   "count": 2131,
   "max": [
    0.007592402398586273,
    0.002800464630126953,
    0.03603170067071915
   ],
   "min": [
    -0.007309570908546448,
    -0.010634779930114746,
    -0.0009316876530647278
   ],
   "type": "VEC3"
  },
  {
   "componentType": 5126,
   "count": 2131,
   "max": [
    0.013800309970974922,
    0.00010180473327636719,
    0.005158385261893272
   ],
   "min": [
    -0.013739269226789474,
    -0.011220812797546387,
    -0.004593096673488617
   ],
   "sparse": {
    "count": 1769,
    "indices": {
     "bufferView": 154,
     "componentType": 5123
    },
    "values": {
     "bufferView": 155
    }
   },
   "type": "VEC3"
  },
  {
   "componentType": 5126,
   "count": 2131,
   "max": [
    0.0027409419417381287,
    0.005712747573852539,
    0.0012228935956954956
   ],
   "min": [
    -0.003301341086626053,
    -0.004041075706481934,
    -0.0067823901772499084
   ],
   "sparse": {
    "count": 1650,
    "indices": {
     "bufferView": 156,
     "componentType": 5123
    },
    "values": {
     "bufferView": 157
    }
   },
   "type": "VEC3"
  },
  {
   "bufferView": 158,
   "componentType": 5126,
   "count": 12578,
   "max": [
    0.0772010087966919,
    1.8409960269927979,
    0.09763658791780472
   ],
   "min": [
    -0.07484006881713867,
    1.6531697511672974,
    -0.07874064892530441
   ],
   "type": "VEC3"
  },
  {
   "bufferView": 159,
   "componentType": 5126,
   "count": 12578,
   "type": "VEC3"
  },
  {
   "bufferView": 160,
   "componentType": 5126,
   "count": 12578,
   "type": "VEC2"
  },
  {
   "bufferView": 161,
   "componentType": 5126,
   "count": 12578,
   "type": "VEC2"
  },
  {
   "bufferView": 162,
   "componentType": 5126,
   "count": 12578,
   "type": "VEC4"
  },
  {
   "bufferView": 163,
   "componentType": 5123,
   "count": 12578,
   "normalized": true,
   "type": "VEC4"
  },
  {
   "bufferView": 164,
   "componentType": 5121,
   "count": 12578,
   "type": "VEC4"
  },
  {
   "bufferView": 165,
   "componentType": 5126,
   "count": 12578,
   "type": "VEC4"
  },
  {
   "bufferView": 166,
   "componentType": 5123,
   "count": 40248,
   "type": "SCALAR"
  },
  {
   "componentType": 5126,
   "count": 12578,
   "max": [
    0,
    0.02438664436340332,
    0.0018558800220489502
   ],
   "min": [
    -0.00031211506575345993,
    0,
    0
   ],
   "sparse": {
    "count": 4253,
    "indices": {
     "bufferView": 167,
     "componentType": 5123
    },
    "values": {
     "bufferView": 168
    }
   },
   "type": "VEC3"
  },
  {
   "componentType": 5126,
   "count": 12578,
   "max": [
    0.0001792358234524727,
    0,
    0
   ],
   "min": [
    0,
    -0.014004349708557129,
    -0.001065760850906372
   ],
   "sparse": {
    "count": 3874,
    "indices": {
     "bufferView": 169,
     "componentType": 5123
    },
    "values": {
     "bufferView": 170
    }
   },
   "type": "VEC3"
  },
  {
   "componentType": 5126,
   "count": 12578,
   "max": [
    0.00012926082126796246,
    0.0009639263153076172,
    0.015160448849201202
   ],
   "min": [
    0,
    -0.0009332895278930664,
    0
   ],
   "sparse": {
    "count": 9432,
    "indices": {
     "bufferView": 171,
     "componentType": 5123
    },
    "values": {
     "bufferView": 172
    }
   },
   "type": "VEC3"
  },
  {
   "componentType": 5126,
   "count": 12578,
   "max": [
    0,
    0.0008069276809692383,
    0
   ],
   "min": [
    -0.0001745014451444149,
    -0.0005015134811401367,
    -0.023501086980104446
   ],
   "sparse": {
    "count": 7552,
    "indices": {
     "bufferView": 173,
     "componentType": 5123
    },
    "values": {
     "bufferView": 174
    }
   },
   "type": "VEC3"
  },
  {
   "componentType": 5126,
   "count": 12578,
   "max": [
    0,
    0.02822089195251465,
    0
   ],
   "min": [
    -0.0005506037268787622,
    0,
    -0.022579681128263474
   ],
   "sparse": {
    "count": 7558,
    "indices": {
     "bufferView": 175,
     "componentType": 5123
    },
    "values": {
     "bufferView": 176
    }
   },
   "type": "VEC3"
  },
  {
   "componentType": 5126,
   "count": 12578,
   "max": [
    0.00022196932695806026,
    0,
    0.009109385311603546
   ],
   "min": [
    0,
    -0.011379599571228027,
    0
   ],
   "sparse": {
    "count": 6069,
    "indices": {
     "bufferView": 177,
     "componentType": 5123
    },
    "values": {
     "bufferView": 178
    }
   },
   "type": "VEC3"
  },
  {
   "componentType": 5126,
   "count": 12578,
   "max": [
    0.006469927728176117,
    0.00027120113372802734,
    6.403401494026184e-05
   ],
   "min": [
    -0.006478346884250641,
    -2.4318695068359375e-05,
    -3.5841017961502075e-05
   ],
   "sparse": {
    "count": 5248,
    "indices": {
     "bufferView": 179,
     "componentType": 5123
    },
    "values": {
     "bufferView": 180
    }
   },
   "type": "VEC3"
  },
  {
   "componentType": 5126,
   "count": 12578,
   "max": [
    0.0076657868921756744,
    0.00010263919830322266,
    5.8960169553756714e-05
   ],
   "min": [
    -0.007651802152395248,
    -0.0001024007797241211,
    -5.906447768211365e-05
   ],
   "sparse": {
    "count": 4127,
    "indices": {
     "bufferView": 181,
     "componentType": 5123
    },
    "values": {
     "bufferView": 182
    }
   },
   "type": "VEC3"
  },
  {
   "componentType": 5126,
   "count": 12578,
   "max": [
    1.918897032737732e-05,
    0.0005011558532714844,
    0.002683185040950775
   ],
   "min": [
    -6.332993507385254e-08,
    -0.0001308917999267578,
    0
   ],
   "sparse": {
    "count": 3456,
    "indices": {
     "bufferView": 183,
     "componentType": 5123
    },
    "values": {
     "bufferView": 184
    }
   },
   "type": "VEC3"
  },
  {
   "componentType": 5126,
   "count": 12578,
   "max": [
    0,
    0.000733494758605957,
    0
   ],
   "min": [
    -5.171075463294983e-05,
    -0.00027060508728027344,
    -0.005973801016807556
   ],
   "sparse": {
    "count": 5879,
    "indices": {
     "bufferView": 185,
     "componentType": 5123
    },
    "values": {
     "bufferView": 186
    }
   },
   "type": "VEC3"
  },
  {
   "bufferView": 187,
   "componentType": 5126,
   "count": 12578,
   "max": [
    0.013002030551433563,
    0.00017404556274414062,
    9.897910058498383e-05
   ],
   "min": [
    -0.012845776975154877,
    -0.00017201900482177734,
    -0.00010018330067396164
   ],
   "type": "VEC3"
  },
  {
   "bufferView": 188,
   "componentType": 5126,
   "count": 12578,
   "max": [
    0.012845780700445175,
    0.00017189979553222656,
    0.00010018330067396164
   ],
   "min": [
    -0.013002030551433563,
    -0.00017404556274414062,
    -9.897910058498383e-05
   ],
   "type": "VEC3"
  },
  {
   "bufferView": 189,
   "componentType": 5126,
   "count": 12578,
   "max": [
    0.013141103088855743,
    0.012110233306884766,
    0.0010453946888446808
   ],
   "min": [
    -0.01321817934513092,
    -0.00015485286712646484,
    -0.004793159663677216
   ],
   "type": "VEC3"
  },
  {
   "componentType": 5126,
   "count": 12578,
   "max": [
    0.004917562007904053,
    6.580352783203125e-05,
    3.795139491558075e-05
   ],
   "min": [
    -0.004925519227981567,
    -6.592273712158203e-05,
    -3.788992762565613e-05
   ],
   "sparse": {
    "count": 5410,
    "indices": {
     "bufferView": 190,
     "componentType": 5123
    },
    "values": {
     "bufferView": 191
    }
   },
   "type": "VEC3"
  },
  {
   "componentType": 5126,
   "count": 12578,
   "max": [
    0.0011002598330378532,
    0.011136054992675781,
    0.0008546039462089539
   ],
   "min": [
    -0.0013678250834345818,
    0,
    0
   ],
   "sparse": {
    "count": 8001,
    "indices": {
     "bufferView": 192,
     "componentType": 5123
    },
    "values": {
     "bufferView": 193
    }
   },
   "type": "VEC3"
  },
  {
   "componentType": 5126,
   "count": 12578,
   "max": [
    6.753765046596527e-05,
    0,
    0
   ],
   "min": [
    0,
    -0.005276918411254883,
    -0.00040158629417419434
   ],
   "sparse": {
    "count": 4107,
    "indices": {
     "bufferView": 194,
     "componentType": 5123
    },
    "values": {
     "bufferView": 195
    }
   },
   "type": "VEC3"
  },
  {
   "componentType": 5126,
   "count": 12578,
   "max": [
    6.334111094474792e-05,
    0,
    0
   ],
   "min": [
    -8.554384112358093e-05,
    -0.0005106925964355469,
    -3.806501626968384e-05
   ],
   "sparse": {
    "count": 213,
    "indices": {
     "bufferView": 196,
     "componentType": 5123
    },
    "values": {
     "bufferView": 197
    }
   },
   "type": "VEC3"
  },
  {
   "componentType": 5126,
   "count": 12578,
   "max": [
    0.0004978328943252563,
    0.004975438117980957,
    0.0003763660788536072
   ],
   "min": [
    -0.0006593205034732819,
    0,
    0
   ],
   "sparse": {
    "count": 5175,
    "indices": {
     "bufferView": 198,
     "componentType": 5123
    },
    "values": {
     "bufferView": 199
    }
   },
   "type": "VEC3"
  },
  {
   "componentType": 5126,
   "count": 12578,
   "max": [
    0.00020655617117881775,
    0,
    0
   ],
   "min": [
    -5.021318793296814e-05,
    -0.008672833442687988,
    -0.0036354847252368927
   ],
   "sparse": {
    "count": 1427,
    "indices": {
     "bufferView": 200,
     "componentType": 5123
    },
    "values": {
     "bufferView": 201
    }
   },
   "type": "VEC3"
  },
  {
   "componentType": 5126,
   "count": 12578,
   "max": [
    0.0030761249363422394,
    0.0008679628372192383,
    0.0003437846899032593
   ],
   "min": [
    -0.002595946192741394,
    -2.5033950805664062e-06,
    -0.003514242358505726
   ],
   "sparse": {
    "count": 1263,
    "indices": {
     "bufferView": 202,
     "componentType": 5123
    },
    "values": {
     "bufferView": 203
    }
   },
   "type": "VEC3"
  },
  {
   "componentType": 5126,
   "count": 12578,
   "max": [
    0.00014699995517730713,
    0,
    0
   ],
   "min": [
    0,
    -0.012340903282165527,
    -0.0023595765233039856
   ],
   "sparse": {
    "count": 1197,
    "indices": {
     "bufferView": 204,
     "componentType": 5123
    },
    "values": {
     "bufferView": 205
    }
   },
   "type": "VEC3"
  },
  {
   "componentType": 5126,
   "count": 12578,
   "max": [
    0.005424488335847855,
    0.007809281349182129,
    0.00818028673529625
   ],
   "min": [
    -0.0052186064422130585,
    -0.009972095489501953,
    -0.004751492291688919
   ],
   "sparse": {
    "count": 4569,
    "indices": {
     "bufferView": 206,
     "componentType": 5123
    },
    "values": {
     "bufferView": 207
    }
   },
   "type": "VEC3"
  },
  {
   "componentType": 5126,
   "count": 12578,
   "max": [
    0.005215715616941452,
    0.009398341178894043,
    0.004704928025603294
   ],
   "min": [
    -0.005401439964771271,
    -0.00737917423248291,
    -0.007789658382534981
   ],
   "sparse": {
    "count": 4513,
    "indices": {
     "bufferView": 208,
     "componentType": 5123
    },
    "values": {
     "bufferView": 209
    }
   },
   "type": "VEC3"
  },
  {
   "componentType": 5126,
   "count": 12578,
   "max": [
    0,
    0,
    0
   ],
   "min": [
    0,
    0,
    0
   ],
   "sparse": {
    "count": 1,
    "indices": {
     "bufferView": 210,
     "componentType": 5121
    },
    "values": {
     "bufferView": 211
    }
   },
   "type": "VEC3"
  },
  {
   "componentType": 5126,
   "count": 12578,
   "max": [
    8.384138345718384e-05,
    0.0006787776947021484,
    0.00871902983635664
   ],
   "min": [
    -1.0460615158081055e-05,
    -0.0022568702697753906,
    -0.003193911164999008
   ],
   "sparse": {
    "count": 1614,
    "indices": {
     "bufferView": 212,
     "componentType": 5123
    },
    "values": {
     "bufferView": 213
    }
   },
   "type": "VEC3"
  },
  {
   "componentType": 5126,
   "count": 12578,
   "max": [
    0.0023324862122535706,
    7.534027099609375e-05,
    0
   ],
   "min": [
    -0.0027927830815315247,
    -4.4465065002441406e-05,
    -0.0009280983358621597
   ],
   "sparse": {
    "count": 177,
    "indices": {
     "bufferView": 214,
     "componentType": 5123
    },
    "values": {
     "bufferView": 215
    }
   },
   "type": "VEC3"
  },
  {
   "componentType": 5126,
   "count": 12578,
   "max": [
    0.0010533779859542847,
    0,
    0.0004084622487425804
   ],
   "min": [
    -0.0008761584758758545,
    -3.504753112792969e-05,
    0
   ],
   "sparse": {
    "count": 81,
    "indices": {
     "bufferView": 216,
     "componentType": 5123
    },
    "values": {
     "bufferView": 217
    }
   },
   "type": "VEC3"
  },
  {
   "componentType": 5126,
   "count": 12578,
   "max": [
    0.00010225921869277954,
    0,
    0.0003398486878722906
   ],
   "min": [
    0,
    -0.008045196533203125,
    -0.0012701461091637611
   ],
   "sparse": {
    "count": 81,
    "indices": {
     "bufferView": 218,
     "componentType": 5123
    },
    "values": {
     "bufferView": 219
    }
   },
   "type": "VEC3"
  },
  {
   "componentType": 5126,
   "count": 12578,
   "max": [
    0,
    0.005300998687744141,
    0.0003262292593717575
   ],
   "min": [
    -7.082521915435791e-05,
    0,
    -0.0006274039624258876
   ],
   "sparse": {
    "count": 111,
    "indices": {
     "bufferView": 220,
     "componentType": 5123
    },
    "values": {
     "bufferView": 221
    }
   },
   "type": "VEC3"
  },
  {
   "componentType": 5126,
   "count": 12578,
   "max": [
    0.0027485601603984833,
    7.653236389160156e-05,
    0.0006241663359105587
   ],
   "min": [
    -0.0025583580136299133,
    -0.00480496883392334,
    -0.005106557160615921
   ],
   "sparse": {
    "count": 10619,
    "indices": {
     "bufferView": 222,
     "componentType": 5123
    },
    "values": {
     "bufferView": 223
    }
   },
   "type": "VEC3"
  },
  {
   "componentType": 5126,
   "count": 12578,
   "max": [
    0.002354957163333893,
    0.0020107030868530273,
    0.0013863593339920044
   ],
   "min": [
    -0.0022007524967193604,
    -0.003549933433532715,
    -0.0018183887004852295
   ],
   "sparse": {
    "count": 10604,
    "indices": {
     "bufferView": 224,
     "componentType": 5123
    },
    "values": {
     "bufferView": 225
    }
   },
   "type": "VEC3"
  },
  {
   "componentType": 5126,
   "count": 12578,
   "max": [
    0.0030433963984251022,
    0.0006034374237060547,
    0.0004200407420285046
   ],
   "min": [
    -0.00302867591381073,
    -0.0030891895294189453,
    -0.0028263330459594727
   ],
   "sparse": {
    "count": 10556,
    "indices": {
     "bufferView": 226,
     "componentType": 5123
    },
    "values": {
     "bufferView": 227
    }
   },
   "type": "VEC3"
  },
  {
   "componentType": 5126,
   "count": 12578,
   "max": [
    0.005167383700609207,
    0.0028334856033325195,
    0.0004650927148759365
   ],
   "min": [
    -0.00497625395655632,
    -0.0032285451889038086,
    -0.005378812551498413
   ],
   "sparse": {
    "count": 10529,
    "indices": {
     "bufferView": 228,
     "componentType": 5123
    },
    "values": {
     "bufferView": 229
    }
   },
   "type": "VEC3"
  },
  {
   "componentType": 5126,
   "count": 12578,
   "max": [
    0.005733884871006012,
    0.0012625455856323242,
    0.0001880979398265481
   ],
   "min": [
    -0.0052364058792591095,
    -0.005975127220153809,
    -0.009968943893909454
   ],
   "sparse": {
    "count": 10544,
    "indices": {
     "bufferView": 230,
     "componentType": 5123
    },
    "values": {
     "bufferView": 231
    }
   },
   "type": "VEC3"
  },
  {
   "componentType": 5126,
   "count": 12578,
   "max": [
    0.006490305066108704,
    0.0003281831741333008,
    0.00016993889585137367
   ],
   "min": [
    -0.006422463804483414,
    -0.006215453147888184,
    -0.002472922205924988
   ],
   "sparse": {
    "count": 10547,
    "indices": {
     "bufferView": 232,
     "componentType": 5123
    },
    "values": {
     "bufferView": 233
    }
   },
   "type": "VEC3"
  },
  {
   "bufferView": 234,
   "componentType": 5126,
   "count": 12578,
   "max": [
    0.0033610165119171143,
    0.0001437664031982422,
    0.00784406065940857
   ],
   "min": [
    -0.003426153212785721,
    -0.006624698638916016,
    -0.0003863060846924782
   ],
   "type": "VEC3"
  },
  {
   "componentType": 5126,
   "count": 12578,
   "max": [
    0.0057783424854278564,
    0.0006496906280517578,
    0.0030004833824932575
   ],
   "min": [
    -0.005719263106584549,
    -0.009375572204589844,
    -0.004566647112369537
   ],
   "sparse": {
    "count": 10556,
    "indices": {
     "bufferView": 235,
     "componentType": 5123
    },
    "values": {
     "bufferView": 236
    }
   },
   "type": "VEC3"
  },
  {
   "componentType": 5126,
   "count": 12578,
   "max": [
    0.0026585347950458527,
    0.004478573799133301,
    0.00024722516536712646
   ],
   "min": [
    -0.0027207210659980774,
    -0.003900766372680664,
    -0.0034354180097579956
   ],
   "sparse": {
    "count": 10526,
    "indices": {
     "bufferView": 237,
     "componentType": 5123
    },
    "values": {
     "bufferView": 238
    }
   },
   "type": "VEC3"
  },
  {
   "bufferView": 239,
   "componentType": 5126,
   "count": 69,
   "type": "MAT4"
  }
 ],
 "bufferViews": [
  {
   "buffer": 0,
   "byteLength": 663552,
   "byteOffset": 0,
   "target": 34962
  },
  {
   "buffer": 0,
   "byteLength": 663552,
   "byteOffset": 663552,
   "target": 34962
  },
  {
   "buffer": 0,
   "byteLength": 442368,
   "byteOffset": 1327104,
   "target": 34962
  },
  {
   "buffer": 0,
   "byteLength": 442368,
   "byteOffset": 1769472,
   "target": 34962
  },
  {
   "buffer": 0,
   "byteLength": 884736,
   "byteOffset": 2211840,
   "target": 34962
  },
  {
   "buffer": 0,
   "byteLength": 442368,
   "byteOffset": 3096576,
   "target": 34962
  },
  {
   "buffer": 0,
   "byteLength": 221184,
   "byteOffset": 3538944,
   "target": 34962
  },
  {
   "buffer": 0,
   "byteLength": 884736,
   "byteOffset": 3760128,
   "target": 34962
  },
  {
   "buffer": 0,
   "byteLength": 405504,
   "byteOffset": 4644864,
   "target": 34963
  },
  {
   "buffer": 0,
   "byteLength": 47520,
   "byteOffset": 5050368
  },
  {
   "buffer": 0,
   "byteLength": 285120,
   "byteOffset": 5097888
  },
  {
   "buffer": 0,
   "byteLength": 45888,
   "byteOffset": 5383008
  },
  {
   "buffer": 0,
   "byteLength": 275328,
   "byteOffset": 5428896
  },
  {
   "buffer": 0,
   "byteLength": 38478,
   "byteOffset": 5704224
  },
  {
   "buffer": 0,
   "byteLength": 230868,
   "byteOffset": 5742704
  },
  {
   "buffer": 0,
   "byteLength": 38430,
   "byteOffset": 5973572
  },
  {
   "buffer": 0,
   "byteLength": 230580,
   "byteOffset": 6012004
  },
  {
   "buffer": 0,
   "byteLength": 87120,
   "byteOffset": 6242584
  },
  {
   "buffer": 0,
   "byteLength": 522720,
   "byteOffset": 6329704
  },
  {
   "buffer": 0,
   "byteLength": 84306,
   "byteOffset": 6852424
  },
  {
   "buffer": 0,
   "byteLength": 505836,
   "byteOffset": 6936732
  },
  {
   "buffer": 0,
   "byteLength": 19488,
   "byteOffset": 7442568
  },
  {
   "buffer": 0,
   "byteLength": 116928,
   "byteOffset": 7462056
  },
  {
   "buffer": 0,
   "byteLength": 13290,
   "byteOffset": 7578984
  },
  {
   "buffer": 0,
   "byteLength": 79740,
   "byteOffset": 7592276
  },
  {
   "buffer": 0,
   "byteLength": 3330,
   "byteOffset": 7672016
  },
  {
   "buffer": 0,
   "byteLength": 19980,
   "byteOffset": 7675348
  },
  {
   "buffer": 0,
   "byteLength": 8172,
   "byteOffset": 7695328
  },
  {
   "buffer": 0,
   "byteLength": 49032,
   "byteOffset": 7703500
  },
  {
   "buffer": 0,
   "byteLength": 663552,
   "byteOffset": 7752532,
   "target": 34962
  },
  {
   "buffer": 0,
   "byteLength": 663552,
   "byteOffset": 8416084,
   "target": 34962
  },
  {
   "buffer": 0,
   "byteLength": 663552,
   "byteOffset": 9079636,
   "target": 34962
  },
  {
   "buffer": 0,
   "byteLength": 32268,
   "byteOffset": 9743188
  },
  {
   "buffer": 0,
   "byteLength": 193608,
   "byteOffset": 9775456
  },
  {
   "buffer": 0,
   "byteLength": 19608,
   "byteOffset": 9969064
  },
  {
   "buffer": 0,
   "byteLength": 117648,
   "byteOffset": 9988672
  },
  {
   "buffer": 0,
   "byteLength": 4692,
   "byteOffset": 10106320
  },
  {
   "buffer": 0,
   "byteLength": 28152,
   "byteOffset": 10111012
  },
  {
   "buffer": 0,
   "byteLength": 126,
   "byteOffset": 10139164
  },
  {
   "buffer": 0,
   "byteLength": 756,
   "byteOffset": 10139292
  },
  {
   "buffer": 0,
   "byteLength": 7248,
   "byteOffset": 10140048
  },
  {
   "buffer": 0,
   "byteLength": 43488,
   "byteOffset": 10147296
  },
  {
   "buffer": 0,
   "byteLength": 2028,
   "byteOffset": 10190784
  },
  {
   "buffer": 0,
   "byteLength": 12168,
   "byteOffset": 10192812
  },
  {
   "buffer": 0,
   "byteLength": 2328,
   "byteOffset": 10204980
  },
  {
   "buffer": 0,
   "byteLength": 13968,
   "byteOffset": 10207308
  },
  {
   "buffer": 0,
   "byteLength": 2544,
   "byteOffset": 10221276
  },
  {
   "buffer": 0,
   "byteLength": 15264,
   "byteOffset": 10223820
  },
  {
   "buffer": 0,
   "byteLength": 40266,
   "byteOffset": 10239084
  },
  {
   "buffer": 0,
   "byteLength": 241596,
   "byteOffset": 10279352
  },
  {
   "buffer": 0,
   "byteLength": 38766,
   "byteOffset": 10520948
  },
  {
   "buffer": 0,
   "byteLength": 232596,
   "byteOffset": 10559716
  },
  {
   "buffer": 0,
   "byteLength": 1524,
   "byteOffset": 10792312
  },
  {
   "buffer": 0,
   "byteLength": 9144,
   "byteOffset": 10793836
  },
  {
   "buffer": 0,
   "byteLength": 8682,
   "byteOffset": 10802980
  },
  {
   "buffer": 0,
   "byteLength": 52092,
   "byteOffset": 10811664
  },
  {
   "buffer": 0,
   "byteLength": 7782,
   "byteOffset": 10863756
  },
  {
   "buffer": 0,
   "byteLength": 46692,
   "byteOffset": 10871540
  },
  {
   "buffer": 0,
   "byteLength": 3684,
   "byteOffset": 10918232
  },
  {
   "buffer": 0,
   "byteLength": 22104,
   "byteOffset": 10921916
  },
  {
   "buffer": 0,
   "byteLength": 1,
   "byteOffset": 10944020
  },
  {
   "buffer": 0,
   "byteLength": 12,
   "byteOffset": 10944024
  },
  {
   "buffer": 0,
   "byteLength": 1,
   "byteOffset": 10944036
  },
  {
   "buffer": 0,
   "byteLength": 12,
   "byteOffset": 10944040
  },
  {
   "buffer": 0,
   "byteLength": 94740,
   "byteOffset": 10944052
  },
  {
   "buffer": 0,
   "byteLength": 568440,
   "byteOffset": 11038792
  },
  {
   "buffer": 0,
   "byteLength": 663552,
   "byteOffset": 11607232,
   "target": 34962
  },
  {
   "buffer": 0,
   "byteLength": 93804,
   "byteOffset": 12270784
  },
  {
   "buffer": 0,
   "byteLength": 562824,
   "byteOffset": 12364588
  },
  {
   "buffer": 0,
   "byteLength": 94680,
   "byteOffset": 12927412
  },
  {
   "buffer": 0,
   "byteLength": 568080,
   "byteOffset": 13022092
  },
  {
   "buffer": 0,
   "byteLength": 663552,
   "byteOffset": 13590172,
   "target": 34962
  },
  {
   "buffer": 0,
   "byteLength": 93588,
   "byteOffset": 14253724
  },
  {
   "buffer": 0,
   "byteLength": 561528,
   "byteOffset": 14347312
  },
  {
   "buffer": 0,
   "byteLength": 663552,
   "byteOffset": 14908840,
   "target": 34962
  },
  {
   "buffer": 0,
   "byteLength": 663552,
   "byteOffset": 15572392,
   "target": 34962
  },
  {
   "buffer": 0,
   "byteLength": 93294,
   "byteOffset": 16235944
  },
  {
   "buffer": 0,
   "byteLength": 559764,
   "byteOffset": 16329240
  },
  {
   "buffer": 0,
   "byteLength": 25572,
   "byteOffset": 16889004,
   "target": 34962
  },
  {
   "buffer": 0,
   "byteLength": 25572,
   "byteOffset": 16914576,
   "target": 34962
  },
  {
   "buffer": 0,
   "byteLength": 17048,
   "byteOffset": 16940148,
   "target": 34962
  },
  {
   "buffer": 0,
   "byteLength": 17048,
   "byteOffset": 16957196,
   "target": 34962
  },
  {
   "buffer": 0,
   "byteLength": 34096,
   "byteOffset": 16974244,
   "target": 34962
  },
  {
   "buffer": 0,
   "byteLength": 17048,
   "byteOffset": 17008340,
   "target": 34962
  },
  {
   "buffer": 0,
   "byteLength": 8524,
   "byteOffset": 17025388,
   "target": 34962
  },
  {
   "buffer": 0,
   "byteLength": 34096,
   "byteOffset": 17033912,
   "target": 34962
  },
  {
   "buffer": 0,
   "byteLength": 22050,
   "byteOffset": 17068008,
   "target": 34963
  },
  {
   "buffer": 0,
   "byteLength": 1512,
   "byteOffset": 17090060
  },
  {
   "buffer": 0,
   "byteLength": 9072,
   "byteOffset": 17091572
  },
  {
   "buffer": 0,
   "byteLength": 1476,
   "byteOffset": 17100644
  },
  {
   "buffer": 0,
   "byteLength": 8856,
   "byteOffset": 17102120
  },
  {
   "buffer": 0,
   "byteLength": 1508,
   "byteOffset": 17110976
  },
  {
   "buffer": 0,
   "byteLength": 9048,
   "byteOffset": 17112484
  },
  {
   "buffer": 0,
   "byteLength": 1404,
   "byteOffset": 17121532
  },
  {
   "buffer": 0,
   "byteLength": 8424,
   "byteOffset": 17122936
  },
  {
   "buffer": 0,
   "byteLength": 2526,
   "byteOffset": 17131360
  },
  {
   "buffer": 0,
   "byteLength": 15156,
   "byteOffset": 17133888
  },
  {
   "buffer": 0,
   "byteLength": 2392,
   "byteOffset": 17149044
  },
  {
   "buffer": 0,
   "byteLength": 14352,
   "byteOffset": 17151436
  },
  {
   "buffer": 0,
   "byteLength": 864,
   "byteOffset": 17165788
  },
  {
   "buffer": 0,
   "byteLength": 5184,
   "byteOffset": 17166652
  },
  {
   "buffer": 0,
   "byteLength": 634,
   "byteOffset": 17171836
  },
  {
   "buffer": 0,
   "byteLength": 3804,
   "byteOffset": 17172472
  },
  {
   "buffer": 0,
   "byteLength": 292,
   "byteOffset": 17176276
  },
  {
   "buffer": 0,
   "byteLength": 1752,
   "byteOffset": 17176568
  },
  {
   "buffer": 0,
   "byteLength": 478,
   "byteOffset": 17178320
  },
  {
   "buffer": 0,
   "byteLength": 2868,
   "byteOffset": 17178800
  },
  {
   "buffer": 0,
   "byteLength": 25572,
   "byteOffset": 17181668,
   "target": 34962
  },
  {
   "buffer": 0,
   "byteLength": 25572,
   "byteOffset": 17207240,
   "target": 34962
  },
  {
   "buffer": 0,
   "byteLength": 25572,
   "byteOffset": 17232812,
   "target": 34962
  },
  {
   "buffer": 0,
   "byteLength": 1522,
   "byteOffset": 17258384
  },
  {
   "buffer": 0,
   "byteLength": 9132,
   "byteOffset": 17259908
  },
  {
   "buffer": 0,
   "byteLength": 876,
   "byteOffset": 17269040
  },
  {
   "buffer": 0,
   "byteLength": 5256,
   "byteOffset": 17269916
  },
  {
   "buffer": 0,
   "byteLength": 312,
   "byteOffset": 17275172
  },
  {
   "buffer": 0,
   "byteLength": 1872,
   "byteOffset": 17275484
  },
  {
   "buffer": 0,
   "byteLength": 64,
   "byteOffset": 17277356
  },
  {
   "buffer": 0,
   "byteLength": 384,
   "byteOffset": 17277420
  },
  {
   "buffer": 0,
   "byteLength": 388,
   "byteOffset": 17277804
  },
  {
   "buffer": 0,
   "byteLength": 2328,
   "byteOffset": 17278192
  },
  {
   "buffer": 0,
   "byteLength": 476,
   "byteOffset": 17280520
  },
  {
   "buffer": 0,
   "byteLength": 2856,
   "byteOffset": 17280996
  },
  {
   "buffer": 0,
   "byteLength": 162,
   "byteOffset": 17283852
  },
  {
   "buffer": 0,
   "byteLength": 972,
   "byteOffset": 17284016
  },
  {
   "buffer": 0,
   "byteLength": 144,
   "byteOffset": 17284988
  },
  {
   "buffer": 0,
   "byteLength": 864,
   "byteOffset": 17285132
  },
  {
   "buffer": 0,
   "byteLength": 1806,
   "byteOffset": 17285996
  },
  {
   "buffer": 0,
   "byteLength": 10836,
   "byteOffset": 17287804
  },
  {
   "buffer": 0,
   "byteLength": 1766,
   "byteOffset": 17298640
  },
  {
   "buffer": 0,
   "byteLength": 10596,
   "byteOffset": 17300408
  },
  {
   "buffer": 0,
   "byteLength": 1,
   "byteOffset": 17311004
  },
  {
   "buffer": 0,
   "byteLength": 12,
   "byteOffset": 17311008
  },
  {
   "buffer": 0,
   "byteLength": 774,
   "byteOffset": 17311020
  },
  {
   "buffer": 0,
   "byteLength": 4644,
   "byteOffset": 17311796
  },
  {
   "buffer": 0,
   "byteLength": 202,
   "byteOffset": 17316440
  },
  {
   "buffer": 0,
   "byteLength": 1212,
   "byteOffset": 17316644
  },
  {
   "buffer": 0,
   "byteLength": 34,
   "byteOffset": 17317856
  },
  {
   "buffer": 0,
   "byteLength": 204,
   "byteOffset": 17317892
  },
  {
   "buffer": 0,
   "byteLength": 1,
   "byteOffset": 17318096
  },
  {
   "buffer": 0,
   "byteLength": 12,
   "byteOffset": 17318100
  },
  {
   "buffer": 0,
   "byteLength": 20,
   "byteOffset": 17318112
  },
  {
   "buffer": 0,
   "byteLength": 120,
   "byteOffset": 17318132
  },
  {
   "buffer": 0,
   "byteLength": 3588,
   "byteOffset": 17318252
  },
  {
   "buffer": 0,
   "byteLength": 21528,
   "byteOffset": 17321840
  },
  {
   "buffer": 0,
   "byteLength": 25572,
   "byteOffset": 17343368,
   "target": 34962
  },
  {
   "buffer": 0,
   "byteLength": 3364,
   "byteOffset": 17368940
  },
  {
   "buffer": 0,
   "byteLength": 20184,
   "byteOffset": 17372304
  },
  {
   "buffer": 0,
   "byteLength": 3442,
   "byteOffset": 17392488
  },
  {
   "buffer": 0,
   "byteLength": 20652,
   "byteOffset": 17395932
  },
  {
   "buffer": 0,
   "byteLength": 3492,
   "byteOffset": 17416584
  },
  {
   "buffer": 0,
   "byteLength": 20952,
   "byteOffset": 17420076
  },
  {
   "buffer": 0,
   "byteLength": 3450,
   "byteOffset": 17441028
  },
  {
   "buffer": 0,
   "byteLength": 20700,
   "byteOffset": 17444480
  },
  {
   "buffer": 0,
   "byteLength": 25572,
   "byteOffset": 17465180,
   "target": 34962
  },
  {
   "buffer": 0,
   "byteLength": 3538,
   "byteOffset": 17490752
  },
  {
   "buffer": 0,
   "byteLength": 21228,
   "byteOffset": 17494292
  },
  {
   "buffer": 0,
   "byteLength": 3300,
   "byteOffset": 17515520
  },
  {
   "buffer": 0,
   "byteLength": 19800,
   "byteOffset": 17518820
  },
  {
   "buffer": 0,
   "byteLength": 150936,
   "byteOffset": 17538620,
   "target": 34962
  },
  {
   "buffer": 0,
   "byteLength": 150936,
   "byteOffset": 17689556,
   "target": 34962
  },
  {
   "buffer": 0,
   "byteLength": 100624,
   "byteOffset": 17840492,
   "target": 34962
  },
  {
   "buffer": 0,
   "byteLength": 100624,
   "byteOffset": 17941116,
   "target": 34962
  },
  {
   "buffer": 0,
   "byteLength": 201248,
   "byteOffset": 18041740,
   "target": 34962
  },
  {
   "buffer": 0,
   "byteLength": 100624,
   "byteOffset": 18242988,
   "target": 34962
  },
  {
   "buffer": 0,
   "byteLength": 50312,
   "byteOffset": 18343612,
   "target": 34962
  },
  {
   "buffer": 0,
   "byteLength": 201248,
   "byteOffset": 18393924,
   "target": 34962
  },
  {
   "buffer": 0,
   "byteLength": 80496,
   "byteOffset": 18595172,
   "target": 34963
  },
  {
   "buffer": 0,
   "byteLength": 8506,
   "byteOffset": 18675668
  },
  {
   "buffer": 0,
   "byteLength": 51036,
   "byteOffset": 18684176
  },
  {
   "buffer": 0,
   "byteLength": 7748,
   "byteOffset": 18735212
  },
  {
   "buffer": 0,
   "byteLength": 46488,
   "byteOffset": 18742960
  },
  {
   "buffer": 0,
   "byteLength": 18864,
   "byteOffset": 18789448
  },
  {
   "buffer": 0,
   "byteLength": 113184,
   "byteOffset": 18808312
  },
  {
   "buffer": 0,
   "byteLength": 15104,
   "byteOffset": 18921496
  },
  {
   "buffer": 0,
   "byteLength": 90624,
   "byteOffset": 18936600
  },
  {
   "buffer": 0,
   "byteLength": 15116,
   "byteOffset": 19027224
  },
  {
   "buffer": 0,
   "byteLength": 90696,
   "byteOffset": 19042340
  },
  {
   "buffer": 0,
   "byteLength": 12138,
   "byteOffset": 19133036
  },
  {
   "buffer": 0,
   "byteLength": 72828,
   "byteOffset": 19145176
  },
  {
   "buffer": 0,
   "byteLength": 10496,
   "byteOffset": 19218004
  },
  {
   "buffer": 0,
   "byteLength": 62976,
   "byteOffset": 19228500
  },
  {
   "buffer": 0,
   "byteLength": 8254,
   "byteOffset": 19291476
  },
  {
   "buffer": 0,
   "byteLength": 49524,
   "byteOffset": 19299732
  },
  {
   "buffer": 0,
   "byteLength": 6912,
   "byteOffset": 19349256
  },
  {
   "buffer": 0,
   "byteLength": 41472,
   "byteOffset": 19356168
  },
  {
   "buffer": 0,
   "byteLength": 11758,
   "byteOffset": 19397640
  },
  {
   "buffer": 0,
   "byteLength": 70548,
   "byteOffset": 19409400
  },
  {
   "buffer": 0,
   "byteLength": 150936,
   "byteOffset": 19479948,
   "target": 34962
  },
  {
   "buffer": 0,
   "byteLength": 150936,
   "byteOffset": 19630884,
   "target": 34962
  },
  {
   "buffer": 0,
   "byteLength": 150936,
   "byteOffset": 19781820,
   "target": 34962
  },
  {
   "buffer": 0,
   "byteLength": 10820,
   "byteOffset": 19932756
  },
  {
   "buffer": 0,
   "byteLength": 64920,
   "byteOffset": 19943576
  },
  {
   "buffer": 0,
   "byteLength": 16002,
   "byteOffset": 20008496
  },
  {
   "buffer": 0,
   "byteLength": 96012,
   "byteOffset": 20024500
  },
  {
   "buffer": 0,
   "byteLength": 8214,
   "byteOffset": 20120512
  },
  {
   "buffer": 0,
   "byteLength": 49284,
   "byteOffset": 20128728
  },
  {
   "buffer": 0,
   "byteLength": 426,
   "byteOffset": 20178012
  },
  {
   "buffer": 0,
   "byteLength": 2556,
   "byteOffset": 20178440
  },
  {
   "buffer": 0,
   "byteLength": 10350,
   "byteOffset": 20180996
  },
  {
   "buffer": 0,
   "byteLength": 62100,
   "byteOffset": 20191348
  },
  {
   "buffer": 0,
   "byteLength": 2854,
   "byteOffset": 20253448
  },
  {
   "buffer": 0,
   "byteLength": 17124,
   "byteOffset": 20256304
  },
  {
   "buffer": 0,
   "byteLength": 2526,
   "byteOffset": 20273428
  },
  {
   "buffer": 0,
   "byteLength": 15156,
   "byteOffset": 20275956
  },
  {
   "buffer": 0,
   "byteLength": 2394,
   "byteOffset": 20291112
  },
  {
   "buffer": 0,
   "byteLength": 14364,
   "byteOffset": 20293508
  },
  {
   "buffer": 0,
   "byteLength": 9138,
   "byteOffset": 20307872
  },
  {
   "buffer": 0,
   "byteLength": 54828,
   "byteOffset": 20317012
  },
  {
   "buffer": 0,
   "byteLength": 9026,
   "byteOffset": 20371840
  },
  {
   "buffer": 0,
   "byteLength": 54156,
   "byteOffset": 20380868
  },
  {
   "buffer": 0,
   "byteLength": 1,
   "byteOffset": 20435024
  },
  {
   "buffer": 0,
   "byteLength": 12,
   "byteOffset": 20435028
  },
  {
   "buffer": 0,
   "byteLength": 3228,
   "byteOffset": 20435040
  },
  {
   "buffer": 0,
   "byteLength": 19368,
   "byteOffset": 20438268
  },
  {
   "buffer": 0,
   "byteLength": 354,
   "byteOffset": 20457636
  },
  {
   "buffer": 0,
   "byteLength": 2124,
   "byteOffset": 20457992
  },
  {
   "buffer": 0,
   "byteLength": 162,
   "byteOffset": 20460116
  },
  {
   "buffer": 0,
   "byteLength": 972,
   "byteOffset": 20460280
  },
  {
   "buffer": 0,
   "byteLength": 162,
   "byteOffset": 20461252
  },
  {
   "buffer": 0,
   "byteLength": 972,
   "byteOffset": 20461416
  },
  {
   "buffer": 0,
   "byteLength": 222,
   "byteOffset": 20462388
  },
  {
   "buffer": 0,
   "byteLength": 1332,
   "byteOffset": 20462612
  },
  {
   "buffer": 0,
   "byteLength": 21238,
   "byteOffset": 20463944
  },
  {
   "buffer": 0,
   "byteLength": 127428,
   "byteOffset": 20485184
  },
  {
   "buffer": 0,
   "byteLength": 21208,
   "byteOffset": 20612612
  },
  {
   "buffer": 0,
   "byteLength": 127248,
   "byteOffset": 20633820
  },
  {
   "buffer": 0,
   "byteLength": 21112,
   "byteOffset": 20761068
  },
  {
   "buffer": 0,
   "byteLength": 126672,
   "byteOffset": 20782180
  },
  {
   "buffer": 0,
   "byteLength": 21058,
   "byteOffset": 20908852
  },
  {
   "buffer": 0,
   "byteLength": 126348,
   "byteOffset": 20929912
  },
  {
   "buffer": 0,
   "byteLength": 21088,
   "byteOffset": 21056260
  },
  {
   "buffer": 0,
   "byteLength": 126528,
   "byteOffset": 21077348
  },
  {
   "buffer": 0,
   "byteLength": 21094,
   "byteOffset": 21203876
  },
  {
   "buffer": 0,
   "byteLength": 126564,
   "byteOffset": 21224972
  },
  {
   "buffer": 0,
   "byteLength": 150936,
   "byteOffset": 21351536,
   "target": 34962
  },
  {
   "buffer": 0,
   "byteLength": 21112,
   "byteOffset": 21502472
  },
  {
   "buffer": 0,
   "byteLength": 126672,
   "byteOffset": 21523584
  },
  {
   "buffer": 0,
   "byteLength": 21052,
   "byteOffset": 21650256
  },
  {
   "buffer": 0,
   "byteLength": 126312,
   "byteOffset": 21671308
  },
  {
   "buffer": 0,
   "byteLength": 4416,
   "byteOffset": 21797620
  }
 ],
 "samplers": [
  {
   "magFilter": 9729,
   "minFilter": 9987
  }
 ],
 "buffers": [
  {
   "byteLength": 21802036,
   "uri": "heroine_hair_pixie.bin"
  }
 ]
}