{
 "asset": {
  "generator": "Khronos glTF Blender I/O v4.5.51",
  "version": "2.0",
  "extras": {
   "data": "b8e883d0b5a9fbaca087f0114ac517c7"
  }
 },
 "scene": 0,
 "scenes": [
  {
   "name": "Scene",
   "nodes": [
    70
   ]
  }
 ],
 "nodes": [
  {
   "name": "Head",
   "rotation": [
    -0.11761949956417084,
    -2.2141905731132283e-07,
    -3.010525233548833e-06,
    0.9930587410926819
   ],
   "translation": [
    6.661338147750939e-15,
    0.08259861171245575,
    1.1175870007207322e-08
   ]
  },
  {
   "children": [
    0
   ],
   "name": "neck_01",
   "rotation": [
    0.2231902927160263,
    -6.007262687290904e-09,
    3.88361840464313e-08,
    0.9747748970985413
   ],
   "translation": [
    -4.440892098500626e-15,
    0.26398828625679016,
    1.862645149230957e-08
   ]
  },
  {
   "name": "index_04_leaf_l",
   "rotation": [
    -5.704350769519806e-09,
    1,
    -4.7439248085368035e-09,
    3.5353004932403564e-06
   ],
   "scale": [
    1,
    0.9999999403953552,
    1
   ],
   "translation": [
    1.1874362826347351e-08,
    0.030100101605057716,
    -1.910957507789135e-07
   ]
  },
  {
   "children": [
    2
   ],
   "name": "index_03_l",
   "rotation": [
    0.012105108238756657,
    -4.237862185618724e-07,
    0.004006620962172747,
    0.9999186992645264
   ],
   "scale": [
    0.9999999403953552,
    1,
    0.9999999403953552
   ],
   "translation": [
    -6.51925802230835e-09,
    0.02818247862160206,
    1.2776581570506096e-08
   ]
  },
  {
   "children": [
    3
   ],
   "name": "index_02_l",
   "rotation": [
    0.10989626497030258,
    1.5561427346710843e-07,
    -0.030358633026480675,
    0.993479311466217
   ],
   "scale": [
    1,
    0.9999998807907104,
    1
   ],
   "translation": [
    7.450580596923828e-09,
    0.03089151158928871,
    8.792267180979252e-08
   ]
  },
  {
   "children": [
    4
   ],
   "name": "index_01_l",
   "rotation": [
    -0.00943039171397686,
    0.7070736885070801,
    0.003526271553710103,
    0.7070682048797607
   ],
   "scale": [
    0.9999998211860657,
    0.9999998211860657,
    0.9999999403953552
   ],
   "translation": [
    0.00601259246468544,
    0.1281808316707611,
    0.02604752779006958
   ]
  },
  {
   "name": "middle_04_leaf_l",
   "rotation": [
    2.3283064365386963e-09,
    1,
    -9.546056389808655e-09,
    3.6526471376419067e-06
   ],
   "translation": [
    7.450580596923828e-09,
    0.03443717584013939,
    8.195638656616211e-08
   ]
  },
  {
   "children": [
    6
   ],
   "name": "middle_03_l",
   "rotation": [
    0.0005137118278071284,
    -6.389206532730896e-07,
    0.010132299736142159,
    0.9999485611915588
   ],
   "scale": [
    0.9999999403953552,
    1,
    1
   ],
   "translation": [
    0,
    0.031105799600481987,
    3.306195139884949e-08
   ]
  },
  {
   "children": [
    7
   ],
   "name": "middle_02_l",
   "rotation": [
    0.11376678943634033,
    0.00017226197815034539,
    -0.04893263056874275,
    0.9923017621040344
   ],
   "scale": [
    0.9999999403953552,
    1.0000001192092896,
    0.9999999403953552
   ],
   "translation": [
    7.450580596923828e-09,
    0.03485651686787605,
    9.033828973770142e-08
   ]
  },
  {
   "children": [
    8
   ],
   "name": "middle_01_l",
   "rotation": [
    -0.007998891174793243,
    0.7071942090988159,
    0.001128928386606276,
    0.7069733142852783
   ],
   "scale": [
    0.9999999403953552,
    0.9999999403953552,
    1
   ],
   "translation": [
    2.1420419216156006e-07,
    0.12831149995326996,
    -2.421438694000244e-08
   ]
  },
  {
   "name": "pinky_04_leaf_l",
   "rotation": [
    2.591405063867569e-07,
    1,
    7.42729810099263e-07,
    4.369881935417652e-06
   ],
   "scale": [
    1,
    1,
    0.9999999403953552
   ],
   "translation": [
    1.862645149230957e-09,
    0.02816423401236534,
    2.8870999813079834e-08
   ]
  },
  {
   "children": [
    10
   ],
   "name": "pinky_03_l",
   "rotation": [
    -0.017429951578378677,
    -1.0290284080838319e-05,
    0.004625735804438591,
    0.9998373985290527
   ],
   "translation": [
    -1.0244548320770264e-08,
    0.02304605394601822,
    -3.3527612686157227e-08
   ]
  },
  {
   "children": [
    11
   ],
   "name": "pinky_02_l",
   "rotation": [
    -0.015049012377858162,
    1.2427484762156382e-05,
    -0.007742131594568491,
    0.9998568296432495
   ],
   "scale": [
    0.9999999403953552,
    0.9999998211860657,
    0.9999999403953552
   ],
   "translation": [
    1.3504177331924438e-08,
    0.02458452805876732,
    8.381903171539307e-08
   ]
  },
  {
   "children": [
    12
   ],
   "name": "pinky_01_l",
   "rotation": [
    -0.011546679772436619,
    0.6985994577407837,
    -0.13425475358963013,
    0.7027098536491394
   ],
   "scale": [
    0.9999998807907104,
    1.0000001192092896,
    1
   ],
   "translation": [
    -0.003249170258641243,
    0.11280001699924469,
    -0.04492819309234619
   ]
  },
  {
   "name": "ring_04_leaf_l",
   "rotation": [
    1.8626449271863521e-09,
    1,
    5.592592060565948e-07,
    4.133180482313037e-06
   ],
   "scale": [
    1,
    0.9999999403953552,
    1
   ],
   "translation": [
    -5.122274160385132e-09,
    0.03182276710867882,
    -1.6763806343078613e-07
   ]
  },
  {
   "children": [
    14
   ],
   "name": "ring_03_l",
   "rotation": [
    -0.034807611256837845,
    3.8098620279924944e-05,
    -0.011716693639755249,
    0.9993253946304321
   ],
   "scale": [
    1,
    1.0000001192092896,
    0.9999999403953552
   ],
   "translation": [
    -1.30385160446167e-08,
    0.027127576991915703,
    2.514570951461792e-08
   ]
  },
  {
   "children": [
    15
   ],
   "name": "ring_02_l",
   "rotation": [
    0.12512251734733582,
    8.260376489488408e-07,
    -0.04683397710323334,
    0.9910353422164917
   ],
   "scale": [
    1,
    0.9999999403953552,
    0.9999999403953552
   ],
   "translation": [
    7.450580596923828e-09,
    0.030405884608626366,
    -5.774199962615967e-08
   ]
  },
  {
   "children": [
    16
   ],
   "name": "ring_01_l",
   "rotation": [
    -0.03600794076919556,
    0.7065655589103699,
    -0.023554200306534767,
    0.7063382863998413
   ],
   "scale": [
    0.9999998807907104,
    0.9999998211860657,
    0.9999998211860657
   ],
   "translation": [
    -0.0022219279780983925,
    0.12319976091384888,
    -0.023185059428215027
   ]
  },
  {
   "name": "thumb_04_leaf_l",
   "rotation": [
    -8.666064132967222e-08,
    0.5061784386634827,
    -6.911253649377613e-07,
    0.8624287843704224
   ],
   "scale": [
    0.9999999403953552,
    1,
    1
   ],
   "translation": [
    2.0489096641540527e-08,
    0.04086242616176605,
    3.026798367500305e-08
   ]
  },
  {
   "children": [
    18
   ],
   "name": "thumb_03_l",
   "rotation": [
    0.038206856697797775,
    6.0704936913680285e-05,
    -0.003949312027543783,
    0.9992620348930359
   ],
   "scale": [
    0.9999999403953552,
    1,
    1
   ],
   "translation": [
    8.009374141693115e-08,
    0.030296513810753822,
    5.960464477539063e-08
   ]
  },
  {
   "children": [
    19
   ],
   "name": "thumb_02_l",
   "rotation": [
    0.08123720437288284,
    -6.545388168888167e-05,
    0.03416353464126587,
    0.996109127998352
   ],
   "scale": [
    0.9999998807907104,
    0.9999998807907104,
    1
   ],
   "translation": [
    -2.0954757928848267e-08,
    0.06359592080116272,
    -4.0978193283081055e-08
   ]
  },
  {
   "children": [
    20
   ],
   "name": "thumb_01_l",
   "rotation": [
    0.19879724085330963,
    0.9399301409721375,
    0.26572659611701965,
    0.08000247925519943
   ],
   "scale": [
    1,
    1.0000004768371582,
    0.9999998807907104
   ],
   "translation": [
    0.014041760936379433,
    0.033058807253837585,
    0.02252725511789322
   ]
  },
  {
   "children": [
    5,
    9,
    13,
    17,
    21
   ],
   "name": "hand_l",
   "rotation": [
    -0.031026145443320274,
    -0.00039722936344332993,
    -0.04603857174515724,
    0.998457670211792
   ],
   "scale": [
    1,
    0.9999999403953552,
    0.9999999403953552
   ],
   "translation": [
    -1.2479722499847412e-07,
    0.2155425101518631,
    -2.60770320892334e-08
   ]
  },
  {
   "children": [
    22
   ],
   "name": "lowerarm_l",
   "rotation": [
    0.08169202506542206,
    -0.002163646975532174,
    0.12474946677684784,
    0.9888171553611755
   ],
   "scale": [
    0.9999999403953552,
    0.9999999403953552,
    0.9999998807907104
   ],
   "translation": [
    -7.776543498039246e-08,
    0.2526191771030426,
    7.450580596923828e-09
   ]
  },
  {
   "children": [
    23
   ],
   "name": "upperarm_l",
   "rotation": [
    -0.309012770652771,
    0.7203134298324585,
    -0.09680739045143127,
    0.613423228263855
   ],
   "scale": [
    0.9999998807907104,
    0.9999995827674866,
    0.9999998807907104
   ],
   "translation": [
    -3.0573573894798756e-08,
    0.16089306771755219,
    -5.3085386753082275e-08
   ]
  },
  {
   "children": [
    24
   ],
   "name": "clavicle_l",
   "rotation": [
    -0.5739023685455322,
    -0.43809181451797485,
    -0.555611789226532,
    0.4123193919658661
   ],
   "translation": [
    0.03674304485321045,
    0.20328763127326965,
    -0.020137686282396317
   ]
  },
  {
   "name": "index_04_leaf_r",
   "rotation": [
    7.450580596923828e-08,
    -1,
    -7.455236641362717e-07,
    3.772787522393628e-06
   ],
   "scale": [
    1,
    1,
    1.0000001192092896
   ],
   "translation": [
    -4.470348358154297e-08,
    0.030100125819444656,
    2.6542693376541138e-08
   ]
  },
  {
   "children": [
    26
   ],
   "name": "index_03_r",
   "rotation": [
    -0.04849317669868469,
    -5.970544236788555e-08,
    -0.03197126463055611,
    0.9983116984367371
   ],
   "translation": [
    -4.190951585769653e-09,
    0.025925416499376297,
    -4.2869942262768745e-08
   ]
  },
  {
   "children": [
    27
   ],
   "name": "index_02_r",
   "rotation": [
    0.053899090737104416,
    6.099721190366836e-07,
    0.0012244933750480413,
    0.9985456466674805
   ],
   "translation": [
    1.2398231774568558e-08,
    0.025076476857066154,
    -6.292248144745827e-08
   ]
  },
  {
   "children": [
    28
   ],
   "name": "index_01_r",
   "rotation": [
    0.01883687824010849,
    -0.7063117623329163,
    0.04360330104827881,
    0.7063056230545044
   ],
   "scale": [
    0.9999999403953552,
    1,
    1
   ],
   "translation": [
    -0.007182867266237736,
    0.13896213471889496,
    0.022565681487321854
   ]
  },
  {
   "name": "middle_04_leaf_r",
   "rotation": [
    1.0803342576082287e-07,
    -1,
    6.100162863731384e-08,
    3.6507842651190003e-06
   ],
   "scale": [
    1,
    0.9999999403953552,
    1.0000001192092896
   ],
   "translation": [
    -9.313225746154785e-09,
    0.034437306225299835,
    3.306195139884949e-08
   ]
  },
  {
   "children": [
    30
   ],
   "name": "middle_03_r",
   "rotation": [
    -0.01961713843047619,
    -2.2268040993367322e-05,
    0.01453420426696539,
    0.9997019171714783
   ],
   "scale": [
    0.9999999403953552,
    1,
    0.9999999403953552
   ],
   "translation": [
    -1.862645149230957e-09,
    0.0318969190120697,
    3.4924596548080444e-08
   ]
  },
  {
   "children": [
    31
   ],
   "name": "middle_02_r",
   "rotation": [
    0.012513923458755016,
    -1.849291038524825e-05,
    -0.014413032680749893,
    0.9998177886009216
   ],
   "scale": [
    1.0000001192092896,
    1,
    1.0000001192092896
   ],
   "translation": [
    -9.313225746154785e-09,
    0.02895512245595455,
    -1.4994293451309204e-07
   ]
  },
  {
   "children": [
    32
   ],
   "name": "middle_01_r",
   "rotation": [
    -0.0008581651491113007,
    -0.7037793397903442,
    0.08184970915317535,
    0.7056872844696045
   ],
   "scale": [
    0.9999999403953552,
    0.9999998211860657,
    0.9999999403953552
   ],
   "translation": [
    -8.66129994392395e-08,
    0.13515622913837433,
    1.862645149230957e-08
   ]
  },
  {
   "name": "pinky_04_leaf_r",
   "rotation": [
    9.313225746154785e-10,
    -1,
    -2.7008359992919395e-08,
    3.77558171749115e-06
   ],
   "scale": [
    1,
    0.9999997019767761,
    1
   ],
   "translation": [
    -4.842877388000488e-08,
    0.02816421166062355,
    7.450580596923828e-09
   ]
  },
  {
   "children": [
    34
   ],
   "name": "pinky_03_r",
   "rotation": [
    -0.04854918271303177,
    2.9768805688945577e-05,
    0.00458739697933197,
    0.9988102912902832
   ],
   "scale": [
    1,
    0.9999999403953552,
    0.9999998807907104
   ],
   "translation": [
    -1.1175870895385742e-08,
    0.020910026505589485,
    -6.798654794692993e-08
   ]
  },
  {
   "children": [
    35
   ],
   "name": "pinky_02_r",
   "rotation": [
    0.014203323051333427,
    1.1767256182793062e-05,
    0.02742159552872181,
    0.9995230436325073
   ],
   "scale": [
    1,
    0.9999999403953552,
    0.9999999403953552
   ],
   "translation": [
    9.313225746154785e-10,
    0.02278725430369377,
    2.421438694000244e-08
   ]
  },
  {
   "children": [
    36
   ],
   "name": "pinky_01_r",
   "rotation": [
    -0.028429139405488968,
    -0.6997609734535217,
    0.12398549169301987,
    0.7029609084129333
   ],
   "scale": [
    0.9999998807907104,
    0.9999998211860657,
    0.9999998807907104
   ],
   "translation": [
    0.0014907028526067734,
    0.12021058797836304,
    -0.04615413397550583
   ]
  },
  {
   "name": "ring_04_leaf_r",
   "rotation": [
    2.062879644881832e-07,
    -1,
    -7.338821887969971e-07,
    3.5339037367521087e-06
   ],
   "scale": [
    0.9999999403953552,
    1,
    1
   ],
   "translation": [
    3.725290298461914e-09,
    0.031822726130485535,
    -6.51925802230835e-09
   ]
  },
  {
   "children": [
    38
   ],
   "name": "ring_03_r",
   "rotation": [
    -0.01863565295934677,
    -1.9874332792824134e-05,
    -0.0043523130007088184,
    0.99981689453125
   ],
   "scale": [
    1,
    0.9999998807907104,
    0.9999999403953552
   ],
   "translation": [
    -1.1175870895385742e-08,
    0.027077876031398773,
    7.450580596923828e-08
   ]
  },
  {
   "children": [
    39
   ],
   "name": "ring_02_r",
   "rotation": [
    0.027483073994517326,
    -2.3664566128900333e-07,
    -0.00174393889028579,
    0.999620795249939
   ],
   "scale": [
    1,
    0.9999999403953552,
    1
   ],
   "translation": [
    -2.0489096641540527e-08,
    0.02871740236878395,
    6.984919309616089e-08
   ]
  },
  {
   "children": [
    40
   ],
   "name": "ring_01_r",
   "rotation": [
    -0.029861100018024445,
    -0.7029565572738647,
    0.09575458616018295,
    0.7041246891021729
   ],
   "scale": [
    0.9999999403953552,
    1,
    0.9999999403953552
   ],
   "translation": [
    0.001923925243318081,
    0.12688565254211426,
    -0.023495782166719437
   ]
  },
  {
   "name": "thumb_04_leaf_r",
   "rotation": [
    7.370201160483703e-08,
    -0.5061777830123901,
    -4.751484894427449e-08,
    0.862429141998291
   ],
   "translation": [
    2.60770320892334e-08,
    0.04086232930421829,
    -7.916241884231567e-08
   ]
  },
  {
   "children": [
    42
   ],
   "name": "thumb_03_r",
   "rotation": [
    0.010224630124866962,
    -9.307137952418998e-05,
    0.07255624979734421,
    0.9973118901252747
   ],
   "translation": [
    2.7939677238464355e-09,
    0.02526702545583248,
    -3.725290298461914e-08
   ]
  },
  {
   "children": [
    43
   ],
   "name": "thumb_02_r",
   "rotation": [
    0.05516009032726288,
    7.162708061514422e-05,
    0.005940041970461607,
    0.9984598755836487
   ],
   "scale": [
    1.0000001192092896,
    0.9999999403953552,
    0.9999999403953552
   ],
   "translation": [
    -1.0617077350616455e-07,
    0.07067813724279404,
    7.450580596923828e-09
   ]
  },
  {
   "children": [
    44
   ],
   "name": "thumb_01_r",
   "rotation": [
    0.2504635453224182,
    -0.9378892183303833,
    -0.23243092000484467,
    0.06006409227848053
   ],
   "scale": [
    0.9999999403953552,
    0.9999998807907104,
    1
   ],
   "translation": [
    -0.006966069340705872,
    0.0337512381374836,
    0.024693407118320465
   ]
  },
  {
   "children": [
    29,
    33,
    37,
    41,
    45
   ],
   "name": "hand_r",
   "rotation": [
    -0.02897755242884159,
    0.0004170025058556348,
    0.04835359379649162,
    0.9984097480773926
   ],
   "translation": [
    -2.4633482098579407e-07,
    0.21606512367725372,
    -5.21540641784668e-08
   ]
  },
  {
   "children": [
    46
   ],
   "name": "lowerarm_r",
   "rotation": [
    0.08376288414001465,
    0.002205439144745469,
    -0.12716363370418549,
    0.9883361458778381
   ],
   "scale": [
    1,
    1,
    1.0000001192092896
   ],
   "translation": [
    3.818422555923462e-08,
    0.25064903497695923,
    -3.725290298461914e-09
   ]
  },
  {
   "children": [
    47
   ],
   "name": "upperarm_r",
   "rotation": [
    -0.3119966387748718,
    -0.7200558185577393,
    0.09840615838766098,
    0.6119590997695923
   ],
   "scale": [
    0.9999999403953552,
    0.9999999403953552,
    1
   ],
   "translation": [
    1.2965756468474865e-08,
    0.1608930230140686,
    -5.21540641784668e-08
   ]
  },
  {
   "children": [
    48
   ],
   "name": "clavicle_r",
   "rotation": [
    -0.5739057064056396,
    0.43808916211128235,
    0.5556118488311768,
    0.41231730580329895
   ],
   "scale": [
    0.9999998807907104,
    0.9999998211860657,
    0.9999998807907104
   ],
   "translation": [
    -0.03674301505088806,
    0.20328809320926666,
    -0.020137496292591095
   ]
  },
  {
   "name": "breast_l",
   "rotation": [
    0.8276686072349548,
    -6.548595621325148e-08,
    5.933883784337013e-08,
    0.5612172484397888
   ],
   "scale": [
    1,
    0.9999999403953552,
    0.9999999403953552
   ],
   "translation": [
    0.09149465709924698,
    0.02670389972627163,
    0.07059912383556366
   ]
  },
  {
   "name": "breast_r",
   "rotation": [
    0.8276686668395996,
    -6.548590647525998e-08,
    5.933885560693852e-08,
    0.5612170696258545
   ],
   "scale": [
    1,
    0.9999999403953552,
    1
   ],
   "translation": [
    -0.08786919713020325,
    0.028753157705068588,
    0.07116828113794327
   ]
  },
  {
   "children": [
    1,
    25,
    49,
    50,
    51
   ],
   "name": "spine_03",
   "rotation": [
    -0.15560832619667053,
    -5.241359346541685e-09,
    -9.067619544111949e-09,
    0.9878188371658325
   ],
   "scale": [
    1,
    0.9999999403953552,
    1
   ],
   "translation": [
    -4.2782617726278005e-16,
    0.11817018687725067,
    -1.862645149230957e-09
   ]
  },
  {
   "children": [
    52
   ],
   "name": "spine_02",
   "rotation": [
    -0.018412182107567787,
    -6.344914282863101e-08,
    -3.766788658765563e-09,
    0.9998304843902588
   ],
   "translation": [
    -1.571225788365993e-15,
    0.04734303057193756,
    7.2177499532699585e-09
   ]
  },
  {
   "children": [
    53
   ],
   "name": "spine_01",
   "rotation": [
    -0.16446825861930847,
    1.1722862325314054e-07,
    -2.4440698354055712e-08,
    0.9863823652267456
   ],
   "translation": [
    1.24683249835833e-16,
    0.10225912183523178,
    1.1175870895385742e-08
   ]
  },
  {
   "name": "ball_leaf_l",
   "rotation": [
    -3.359400579938665e-08,
    -6.461050361394882e-08,
    4.6566128730773926e-09,
    1
   ],
   "translation": [
    -5.995389074087143e-09,
    0.07889994978904724,
    -4.394678398966789e-09
   ]
  },
  {
   "children": [
    55
   ],
   "name": "ball_l",
   "rotation": [
    0.017003396525979042,
    -0.9840686917304993,
    0.17689868807792664,
    0.005153439473360777
   ],
   "scale": [
    0.9999999403953552,
    0.9999993443489075,
    1
   ],
   "translation": [
    4.0745362639427185e-09,
    0.13257987797260284,
    4.190951585769653e-09
   ]
  },
  {
   "children": [
    56
   ],
   "name": "foot_l",
   "rotation": [
    -0.5259309411048889,
    -0.013976658694446087,
    -0.021548721939325333,
    0.8501393795013428
   ],
   "scale": [
    0.9999999403953552,
    0.9999998807907104,
    0.9999998807907104
   ],
   "translation": [
    9.677023626863956e-09,
    0.45252469182014465,
    4.132743924856186e-09
   ]
  },
  {
   "children": [
    57
   ],
   "name": "calf_l",
   "rotation": [
    0.038200005888938904,
    -0.00152471917681396,
    0.0380624383687973,
    0.9985437989234924
   ],
   "scale": [
    1,
    1.0000001192092896,
    1
   ],
   "translation": [
    -6.9776433520019054e-09,
    0.4935515522956848,
    8.675851859152317e-08
   ]
  },
  {
   "children": [
    58
   ],
   "name": "thigh_l",
   "rotation": [
    0.9831892251968384,
    0.02927211858332157,
    -0.0036092603113502264,
    0.18019181489944458
   ],
   "scale": [
    1,
    1,
    1.0000011920928955
   ],
   "translation": [
    0.07348603755235672,
    -0.030424252152442932,
    -0.013960655778646469
   ]
  },
  {
   "name": "ball_leaf_r",
   "rotation": [
    5.609308573184535e-08,
    -6.711343303322792e-08,
    -4.656612873077393e-10,
    1
   ],
   "translation": [
    -4.773028194904327e-09,
    0.07890014350414276,
    1.1059455573558807e-09
   ]
  },
  {
   "children": [
    60
   ],
   "name": "ball_r",
   "rotation": [
    0.017126688733696938,
    0.9840770363807678,
    -0.1768653392791748,
    0.004218255635350943
   ],
   "scale": [
    1,
    0.9999999403953552,
    0.9999998807907104
   ],
   "translation": [
    -5.704350769519806e-09,
    0.132900670170784,
    2.1187588572502136e-08
   ]
  },
  {
   "children": [
    61
   ],
   "name": "foot_r",
   "rotation": [
    -0.5289507508277893,
    0.013429847545921803,
    0.022409554570913315,
    0.8482503294944763
   ],
   "scale": [
    0.9999999403953552,
    0.9999999403953552,
    0.9999999403953552
   ],
   "translation": [
    6.170012056827545e-09,
    0.45272567868232727,
    1.5352270565927029e-09
   ]
  },
  {
   "children": [
    62
   ],
   "name": "calf_r",
   "rotation": [
    0.0408739298582077,
    0.0012973396806046367,
    -0.03902268037199974,
    0.9984011650085449
   ],
   "scale": [
    0.9999999403953552,
    0.9999999403953552,
    1
   ],
   "translation": [
    -7.254129741340876e-09,
    0.4935506582260132,
    9.569339454174042e-08
   ]
  },
  {
   "children": [
    63
   ],
   "name": "thigh_r",
   "rotation": [
    0.9831891655921936,
    -0.029272256419062614,
    0.0036091753281652927,
    0.18019215762615204
   ],
   "scale": [
    0.9999999403953552,
    0.9999998807907104,
    0.999998927116394
   ],
   "translation": [
    -0.07348602265119553,
    -0.030424252152442932,
    -0.013960659503936768
   ]
  },
  {
   "name": "glute_l",
   "rotation": [
    -0.8960705399513245,
    -2.7964134119429218e-08,
    -2.3932640758062007e-08,
    0.44391173124313354
   ],
   "scale": [
    1,
    0.9999999403953552,
    0.9999998807907104
   ],
   "translation": [
    0.08805271238088608,
    -0.08445273339748383,
    -0.03423186019062996
   ]
  },
  {
   "name": "glute_r",
   "rotation": [
    -0.8960707187652588,
    -2.7964123461288182e-08,
    -2.3932656745273562e-08,
    0.4439113140106201
   ],
   "scale": [
    1,
    1.0000001192092896,
    1.0000001192092896
   ],
   "translation": [
    -0.07445123046636581,
    -0.08491348475217819,
    -0.033823803067207336
   ]
  },
  {
   "children": [
    54,
    59,
    64,
    65,
    66
   ],
   "name": "pelvis",
   "rotation": [
    0.8221108913421631,
    8.480421698209284e-09,
    1.2252897363396187e-08,
    0.5693274140357971
   ],
   "scale": [
    1,
    0.9999999403953552,
    0.9999998807907104
   ],
   "translation": [
    2.2872988225675073e-12,
    4.172325134277344e-07,
    1.0722957849502563
   ]
  },
  {
   "children": [
    67
   ],
   "name": "root",
   "rotation": [
    -0.7071067690849304,
    0,
    0,
    0.7071067690849304
   ]
  },
  {
   "mesh": 0,
   "name": "hair_long",
   "skin": 0
  },
  {
   "children": [
    69,
    68
   ],
   "name": "Armature"
  }
 ],
 "materials": [
  {
   "alphaMode": "BLEND",
   "doubleSided": true,
   "name": "hair",
   "pbrMetallicRoughness": {
    "baseColorTexture": {
     "index": 0
    },
    "metallicFactor": 0,
    "roughnessFactor": 0.5
   }
  },
  {
   "alphaMode": "BLEND",
   "doubleSided": true,
   "name": "hair_cap",
   "pbrMetallicRoughness": {
    "baseColorTexture": {
     "index": 1
    },
    "metallicFactor": 0,
    "roughnessFactor": 0.5
   }
  }
 ],
 "meshes": [
  {
   "extras": {
    "targetNames": [
     "forehead_height+",
     "forehead_height-",
     "forehead_slope+",
     "forehead_slope-",
     "forehead_round+",
     "forehead_round-",
     "temples+",
     "temples-",
     "brow_ridge+",
     "brow_ridge-",
     "face_width+",
     "face_width-",
     "face_shape+",
     "face_shape-",
     "brows_height+",
     "brows_height-",
     "brows_arch+",
     "brows_arch-",
     "cheekbone_height+",
     "cheekbone_height-",
     "cheekbone_width+",
     "cheekbone_width-",
     "cheeks+",
     "cheeks-",
     "jaw_width+",
     "jaw_width-",
     "jaw_angle+",
     "jaw_angle-",
     "chin_width+",
     "chin_width-",
     "chin_length+",
     "chin_length-",
     "chin_forward-",
     "jaw_forward-",
     "ears_size+",
     "ears_size-",
     "ears_pointed+",
     "ears_pointed-",
     "ears_out+",
     "ears_out-",
     "ears_lobes+",
     "ears_lobes-",
     "face_doe",
     "face_fey",
     "face_hardwon",
     "face_highborn",
     "face_moonlit",
     "face_saffron",
     "face_sunborn",
     "face_vixen",
     "face_wildling"
    ]
   },
   "name": "hair_long",
   "primitives": [
    {
     "attributes": {
      "POSITION": 0,
      "NORMAL": 1,
      "TEXCOORD_0": 2,
      "TEXCOORD_1": 3,
      "TANGENT": 4,
      "COLOR_0": 5,
      "JOINTS_0": 6,
      "WEIGHTS_0": 7
     },
     "indices": 8,
     "material": 0,
     "targets": [
      {
       "POSITION": 9
      },
      {
       "POSITION": 10
      },
      {
       "POSITION": 11
      },
      {
       "POSITION": 12
      },
      {
       "POSITION": 13
      },
      {
       "POSITION": 14
      },
      {
       "POSITION": 15
      },
      {
       "POSITION": 16
      },
      {
       "POSITION": 17
      },
      {
       "POSITION": 18
      },
      {
       "POSITION": 19
      },
      {
       "POSITION": 20
      },
      {
       "POSITION": 21
      },
      {
       "POSITION": 22
      },
      {
       "POSITION": 23
      },
      {
       "POSITION": 24
      },
      {
       "POSITION": 25
      },
      {
       "POSITION": 26
      },
      {
       "POSITION": 27
      },
      {
       "POSITION": 28
      },
      {
       "POSITION": 29
      },
      {
       "POSITION": 30
      },
      {
       "POSITION": 31
      },
      {
       "POSITION": 32
      },
      {
       "POSITION": 33
      },
      {
       "POSITION": 34
      },
      {
       "POSITION": 35
      },
      {
       "POSITION": 36
      },
      {
       "POSITION": 37
      },
      {
       "POSITION": 38
      },
      {
       "POSITION": 39
      },
      {
       "POSITION": 40
      },
      {
       "POSITION": 41
      },
      {
       "POSITION": 42
      },
      {
       "POSITION": 43
      },
      {
       "POSITION": 44
      },
      {
       "POSITION": 45
      },
      {
       "POSITION": 46
      },
      {
       "POSITION": 47
      },
      {
       "POSITION": 48
      },
      {
       "POSITION": 49
      },
      {
       "POSITION": 50
      },
      {
       "POSITION": 51
      },
      {
       "POSITION": 52
      },
      {
       "POSITION": 53
      },
      {
       "POSITION": 54
      },
      {
       "POSITION": 55
      },
      {
       "POSITION": 56
      },
      {
       "POSITION": 57
      },
      {
       "POSITION": 58
      },
      {
       "POSITION": 59
      }
     ]
    },
    {
     "attributes": {
      "POSITION": 60,
      "NORMAL": 61,
      "TEXCOORD_0": 62,
      "TEXCOORD_1": 63,
      "TANGENT": 64,
      "COLOR_0": 65,
      "JOINTS_0": 66,
      "WEIGHTS_0": 67
     },
     "indices": 68,
     "material": 1,
     "targets": [
      {
       "POSITION": 69
      },
      {
       "POSITION": 70
      },
      {
       "POSITION": 71
      },
      {
       "POSITION": 72
      },
      {
       "POSITION": 73
      },
      {
       "POSITION": 74
      },
      {
       "POSITION": 75
      },
      {
       "POSITION": 76
      },
      {
       "POSITION": 77
      },
      {
       "POSITION": 78
      },
      {
       "POSITION": 79
      },
      {
       "POSITION": 80
      },
      {
       "POSITION": 81
      },
      {
       "POSITION": 82
      },
      {
       "POSITION": 83
      },
      {
       "POSITION": 84
      },
      {
       "POSITION": 85
      },
      {
       "POSITION": 86
      },
      {
       "POSITION": 87
      },
      {
       "POSITION": 88
      },
      {
       "POSITION": 89
      },
      {
       "POSITION": 90
      },
      {
       "POSITION": 91
      },
      {
       "POSITION": 92
      },
      {
       "POSITION": 93
      },
      {
       "POSITION": 94
      },
      {
       "POSITION": 95
      },
      {
       "POSITION": 96
      },
      {
       "POSITION": 97
      },
      {
       "POSITION": 98
      },
      {
       "POSITION": 99
      },
      {
       "POSITION": 100
      },
      {
       "POSITION": 101
      },
      {
       "POSITION": 102
      },
      {
       "POSITION": 103
      },
      {
       "POSITION": 104
      },
      {
       "POSITION": 105
      },
      {
       "POSITION": 106
      },
      {
       "POSITION": 107
      },
      {
       "POSITION": 108
      },
      {
       "POSITION": 109
      },
      {
       "POSITION": 110
      },
      {
       "POSITION": 111
      },
      {
       "POSITION": 112
      },
      {
       "POSITION": 113
      },
      {
       "POSITION": 114
      },
      {
       "POSITION": 115
      },
      {
       "POSITION": 116
      },
      {
       "POSITION": 117
      },
      {
       "POSITION": 118
      },
      {
       "POSITION": 119
      }
     ]
    }
   ],
   "weights": [
    0,
    0,
    0,
    0,
    0,
    0,
    0,
    0,
    0,
    0,
    0,
    0,
    0,
    0,
    0,
    0,
    0,
    0,
    0,
    0,
    0,
    0,
    0,
    0,
    0,
    0,
    0,
    0,
    0,
    0,
    0,
    0,
    0,
    0,
    0,
    0,
    0,
    0,
    0,
    0,
    0,
    0,
    0,
    0,
    0,
    0,
    0,
    0,
    0,
    0,
    0
   ]
  }
 ],
 "textures": [
  {
   "sampler": 0,
   "source": 0
  },
  {
   "sampler": 0,
   "source": 1
  }
 ],
 "images": [
  {
   "mimeType": "image/png",
   "name": "hair_strands",
   "uri": "head_tex/hair_strands.png"
  },
  {
   "mimeType": "image/png",
   "name": "hair_scalp",
   "uri": "head_tex/hair_scalp.png"
  }
 ],
 "skins": [
  {
   "inverseBindMatrices": 120,
   "joints": [
    68,
    67,
    54,
    53,
    52,
    1,
    0,
    25,
    24,
    23,
    22,
    5,
    4,
    3,
    2,
    9,
    8,
    7,
    6,
    13,
    12,
    11,
    10,
    17,
    16,
    15,
    14,
    21,
    20,
    19,
    18,
    49,
    48,
    47,
    46,
    29,
    28,
    27,
    26,
    33,
    32,
    31,
    30,
    37,
    36,
    35,
    34,
    41,
    40,
    39,
    38,
    45,
    44,
    43,
    42,
    50,
    51,
    59,
    58,
    57,
    56,
    55,
    64,
    63,
    62,
    61,
    60,
    65,
    66
   ],
   "name": "Armature"
  }
 ],
 "accessors": [
  {
   "bufferView": 0,
   "componentType": 5126,
   "count": 136303,
   "max": [
    0.18208695948123932,
    1.8791460990905762,
    0.1469881683588028
   ],
   "min": [
    -0.18100160360336304,
    1.1118416786193848,
    -0.14445601403713226
   ],
   "type": "VEC3"
  },
  {
   "bufferView": 1,
   "componentType": 5126,
   "count": 136303,
   "type": "VEC3"
  },
  {
   "bufferView": 2,
   "componentType": 5126,
   "count": 136303,
   "type": "VEC2"
  },
  {
   "bufferView": 3,
   "componentType": 5126,
   "count": 136303,
   "type": "VEC2"
  },
  {
   "bufferView": 4,
   "componentType": 5126,
   "count": 136303,
   "type": "VEC4"
  },
  {
   "bufferView": 5,
   "componentType": 5123,
   "count": 136303,
   "normalized": true,
   "type": "VEC4"
  },
  {
   "bufferView": 6,
   "componentType": 5121,
   "count": 136303,
   "type": "VEC4"
  },
  {
   "bufferView": 7,
   "componentType": 5126,
   "count": 136303,
   "type": "VEC4"
  },
  {
   "bufferView": 8,
   "componentType": 5125,
   "count": 517692,
   "type": "SCALAR"
  },
  {
   "componentType": 5126,
   "count": 136303,
   "max": [
    1.5888363122940063e-06,
    0.05201303958892822,
    0.003958309534937143
   ],
   "min": [
    -0.0006656940095126629,
    -0.00012409687042236328,
    -9.447336196899414e-06
   ],
   "sparse": {
    "count": 18414,
    "indices": {
     "bufferView": 9,
     "componentType": 5125
    },
    "values": {
     "bufferView": 10
    }
   },
   "type": "VEC3"
  },
  {
   "componentType": 5126,
   "count": 136303,
   "max": [
    0.000382973812520504,
    0,
    0
   ],
   "min": [
    0,
    -0.029923081398010254,
    -0.002277214080095291
   ],
   "sparse": {
    "count": 17916,
    "indices": {
     "bufferView": 11,
     "componentType": 5125
    },
    "values": {
     "bufferView": 12
    }
   },
   "type": "VEC3"
  },
  {
   "componentType": 5126,
   "count": 136303,
   "max": [
    0.00012992636766284704,
    0.0009708404541015625,
    0.015229500830173492
   ],
   "min": [
    0,
    -0.0009398460388183594,
    0
   ],
   "sparse": {
    "count": 14671,
    "indices": {
     "bufferView": 13,
     "componentType": 5125
    },
    "values": {
     "bufferView": 14
    }
   },
   "type": "VEC3"
  },
  {
   "componentType": 5126,
   "count": 136303,
   "max": [
    0,
    0.0023386478424072266,
    0
   ],
   "min": [
    -0.0001769892405718565,
    -0.0005209445953369141,
    -0.023868422955274582
   ],
   "sparse": {
    "count": 13692,
    "indices": {
     "bufferView": 15,
     "componentType": 5125
    },
    "values": {
     "bufferView": 16
    }
   },
   "type": "VEC3"
  },
  {
   "componentType": 5126,
   "count": 136303,
   "max": [
    0,
    0.060388803482055664,
    0
   ],
   "min": [
    -0.0013718120753765106,
    -0.0003591775894165039,
    -0.07391244173049927
   ],
   "sparse": {
    "count": 31066,
    "indices": {
     "bufferView": 17,
     "componentType": 5125
    },
    "values": {
     "bufferView": 18
    }
   },
   "type": "VEC3"
  },
  {
   "componentType": 5126,
   "count": 136303,
   "max": [
    0.0005538957193493843,
    0.00012612342834472656,
    0.029857315123081207
   ],
   "min": [
    0,
    -0.02437734603881836,
    0
   ],
   "sparse": {
    "count": 29707,
    "indices": {
     "bufferView": 19,
     "componentType": 5125
    },
    "values": {
     "bufferView": 20
    }
   },
   "type": "VEC3"
  },
  {
   "componentType": 5126,
   "count": 136303,
   "max": [
    0.006483852863311768,
    0.0002726316452026367,
    6.375089287757874e-05
   ],
   "min": [
    -0.006461724638938904,
    -2.491474151611328e-05,
    -3.583356738090515e-05
   ],
   "sparse": {
    "count": 9306,
    "indices": {
     "bufferView": 21,
     "componentType": 5125
    },
    "values": {
     "bufferView": 22
    }
   },
   "type": "VEC3"
  },
  {
   "componentType": 5126,
   "count": 136303,
   "max": [
    0.00762292742729187,
    0.00010204315185546875,
    5.920231342315674e-05
   ],
   "min": [
    -0.007683549076318741,
    -0.00010287761688232422,
    -5.8736652135849e-05
   ],
   "sparse": {
    "count": 6736,
    "indices": {
     "bufferView": 23,
     "componentType": 5125
    },
    "values": {
     "bufferView": 24
    }
   },
   "type": "VEC3"
  },
  {
   "componentType": 5126,
   "count": 136303,
   "max": [
    2.7254223823547363e-05,
    0.00048792362213134766,
    0.0028470829129219055
   ],
   "min": [
    -6.332993507385254e-08,
    -7.903575897216797e-05,
    0
   ],
   "sparse": {
    "count": 874,
    "indices": {
     "bufferView": 25,
     "componentType": 5125
    },
    "values": {
     "bufferView": 26
    }
   },
   "type": "VEC3"
  },
  {
   "componentType": 5126,
   "count": 136303,
   "max": [
    0,
    0.0007508993148803711,
    0
   ],
   "min": [
    -4.711374640464783e-05,
    -0.0002607107162475586,
    -0.0053306519985198975
   ],
   "sparse": {
    "count": 2181,
    "indices": {
     "bufferView": 27,
     "componentType": 5125
    },
    "values": {
     "bufferView": 28
    }
   },
   "type": "VEC3"
  },
  {
   "componentType": 5126,
   "count": 136303,
   "max": [
    0.014652490615844727,
    0.00019609928131103516,
    0.00011285394430160522
   ],
   "min": [
    -0.014646477997303009,
    -0.00019598007202148438,
    -0.000112900510430336
   ],
   "sparse": {
    "count": 57538,
    "indices": {
     "bufferView": 29,
     "componentType": 5125
    },
    "values": {
     "bufferView": 30
    }
   },
   "type": "VEC3"
  },
  {
   "componentType": 5126,
   "count": 136303,
   "max": [
    0.014646477997303009,
    0.00019609928131103516,
    0.000112900510430336
   ],
   "min": [
    -0.014652490615844727,
    -0.00019609928131103516,
    -0.00011285394430160522
   ],
   "sparse": {
    "count": 57538,
    "indices": {
     "bufferView": 31,
     "componentType": 5125
    },
    "values": {
     "bufferView": 32
    }
   },
   "type": "VEC3"
  },
  {
   "componentType": 5126,
   "count": 136303,
   "max": [
    0.013130813837051392,
    0.01268017292022705,
    0.006156422197818756
   ],
   "min": [
    -0.013209126889705658,
    -0.002138972282409668,
    -0.005220789462327957
   ],
   "sparse": {
    "count": 51904,
    "indices": {
     "bufferView": 33,
     "componentType": 5125
    },
    "values": {
     "bufferView": 34
    }
   },
   "type": "VEC3"
  },
  {
   "componentType": 5126,
   "count": 136303,
   "max": [
    0.006661921739578247,
    6.747245788574219e-05,
    3.8759782910346985e-05
   ],
   "min": [
    -0.006988905370235443,
    -0.0024123191833496094,
    -0.00021451711654663086
   ],
   "sparse": {
    "count": 20334,
    "indices": {
     "bufferView": 35,
     "componentType": 5125
    },
    "values": {
     "bufferView": 36
    }
   },
   "type": "VEC3"
  },
  {
   "componentType": 5126,
   "count": 136303,
   "max": [
    0.0010782703757286072,
    0.0111464262008667,
    0.0008576735854148865
   ],
   "min": [
    -0.0013809660449624062,
    0,
    0
   ],
   "sparse": {
    "count": 7746,
    "indices": {
     "bufferView": 37,
     "componentType": 5125
    },
    "values": {
     "bufferView": 38
    }
   },
   "type": "VEC3"
  },
  {
   "componentType": 5126,
   "count": 136303,
   "max": [
    5.1427632570266724e-05,
    0,
    0
   ],
   "min": [
    0,
    -0.004018068313598633,
    -0.00030577927827835083
   ],
   "sparse": {
    "count": 1063,
    "indices": {
     "bufferView": 39,
     "componentType": 5125
    },
    "values": {
     "bufferView": 40
    }
   },
   "type": "VEC3"
  },
  {
   "componentType": 5126,
   "count": 136303,
   "max": [
    0.0013465210795402527,
    0,
    0
   ],
   "min": [
    -0.0009405463933944702,
    -0.004904270172119141,
    -0.0003045126795768738
   ],
   "sparse": {
    "count": 219,
    "indices": {
     "bufferView": 41,
     "componentType": 5125
    },
    "values": {
     "bufferView": 42
    }
   },
   "type": "VEC3"
  },
  {
   "componentType": 5126,
   "count": 136303,
   "max": [
    0.0005074888467788696,
    0.006052732467651367,
    0.0004618540406227112
   ],
   "min": [
    -0.0006233751773834229,
    0,
    0
   ],
   "sparse": {
    "count": 2323,
    "indices": {
     "bufferView": 43,
     "componentType": 5125
    },
    "values": {
     "bufferView": 44
    }
   },
   "type": "VEC3"
  },
  {
   "componentType": 5126,
   "count": 136303,
   "max": [
    0.00012402981519699097,
    0.0014755725860595703,
    7.52471387386322e-05
   ],
   "min": [
    -0.00017131119966506958,
    0,
    0
   ],
   "sparse": {
    "count": 69,
    "indices": {
     "bufferView": 45,
     "componentType": 5125
    },
    "values": {
     "bufferView": 46
    }
   },
   "type": "VEC3"
  },
  {
   "componentType": 5126,
   "count": 136303,
   "max": [
    5.552172660827637e-05,
    0,
    0
   ],
   "min": [
    0,
    -0.004338383674621582,
    -0.0003301650285720825
   ],
   "sparse": {
    "count": 366,
    "indices": {
     "bufferView": 47,
     "componentType": 5125
    },
    "values": {
     "bufferView": 48
    }
   },
   "type": "VEC3"
  },
  {
   "componentType": 5126,
   "count": 136303,
   "max": [
    0.007096529006958008,
    9.500980377197266e-05,
    5.529820919036865e-05
   ],
   "min": [
    -0.007176637649536133,
    -9.608268737792969e-05,
    -5.4679811000823975e-05
   ],
   "sparse": {
    "count": 981,
    "indices": {
     "bufferView": 49,
     "componentType": 5125
    },
    "values": {
     "bufferView": 50
    }
   },
   "type": "VEC3"
  },
  {
   "componentType": 5126,
   "count": 136303,
   "max": [
    0.003659076988697052,
    0.00041735172271728516,
    5.833804607391357e-06
   ],
   "min": [
    -0.0036020055413246155,
    -1.728534698486328e-05,
    -0.0010925568640232086
   ],
   "sparse": {
    "count": 948,
    "indices": {
     "bufferView": 51,
     "componentType": 5125
    },
    "values": {
     "bufferView": 52
    }
   },
   "type": "VEC3"
  },
  {
   "componentType": 5126,
   "count": 136303,
   "max": [
    0.006822064518928528,
    0.0008703470230102539,
    0.003192692995071411
   ],
   "min": [
    -0.006748594343662262,
    -0.0022810697555541992,
    -2.2407621145248413e-06
   ],
   "sparse": {
    "count": 1929,
    "indices": {
     "bufferView": 53,
     "componentType": 5125
    },
    "values": {
     "bufferView": 54
    }
   },
   "type": "VEC3"
  },
  {
   "componentType": 5126,
   "count": 136303,
   "max": [
    0.010321132838726044,
    0.0008499622344970703,
    0.0001315101981163025
   ],
   "min": [
    -0.010013699531555176,
    -1.1205673217773438e-05,
    -3.633648157119751e-05
   ],
   "sparse": {
    "count": 1677,
    "indices": {
     "bufferView": 55,
     "componentType": 5125
    },
    "values": {
     "bufferView": 56
    }
   },
   "type": "VEC3"
  },
  {
   "componentType": 5126,
   "count": 136303,
   "max": [
    0.0009614825248718262,
    0,
    0
   ],
   "min": [
    -0.00035994499921798706,
    -0.028115153312683105,
    -0.008786695078015327
   ],
   "sparse": {
    "count": 7059,
    "indices": {
     "bufferView": 57,
     "componentType": 5125
    },
    "values": {
     "bufferView": 58
    }
   },
   "type": "VEC3"
  },
  {
   "componentType": 5126,
   "count": 136303,
   "max": [
    0.0036709830164909363,
    0.0021485090255737305,
    0.000332515686750412
   ],
   "min": [
    -0.0041753798723220825,
    -2.2649765014648438e-06,
    -0.013495314866304398
   ],
   "sparse": {
    "count": 5202,
    "indices": {
     "bufferView": 59,
     "componentType": 5125
    },
    "values": {
     "bufferView": 60
    }
   },
   "type": "VEC3"
  },
  {
   "componentType": 5126,
   "count": 136303,
   "max": [
    3.6969780921936035e-05,
    0,
    0
   ],
   "min": [
    -2.8498470783233643e-05,
    -0.0012767314910888672,
    -0.0003151223063468933
   ],
   "sparse": {
    "count": 222,
    "indices": {
     "bufferView": 61,
     "componentType": 5125
    },
    "values": {
     "bufferView": 62
    }
   },
   "type": "VEC3"
  },
  {
   "componentType": 5126,
   "count": 136303,
   "max": [
    7.715076208114624e-05,
    0.0014045238494873047,
    0.0003210827708244324
   ],
   "min": [
    -0.0001606270670890808,
    0,
    0
   ],
   "sparse": {
    "count": 240,
    "indices": {
     "bufferView": 63,
     "componentType": 5125
    },
    "values": {
     "bufferView": 64
    }
   },
   "type": "VEC3"
  },
  {
   "componentType": 5126,
   "count": 136303,
   "max": [
    0.004724569618701935,
    8.094310760498047e-05,
    2.9750168323516846e-05
   ],
   "min": [
    -0.00380842387676239,
    -4.565715789794922e-05,
    -3.505498170852661e-05
   ],
   "sparse": {
    "count": 366,
    "indices": {
     "bufferView": 65,
     "componentType": 5125
    },
    "values": {
     "bufferView": 66
    }
   },
   "type": "VEC3"
  },
  {
   "componentType": 5126,
   "count": 136303,
   "max": [
    0.006820887327194214,
    9.131431579589844e-05,
    5.433708429336548e-05
   ],
   "min": [
    -0.007052004337310791,
    -9.441375732421875e-05,
    -5.2556395530700684e-05
   ],
   "sparse": {
    "count": 1095,
    "indices": {
     "bufferView": 67,
     "componentType": 5125
    },
    "values": {
     "bufferView": 68
    }
   },
   "type": "VEC3"
  },
  {
   "componentType": 5126,
   "count": 136303,
   "max": [
    0.0006576180458068848,
    0,
    0
   ],
   "min": [
    -0.00048770010471343994,
    -0.02645695209503174,
    -0.004049414768815041
   ],
   "sparse": {
    "count": 7269,
    "indices": {
     "bufferView": 69,
     "componentType": 5125
    },
    "values": {
     "bufferView": 70
    }
   },
   "type": "VEC3"
  },
  {
   "componentType": 5126,
   "count": 136303,
   "max": [
    0,
    0.004932999610900879,
    0.0006533805280923843
   ],
   "min": [
    -6.657838821411133e-05,
    0,
    -0.0003415718674659729
   ],
   "sparse": {
    "count": 1173,
    "indices": {
     "bufferView": 71,
     "componentType": 5125
    },
    "values": {
     "bufferView": 72
    }
   },
   "type": "VEC3"
  },
  {
   "componentType": 5126,
   "count": 136303,
   "max": [
    0,
    0.00013959407806396484,
    0
   ],
   "min": [
    -1.6748905181884766e-05,
    0,
    -0.00193101167678833
   ],
   "sparse": {
    "count": 102,
    "indices": {
     "bufferView": 73,
     "componentType": 5125
    },
    "values": {
     "bufferView": 74
    }
   },
   "type": "VEC3"
  },
  {
   "componentType": 5126,
   "count": 136303,
   "max": [
    0,
    8.666515350341797e-05,
    0
   ],
   "min": [
    -1.7076730728149414e-05,
    -0.00010383129119873047,
    -0.0020994246006011963
   ],
   "sparse": {
    "count": 327,
    "indices": {
     "bufferView": 75,
     "componentType": 5125
    },
    "values": {
     "bufferView": 76
    }
   },
   "type": "VEC3"
  },
  {
   "componentType": 5126,
   "count": 136303,
   "max": [
    0.005404192954301834,
    0.010405421257019043,
    0.009265176951885223
   ],
   "min": [
    -0.0052361078560352325,
    -0.009811758995056152,
    -0.006592251360416412
   ],
   "sparse": {
    "count": 26875,
    "indices": {
     "bufferView": 77,
     "componentType": 5125
    },
    "values": {
     "bufferView": 78
    }
   },
   "type": "VEC3"
  },
  {
   "componentType": 5126,
   "count": 136303,
   "max": [
    0.00522250309586525,
    0.009214997291564941,
    0.006427200511097908
   ],
   "min": [
    -0.005391635000705719,
    -0.010003924369812012,
    -0.008952448144555092
   ],
   "sparse": {
    "count": 26104,
    "indices": {
     "bufferView": 79,
     "componentType": 5125
    },
    "values": {
     "bufferView": 80
    }
   },
   "type": "VEC3"
  },
  {
   "componentType": 5126,
   "count": 136303,
   "max": [
    0,
    0.018200159072875977,
    0
   ],
   "min": [
    -0.0003384500741958618,
    0,
    -0.01246245950460434
   ],
   "sparse": {
    "count": 2952,
    "indices": {
     "bufferView": 81,
     "componentType": 5125
    },
    "values": {
     "bufferView": 82
    }
   },
   "type": "VEC3"
  },
  {
   "componentType": 5126,
   "count": 136303,
   "max": [
    8.402764797210693e-05,
    0.0013447999954223633,
    0.008722562342882156
   ],
   "min": [
    -3.6776065826416016e-05,
    -0.0035856962203979492,
    -0.006758283823728561
   ],
   "sparse": {
    "count": 8922,
    "indices": {
     "bufferView": 83,
     "componentType": 5125
    },
    "values": {
     "bufferView": 84
    }
   },
   "type": "VEC3"
  },
  {
   "componentType": 5126,
   "count": 136303,
   "max": [
    0.014519073069095612,
    0.0010875463485717773,
    0.011267250403761864
   ],
   "min": [
    -0.014485619962215424,
    -0.001010894775390625,
    -0.001645062118768692
   ],
   "sparse": {
    "count": 7632,
    "indices": {
     "bufferView": 85,
     "componentType": 5125
    },
    "values": {
     "bufferView": 86
    }
   },
   "type": "VEC3"
  },
  {
   "componentType": 5126,
   "count": 136303,
   "max": [
    0.00716593861579895,
    0.000202178955078125,
    0.001260913908481598
   ],
   "min": [
    -0.0071700215339660645,
    -0.0001538991928100586,
    -0.0016420786269009113
   ],
   "sparse": {
    "count": 5877,
    "indices": {
     "bufferView": 87,
     "componentType": 5125
    },
    "values": {
     "bufferView": 88
    }
   },
   "type": "VEC3"
  },
  {
   "componentType": 5126,
   "count": 136303,
   "max": [
    0.00010187923908233643,
    0,
    0.0003608334809541702
   ],
   "min": [
    0,
    -0.007987380027770996,
    -0.0012500099837779999
   ],
   "sparse": {
    "count": 2136,
    "indices": {
     "bufferView": 89,
     "componentType": 5125
    },
    "values": {
     "bufferView": 90
    }
   },
   "type": "VEC3"
  },
  {
   "componentType": 5126,
   "count": 136303,
   "max": [
    0,
    0.006190061569213867,
    0.0002740116324275732
   ],
   "min": [
    -8.2455575466156e-05,
    0,
    -0.0010317654814571142
   ],
   "sparse": {
    "count": 2286,
    "indices": {
     "bufferView": 91,
     "componentType": 5125
    },
    "values": {
     "bufferView": 92
    }
   },
   "type": "VEC3"
  },
  {
   "componentType": 5126,
   "count": 136303,
   "max": [
    0.0042123496532440186,
    0.0008736848831176758,
    0.0007150918245315552
   ],
   "min": [
    -0.004149243235588074,
    -0.007476449012756348,
    -0.0054692476987838745
   ],
   "sparse": {
    "count": 40234,
    "indices": {
     "bufferView": 93,
     "componentType": 5125
    },
    "values": {
     "bufferView": 94
    }
   },
   "type": "VEC3"
  },
  {
   "componentType": 5126,
   "count": 136303,
   "max": [
    0.004893390461802483,
    0.0025328397750854492,
    0.001662511145696044
   ],
   "min": [
    -0.004902198910713196,
    -0.005054116249084473,
    -0.0062565430998802185
   ],
   "sparse": {
    "count": 40432,
    "indices": {
     "bufferView": 95,
     "componentType": 5125
    },
    "values": {
     "bufferView": 96
    }
   },
   "type": "VEC3"
  },
  {
   "componentType": 5126,
   "count": 136303,
   "max": [
    0.003386709839105606,
    0.001398921012878418,
    0.003317609429359436
   ],
   "min": [
    -0.0033689849078655243,
    -0.004235506057739258,
    -0.0030944272875785828
   ],
   "sparse": {
    "count": 39886,
    "indices": {
     "bufferView": 97,
     "componentType": 5125
    },
    "values": {
     "bufferView": 98
    }
   },
   "type": "VEC3"
  },
  {
   "componentType": 5126,
   "count": 136303,
   "max": [
    0.0050700344145298,
    0.0025229454040527344,
    0.0029394514858722687
   ],
   "min": [
    -0.00509880855679512,
    -0.004381418228149414,
    -0.005486443638801575
   ],
   "sparse": {
    "count": 40099,
    "indices": {
     "bufferView": 99,
     "componentType": 5125
    },
    "values": {
     "bufferView": 100
    }
   },
   "type": "VEC3"
  },
  {
   "componentType": 5126,
   "count": 136303,
   "max": [
    0.005722722038626671,
    0.0024259090423583984,
    0.0032529830932617188
   ],
   "min": [
    -0.005584143102169037,
    -0.009325265884399414,
    -0.0100608691573143
   ],
   "sparse": {
    "count": 40417,
    "indices": {
     "bufferView": 101,
     "componentType": 5125
    },
    "values": {
     "bufferView": 102
    }
   },
   "type": "VEC3"
  },
  {
   "componentType": 5126,
   "count": 136303,
   "max": [
    0.005864761769771576,
    0.0001996755599975586,
    0.009392954409122467
   ],
   "min": [
    -0.0057577528059482574,
    -0.007997751235961914,
    -0.0031353384256362915
   ],
   "sparse": {
    "count": 39469,
    "indices": {
     "bufferView": 103,
     "componentType": 5125
    },
    "values": {
     "bufferView": 104
    }
   },
   "type": "VEC3"
  },
  {
   "componentType": 5126,
   "count": 136303,
   "max": [
    0.0075178369879722595,
    0.0027445554733276367,
    0.03608821704983711
   ],
   "min": [
    -0.007254615426063538,
    -0.010601997375488281,
    -0.0012618526816368103
   ],
   "sparse": {
    "count": 41230,
    "indices": {
     "bufferView": 105,
     "componentType": 5125
    },
    "values": {
     "bufferView": 106
    }
   },
   "type": "VEC3"
  },
  {
   "componentType": 5126,
   "count": 136303,
   "max": [
    0.013516189530491829,
    0.0012933015823364258,
    0.0051413532346487045
   ],
   "min": [
    -0.013465862721204758,
    -0.011289238929748535,
    -0.004738055169582367
   ],
   "sparse": {
    "count": 40060,
    "indices": {
     "bufferView": 107,
     "componentType": 5125
    },
    "values": {
     "bufferView": 108
    }
   },
   "type": "VEC3"
  },
  {
   "componentType": 5126,
   "count": 136303,
   "max": [
    0.003490723669528961,
    0.005660653114318848,
    0.0005426481366157532
   ],
   "min": [
    -0.003679148852825165,
    -0.004308819770812988,
    -0.006775788962841034
   ],
   "sparse": {
    "count": 39181,
    "indices": {
     "bufferView": 109,
     "componentType": 5125
    },
    "values": {
     "bufferView": 110
    }
   },
   "type": "VEC3"
  },
  {
   "bufferView": 111,
   "componentType": 5126,
   "count": 2101,
   "max": [
    0.07180844247341156,
    1.8656049966812134,
    0.09901954978704453
   ],
   "min": [
    -0.07021421194076538,
    1.6596177816390991,
    -0.09132830053567886
   ],
   "type": "VEC3"
  },
  {
   "bufferView": 112,
   "componentType": 5126,
   "count": 2101,
   "type": "VEC3"
  },
  {
   "bufferView": 113,
   "componentType": 5126,
   "count": 2101,
   "type": "VEC2"
  },
  {
   "bufferView": 114,
   "componentType": 5126,
   "count": 2101,
   "type": "VEC2"
  },
  {
   "bufferView": 115,
   "componentType": 5126,
   "count": 2101,
   "type": "VEC4"
  },
  {
   "bufferView": 116,
   "componentType": 5123,
   "count": 2101,
   "normalized": true,
   "type": "VEC4"
  },
  {
   "bufferView": 117,
   "componentType": 5121,
   "count": 2101,
   "type": "VEC4"
  },
  {
   "bufferView": 118,
   "componentType": 5126,
   "count": 2101,
   "type": "VEC4"
  },
  {
   "bufferView": 119,
   "componentType": 5123,
   "count": 10992,
   "type": "SCALAR"
  },
  {
   "componentType": 5126,
   "count": 2101,
   "max": [
    0,
    0.05214130878448486,
    0.003968070261180401
   ],
   "min": [
    -0.0006673353491351008,
    0,
    0
   ],
   "sparse": {
    "count": 754,
    "indices": {
     "bufferView": 120,
     "componentType": 5123
    },
    "values": {
     "bufferView": 121
    }
   },
   "type": "VEC3"
  },
  {
   "componentType": 5126,
   "count": 2101,
   "max": [
    0.00038402306381613016,
    0,
    0
   ],
   "min": [
    0,
    -0.03000509738922119,
    -0.0022834548726677895
   ],
   "sparse": {
    "count": 736,
    "indices": {
     "bufferView": 122,
     "componentType": 5123
    },
    "values": {
     "bufferView": 123
    }
   },
   "type": "VEC3"
  },
  {
   "componentType": 5126,
   "count": 2101,
   "max": [
    0.00012993172276765108,
    0.000966191291809082,
    0.01523011177778244
   ],
   "min": [
    0,
    -0.0009398460388183594,
    0
   ],
   "sparse": {
    "count": 751,
    "indices": {
     "bufferView": 124,
     "componentType": 5123
    },
    "values": {
     "bufferView": 125
    }
   },
   "type": "VEC3"
  },
  {
   "componentType": 5126,
   "count": 2101,
   "max": [
    0,
    0.002342820167541504,
    0
   ],
   "min": [
    -0.00017712802218738943,
    -0.0005201101303100586,
    -0.023868359625339508
   ],
   "sparse": {
    "count": 710,
    "indices": {
     "bufferView": 126,
     "componentType": 5123
    },
    "values": {
     "bufferView": 127
    }
   },
   "type": "VEC3"
  },
  {
   "componentType": 5126,
   "count": 2101,
   "max": [
    0,
    0.06053924560546875,
    0
   ],
   "min": [
    -0.0013749325880780816,
    -0.00030112266540527344,
    -0.07415585964918137
   ],
   "sparse": {
    "count": 1219,
    "indices": {
     "bufferView": 128,
     "componentType": 5123
    },
    "values": {
     "bufferView": 129
    }
   },
   "type": "VEC3"
  },
  {
   "componentType": 5126,
   "count": 2101,
   "max": [
    0.0005551458452828228,
    0.00010013580322265625,
    0.029952233657240868
   ],
   "min": [
    0,
    -0.02443695068359375,
    0
   ],
   "sparse": {
    "count": 1152,
    "indices": {
     "bufferView": 130,
     "componentType": 5123
    },
    "values": {
     "bufferView": 131
    }
   },
   "type": "VEC3"
  },
  {
   "componentType": 5126,
   "count": 2101,
   "max": [
    0.006477370858192444,
    0.00027239322662353516,
    6.405264139175415e-05
   ],
   "min": [
    -0.006482124328613281,
    -2.396106719970703e-05,
    -3.5800039768218994e-05
   ],
   "sparse": {
    "count": 404,
    "indices": {
     "bufferView": 132,
     "componentType": 5123
    },
    "values": {
     "bufferView": 133
    }
   },
   "type": "VEC3"
  },
  {
   "componentType": 5126,
   "count": 2101,
   "max": [
    0.007670946419239044,
    0.00010275840759277344,
    5.910545587539673e-05
   ],
   "min": [
    -0.007670946419239044,
    -0.00010263919830322266,
    -5.910545587539673e-05
   ],
   "sparse": {
    "count": 290,
    "indices": {
     "bufferView": 134,
     "componentType": 5123
    },
    "values": {
     "bufferView": 135
    }
   },
   "type": "VEC3"
  },
  {
   "componentType": 5126,
   "count": 2101,
   "max": [
    3.729015588760376e-05,
    0.0005071163177490234,
    0.004349350929260254
   ],
   "min": [
    0,
    -0.0002485513687133789,
    0
   ],
   "sparse": {
    "count": 144,
    "indices": {
     "bufferView": 136,
     "componentType": 5123
    },
    "values": {
     "bufferView": 137
    }
   },
   "type": "VEC3"
  },
  {
   "componentType": 5126,
   "count": 2101,
   "max": [
    0,
    0.0007328987121582031,
    0
   ],
   "min": [
    -5.294196307659149e-05,
    -0.0003151893615722656,
    -0.006678842008113861
   ],
   "sparse": {
    "count": 240,
    "indices": {
     "bufferView": 138,
     "componentType": 5123
    },
    "values": {
     "bufferView": 139
    }
   },
   "type": "VEC3"
  },
  {
   "bufferView": 140,
   "componentType": 5126,
   "count": 2101,
   "max": [
    0.012542396783828735,
    0.0001678466796875,
    9.664171375334263e-05
   ],
   "min": [
    -0.012542396783828735,
    -0.0001678466796875,
    -9.664171375334263e-05
   ],
   "type": "VEC3"
  },
  {
   "bufferView": 141,
   "componentType": 5126,
   "count": 2101,
   "max": [
    0.012542393058538437,
    0.0001678466796875,
    9.664171375334263e-05
   ],
   "min": [
    -0.012542393058538437,
    -0.0001678466796875,
    -9.664171375334263e-05
   ],
   "type": "VEC3"
  },
  {
   "bufferView": 142,
   "componentType": 5126,
   "count": 2101,
   "max": [
    0.0131550133228302,
    0.012707948684692383,
    0.006138008087873459
   ],
   "min": [
    -0.013209737837314606,
    -0.00015819072723388672,
    -0.0051925405859947205
   ],
   "type": "VEC3"
  },
  {
   "componentType": 5126,
   "count": 2101,
   "max": [
    0.00504862517118454,
    6.759166717529297e-05,
    3.890041261911392e-05
   ],
   "min": [
    -0.005048617720603943,
    -6.759166717529297e-05,
    -3.890041261911392e-05
   ],
   "sparse": {
    "count": 721,
    "indices": {
     "bufferView": 143,
     "componentType": 5123
    },
    "values": {
     "bufferView": 144
    }
   },
   "type": "VEC3"
  },
  {
   "componentType": 5126,
   "count": 2101,
   "max": [
    0.0010899994522333145,
    0.011139392852783203,
    0.0008548721671104431
   ],
   "min": [
    -0.0013729799538850784,
    0,
    0
   ],
   "sparse": {
    "count": 438,
    "indices": {
     "bufferView": 145,
     "componentType": 5123
    },
    "values": {
     "bufferView": 146
    }
   },
   "type": "VEC3"
  },
  {
   "componentType": 5126,
   "count": 2101,
   "max": [
    8.889380842447281e-05,
    0,
    0
   ],
   "min": [
    0,
    -0.006945610046386719,
    -0.000528581440448761
   ],
   "sparse": {
    "count": 158,
    "indices": {
     "bufferView": 147,
     "componentType": 5123
    },
    "values": {
     "bufferView": 148
    }
   },
   "type": "VEC3"
  },
  {
   "componentType": 5126,
   "count": 2101,
   "max": [
    0.0002361796796321869,
    0,
    0
   ],
   "min": [
    -0.00020692124962806702,
    -0.001146078109741211,
    -8.869916200637817e-05
   ],
   "sparse": {
    "count": 27,
    "indices": {
     "bufferView": 149,
     "componentType": 5123
    },
    "values": {
     "bufferView": 150
    }
   },
   "type": "VEC3"
  },
  {
   "componentType": 5126,
   "count": 2101,
   "max": [
    0.0005872920155525208,
    0.0058095455169677734,
    0.00044001638889312744
   ],
   "min": [
    -0.0006795823574066162,
    -0.0001844167709350586,
    -1.4007091522216797e-05
   ],
   "sparse": {
    "count": 181,
    "indices": {
     "bufferView": 151,
     "componentType": 5123
    },
    "values": {
     "bufferView": 152
    }
   },
   "type": "VEC3"
  },
  {
   "componentType": 5126,
   "count": 2101,
   "max": [
    0,
    0,
    0
   ],
   "min": [
    0,
    0,
    0
   ],
   "sparse": {
    "count": 1,
    "indices": {
     "bufferView": 153,
     "componentType": 5121
    },
    "values": {
     "bufferView": 154
    }
   },
   "type": "VEC3"
  },
  {
   "componentType": 5126,
   "count": 2101,
   "max": [
    0,
    0,
    0
   ],
   "min": [
    0,
    0,
    0
   ],
   "sparse": {
    "count": 1,
    "indices": {
     "bufferView": 155,
     "componentType": 5121
    },
    "values": {
     "bufferView": 156
    }
   },
   "type": "VEC3"
  },
  {
   "componentType": 5126,
   "count": 2101,
   "max": [
    0,
    0,
    0
   ],
   "min": [
    0,
    0,
    0
   ],
   "sparse": {
    "count": 1,
    "indices": {
     "bufferView": 157,
     "componentType": 5121
    },
    "values": {
     "bufferView": 158
    }
   },
   "type": "VEC3"
  },
  {
   "componentType": 5126,
   "count": 2101,
   "max": [
    0,
    0,
    0
   ],
   "min": [
    0,
    0,
    0
   ],
   "sparse": {
    "count": 1,
    "indices": {
     "bufferView": 159,
     "componentType": 5121
    },
    "values": {
     "bufferView": 160
    }
   },
   "type": "VEC3"
  },
  {
   "componentType": 5126,
   "count": 2101,
   "max": [
    0,
    0,
    0
   ],
   "min": [
    0,
    0,
    0
   ],
   "sparse": {
    "count": 1,
    "indices": {
     "bufferView": 161,
     "componentType": 5121
    },
    "values": {
     "bufferView": 162
    }
   },
   "type": "VEC3"
  },
  {
   "componentType": 5126,
   "count": 2101,
   "max": [
    0,
    0,
    0
   ],
   "min": [
    0,
    0,
    0
   ],
   "sparse": {
    "count": 1,
    "indices": {
     "bufferView": 163,
     "componentType": 5121
    },
    "values": {
     "bufferView": 164
    }
   },
   "type": "VEC3"
  },
  {
   "componentType": 5126,
   "count": 2101,
   "max": [
    0.0002604164183139801,
    0,
    0
   ],
   "min": [
    -1.874566078186035e-05,
    -0.009257912635803223,
    -0.0037246299907565117
   ],
   "sparse": {
    "count": 236,
    "indices": {
     "bufferView": 165,
     "componentType": 5123
    },
    "values": {
     "bufferView": 166
    }
   },
   "type": "VEC3"
  },
  {
   "componentType": 5126,
   "count": 2101,
   "max": [
    0.0032892636954784393,
    0.0008060932159423828,
    0.00034233182668685913
   ],
   "min": [
    -0.0033616460859775543,
    -1.0728836059570312e-06,
    -0.003453010693192482
   ],
   "sparse": {
    "count": 81,
    "indices": {
     "bufferView": 167,
     "componentType": 5123
    },
    "values": {
     "bufferView": 168
    }
   },
   "type": "VEC3"
  },
  {
   "componentType": 5126,
   "count": 2101,
   "max": [
    0,
    0,
    0
   ],
   "min": [
    0,
    0,
    0
   ],
   "sparse": {
    "count": 1,
    "indices": {
     "bufferView": 169,
     "componentType": 5121
    },
    "values": {
     "bufferView": 170
    }
   },
   "type": "VEC3"
  },
  {
   "componentType": 5126,
   "count": 2101,
   "max": [
    0,
    0,
    0
   ],
   "min": [
    0,
    0,
    0
   ],
   "sparse": {
    "count": 1,
    "indices": {
     "bufferView": 171,
     "componentType": 5121
    },
    "values": {
     "bufferView": 172
    }
   },
   "type": "VEC3"
  },
  {
   "componentType": 5126,
   "count": 2101,
   "max": [
    0,
    0,
    0
   ],
   "min": [
    0,
    0,
    0
   ],
   "sparse": {
    "count": 1,
    "indices": {
     "bufferView": 173,
     "componentType": 5121
    },
    "values": {
     "bufferView": 174
    }
   },
   "type": "VEC3"
  },
  {
   "componentType": 5126,
   "count": 2101,
   "max": [
    0,
    0,
    0
   ],
   "min": [
    0,
    0,
    0
   ],
   "sparse": {
    "count": 1,
    "indices": {
     "bufferView": 175,
     "componentType": 5121
    },
    "values": {
     "bufferView": 176
    }
   },
   "type": "VEC3"
  },
  {
   "componentType": 5126,
   "count": 2101,
   "max": [
    0.00021898001432418823,
    0,
    0
   ],
   "min": [
    0,
    -0.018167734146118164,
    -0.0031397584825754166
   ],
   "sparse": {
    "count": 72,
    "indices": {
     "bufferView": 177,
     "componentType": 5123
    },
    "values": {
     "bufferView": 178
    }
   },
   "type": "VEC3"
  },
  {
   "componentType": 5126,
   "count": 2101,
   "max": [
    0,
    0,
    0
   ],
   "min": [
    0,
    0,
    0
   ],
   "sparse": {
    "count": 1,
    "indices": {
     "bufferView": 179,
     "componentType": 5121
    },
    "values": {
     "bufferView": 180
    }
   },
   "type": "VEC3"
  },
  {
   "componentType": 5126,
   "count": 2101,
   "max": [
    0,
    0,
    0
   ],
   "min": [
    0,
    0,
    0
   ],
   "sparse": {
    "count": 1,
    "indices": {
     "bufferView": 181,
     "componentType": 5121
    },
    "values": {
     "bufferView": 182
    }
   },
   "type": "VEC3"
  },
  {
   "componentType": 5126,
   "count": 2101,
   "max": [
    0,
    0,
    0
   ],
   "min": [
    0,
    0,
    0
   ],
   "sparse": {
    "count": 1,
    "indices": {
     "bufferView": 183,
     "componentType": 5121
    },
    "values": {
     "bufferView": 184
    }
   },
   "type": "VEC3"
  },
  {
   "componentType": 5126,
   "count": 2101,
   "max": [
    0.005460649728775024,
    0.010406732559204102,
    0.008610004559159279
   ],
   "min": [
    -0.005271840840578079,
    -0.009684324264526367,
    -0.006111755967140198
   ],
   "sparse": {
    "count": 882,
    "indices": {
     "bufferView": 185,
     "componentType": 5123
    },
    "values": {
     "bufferView": 186
    }
   },
   "type": "VEC3"
  },
  {
   "componentType": 5126,
   "count": 2101,
   "max": [
    0.0052374862134456635,
    0.009367823600769043,
    0.0060508884489536285
   ],
   "min": [
    -0.005421403795480728,
    -0.009973645210266113,
    -0.00829085148870945
   ],
   "sparse": {
    "count": 866,
    "indices": {
     "bufferView": 187,
     "componentType": 5123
    },
    "values": {
     "bufferView": 188
    }
   },
   "type": "VEC3"
  },
  {
   "componentType": 5126,
   "count": 2101,
   "max": [
    0,
    0,
    0
   ],
   "min": [
    0,
    0,
    0
   ],
   "sparse": {
    "count": 1,
    "indices": {
     "bufferView": 189,
     "componentType": 5121
    },
    "values": {
     "bufferView": 190
    }
   },
   "type": "VEC3"
  },
  {
   "componentType": 5126,
   "count": 2101,
   "max": [
    8.37668776512146e-05,
    0.0008220672607421875,
    0.00871155597269535
   ],
   "min": [
    -9.067356586456299e-06,
    -0.0016611814498901367,
    -0.00042508356273174286
   ],
   "sparse": {
    "count": 378,
    "indices": {
     "bufferView": 191,
     "componentType": 5123
    },
    "values": {
     "bufferView": 192
    }
   },
   "type": "VEC3"
  },
  {
   "componentType": 5126,
   "count": 2101,
   "max": [
    0.0003437325358390808,
    0.0002657175064086914,
    0
   ],
   "min": [
    -0.00034680962562561035,
    -0.00011157989501953125,
    -0.0004426678642630577
   ],
   "sparse": {
    "count": 98,
    "indices": {
     "bufferView": 193,
     "componentType": 5123
    },
    "values": {
     "bufferView": 194
    }
   },
   "type": "VEC3"
  },
  {
   "componentType": 5126,
   "count": 2101,
   "max": [
    0.00026864558458328247,
    0,
    9.50545072555542e-05
   ],
   "min": [
    -0.00026757270097732544,
    -9.417533874511719e-06,
    0
   ],
   "sparse": {
    "count": 16,
    "indices": {
     "bufferView": 195,
     "componentType": 5123
    },
    "values": {
     "bufferView": 196
    }
   },
   "type": "VEC3"
  },
  {
   "componentType": 5126,
   "count": 2101,
   "max": [
    0,
    0,
    0
   ],
   "min": [
    0,
    0,
    0
   ],
   "sparse": {
    "count": 1,
    "indices": {
     "bufferView": 197,
     "componentType": 5121
    },
    "values": {
     "bufferView": 198
    }
   },
   "type": "VEC3"
  },
  {
   "componentType": 5126,
   "count": 2101,
   "max": [
    0,
    0.0005846023559570312,
    0
   ],
   "min": [
    -1.0862946510314941e-05,
    0,
    -0.00039411825127899647
   ],
   "sparse": {
    "count": 10,
    "indices": {
     "bufferView": 199,
     "componentType": 5123
    },
    "values": {
     "bufferView": 200
    }
   },
   "type": "VEC3"
  },
  {
   "componentType": 5126,
   "count": 2101,
   "max": [
    0.0033935606479644775,
    4.1365623474121094e-05,
    0.0002313788136234507
   ],
   "min": [
    -0.0033079013228416443,
    -0.007497072219848633,
    -0.0054605454206466675
   ],
   "sparse": {
    "count": 1756,
    "indices": {
     "bufferView": 201,
     "componentType": 5123
    },
    "values": {
     "bufferView": 202
    }
   },
   "type": "VEC3"
  },
  {
   "componentType": 5126,
   "count": 2101,
   "max": [
    0.004913348704576492,
    0.0016453266143798828,
    0.0016659703105688095
   ],
   "min": [
    -0.004920735955238342,
    -0.005078434944152832,
    -0.00626644492149353
   ],
   "sparse": {
    "count": 1767,
    "indices": {
     "bufferView": 203,
     "componentType": 5123
    },
    "values": {
     "bufferView": 204
    }
   },
   "type": "VEC3"
  },
  {
   "componentType": 5126,
   "count": 2101,
   "max": [
    0.003394242376089096,
    0.0007686614990234375,
    0.0034032389521598816
   ],
   "min": [
    -0.003380805253982544,
    -0.004232287406921387,
    -0.003103017807006836
   ],
   "sparse": {
    "count": 1661,
    "indices": {
     "bufferView": 205,
     "componentType": 5123
    },
    "values": {
     "bufferView": 206
    }
   },
   "type": "VEC3"
  },
  {
   "componentType": 5126,
   "count": 2101,
   "max": [
    0.005814846605062485,
    0.0028467178344726562,
    0.002951551228761673
   ],
   "min": [
    -0.005830761045217514,
    -0.004424929618835449,
    -0.005520716309547424
   ],
   "sparse": {
    "count": 1711,
    "indices": {
     "bufferView": 207,
     "componentType": 5123
    },
    "values": {
     "bufferView": 208
    }
   },
   "type": "VEC3"
  },
  {
   "componentType": 5126,
   "count": 2101,
   "max": [
    0.005724191665649414,
    6.079673767089844e-05,
    0.0031207874417304993
   ],
   "min": [
    -0.00560065358877182,
    -0.009331464767456055,
    -0.010082483291625977
   ],
   "sparse": {
    "count": 1742,
    "indices": {
     "bufferView": 209,
     "componentType": 5123
    },
    "values": {
     "bufferView": 210
    }
   },
   "type": "VEC3"
  },
  {
   "componentType": 5126,
   "count": 2101,
   "max": [
    0.006401900202035904,
    0.00028014183044433594,
    0.009450376033782959
   ],
   "min": [
    -0.006785187870264053,
    -0.008032917976379395,
    -0.003304623067378998
   ],
   "sparse": {
    "count": 1714,
    "indices": {
     "bufferView": 211,
     "componentType": 5123
    },
    "values": {
     "bufferView": 212
    }
   },
   "type": "VEC3"
  },
  {
   "bufferView": 213,
   "componentType": 5126,
   "count": 2101,
   "max": [
    0.0075887031853199005,
    0.002795100212097168,
    0.036037009209394455
   ],
   "min": [
    -0.007305655628442764,
    -0.010647177696228027,
    -0.0009859055280685425
   ],
   "type": "VEC3"
  },
  {
   "componentType": 5126,
   "count": 2101,
   "max": [
    0.013747885823249817,
    0.0001531839370727539,
    0.005164844915270805
   ],
   "min": [
    -0.013633474707603455,
    -0.011312723159790039,
    -0.004740901291370392
   ],
   "sparse": {
    "count": 1716,
    "indices": {
     "bufferView": 214,
     "componentType": 5123
    },
    "values": {
     "bufferView": 215
    }
   },
   "type": "VEC3"
  },
  {
   "componentType": 5126,
   "count": 2101,
   "max": [
    0.002741824835538864,
    0.005680561065673828,
    0.0013855695724487305
   ],
   "min": [
    -0.003301098942756653,
    -0.0042465925216674805,
    -0.00685526430606842
   ],
   "sparse": {
    "count": 1625,
    "indices": {
     "bufferView": 216,
     "componentType": 5123
    },
    "values": {
     "bufferView": 217
    }
   },
   "type": "VEC3"
  },
  {
   "bufferView": 218,
   "componentType": 5126,
   "count": 69,
   "type": "MAT4"
  }
 ],
 "bufferViews": [
  {
   "buffer": 0,
   "byteLength": 1635636,
   "byteOffset": 0,
   "target": 34962
  },
  {
   "buffer": 0,
   "byteLength": 1635636,
   "byteOffset": 1635636,
   "target": 34962
  },
  {
   "buffer": 0,
   "byteLength": 1090424,
   "byteOffset": 3271272,
   "target": 34962
  },
  {
   "buffer": 0,
   "byteLength": 1090424,
   "byteOffset": 4361696,
   "target": 34962
  },
  {
   "buffer": 0,
   "byteLength": 2180848,
   "byteOffset": 5452120,
   "target": 34962
  },
  {
   "buffer": 0,
   "byteLength": 1090424,
   "byteOffset": 7632968,
   "target": 34962
  },
  {
   "buffer": 0,
   "byteLength": 545212,
   "byteOffset": 8723392,
   "target": 34962
  },
  {
   "buffer": 0,
   "byteLength": 2180848,
   "byteOffset": 9268604,
   "target": 34962
  },
  {
   "buffer": 0,
   "byteLength": 2070768,
   "byteOffset": 11449452,
   "target": 34963
  },
  {
   "buffer": 0,
   "byteLength": 73656,
   "byteOffset": 13520220
  },
  {
   "buffer": 0,
   "byteLength": 220968,
   "byteOffset": 13593876
  },
  {
   "buffer": 0,
   "byteLength": 71664,
   "byteOffset": 13814844
  },
  {
   "buffer": 0,
   "byteLength": 214992,
   "byteOffset": 13886508
  },
  {
   "buffer": 0,
   "byteLength": 58684,
   "byteOffset": 14101500
  },
  {
   "buffer": 0,
   "byteLength": 176052,
   "byteOffset": 14160184
  },
  {
   "buffer": 0,
   "byteLength": 54768,
   "byteOffset": 14336236
  },
  {
   "buffer": 0,
   "byteLength": 164304,
   "byteOffset": 14391004
  },
  {
   "buffer": 0,
   "byteLength": 124264,
   "byteOffset": 14555308
  },
  {
   "buffer": 0,
   "byteLength": 372792,
   "byteOffset": 14679572
  },
  {
   "buffer": 0,
   "byteLength": 118828,
   "byteOffset": 15052364
  },
  {
   "buffer": 0,
   "byteLength": 356484,
   "byteOffset": 15171192
  },
  {
   "buffer": 0,
   "byteLength": 37224,
   "byteOffset": 15527676
  },
  {
   "buffer": 0,
   "byteLength": 111672,
   "byteOffset": 15564900
  },
  {
   "buffer": 0,
   "byteLength": 26944,
   "byteOffset": 15676572
  },
  {
   "buffer": 0,
   "byteLength": 80832,
   "byteOffset": 15703516
  },
  {
   "buffer": 0,
   "byteLength": 3496,
   "byteOffset": 15784348
  },
  {
   "buffer": 0,
   "byteLength": 10488,
   "byteOffset": 15787844
  },
  {
   "buffer": 0,
   "byteLength": 8724,
   "byteOffset": 15798332
  },
  {
   "buffer": 0,
   "byteLength": 26172,
   "byteOffset": 15807056
  },
  {
   "buffer": 0,
   "byteLength": 230152,
   "byteOffset": 15833228
  },
  {
   "buffer": 0,
   "byteLength": 690456,
   "byteOffset": 16063380
  },
  {
   "buffer": 0,
   "byteLength": 230152,
   "byteOffset": 16753836
  },
  {
   "buffer": 0,
   "byteLength": 690456,
   "byteOffset": 16983988
  },
  {
   "buffer": 0,
   "byteLength": 207616,
   "byteOffset": 17674444
  },
  {
   "buffer": 0,
   "byteLength": 622848,
   "byteOffset": 17882060
  },
  {
   "buffer": 0,
   "byteLength": 81336,
   "byteOffset": 18504908
  },
  {
   "buffer": 0,
   "byteLength": 244008,
   "byteOffset": 18586244
  },
  {
   "buffer": 0,
   "byteLength": 30984,
   "byteOffset": 18830252
  },
  {
   "buffer": 0,
   "byteLength": 92952,
   "byteOffset": 18861236
  },
  {
   "buffer": 0,
   "byteLength": 4252,
   "byteOffset": 18954188
  },
  {
   "buffer": 0,
   "byteLength": 12756,
   "byteOffset": 18958440
  },
  {
   "buffer": 0,
   "byteLength": 876,
   "byteOffset": 18971196
  },
  {
   "buffer": 0,
   "byteLength": 2628,
   "byteOffset": 18972072
  },
  {
   "buffer": 0,
   "byteLength": 9292,
   "byteOffset": 18974700
  },
  {
   "buffer": 0,
   "byteLength": 27876,
   "byteOffset": 18983992
  },
  {
   "buffer": 0,
   "byteLength": 276,
   "byteOffset": 19011868
  },
  {
   "buffer": 0,
   "byteLength": 828,
   "byteOffset": 19012144
  },
  {
   "buffer": 0,
   "byteLength": 1464,
   "byteOffset": 19012972
  },
  {
   "buffer": 0,
   "byteLength": 4392,
   "byteOffset": 19014436
  },
  {
   "buffer": 0,
   "byteLength": 3924,
   "byteOffset": 19018828
  },
  {
   "buffer": 0,
   "byteLength": 11772,
   "byteOffset": 19022752
  },
  {
   "buffer": 0,
   "byteLength": 3792,
   "byteOffset": 19034524
  },
  {
   "buffer": 0,
   "byteLength": 11376,
   "byteOffset": 19038316
  },
  {
   "buffer": 0,
   "byteLength": 7716,
   "byteOffset": 19049692
  },
  {
   "buffer": 0,
   "byteLength": 23148,
   "byteOffset": 19057408
  },
  {
   "buffer": 0,
   "byteLength": 6708,
   "byteOffset": 19080556
  },
  {
   "buffer": 0,
   "byteLength": 20124,
   "byteOffset": 19087264
  },
  {
   "buffer": 0,
   "byteLength": 28236,
   "byteOffset": 19107388
  },
  {
   "buffer": 0,
   "byteLength": 84708,
   "byteOffset": 19135624
  },
  {
   "buffer": 0,
   "byteLength": 20808,
   "byteOffset": 19220332
  },
  {
   "buffer": 0,
   "byteLength": 62424,
   "byteOffset": 19241140
  },
  {
   "buffer": 0,
   "byteLength": 888,
   "byteOffset": 19303564
  },
  {
   "buffer": 0,
   "byteLength": 2664,
   "byteOffset": 19304452
  },
  {
   "buffer": 0,
   "byteLength": 960,
   "byteOffset": 19307116
  },
  {
   "buffer": 0,
   "byteLength": 2880,
   "byteOffset": 19308076
  },
  {
   "buffer": 0,
   "byteLength": 1464,
   "byteOffset": 19310956
  },
  {
   "buffer": 0,
   "byteLength": 4392,
   "byteOffset": 19312420
  },
  {
   "buffer": 0,
   "byteLength": 4380,
   "byteOffset": 19316812
  },
  {
   "buffer": 0,
   "byteLength": 13140,
   "byteOffset": 19321192
  },
  {
   "buffer": 0,
   "byteLength": 29076,
   "byteOffset": 19334332
  },
  {
   "buffer": 0,
   "byteLength": 87228,
   "byteOffset": 19363408
  },
  {
   "buffer": 0,
   "byteLength": 4692,
   "byteOffset": 19450636
  },
  {
   "buffer": 0,
   "byteLength": 14076,
   "byteOffset": 19455328
  },
  {
   "buffer": 0,
   "byteLength": 408,
   "byteOffset": 19469404
  },
  {
   "buffer": 0,
   "byteLength": 1224,
   "byteOffset": 19469812
  },
  {
   "buffer": 0,
   "byteLength": 1308,
   "byteOffset": 19471036
  },
  {
   "buffer": 0,
   "byteLength": 3924,
   "byteOffset": 19472344
  },
  {
   "buffer": 0,
   "byteLength": 107500,
   "byteOffset": 19476268
  },
  {
   "buffer": 0,
   "byteLength": 322500,
   "byteOffset": 19583768
  },
  {
   "buffer": 0,
   "byteLength": 104416,
   "byteOffset": 19906268
  },
  {
   "buffer": 0,
   "byteLength": 313248,
   "byteOffset": 20010684
  },
  {
   "buffer": 0,
   "byteLength": 11808,
   "byteOffset": 20323932
  },
  {
   "buffer": 0,
   "byteLength": 35424,
   "byteOffset": 20335740
  },
  {
   "buffer": 0,
   "byteLength": 35688,
   "byteOffset": 20371164
  },
  {
   "buffer": 0,
   "byteLength": 107064,
   "byteOffset": 20406852
  },
  {
   "buffer": 0,
   "byteLength": 30528,
   "byteOffset": 20513916
  },
  {
   "buffer": 0,
   "byteLength": 91584,
   "byteOffset": 20544444
  },
  {
   "buffer": 0,
   "byteLength": 23508,
   "byteOffset": 20636028
  },
  {
   "buffer": 0,
   "byteLength": 70524,
   "byteOffset": 20659536
  },
  {
   "buffer": 0,
   "byteLength": 8544,
   "byteOffset": 20730060
  },
  {
   "buffer": 0,
   "byteLength": 25632,
   "byteOffset": 20738604
  },
  {
   "buffer": 0,
   "byteLength": 9144,
   "byteOffset": 20764236
  },
  {
   "buffer": 0,
   "byteLength": 27432,
   "byteOffset": 20773380
  },
  {
   "buffer": 0,
   "byteLength": 160936,
   "byteOffset": 20800812
  },
  {
   "buffer": 0,
   "byteLength": 482808,
   "byteOffset": 20961748
  },
  {
   "buffer": 0,
   "byteLength": 161728,
   "byteOffset": 21444556
  },
  {
   "buffer": 0,
   "byteLength": 485184,
   "byteOffset": 21606284
  },
  {
   "buffer": 0,
   "byteLength": 159544,
   "byteOffset": 22091468
  },
  {
   "buffer": 0,
   "byteLength": 478632,
   "byteOffset": 22251012
  },
  {
   "buffer": 0,
   "byteLength": 160396,
   "byteOffset": 22729644
  },
  {
   "buffer": 0,
   "byteLength": 481188,
   "byteOffset": 22890040
  },
  {
   "buffer": 0,
   "byteLength": 161668,
   "byteOffset": 23371228
  },
  {
   "buffer": 0,
   "byteLength": 485004,
   "byteOffset": 23532896
  },
  {
   "buffer": 0,
   "byteLength": 157876,
   "byteOffset": 24017900
  },
  {
   "buffer": 0,
   "byteLength": 473628,
   "byteOffset": 24175776
  },
  {
   "buffer": 0,
   "byteLength": 164920,
   "byteOffset": 24649404
  },
  {
   "buffer": 0,
   "byteLength": 494760,
   "byteOffset": 24814324
  },
  {
   "buffer": 0,
   "byteLength": 160240,
   "byteOffset": 25309084
  },
  {
   "buffer": 0,
   "byteLength": 480720,
   "byteOffset": 25469324
  },
  {
   "buffer": 0,
   "byteLength": 156724,
   "byteOffset": 25950044
  },
  {
   "buffer": 0,
   "byteLength": 470172,
   "byteOffset": 26106768
  },
  {
   "buffer": 0,
   "byteLength": 25212,
   "byteOffset": 26576940,
   "target": 34962
  },
  {
   "buffer": 0,
   "byteLength": 25212,
   "byteOffset": 26602152,
   "target": 34962
  },
  {
   "buffer": 0,
   "byteLength": 16808,
   "byteOffset": 26627364,
   "target": 34962
  },
  {
   "buffer": 0,
   "byteLength": 16808,
   "byteOffset": 26644172,
   "target": 34962
  },
  {
   "buffer": 0,
   "byteLength": 33616,
   "byteOffset": 26660980,
   "target": 34962
  },
  {
   "buffer": 0,
   "byteLength": 16808,
   "byteOffset": 26694596,
   "target": 34962
  },
  {
   "buffer": 0,
   "byteLength": 8404,
   "byteOffset": 26711404,
   "target": 34962
  },
  {
   "buffer": 0,
   "byteLength": 33616,
   "byteOffset": 26719808,
   "target": 34962
  },
  {
   "buffer": 0,
   "byteLength": 21984,
   "byteOffset": 26753424,
   "target": 34963
  },
  {
   "buffer": 0,
   "byteLength": 1508,
   "byteOffset": 26775408
  },
  {
   "buffer": 0,
   "byteLength": 9048,
   "byteOffset": 26776916
  },
  {
   "buffer": 0,
   "byteLength": 1472,
   "byteOffset": 26785964
  },
  {
   "buffer": 0,
   "byteLength": 8832,
   "byteOffset": 26787436
  },
  {
   "buffer": 0,
   "byteLength": 1502,
   "byteOffset": 26796268
  },
  {
   "buffer": 0,
   "byteLength": 9012,
   "byteOffset": 26797772
  },
  {
   "buffer": 0,
   "byteLength": 1420,
   "byteOffset": 26806784
  },
  {
   "buffer": 0,
   "byteLength": 8520,
   "byteOffset": 26808204
  },
  {
   "buffer": 0,
   "byteLength": 2438,
   "byteOffset": 26816724
  },
  {
   "buffer": 0,
   "byteLength": 14628,
   "byteOffset": 26819164
  },
  {
   "buffer": 0,
   "byteLength": 2304,
   "byteOffset": 26833792
  },
  {
   "buffer": 0,
   "byteLength": 13824,
   "byteOffset": 26836096
  },
  {
   "buffer": 0,
   "byteLength": 808,
   "byteOffset": 26849920
  },
  {
   "buffer": 0,
   "byteLength": 4848,
   "byteOffset": 26850728
  },
  {
   "buffer": 0,
   "byteLength": 580,
   "byteOffset": 26855576
  },
  {
   "buffer": 0,
   "byteLength": 3480,
   "byteOffset": 26856156
  },
  {
   "buffer": 0,
   "byteLength": 288,
   "byteOffset": 26859636
  },
  {
   "buffer": 0,
   "byteLength": 1728,
   "byteOffset": 26859924
  },
  {
   "buffer": 0,
   "byteLength": 480,
   "byteOffset": 26861652
  },
  {
   "buffer": 0,
   "byteLength": 2880,
   "byteOffset": 26862132
  },
  {
   "buffer": 0,
   "byteLength": 25212,
   "byteOffset": 26865012,
   "target": 34962
  },
  {
   "buffer": 0,
   "byteLength": 25212,
   "byteOffset": 26890224,
   "target": 34962
  },
  {
   "buffer": 0,
   "byteLength": 25212,
   "byteOffset": 26915436,
   "target": 34962
  },
  {
   "buffer": 0,
   "byteLength": 1442,
   "byteOffset": 26940648
  },
  {
   "buffer": 0,
   "byteLength": 8652,
   "byteOffset": 26942092
  },
  {
   "buffer": 0,
   "byteLength": 876,
   "byteOffset": 26950744
  },
  {
   "buffer": 0,
   "byteLength": 5256,
   "byteOffset": 26951620
  },
  {
   "buffer": 0,
   "byteLength": 316,
   "byteOffset": 26956876
  },
  {
   "buffer": 0,
   "byteLength": 1896,
   "byteOffset": 26957192
  },
  {
   "buffer": 0,
   "byteLength": 54,
   "byteOffset": 26959088
  },
  {
   "buffer": 0,
   "byteLength": 324,
   "byteOffset": 26959144
  },
  {
   "buffer": 0,
   "byteLength": 362,
   "byteOffset": 26959468
  },
  {
   "buffer": 0,
   "byteLength": 2172,
   "byteOffset": 26959832
  },
  {
   "buffer": 0,
   "byteLength": 1,
   "byteOffset": 26962004
  },
  {
   "buffer": 0,
   "byteLength": 12,
   "byteOffset": 26962008
  },
  {
   "buffer": 0,
   "byteLength": 1,
   "byteOffset": 26962020
  },
  {
   "buffer": 0,
   "byteLength": 12,
   "byteOffset": 26962024
  },
  {
   "buffer": 0,
   "byteLength": 1,
   "byteOffset": 26962036
  },
  {
   "buffer": 0,
   "byteLength": 12,
   "byteOffset": 26962040
  },
  {
   "buffer": 0,
   "byteLength": 1,
   "byteOffset": 26962052
  },
  {
   "buffer": 0,
   "byteLength": 12,
   "byteOffset": 26962056
  },
  {
   "buffer": 0,
   "byteLength": 1,
   "byteOffset": 26962068
  },
  {
   "buffer": 0,
   "byteLength": 12,
   "byteOffset": 26962072
  },
  {
   "buffer": 0,
   "byteLength": 1,
   "byteOffset": 26962084
  },
  {
   "buffer": 0,
   "byteLength": 12,
   "byteOffset": 26962088
  },
  {
   "buffer": 0,
   "byteLength": 472,
   "byteOffset": 26962100
  },
  {
   "buffer": 0,
   "byteLength": 2832,
   "byteOffset": 26962572
  },
  {
   "buffer": 0,
   "byteLength": 162,
   "byteOffset": 26965404
  },
  {
   "buffer": 0,
   "byteLength": 972,
   "byteOffset": 26965568
  },
  {
   "buffer": 0,
   "byteLength": 1,
   "byteOffset": 26966540
  },
  {
   "buffer": 0,
   "byteLength": 12,
   "byteOffset": 26966544
  },
  {
   "buffer": 0,
   "byteLength": 1,
   "byteOffset": 26966556
  },
  {
   "buffer": 0,
   "byteLength": 12,
   "byteOffset": 26966560
  },
  {
   "buffer": 0,
   "byteLength": 1,
   "byteOffset": 26966572
  },
  {
   "buffer": 0,
   "byteLength": 12,
   "byteOffset": 26966576
  },
  {
   "buffer": 0,
   "byteLength": 1,
   "byteOffset": 26966588
  },
  {
   "buffer": 0,
   "byteLength": 12,
   "byteOffset": 26966592
  },
  {
   "buffer": 0,
   "byteLength": 144,
   "byteOffset": 26966604
  },
  {
   "buffer": 0,
   "byteLength": 864,
   "byteOffset": 26966748
  },
  {
   "buffer": 0,
   "byteLength": 1,
   "byteOffset": 26967612
  },
  {
   "buffer": 0,
   "byteLength": 12,
   "byteOffset": 26967616
  },
  {
   "buffer": 0,
   "byteLength": 1,
   "byteOffset": 26967628
  },
  {
   "buffer": 0,
   "byteLength": 12,
   "byteOffset": 26967632
  },
  {
   "buffer": 0,
   "byteLength": 1,
   "byteOffset": 26967644
  },
  {
   "buffer": 0,
   "byteLength": 12,
   "byteOffset": 26967648
  },
  {
   "buffer": 0,
   "byteLength": 1764,
   "byteOffset": 26967660
  },
  {
   "buffer": 0,
   "byteLength": 10584,
   "byteOffset": 26969424
  },
  {
   "buffer": 0,
   "byteLength": 1732,
   "byteOffset": 26980008
  },
  {
   "buffer": 0,
   "byteLength": 10392,
   "byteOffset": 26981740
  },
  {
   "buffer": 0,
   "byteLength": 1,
   "byteOffset": 26992132
  },
  {
   "buffer": 0,
   "byteLength": 12,
   "byteOffset": 26992136
  },
  {
   "buffer": 0,
   "byteLength": 756,
   "byteOffset": 26992148
  },
  {
   "buffer": 0,
   "byteLength": 4536,
   "byteOffset": 26992904
  },
  {
   "buffer": 0,
   "byteLength": 196,
   "byteOffset": 26997440
  },
  {
   "buffer": 0,
   "byteLength": 1176,
   "byteOffset": 26997636
  },
  {
   "buffer": 0,
   "byteLength": 32,
   "byteOffset": 26998812
  },
  {
   "buffer": 0,
   "byteLength": 192,
   "byteOffset": 26998844
  },
  {
   "buffer": 0,
   "byteLength": 1,
   "byteOffset": 26999036
  },
  {
   "buffer": 0,
   "byteLength": 12,
   "byteOffset": 26999040
  },
  {
   "buffer": 0,
   "byteLength": 20,
   "byteOffset": 26999052
  },
  {
   "buffer": 0,
   "byteLength": 120,
   "byteOffset": 26999072
  },
  {
   "buffer": 0,
   "byteLength": 3512,
   "byteOffset": 26999192
  },
  {
   "buffer": 0,
   "byteLength": 21072,
   "byteOffset": 27002704
  },
  {
   "buffer": 0,
   "byteLength": 3534,
   "byteOffset": 27023776
  },
  {
   "buffer": 0,
   "byteLength": 21204,
   "byteOffset": 27027312
  },
  {
   "buffer": 0,
   "byteLength": 3322,
   "byteOffset": 27048516
  },
  {
   "buffer": 0,
   "byteLength": 19932,
   "byteOffset": 27051840
  },
  {
   "buffer": 0,
   "byteLength": 3422,
   "byteOffset": 27071772
  },
  {
   "buffer": 0,
   "byteLength": 20532,
   "byteOffset": 27075196
  },
  {
   "buffer": 0,
   "byteLength": 3484,
   "byteOffset": 27095728
  },
  {
   "buffer": 0,
   "byteLength": 20904,
   "byteOffset": 27099212
  },
  {
   "buffer": 0,
   "byteLength": 3428,
   "byteOffset": 27120116
  },
  {
   "buffer": 0,
   "byteLength": 20568,
   "byteOffset": 27123544
  },
  {
   "buffer": 0,
   "byteLength": 25212,
   "byteOffset": 27144112,
   "target": 34962
  },
  {
   "buffer": 0,
   "byteLength": 3432,
   "byteOffset": 27169324
  },
  {
   "buffer": 0,
   "byteLength": 20592,
   "byteOffset": 27172756
  },
  {
   "buffer": 0,
   "byteLength": 3250,
   "byteOffset": 27193348
  },
  {
   "buffer": 0,
   "byteLength": 19500,
   "byteOffset": 27196600
  },
  {
   "buffer": 0,
   "byteLength": 4416,
   "byteOffset": 27216100
  }
 ],
 "samplers": [
  {
   "magFilter": 9729,
   "minFilter": 9987
  }
 ],
 "buffers": [
  {
   "byteLength": 27220516,
   "uri": "heroine_hair_long.bin"
  }
 ]
}