{
	"asset":{
		"generator":"Khronos glTF Blender I/O v4.5.51",
		"version":"2.0"
	},
	"scene":0,
	"scenes":[
		{
			"name":"Scene",
			"nodes":[
				110
			]
		}
	],
	"nodes":[
		{
			"name":"Head",
			"rotation":[
				-0.11761949956417084,
				-2.2141905731132283e-07,
				-3.010525233548833e-06,
				0.9930587410926819
			],
			"translation":[
				6.661338147750939e-15,
				0.08259861171245575,
				1.1175870007207322e-08
			]
		},
		{
			"children":[
				0
			],
			"name":"neck_01",
			"rotation":[
				0.2231902927160263,
				-6.007262687290904e-09,
				3.88361840464313e-08,
				0.9747748970985413
			],
			"translation":[
				-4.440892098500626e-15,
				0.26398828625679016,
				1.862645149230957e-08
			]
		},
		{
			"name":"index_04_leaf_l",
			"rotation":[
				-5.704350769519806e-09,
				1,
				-4.7439248085368035e-09,
				3.5353004932403564e-06
			],
			"scale":[
				1,
				0.9999999403953552,
				1
			],
			"translation":[
				1.1874362826347351e-08,
				0.030100101605057716,
				-1.910957507789135e-07
			]
		},
		{
			"children":[
				2
			],
			"name":"index_03_l",
			"rotation":[
				0.012105108238756657,
				-4.237862185618724e-07,
				0.004006620962172747,
				0.9999186992645264
			],
			"scale":[
				0.9999999403953552,
				1,
				0.9999999403953552
			],
			"translation":[
				-6.51925802230835e-09,
				0.02818247862160206,
				1.2776581570506096e-08
			]
		},
		{
			"children":[
				3
			],
			"name":"index_02_l",
			"rotation":[
				0.10989626497030258,
				1.5561427346710843e-07,
				-0.030358633026480675,
				0.993479311466217
			],
			"scale":[
				1,
				0.9999998807907104,
				1
			],
			"translation":[
				7.450580596923828e-09,
				0.03089151158928871,
				8.792267180979252e-08
			]
		},
		{
			"children":[
				4
			],
			"name":"index_01_l",
			"rotation":[
				-0.00943039171397686,
				0.7070736885070801,
				0.003526271553710103,
				0.7070682048797607
			],
			"scale":[
				0.9999998211860657,
				0.9999998211860657,
				0.9999999403953552
			],
			"translation":[
				0.00601259246468544,
				0.1281808316707611,
				0.02604752779006958
			]
		},
		{
			"name":"middle_04_leaf_l",
			"rotation":[
				2.3283064365386963e-09,
				1,
				-9.546056389808655e-09,
				3.6526471376419067e-06
			],
			"translation":[
				7.450580596923828e-09,
				0.03443717584013939,
				8.195638656616211e-08
			]
		},
		{
			"children":[
				6
			],
			"name":"middle_03_l",
			"rotation":[
				0.0005137118278071284,
				-6.389206532730896e-07,
				0.010132299736142159,
				0.9999485611915588
			],
			"scale":[
				0.9999999403953552,
				1,
				1
			],
			"translation":[
				0,
				0.031105799600481987,
				3.306195139884949e-08
			]
		},
		{
			"children":[
				7
			],
			"name":"middle_02_l",
			"rotation":[
				0.11376678943634033,
				0.00017226197815034539,
				-0.04893263056874275,
				0.9923017621040344
			],
			"scale":[
				0.9999999403953552,
				1.0000001192092896,
				0.9999999403953552
			],
			"translation":[
				7.450580596923828e-09,
				0.03485651686787605,
				9.033828973770142e-08
			]
		},
		{
			"children":[
				8
			],
			"name":"middle_01_l",
			"rotation":[
				-0.007998891174793243,
				0.7071942090988159,
				0.001128928386606276,
				0.7069733142852783
			],
			"scale":[
				0.9999999403953552,
				0.9999999403953552,
				1
			],
			"translation":[
				2.1420419216156006e-07,
				0.12831149995326996,
				-2.421438694000244e-08
			]
		},
		{
			"name":"pinky_04_leaf_l",
			"rotation":[
				2.591405063867569e-07,
				1,
				7.42729810099263e-07,
				4.369881935417652e-06
			],
			"scale":[
				1,
				1,
				0.9999999403953552
			],
			"translation":[
				1.862645149230957e-09,
				0.02816423401236534,
				2.8870999813079834e-08
			]
		},
		{
			"children":[
				10
			],
			"name":"pinky_03_l",
			"rotation":[
				-0.017429951578378677,
				-1.0290284080838319e-05,
				0.004625735804438591,
				0.9998373985290527
			],
			"translation":[
				-1.0244548320770264e-08,
				0.02304605394601822,
				-3.3527612686157227e-08
			]
		},
		{
			"children":[
				11
			],
			"name":"pinky_02_l",
			"rotation":[
				-0.015049012377858162,
				1.2427484762156382e-05,
				-0.007742131594568491,
				0.9998568296432495
			],
			"scale":[
				0.9999999403953552,
				0.9999998211860657,
				0.9999999403953552
			],
			"translation":[
				1.3504177331924438e-08,
				0.02458452805876732,
				8.381903171539307e-08
			]
		},
		{
			"children":[
				12
			],
			"name":"pinky_01_l",
			"rotation":[
				-0.011546679772436619,
				0.6985994577407837,
				-0.13425475358963013,
				0.7027098536491394
			],
			"scale":[
				0.9999998807907104,
				1.0000001192092896,
				1
			],
			"translation":[
				-0.003249170258641243,
				0.11280001699924469,
				-0.04492819309234619
			]
		},
		{
			"name":"ring_04_leaf_l",
			"rotation":[
				1.8626449271863521e-09,
				1,
				5.592592060565948e-07,
				4.133180482313037e-06
			],
			"scale":[
				1,
				0.9999999403953552,
				1
			],
			"translation":[
				-5.122274160385132e-09,
				0.03182276710867882,
				-1.6763806343078613e-07
			]
		},
		{
			"children":[
				14
			],
			"name":"ring_03_l",
			"rotation":[
				-0.034807611256837845,
				3.8098620279924944e-05,
				-0.011716693639755249,
				0.9993253946304321
			],
			"scale":[
				1,
				1.0000001192092896,
				0.9999999403953552
			],
			"translation":[
				-1.30385160446167e-08,
				0.027127576991915703,
				2.514570951461792e-08
			]
		},
		{
			"children":[
				15
			],
			"name":"ring_02_l",
			"rotation":[
				0.12512251734733582,
				8.260376489488408e-07,
				-0.04683397710323334,
				0.9910353422164917
			],
			"scale":[
				1,
				0.9999999403953552,
				0.9999999403953552
			],
			"translation":[
				7.450580596923828e-09,
				0.030405884608626366,
				-5.774199962615967e-08
			]
		},
		{
			"children":[
				16
			],
			"name":"ring_01_l",
			"rotation":[
				-0.03600794076919556,
				0.7065655589103699,
				-0.023554200306534767,
				0.7063382863998413
			],
			"scale":[
				0.9999998807907104,
				0.9999998211860657,
				0.9999998211860657
			],
			"translation":[
				-0.0022219279780983925,
				0.12319976091384888,
				-0.023185059428215027
			]
		},
		{
			"name":"thumb_04_leaf_l",
			"rotation":[
				-8.666064132967222e-08,
				0.5061784386634827,
				-6.911253649377613e-07,
				0.8624287843704224
			],
			"scale":[
				0.9999999403953552,
				1,
				1
			],
			"translation":[
				2.0489096641540527e-08,
				0.04086242616176605,
				3.026798367500305e-08
			]
		},
		{
			"children":[
				18
			],
			"name":"thumb_03_l",
			"rotation":[
				0.038206856697797775,
				6.0704936913680285e-05,
				-0.003949312027543783,
				0.9992620348930359
			],
			"scale":[
				0.9999999403953552,
				1,
				1
			],
			"translation":[
				8.009374141693115e-08,
				0.030296513810753822,
				5.960464477539063e-08
			]
		},
		{
			"children":[
				19
			],
			"name":"thumb_02_l",
			"rotation":[
				0.08123720437288284,
				-6.545388168888167e-05,
				0.03416353464126587,
				0.996109127998352
			],
			"scale":[
				0.9999998807907104,
				0.9999998807907104,
				1
			],
			"translation":[
				-2.0954757928848267e-08,
				0.06359592080116272,
				-4.0978193283081055e-08
			]
		},
		{
			"children":[
				20
			],
			"name":"thumb_01_l",
			"rotation":[
				0.19879724085330963,
				0.9399301409721375,
				0.26572659611701965,
				0.08000247925519943
			],
			"scale":[
				1,
				1.0000004768371582,
				0.9999998807907104
			],
			"translation":[
				0.014041760936379433,
				0.033058807253837585,
				0.02252725511789322
			]
		},
		{
			"children":[
				5,
				9,
				13,
				17,
				21
			],
			"name":"hand_l",
			"rotation":[
				-0.031026145443320274,
				-0.00039722936344332993,
				-0.04603857174515724,
				0.998457670211792
			],
			"scale":[
				1,
				0.9999999403953552,
				0.9999999403953552
			],
			"translation":[
				-1.2479722499847412e-07,
				0.2155425101518631,
				-2.60770320892334e-08
			]
		},
		{
			"children":[
				22
			],
			"name":"lowerarm_l",
			"rotation":[
				0.08169202506542206,
				-0.002163646975532174,
				0.12474946677684784,
				0.9888171553611755
			],
			"scale":[
				0.9999999403953552,
				0.9999999403953552,
				0.9999998807907104
			],
			"translation":[
				-7.776543498039246e-08,
				0.2526191771030426,
				7.450580596923828e-09
			]
		},
		{
			"children":[
				23
			],
			"name":"upperarm_l",
			"rotation":[
				-0.309012770652771,
				0.7203134298324585,
				-0.09680739045143127,
				0.613423228263855
			],
			"scale":[
				0.9999998807907104,
				0.9999995827674866,
				0.9999998807907104
			],
			"translation":[
				-3.0573573894798756e-08,
				0.16089306771755219,
				-5.3085386753082275e-08
			]
		},
		{
			"children":[
				24
			],
			"name":"clavicle_l",
			"rotation":[
				-0.5739023685455322,
				-0.43809181451797485,
				-0.555611789226532,
				0.4123193919658661
			],
			"translation":[
				0.03674304485321045,
				0.20328763127326965,
				-0.020137686282396317
			]
		},
		{
			"name":"index_04_leaf_r",
			"rotation":[
				7.450580596923828e-08,
				-1,
				-7.455236641362717e-07,
				3.772787522393628e-06
			],
			"scale":[
				1,
				1,
				1.0000001192092896
			],
			"translation":[
				-4.470348358154297e-08,
				0.030100125819444656,
				2.6542693376541138e-08
			]
		},
		{
			"children":[
				26
			],
			"name":"index_03_r",
			"rotation":[
				-0.04849317669868469,
				-5.970544236788555e-08,
				-0.03197126463055611,
				0.9983116984367371
			],
			"translation":[
				-4.190951585769653e-09,
				0.025925416499376297,
				-4.2869942262768745e-08
			]
		},
		{
			"children":[
				27
			],
			"name":"index_02_r",
			"rotation":[
				0.053899090737104416,
				6.099721190366836e-07,
				0.0012244933750480413,
				0.9985456466674805
			],
			"translation":[
				1.2398231774568558e-08,
				0.025076476857066154,
				-6.292248144745827e-08
			]
		},
		{
			"children":[
				28
			],
			"name":"index_01_r",
			"rotation":[
				0.01883687824010849,
				-0.7063117623329163,
				0.04360330104827881,
				0.7063056230545044
			],
			"scale":[
				0.9999999403953552,
				1,
				1
			],
			"translation":[
				-0.007182867266237736,
				0.13896213471889496,
				0.022565681487321854
			]
		},
		{
			"name":"middle_04_leaf_r",
			"rotation":[
				1.0803342576082287e-07,
				-1,
				6.100162863731384e-08,
				3.6507842651190003e-06
			],
			"scale":[
				1,
				0.9999999403953552,
				1.0000001192092896
			],
			"translation":[
				-9.313225746154785e-09,
				0.034437306225299835,
				3.306195139884949e-08
			]
		},
		{
			"children":[
				30
			],
			"name":"middle_03_r",
			"rotation":[
				-0.01961713843047619,
				-2.2268040993367322e-05,
				0.01453420426696539,
				0.9997019171714783
			],
			"scale":[
				0.9999999403953552,
				1,
				0.9999999403953552
			],
			"translation":[
				-1.862645149230957e-09,
				0.0318969190120697,
				3.4924596548080444e-08
			]
		},
		{
			"children":[
				31
			],
			"name":"middle_02_r",
			"rotation":[
				0.012513923458755016,
				-1.849291038524825e-05,
				-0.014413032680749893,
				0.9998177886009216
			],
			"scale":[
				1.0000001192092896,
				1,
				1.0000001192092896
			],
			"translation":[
				-9.313225746154785e-09,
				0.02895512245595455,
				-1.4994293451309204e-07
			]
		},
		{
			"children":[
				32
			],
			"name":"middle_01_r",
			"rotation":[
				-0.0008581651491113007,
				-0.7037793397903442,
				0.08184970915317535,
				0.7056872844696045
			],
			"scale":[
				0.9999999403953552,
				0.9999998211860657,
				0.9999999403953552
			],
			"translation":[
				-8.66129994392395e-08,
				0.13515622913837433,
				1.862645149230957e-08
			]
		},
		{
			"name":"pinky_04_leaf_r",
			"rotation":[
				9.313225746154785e-10,
				-1,
				-2.7008359992919395e-08,
				3.77558171749115e-06
			],
			"scale":[
				1,
				0.9999997019767761,
				1
			],
			"translation":[
				-4.842877388000488e-08,
				0.02816421166062355,
				7.450580596923828e-09
			]
		},
		{
			"children":[
				34
			],
			"name":"pinky_03_r",
			"rotation":[
				-0.04854918271303177,
				2.9768805688945577e-05,
				0.00458739697933197,
				0.9988102912902832
			],
			"scale":[
				1,
				0.9999999403953552,
				0.9999998807907104
			],
			"translation":[
				-1.1175870895385742e-08,
				0.020910026505589485,
				-6.798654794692993e-08
			]
		},
		{
			"children":[
				35
			],
			"name":"pinky_02_r",
			"rotation":[
				0.014203323051333427,
				1.1767256182793062e-05,
				0.02742159552872181,
				0.9995230436325073
			],
			"scale":[
				1,
				0.9999999403953552,
				0.9999999403953552
			],
			"translation":[
				9.313225746154785e-10,
				0.02278725430369377,
				2.421438694000244e-08
			]
		},
		{
			"children":[
				36
			],
			"name":"pinky_01_r",
			"rotation":[
				-0.028429139405488968,
				-0.6997609734535217,
				0.12398549169301987,
				0.7029609084129333
			],
			"scale":[
				0.9999998807907104,
				0.9999998211860657,
				0.9999998807907104
			],
			"translation":[
				0.0014907028526067734,
				0.12021058797836304,
				-0.04615413397550583
			]
		},
		{
			"name":"ring_04_leaf_r",
			"rotation":[
				2.062879644881832e-07,
				-1,
				-7.338821887969971e-07,
				3.5339037367521087e-06
			],
			"scale":[
				0.9999999403953552,
				1,
				1
			],
			"translation":[
				3.725290298461914e-09,
				0.031822726130485535,
				-6.51925802230835e-09
			]
		},
		{
			"children":[
				38
			],
			"name":"ring_03_r",
			"rotation":[
				-0.01863565295934677,
				-1.9874332792824134e-05,
				-0.0043523130007088184,
				0.99981689453125
			],
			"scale":[
				1,
				0.9999998807907104,
				0.9999999403953552
			],
			"translation":[
				-1.1175870895385742e-08,
				0.027077876031398773,
				7.450580596923828e-08
			]
		},
		{
			"children":[
				39
			],
			"name":"ring_02_r",
			"rotation":[
				0.027483073994517326,
				-2.3664566128900333e-07,
				-0.00174393889028579,
				0.999620795249939
			],
			"scale":[
				1,
				0.9999999403953552,
				1
			],
			"translation":[
				-2.0489096641540527e-08,
				0.02871740236878395,
				6.984919309616089e-08
			]
		},
		{
			"children":[
				40
			],
			"name":"ring_01_r",
			"rotation":[
				-0.029861100018024445,
				-0.7029565572738647,
				0.09575458616018295,
				0.7041246891021729
			],
			"scale":[
				0.9999999403953552,
				1,
				0.9999999403953552
			],
			"translation":[
				0.001923925243318081,
				0.12688565254211426,
				-0.023495782166719437
			]
		},
		{
			"name":"thumb_04_leaf_r",
			"rotation":[
				7.370201160483703e-08,
				-0.5061777830123901,
				-4.751484894427449e-08,
				0.862429141998291
			],
			"translation":[
				2.60770320892334e-08,
				0.04086232930421829,
				-7.916241884231567e-08
			]
		},
		{
			"children":[
				42
			],
			"name":"thumb_03_r",
			"rotation":[
				0.010224630124866962,
				-9.307137952418998e-05,
				0.07255624979734421,
				0.9973118901252747
			],
			"translation":[
				2.7939677238464355e-09,
				0.02526702545583248,
				-3.725290298461914e-08
			]
		},
		{
			"children":[
				43
			],
			"name":"thumb_02_r",
			"rotation":[
				0.05516009032726288,
				7.162708061514422e-05,
				0.005940041970461607,
				0.9984598755836487
			],
			"scale":[
				1.0000001192092896,
				0.9999999403953552,
				0.9999999403953552
			],
			"translation":[
				-1.0617077350616455e-07,
				0.07067813724279404,
				7.450580596923828e-09
			]
		},
		{
			"children":[
				44
			],
			"name":"thumb_01_r",
			"rotation":[
				0.2504635453224182,
				-0.9378892183303833,
				-0.23243092000484467,
				0.06006409227848053
			],
			"scale":[
				0.9999999403953552,
				0.9999998807907104,
				1
			],
			"translation":[
				-0.006966069340705872,
				0.0337512381374836,
				0.024693407118320465
			]
		},
		{
			"children":[
				29,
				33,
				37,
				41,
				45
			],
			"name":"hand_r",
			"rotation":[
				-0.02897755242884159,
				0.0004170025058556348,
				0.04835359379649162,
				0.9984097480773926
			],
			"translation":[
				-2.4633482098579407e-07,
				0.21606512367725372,
				-5.21540641784668e-08
			]
		},
		{
			"children":[
				46
			],
			"name":"lowerarm_r",
			"rotation":[
				0.08376288414001465,
				0.002205439144745469,
				-0.12716363370418549,
				0.9883361458778381
			],
			"scale":[
				1,
				1,
				1.0000001192092896
			],
			"translation":[
				3.818422555923462e-08,
				0.25064903497695923,
				-3.725290298461914e-09
			]
		},
		{
			"children":[
				47
			],
			"name":"upperarm_r",
			"rotation":[
				-0.3119966387748718,
				-0.7200558185577393,
				0.09840615838766098,
				0.6119590997695923
			],
			"scale":[
				0.9999999403953552,
				0.9999999403953552,
				1
			],
			"translation":[
				1.2965756468474865e-08,
				0.1608930230140686,
				-5.21540641784668e-08
			]
		},
		{
			"children":[
				48
			],
			"name":"clavicle_r",
			"rotation":[
				-0.5739057064056396,
				0.43808916211128235,
				0.5556118488311768,
				0.41231730580329895
			],
			"scale":[
				0.9999998807907104,
				0.9999998211860657,
				0.9999998807907104
			],
			"translation":[
				-0.03674301505088806,
				0.20328809320926666,
				-0.020137496292591095
			]
		},
		{
			"name":"breast_l",
			"rotation":[
				0.8276686072349548,
				-6.548595621325148e-08,
				5.933883784337013e-08,
				0.5612172484397888
			],
			"scale":[
				1,
				0.9999999403953552,
				0.9999999403953552
			],
			"translation":[
				0.09149465709924698,
				0.02670389972627163,
				0.07059912383556366
			]
		},
		{
			"name":"breast_r",
			"rotation":[
				0.8276686668395996,
				-6.548590647525998e-08,
				5.933885560693852e-08,
				0.5612170696258545
			],
			"scale":[
				1,
				0.9999999403953552,
				1
			],
			"translation":[
				-0.08786919713020325,
				0.028753157705068588,
				0.07116828113794327
			]
		},
		{
			"children":[
				1,
				25,
				49,
				50,
				51
			],
			"name":"spine_03",
			"rotation":[
				-0.15560832619667053,
				-5.241359346541685e-09,
				-9.067619544111949e-09,
				0.9878188371658325
			],
			"scale":[
				1,
				0.9999999403953552,
				1
			],
			"translation":[
				-4.2782617726278005e-16,
				0.11817018687725067,
				-1.862645149230957e-09
			]
		},
		{
			"children":[
				52
			],
			"name":"spine_02",
			"rotation":[
				-0.018412182107567787,
				-6.344914282863101e-08,
				-3.766788658765563e-09,
				0.9998304843902588
			],
			"translation":[
				-1.571225788365993e-15,
				0.04734303057193756,
				7.2177499532699585e-09
			]
		},
		{
			"children":[
				53
			],
			"name":"spine_01",
			"rotation":[
				-0.16446825861930847,
				1.1722862325314054e-07,
				-2.4440698354055712e-08,
				0.9863823652267456
			],
			"translation":[
				1.24683249835833e-16,
				0.10225912183523178,
				1.1175870895385742e-08
			]
		},
		{
			"name":"ball_leaf_l",
			"rotation":[
				-3.359400579938665e-08,
				-6.461050361394882e-08,
				4.6566128730773926e-09,
				1
			],
			"translation":[
				-5.995389074087143e-09,
				0.07889994978904724,
				-4.394678398966789e-09
			]
		},
		{
			"children":[
				55
			],
			"name":"ball_l",
			"rotation":[
				0.017003396525979042,
				-0.9840686917304993,
				0.17689868807792664,
				0.005153439473360777
			],
			"scale":[
				0.9999999403953552,
				0.9999993443489075,
				1
			],
			"translation":[
				4.0745362639427185e-09,
				0.13257987797260284,
				4.190951585769653e-09
			]
		},
		{
			"children":[
				56
			],
			"name":"foot_l",
			"rotation":[
				-0.5259309411048889,
				-0.013976658694446087,
				-0.021548721939325333,
				0.8501393795013428
			],
			"scale":[
				0.9999999403953552,
				0.9999998807907104,
				0.9999998807907104
			],
			"translation":[
				9.677023626863956e-09,
				0.45252469182014465,
				4.132743924856186e-09
			]
		},
		{
			"children":[
				57
			],
			"name":"calf_l",
			"rotation":[
				0.038200005888938904,
				-0.00152471917681396,
				0.0380624383687973,
				0.9985437989234924
			],
			"scale":[
				1,
				1.0000001192092896,
				1
			],
			"translation":[
				-6.9776433520019054e-09,
				0.4935515522956848,
				8.675851859152317e-08
			]
		},
		{
			"children":[
				58
			],
			"name":"thigh_l",
			"rotation":[
				0.9831892251968384,
				0.02927211858332157,
				-0.0036092603113502264,
				0.18019181489944458
			],
			"scale":[
				1,
				1,
				1.0000011920928955
			],
			"translation":[
				0.07348603755235672,
				-0.030424252152442932,
				-0.013960655778646469
			]
		},
		{
			"name":"ball_leaf_r",
			"rotation":[
				5.609308573184535e-08,
				-6.711343303322792e-08,
				-4.656612873077393e-10,
				1
			],
			"translation":[
				-4.773028194904327e-09,
				0.07890014350414276,
				1.1059455573558807e-09
			]
		},
		{
			"children":[
				60
			],
			"name":"ball_r",
			"rotation":[
				0.017126688733696938,
				0.9840770363807678,
				-0.1768653392791748,
				0.004218255635350943
			],
			"scale":[
				1,
				0.9999999403953552,
				0.9999998807907104
			],
			"translation":[
				-5.704350769519806e-09,
				0.132900670170784,
				2.1187588572502136e-08
			]
		},
		{
			"children":[
				61
			],
			"name":"foot_r",
			"rotation":[
				-0.5289507508277893,
				0.013429847545921803,
				0.022409554570913315,
				0.8482503294944763
			],
			"scale":[
				0.9999999403953552,
				0.9999999403953552,
				0.9999999403953552
			],
			"translation":[
				6.170012056827545e-09,
				0.45272567868232727,
				1.5352270565927029e-09
			]
		},
		{
			"children":[
				62
			],
			"name":"calf_r",
			"rotation":[
				0.0408739298582077,
				0.0012973396806046367,
				-0.03902268037199974,
				0.9984011650085449
			],
			"scale":[
				0.9999999403953552,
				0.9999999403953552,
				1
			],
			"translation":[
				-7.254129741340876e-09,
				0.4935506582260132,
				9.569339454174042e-08
			]
		},
		{
			"children":[
				63
			],
			"name":"thigh_r",
			"rotation":[
				0.9831891655921936,
				-0.029272256419062614,
				0.0036091753281652927,
				0.18019215762615204
			],
			"scale":[
				0.9999999403953552,
				0.9999998807907104,
				0.999998927116394
			],
			"translation":[
				-0.07348602265119553,
				-0.030424252152442932,
				-0.013960659503936768
			]
		},
		{
			"name":"glute_l",
			"rotation":[
				-0.8960705399513245,
				-2.7964134119429218e-08,
				-2.3932640758062007e-08,
				0.44391173124313354
			],
			"scale":[
				1,
				0.9999999403953552,
				0.9999998807907104
			],
			"translation":[
				0.08805271238088608,
				-0.08445273339748383,
				-0.03423186019062996
			]
		},
		{
			"name":"glute_r",
			"rotation":[
				-0.8960707187652588,
				-2.7964123461288182e-08,
				-2.3932656745273562e-08,
				0.4439113140106201
			],
			"scale":[
				1,
				1.0000001192092896,
				1.0000001192092896
			],
			"translation":[
				-0.07445123046636581,
				-0.08491348475217819,
				-0.033823803067207336
			]
		},
		{
			"children":[
				54,
				59,
				64,
				65,
				66
			],
			"name":"pelvis",
			"rotation":[
				0.8221108913421631,
				8.480421698209284e-09,
				1.2252897363396187e-08,
				0.5693274140357971
			],
			"scale":[
				1,
				0.9999999403953552,
				0.9999998807907104
			],
			"translation":[
				2.2872988225675073e-12,
				4.172325134277344e-07,
				1.0722957849502563
			]
		},
		{
			"children":[
				67
			],
			"name":"root",
			"rotation":[
				-0.7071067690849304,
				0,
				0,
				0.7071067690849304
			]
		},
		{
			"name":"neutral_bone",
			"rotation":[
				-0.7071067690849304,
				0,
				0,
				0.7071067690849304
			]
		},
		{
			"mesh":0,
			"name":"warden.band",
			"skin":0
		},
		{
			"mesh":1,
			"name":"warden.band_bind",
			"skin":0
		},
		{
			"mesh":2,
			"name":"warden.band_bind1",
			"skin":0
		},
		{
			"mesh":3,
			"name":"warden.bottom",
			"skin":0
		},
		{
			"mesh":4,
			"name":"warden.bottom_bind",
			"skin":0
		},
		{
			"mesh":5,
			"name":"warden.bottom_bind1",
			"skin":0
		},
		{
			"mesh":6,
			"name":"warden.bottom_gusset",
			"skin":0
		},
		{
			"mesh":7,
			"name":"warden.cups",
			"skin":0
		},
		{
			"mesh":8,
			"name":"warden.greave_l",
			"skin":0
		},
		{
			"mesh":9,
			"name":"warden.greave_l_bind",
			"skin":0
		},
		{
			"mesh":10,
			"name":"warden.greave_l_bind1",
			"skin":0
		},
		{
			"mesh":11,
			"name":"warden.greave_l_rivets",
			"skin":0
		},
		{
			"mesh":12,
			"name":"warden.greave_r",
			"skin":0
		},
		{
			"mesh":13,
			"name":"warden.greave_r_bind",
			"skin":0
		},
		{
			"mesh":14,
			"name":"warden.greave_r_bind1",
			"skin":0
		},
		{
			"mesh":15,
			"name":"warden.greave_r_rivets",
			"skin":0
		},
		{
			"mesh":16,
			"name":"warden.knee_l",
			"skin":0
		},
		{
			"mesh":17,
			"name":"warden.knee_l_bind",
			"skin":0
		},
		{
			"mesh":18,
			"name":"warden.knee_r",
			"skin":0
		},
		{
			"mesh":19,
			"name":"warden.knee_r_bind",
			"skin":0
		},
		{
			"mesh":20,
			"name":"warden.pauldron_l",
			"skin":0
		},
		{
			"mesh":21,
			"name":"warden.pauldron_l_rivets",
			"skin":0
		},
		{
			"mesh":22,
			"name":"warden.pauldron_r",
			"skin":0
		},
		{
			"mesh":23,
			"name":"warden.pauldron_r_bind",
			"skin":0
		},
		{
			"mesh":24,
			"name":"warden.pauldron_r_rivets",
			"skin":0
		},
		{
			"mesh":25,
			"name":"warden.plate",
			"skin":0
		},
		{
			"mesh":26,
			"name":"warden.plate_bind",
			"skin":0
		},
		{
			"mesh":27,
			"name":"warden.plate_rivets",
			"skin":0
		},
		{
			"mesh":28,
			"name":"warden.sabaton_l",
			"skin":0
		},
		{
			"mesh":29,
			"name":"warden.sabaton_l_bind",
			"skin":0
		},
		{
			"mesh":30,
			"name":"warden.sabaton_r",
			"skin":0
		},
		{
			"mesh":31,
			"name":"warden.strap0",
			"skin":0
		},
		{
			"mesh":32,
			"name":"warden.strap1",
			"skin":0
		},
		{
			"mesh":33,
			"name":"warden.vambrace_l",
			"skin":0
		},
		{
			"mesh":34,
			"name":"warden.vambrace_l_bind",
			"skin":0
		},
		{
			"mesh":35,
			"name":"warden.vambrace_l_rivets",
			"skin":0
		},
		{
			"mesh":36,
			"name":"warden.vambrace_r",
			"skin":0
		},
		{
			"mesh":37,
			"name":"warden.vambrace_r_bind",
			"skin":0
		},
		{
			"mesh":38,
			"name":"warden.vambrace_r_bind1",
			"skin":0
		},
		{
			"mesh":39,
			"name":"warden.vambrace_r_rivets",
			"skin":0
		},
		{
			"children":[
				70,
				71,
				72,
				73,
				74,
				75,
				76,
				77,
				78,
				79,
				80,
				81,
				82,
				83,
				84,
				85,
				86,
				87,
				88,
				89,
				90,
				91,
				92,
				93,
				94,
				95,
				96,
				97,
				98,
				99,
				100,
				101,
				102,
				103,
				104,
				105,
				106,
				107,
				108,
				109,
				68,
				69
			],
			"name":"Armature"
		}
	],
	"materials":[
		{
			"doubleSided":true,
			"name":"darkleather",
			"normalTexture":{
				"index":0
			},
			"pbrMetallicRoughness":{
				"baseColorTexture":{
					"index":1
				},
				"metallicFactor":0,
				"metallicRoughnessTexture":{
					"index":2
				}
			}
		},
		{
			"doubleSided":true,
			"name":"gold",
			"normalTexture":{
				"index":3
			},
			"pbrMetallicRoughness":{
				"baseColorTexture":{
					"index":4
				},
				"metallicRoughnessTexture":{
					"index":5
				}
			}
		},
		{
			"doubleSided":true,
			"name":"steel",
			"normalTexture":{
				"index":6
			},
			"pbrMetallicRoughness":{
				"baseColorTexture":{
					"index":7
				},
				"metallicRoughnessTexture":{
					"index":8
				}
			}
		},
		{
			"doubleSided":true,
			"name":"darksteel",
			"normalTexture":{
				"index":9
			},
			"pbrMetallicRoughness":{
				"baseColorTexture":{
					"index":10
				},
				"metallicRoughnessTexture":{
					"index":11
				}
			}
		}
	],
	"meshes":[
		{
			"name":"warden.band",
			"primitives":[
				{
					"attributes":{
						"POSITION":0,
						"NORMAL":1,
						"TEXCOORD_0":2,
						"JOINTS_0":3,
						"WEIGHTS_0":4
					},
					"indices":5,
					"material":0
				}
			]
		},
		{
			"name":"warden.band_bind",
			"primitives":[
				{
					"attributes":{
						"POSITION":7,
						"NORMAL":8,
						"TEXCOORD_0":9,
						"JOINTS_0":10,
						"WEIGHTS_0":11
					},
					"indices":12,
					"material":1
				}
			]
		},
		{
			"name":"warden.band_bind1",
			"primitives":[
				{
					"attributes":{
						"POSITION":13,
						"NORMAL":14,
						"TEXCOORD_0":15,
						"JOINTS_0":16,
						"WEIGHTS_0":17
					},
					"indices":18,
					"material":1
				}
			]
		},
		{
			"name":"warden.bottom",
			"primitives":[
				{
					"attributes":{
						"POSITION":19,
						"NORMAL":20,
						"TEXCOORD_0":21,
						"JOINTS_0":22,
						"WEIGHTS_0":23
					},
					"indices":24,
					"material":0
				}
			]
		},
		{
			"name":"warden.bottom_bind",
			"primitives":[
				{
					"attributes":{
						"POSITION":25,
						"NORMAL":26,
						"TEXCOORD_0":27,
						"JOINTS_0":28,
						"WEIGHTS_0":29
					},
					"indices":30,
					"material":0
				}
			]
		},
		{
			"name":"warden.bottom_bind1",
			"primitives":[
				{
					"attributes":{
						"POSITION":31,
						"NORMAL":32,
						"TEXCOORD_0":33,
						"JOINTS_0":34,
						"WEIGHTS_0":35
					},
					"indices":36,
					"material":0
				}
			]
		},
		{
			"name":"warden.bottom_gusset",
			"primitives":[
				{
					"attributes":{
						"POSITION":37,
						"NORMAL":38,
						"TEXCOORD_0":39,
						"JOINTS_0":40,
						"WEIGHTS_0":41
					},
					"indices":42,
					"material":0
				}
			]
		},
		{
			"name":"warden.cups",
			"primitives":[
				{
					"attributes":{
						"POSITION":43,
						"NORMAL":44,
						"TEXCOORD_0":45,
						"JOINTS_0":46,
						"WEIGHTS_0":47
					},
					"indices":48,
					"material":2
				}
			]
		},
		{
			"name":"warden.greave_l",
			"primitives":[
				{
					"attributes":{
						"POSITION":49,
						"NORMAL":50,
						"TEXCOORD_0":51,
						"JOINTS_0":52,
						"WEIGHTS_0":53
					},
					"indices":54,
					"material":2
				}
			]
		},
		{
			"name":"warden.greave_l_bind",
			"primitives":[
				{
					"attributes":{
						"POSITION":55,
						"NORMAL":56,
						"TEXCOORD_0":57,
						"JOINTS_0":58,
						"WEIGHTS_0":59
					},
					"indices":60,
					"material":1
				}
			]
		},
		{
			"name":"warden.greave_l_bind1",
			"primitives":[
				{
					"attributes":{
						"POSITION":61,
						"NORMAL":62,
						"TEXCOORD_0":63,
						"JOINTS_0":64,
						"WEIGHTS_0":65
					},
					"indices":66,
					"material":1
				}
			]
		},
		{
			"name":"warden.greave_l_rivets",
			"primitives":[
				{
					"attributes":{
						"POSITION":67,
						"NORMAL":68,
						"TEXCOORD_0":69,
						"JOINTS_0":70,
						"WEIGHTS_0":71
					},
					"indices":72,
					"material":1
				}
			]
		},
		{
			"name":"warden.greave_r",
			"primitives":[
				{
					"attributes":{
						"POSITION":73,
						"NORMAL":74,
						"TEXCOORD_0":75,
						"JOINTS_0":76,
						"WEIGHTS_0":77
					},
					"indices":78,
					"material":2
				}
			]
		},
		{
			"name":"warden.greave_r_bind",
			"primitives":[
				{
					"attributes":{
						"POSITION":79,
						"NORMAL":80,
						"TEXCOORD_0":81,
						"JOINTS_0":82,
						"WEIGHTS_0":83
					},
					"indices":84,
					"material":1
				}
			]
		},
		{
			"name":"warden.greave_r_bind1",
			"primitives":[
				{
					"attributes":{
						"POSITION":85,
						"NORMAL":86,
						"TEXCOORD_0":87,
						"JOINTS_0":88,
						"WEIGHTS_0":89
					},
					"indices":90,
					"material":1
				}
			]
		},
		{
			"name":"warden.greave_r_rivets",
			"primitives":[
				{
					"attributes":{
						"POSITION":91,
						"NORMAL":92,
						"TEXCOORD_0":93,
						"JOINTS_0":94,
						"WEIGHTS_0":95
					},
					"indices":96,
					"material":1
				}
			]
		},
		{
			"name":"warden.knee_l",
			"primitives":[
				{
					"attributes":{
						"POSITION":97,
						"NORMAL":98,
						"TEXCOORD_0":99,
						"JOINTS_0":100,
						"WEIGHTS_0":101
					},
					"indices":102,
					"material":2
				}
			]
		},
		{
			"name":"warden.knee_l_bind",
			"primitives":[
				{
					"attributes":{
						"POSITION":103,
						"NORMAL":104,
						"TEXCOORD_0":105,
						"JOINTS_0":106,
						"WEIGHTS_0":107
					},
					"indices":108,
					"material":1
				}
			]
		},
		{
			"name":"warden.knee_r",
			"primitives":[
				{
					"attributes":{
						"POSITION":109,
						"NORMAL":110,
						"TEXCOORD_0":111,
						"JOINTS_0":112,
						"WEIGHTS_0":113
					},
					"indices":114,
					"material":2
				}
			]
		},
		{
			"name":"warden.knee_r_bind",
			"primitives":[
				{
					"attributes":{
						"POSITION":115,
						"NORMAL":116,
						"TEXCOORD_0":117,
						"JOINTS_0":118,
						"WEIGHTS_0":119
					},
					"indices":120,
					"material":1
				}
			]
		},
		{
			"name":"warden.pauldron_l",
			"primitives":[
				{
					"attributes":{
						"POSITION":121,
						"NORMAL":122,
						"TEXCOORD_0":123,
						"JOINTS_0":124,
						"WEIGHTS_0":125
					},
					"indices":126,
					"material":2
				}
			]
		},
		{
			"name":"warden.pauldron_l_rivets",
			"primitives":[
				{
					"attributes":{
						"POSITION":127,
						"NORMAL":128,
						"TEXCOORD_0":129,
						"JOINTS_0":130,
						"WEIGHTS_0":131
					},
					"indices":132,
					"material":1
				}
			]
		},
		{
			"name":"warden.pauldron_r",
			"primitives":[
				{
					"attributes":{
						"POSITION":133,
						"NORMAL":134,
						"TEXCOORD_0":135,
						"JOINTS_0":136,
						"WEIGHTS_0":137
					},
					"indices":138,
					"material":2
				}
			]
		},
		{
			"name":"warden.pauldron_r_bind",
			"primitives":[
				{
					"attributes":{
						"POSITION":139,
						"NORMAL":140,
						"TEXCOORD_0":141,
						"JOINTS_0":142,
						"WEIGHTS_0":143
					},
					"indices":144,
					"material":1
				}
			]
		},
		{
			"name":"warden.pauldron_r_rivets",
			"primitives":[
				{
					"attributes":{
						"POSITION":145,
						"NORMAL":146,
						"TEXCOORD_0":147,
						"JOINTS_0":148,
						"WEIGHTS_0":149
					},
					"indices":150,
					"material":1
				}
			]
		},
		{
			"name":"warden.plate",
			"primitives":[
				{
					"attributes":{
						"POSITION":151,
						"NORMAL":152,
						"TEXCOORD_0":153,
						"JOINTS_0":154,
						"WEIGHTS_0":155
					},
					"indices":156,
					"material":2
				}
			]
		},
		{
			"name":"warden.plate_bind",
			"primitives":[
				{
					"attributes":{
						"POSITION":157,
						"NORMAL":158,
						"TEXCOORD_0":159,
						"JOINTS_0":160,
						"WEIGHTS_0":161
					},
					"indices":162,
					"material":1
				}
			]
		},
		{
			"name":"warden.plate_rivets",
			"primitives":[
				{
					"attributes":{
						"POSITION":163,
						"NORMAL":164,
						"TEXCOORD_0":165,
						"JOINTS_0":166,
						"WEIGHTS_0":167
					},
					"indices":168,
					"material":1
				}
			]
		},
		{
			"name":"warden.sabaton_l",
			"primitives":[
				{
					"attributes":{
						"POSITION":169,
						"NORMAL":170,
						"TEXCOORD_0":171,
						"JOINTS_0":172,
						"WEIGHTS_0":173
					},
					"indices":174,
					"material":3
				}
			]
		},
		{
			"name":"warden.sabaton_l_bind",
			"primitives":[
				{
					"attributes":{
						"POSITION":175,
						"NORMAL":176,
						"TEXCOORD_0":177,
						"JOINTS_0":178,
						"WEIGHTS_0":179
					},
					"indices":180,
					"material":3
				}
			]
		},
		{
			"name":"warden.sabaton_r",
			"primitives":[
				{
					"attributes":{
						"POSITION":181,
						"NORMAL":182,
						"TEXCOORD_0":183,
						"JOINTS_0":184,
						"WEIGHTS_0":185
					},
					"indices":186,
					"material":3
				}
			]
		},
		{
			"name":"warden.strap0",
			"primitives":[
				{
					"attributes":{
						"POSITION":187,
						"NORMAL":188,
						"TEXCOORD_0":189,
						"JOINTS_0":190,
						"WEIGHTS_0":191
					},
					"indices":192,
					"material":0
				}
			]
		},
		{
			"name":"warden.strap1",
			"primitives":[
				{
					"attributes":{
						"POSITION":193,
						"NORMAL":194,
						"TEXCOORD_0":195,
						"JOINTS_0":196,
						"WEIGHTS_0":197
					},
					"indices":198,
					"material":0
				}
			]
		},
		{
			"name":"warden.vambrace_l",
			"primitives":[
				{
					"attributes":{
						"POSITION":199,
						"NORMAL":200,
						"TEXCOORD_0":201,
						"JOINTS_0":202,
						"WEIGHTS_0":203
					},
					"indices":204,
					"material":2
				}
			]
		},
		{
			"name":"warden.vambrace_l_bind",
			"primitives":[
				{
					"attributes":{
						"POSITION":205,
						"NORMAL":206,
						"TEXCOORD_0":207,
						"JOINTS_0":208,
						"WEIGHTS_0":209
					},
					"indices":210,
					"material":1
				}
			]
		},
		{
			"name":"warden.vambrace_l_rivets",
			"primitives":[
				{
					"attributes":{
						"POSITION":211,
						"NORMAL":212,
						"TEXCOORD_0":213,
						"JOINTS_0":214,
						"WEIGHTS_0":215
					},
					"indices":216,
					"material":1
				}
			]
		},
		{
			"name":"warden.vambrace_r",
			"primitives":[
				{
					"attributes":{
						"POSITION":217,
						"NORMAL":218,
						"TEXCOORD_0":219,
						"JOINTS_0":220,
						"WEIGHTS_0":221
					},
					"indices":222,
					"material":2
				}
			]
		},
		{
			"name":"warden.vambrace_r_bind",
			"primitives":[
				{
					"attributes":{
						"POSITION":223,
						"NORMAL":224,
						"TEXCOORD_0":225,
						"JOINTS_0":226,
						"WEIGHTS_0":227
					},
					"indices":228,
					"material":1
				}
			]
		},
		{
			"name":"warden.vambrace_r_bind1",
			"primitives":[
				{
					"attributes":{
						"POSITION":229,
						"NORMAL":230,
						"TEXCOORD_0":231,
						"JOINTS_0":232,
						"WEIGHTS_0":233
					},
					"indices":234,
					"material":1
				}
			]
		},
		{
			"name":"warden.vambrace_r_rivets",
			"primitives":[
				{
					"attributes":{
						"POSITION":235,
						"NORMAL":236,
						"TEXCOORD_0":237,
						"JOINTS_0":238,
						"WEIGHTS_0":239
					},
					"indices":240,
					"material":1
				}
			]
		}
	],
	"textures":[
		{
			"sampler":0,
			"source":0
		},
		{
			"sampler":0,
			"source":1
		},
		{
			"sampler":0,
			"source":2
		},
		{
			"sampler":0,
			"source":3
		},
		{
			"sampler":0,
			"source":4
		},
		{
			"sampler":0,
			"source":5
		},
		{
			"sampler":0,
			"source":6
		},
		{
			"sampler":0,
			"source":7
		},
		{
			"sampler":0,
			"source":8
		},
		{
			"sampler":0,
			"source":9
		},
		{
			"sampler":0,
			"source":10
		},
		{
			"sampler":0,
			"source":11
		}
	],
	"images":[
		{
			"mimeType":"image/jpeg",
			"name":"Leather034C_nor",
			"uri":"outfit_tex/Leather034C_nor.jpg"
		},
		{
			"mimeType":"image/jpeg",
			"name":"outfit_darkleather_diff",
			"uri":"outfit_tex/outfit_darkleather_diff.jpg"
		},
		{
			"mimeType":"image/png",
			"name":"Leather034C_rough",
			"uri":"outfit_tex/Leather034C_rough.png"
		},
		{
			"mimeType":"image/jpeg",
			"name":"Metal048C_nor",
			"uri":"outfit_tex/Metal048C_nor.jpg"
		},
		{
			"mimeType":"image/jpeg",
			"name":"outfit_gold_diff",
			"uri":"outfit_tex/outfit_gold_diff.jpg"
		},
		{
			"mimeType":"image/png",
			"name":"Metal048C_metal-Metal048C_rough",
			"uri":"outfit_tex/Metal048C_metal-Metal048C_rough.png"
		},
		{
			"mimeType":"image/jpeg",
			"name":"Metal038_nor",
			"uri":"outfit_tex/Metal038_nor.jpg"
		},
		{
			"mimeType":"image/jpeg",
			"name":"outfit_steel_diff",
			"uri":"outfit_tex/outfit_steel_diff.jpg"
		},
		{
			"mimeType":"image/png",
			"name":"Metal038_metal-Metal038_rough",
			"uri":"outfit_tex/Metal038_metal-Metal038_rough.png"
		},
		{
			"mimeType":"image/jpeg",
			"name":"Metal046B_nor",
			"uri":"outfit_tex/Metal046B_nor.jpg"
		},
		{
			"mimeType":"image/jpeg",
			"name":"outfit_darksteel_diff",
			"uri":"outfit_tex/outfit_darksteel_diff.jpg"
		},
		{
			"mimeType":"image/png",
			"name":"Metal046B_metal-Metal046B_rough",
			"uri":"outfit_tex/Metal046B_metal-Metal046B_rough.png"
		}
	],
	"skins":[
		{
			"inverseBindMatrices":6,
			"joints":[
				68,
				67,
				54,
				53,
				52,
				1,
				0,
				25,
				24,
				23,
				22,
				5,
				4,
				3,
				2,
				9,
				8,
				7,
				6,
				13,
				12,
				11,
				10,
				17,
				16,
				15,
				14,
				21,
				20,
				19,
				18,
				49,
				48,
				47,
				46,
				29,
				28,
				27,
				26,
				33,
				32,
				31,
				30,
				37,
				36,
				35,
				34,
				41,
				40,
				39,
				38,
				45,
				44,
				43,
				42,
				50,
				51,
				59,
				58,
				57,
				56,
				55,
				64,
				63,
				62,
				61,
				60,
				65,
				66,
				69
			],
			"name":"Armature"
		}
	],
	"accessors":[
		{
			"bufferView":0,
			"componentType":5126,
			"count":9627,
			"max":[
				0.1419709324836731,
				1.3294321298599243,
				0.1259266585111618
			],
			"min":[
				-0.13826149702072144,
				1.2555879354476929,
				-0.0856495350599289
			],
			"type":"VEC3"
		},
		{
			"bufferView":1,
			"componentType":5126,
			"count":9627,
			"type":"VEC3"
		},
		{
			"bufferView":2,
			"componentType":5126,
			"count":9627,
			"type":"VEC2"
		},
		{
			"bufferView":3,
			"componentType":5121,
			"count":9627,
			"type":"VEC4"
		},
		{
			"bufferView":4,
			"componentType":5126,
			"count":9627,
			"type":"VEC4"
		},
		{
			"bufferView":5,
			"componentType":5123,
			"count":44520,
			"type":"SCALAR"
		},
		{
			"bufferView":6,
			"componentType":5126,
			"count":70,
			"type":"MAT4"
		},
		{
			"bufferView":7,
			"componentType":5126,
			"count":7539,
			"max":[
				0.1423826813697815,
				1.330812931060791,
				0.12288600951433182
			],
			"min":[
				-0.13870735466480255,
				1.2992236614227295,
				-0.08603839576244354
			],
			"type":"VEC3"
		},
		{
			"bufferView":8,
			"componentType":5126,
			"count":7539,
			"type":"VEC3"
		},
		{
			"bufferView":9,
			"componentType":5126,
			"count":7539,
			"type":"VEC2"
		},
		{
			"bufferView":10,
			"componentType":5121,
			"count":7539,
			"type":"VEC4"
		},
		{
			"bufferView":11,
			"componentType":5126,
			"count":7539,
			"type":"VEC4"
		},
		{
			"bufferView":12,
			"componentType":5123,
			"count":28944,
			"type":"SCALAR"
		},
		{
			"bufferView":13,
			"componentType":5126,
			"count":6322,
			"max":[
				0.13311095535755157,
				1.2727696895599365,
				0.12612541019916534
			],
			"min":[
				-0.12987120449543,
				1.2562310695648193,
				-0.07554538547992706
			],
			"type":"VEC3"
		},
		{
			"bufferView":14,
			"componentType":5126,
			"count":6322,
			"type":"VEC3"
		},
		{
			"bufferView":15,
			"componentType":5126,
			"count":6322,
			"type":"VEC2"
		},
		{
			"bufferView":16,
			"componentType":5121,
			"count":6322,
			"type":"VEC4"
		},
		{
			"bufferView":17,
			"componentType":5126,
			"count":6322,
			"type":"VEC4"
		},
		{
			"bufferView":18,
			"componentType":5123,
			"count":26856,
			"type":"SCALAR"
		},
		{
			"bufferView":19,
			"componentType":5126,
			"count":18695,
			"max":[
				0.1848832219839096,
				1.0909384489059448,
				0.1075100228190422
			],
			"min":[
				-0.1815798133611679,
				0.9101656675338745,
				-0.15772977471351624
			],
			"type":"VEC3"
		},
		{
			"bufferView":20,
			"componentType":5126,
			"count":18695,
			"type":"VEC3"
		},
		{
			"bufferView":21,
			"componentType":5126,
			"count":18695,
			"type":"VEC2"
		},
		{
			"bufferView":22,
			"componentType":5121,
			"count":18695,
			"type":"VEC4"
		},
		{
			"bufferView":23,
			"componentType":5126,
			"count":18695,
			"type":"VEC4"
		},
		{
			"bufferView":24,
			"componentType":5123,
			"count":80721,
			"type":"SCALAR"
		},
		{
			"bufferView":25,
			"componentType":5126,
			"count":8838,
			"max":[
				0.17091791331768036,
				1.0905872583389282,
				0.10786428302526474
			],
			"min":[
				-0.16738295555114746,
				1.0319726467132568,
				-0.14717596769332886
			],
			"type":"VEC3"
		},
		{
			"bufferView":26,
			"componentType":5126,
			"count":8838,
			"type":"VEC3"
		},
		{
			"bufferView":27,
			"componentType":5126,
			"count":8838,
			"type":"VEC2"
		},
		{
			"bufferView":28,
			"componentType":5121,
			"count":8838,
			"type":"VEC4"
		},
		{
			"bufferView":29,
			"componentType":5126,
			"count":8838,
			"type":"VEC4"
		},
		{
			"bufferView":30,
			"componentType":5123,
			"count":36432,
			"type":"SCALAR"
		},
		{
			"bufferView":31,
			"componentType":5126,
			"count":12288,
			"max":[
				0.18526026606559753,
				1.0612404346466064,
				0.09884833544492722
			],
			"min":[
				-0.1819402277469635,
				0.9104313254356384,
				-0.15824109315872192
			],
			"type":"VEC3"
		},
		{
			"bufferView":32,
			"componentType":5126,
			"count":12288,
			"type":"VEC3"
		},
		{
			"bufferView":33,
			"componentType":5126,
			"count":12288,
			"type":"VEC2"
		},
		{
			"bufferView":34,
			"componentType":5121,
			"count":12288,
			"type":"VEC4"
		},
		{
			"bufferView":35,
			"componentType":5126,
			"count":12288,
			"type":"VEC4"
		},
		{
			"bufferView":36,
			"componentType":5123,
			"count":51480,
			"type":"SCALAR"
		},
		{
			"bufferView":37,
			"componentType":5126,
			"count":686,
			"max":[
				0.006679710000753403,
				0.9378655552864075,
				0.05327698215842247
			],
			"min":[
				-0.006651862990111113,
				0.9203494787216187,
				-0.04694129154086113
			],
			"type":"VEC3"
		},
		{
			"bufferView":38,
			"componentType":5126,
			"count":686,
			"type":"VEC3"
		},
		{
			"bufferView":39,
			"componentType":5126,
			"count":686,
			"type":"VEC2"
		},
		{
			"bufferView":40,
			"componentType":5121,
			"count":686,
			"type":"VEC4"
		},
		{
			"bufferView":41,
			"componentType":5126,
			"count":686,
			"type":"VEC4"
		},
		{
			"bufferView":42,
			"componentType":5123,
			"count":4104,
			"type":"SCALAR"
		},
		{
			"bufferView":43,
			"componentType":5126,
			"count":20164,
			"max":[
				0.1629239171743393,
				1.478747844696045,
				0.1808275729417801
			],
			"min":[
				-0.1629239022731781,
				1.3744033575057983,
				0.10707227140665054
			],
			"type":"VEC3"
		},
		{
			"bufferView":44,
			"componentType":5126,
			"count":20164,
			"type":"VEC3"
		},
		{
			"bufferView":45,
			"componentType":5126,
			"count":20164,
			"type":"VEC2"
		},
		{
			"bufferView":46,
			"componentType":5121,
			"count":20164,
			"type":"VEC4"
		},
		{
			"bufferView":47,
			"componentType":5126,
			"count":20164,
			"type":"VEC4"
		},
		{
			"bufferView":48,
			"componentType":5123,
			"count":120960,
			"type":"SCALAR"
		},
		{
			"bufferView":49,
			"componentType":5126,
			"count":13489,
			"max":[
				0.18384294211864471,
				0.571357786655426,
				0.03899337723851204
			],
			"min":[
				0.023050354793667793,
				0.017191914841532707,
				-0.13844233751296997
			],
			"type":"VEC3"
		},
		{
			"bufferView":50,
			"componentType":5126,
			"count":13489,
			"type":"VEC3"
		},
		{
			"bufferView":51,
			"componentType":5126,
			"count":13489,
			"type":"VEC2"
		},
		{
			"bufferView":52,
			"componentType":5121,
			"count":13489,
			"type":"VEC4"
		},
		{
			"bufferView":53,
			"componentType":5126,
			"count":13489,
			"type":"VEC4"
		},
		{
			"bufferView":54,
			"componentType":5123,
			"count":72462,
			"type":"SCALAR"
		},
		{
			"bufferView":55,
			"componentType":5126,
			"count":3687,
			"max":[
				0.16238397359848022,
				0.5712636113166809,
				0.03934236243367195
			],
			"min":[
				0.02242676168680191,
				0.5180544853210449,
				-0.09208319336175919
			],
			"type":"VEC3"
		},
		{
			"bufferView":56,
			"componentType":5126,
			"count":3687,
			"type":"VEC3"
		},
		{
			"bufferView":57,
			"componentType":5126,
			"count":3687,
			"type":"VEC2"
		},
		{
			"bufferView":58,
			"componentType":5121,
			"count":3687,
			"type":"VEC4"
		},
		{
			"bufferView":59,
			"componentType":5126,
			"count":3687,
			"type":"VEC4"
		},
		{
			"bufferView":60,
			"componentType":5123,
			"count":15048,
			"type":"SCALAR"
		},
		{
			"bufferView":61,
			"componentType":5126,
			"count":3501,
			"max":[
				0.14094120264053345,
				0.13699105381965637,
				0.008060730062425137
			],
			"min":[
				0.046221230179071426,
				0.01783016510307789,
				-0.10538402944803238
			],
			"type":"VEC3"
		},
		{
			"bufferView":62,
			"componentType":5126,
			"count":3501,
			"type":"VEC3"
		},
		{
			"bufferView":63,
			"componentType":5126,
			"count":3501,
			"type":"VEC2"
		},
		{
			"bufferView":64,
			"componentType":5121,
			"count":3501,
			"type":"VEC4"
		},
		{
			"bufferView":65,
			"componentType":5126,
			"count":3501,
			"type":"VEC4"
		},
		{
			"bufferView":66,
			"componentType":5123,
			"count":14400,
			"type":"SCALAR"
		},
		{
			"bufferView":67,
			"componentType":5126,
			"count":3952,
			"max":[
				0.16335898637771606,
				0.5620915293693542,
				0.03785896673798561
			],
			"min":[
				0.022651785984635353,
				0.03060881979763508,
				-0.10983067005872726
			],
			"type":"VEC3"
		},
		{
			"bufferView":68,
			"componentType":5126,
			"count":3952,
			"type":"VEC3"
		},
		{
			"bufferView":69,
			"componentType":5126,
			"count":3952,
			"type":"VEC2"
		},
		{
			"bufferView":70,
			"componentType":5121,
			"count":3952,
			"type":"VEC4"
		},
		{
			"bufferView":71,
			"componentType":5126,
			"count":3952,
			"type":"VEC4"
		},
		{
			"bufferView":72,
			"componentType":5123,
			"count":12672,
			"type":"SCALAR"
		},
		{
			"bufferView":73,
			"componentType":5126,
			"count":13322,
			"max":[
				-0.019375141710042953,
				0.5704429149627686,
				0.03904092311859131
			],
			"min":[
				-0.18043364584445953,
				0.021769873797893524,
				-0.13844668865203857
			],
			"type":"VEC3"
		},
		{
			"bufferView":74,
			"componentType":5126,
			"count":13322,
			"type":"VEC3"
		},
		{
			"bufferView":75,
			"componentType":5126,
			"count":13322,
			"type":"VEC2"
		},
		{
			"bufferView":76,
			"componentType":5121,
			"count":13322,
			"type":"VEC4"
		},
		{
			"bufferView":77,
			"componentType":5126,
			"count":13322,
			"type":"VEC4"
		},
		{
			"bufferView":78,
			"componentType":5123,
			"count":70566,
			"type":"SCALAR"
		},
		{
			"bufferView":79,
			"componentType":5126,
			"count":3824,
			"max":[
				-0.04344356060028076,
				0.13741108775138855,
				0.008256603963673115
			],
			"min":[
				-0.13662517070770264,
				0.02201847732067108,
				-0.10644073784351349
			],
			"type":"VEC3"
		},
		{
			"bufferView":80,
			"componentType":5126,
			"count":3824,
			"type":"VEC3"
		},
		{
			"bufferView":81,
			"componentType":5126,
			"count":3824,
			"type":"VEC2"
		},
		{
			"bufferView":82,
			"componentType":5121,
			"count":3824,
			"type":"VEC4"
		},
		{
			"bufferView":83,
			"componentType":5126,
			"count":3824,
			"type":"VEC4"
		},
		{
			"bufferView":84,
			"componentType":5123,
			"count":14256,
			"type":"SCALAR"
		},
		{
			"bufferView":85,
			"componentType":5126,
			"count":3743,
			"max":[
				-0.018955301493406296,
				0.5720152258872986,
				0.03938509523868561
			],
			"min":[
				-0.15875811874866486,
				0.5181183218955994,
				-0.09196358919143677
			],
			"type":"VEC3"
		},
		{
			"bufferView":86,
			"componentType":5126,
			"count":3743,
			"type":"VEC3"
		},
		{
			"bufferView":87,
			"componentType":5126,
			"count":3743,
			"type":"VEC2"
		},
		{
			"bufferView":88,
			"componentType":5121,
			"count":3743,
			"type":"VEC4"
		},
		{
			"bufferView":89,
			"componentType":5126,
			"count":3743,
			"type":"VEC4"
		},
		{
			"bufferView":90,
			"componentType":5123,
			"count":15048,
			"type":"SCALAR"
		},
		{
			"bufferView":91,
			"componentType":5126,
			"count":3768,
			"max":[
				-0.0195911917835474,
				0.5631431341171265,
				0.03784492611885071
			],
			"min":[
				-0.16034482419490814,
				0.0385102778673172,
				-0.10882449150085449
			],
			"type":"VEC3"
		},
		{
			"bufferView":92,
			"componentType":5126,
			"count":3768,
			"type":"VEC3"
		},
		{
			"bufferView":93,
			"componentType":5126,
			"count":3768,
			"type":"VEC2"
		},
		{
			"bufferView":94,
			"componentType":5121,
			"count":3768,
			"type":"VEC4"
		},
		{
			"bufferView":95,
			"componentType":5126,
			"count":3768,
			"type":"VEC4"
		},
		{
			"bufferView":96,
			"componentType":5123,
			"count":12096,
			"type":"SCALAR"
		},
		{
			"bufferView":97,
			"componentType":5126,
			"count":4611,
			"max":[
				0.15770220756530762,
				0.6120076775550842,
				0.07029260694980621
			],
			"min":[
				0.03646757826209068,
				0.48920324444770813,
				0.0002867339935619384
			],
			"type":"VEC3"
		},
		{
			"bufferView":98,
			"componentType":5126,
			"count":4611,
			"type":"VEC3"
		},
		{
			"bufferView":99,
			"componentType":5126,
			"count":4611,
			"type":"VEC2"
		},
		{
			"bufferView":100,
			"componentType":5121,
			"count":4611,
			"type":"VEC4"
		},
		{
			"bufferView":101,
			"componentType":5126,
			"count":4611,
			"type":"VEC4"
		},
		{
			"bufferView":102,
			"componentType":5123,
			"count":19476,
			"type":"SCALAR"
		},
		{
			"bufferView":103,
			"componentType":5126,
			"count":3828,
			"max":[
				0.15794269740581512,
				0.6136720776557922,
				0.07089011371135712
			],
			"min":[
				0.03555041179060936,
				0.489380419254303,
				-0.0007637447561137378
			],
			"type":"VEC3"
		},
		{
			"bufferView":104,
			"componentType":5126,
			"count":3828,
			"type":"VEC3"
		},
		{
			"bufferView":105,
			"componentType":5126,
			"count":3828,
			"type":"VEC2"
		},
		{
			"bufferView":106,
			"componentType":5121,
			"count":3828,
			"type":"VEC4"
		},
		{
			"bufferView":107,
			"componentType":5126,
			"count":3828,
			"type":"VEC4"
		},
		{
			"bufferView":108,
			"componentType":5123,
			"count":15768,
			"type":"SCALAR"
		},
		{
			"bufferView":109,
			"componentType":5126,
			"count":4714,
			"max":[
				0,
				0.6134521961212158,
				0.06998610496520996
			],
			"min":[
				-0.1542358696460724,
				0,
				-0.003368308302015066
			],
			"type":"VEC3"
		},
		{
			"bufferView":110,
			"componentType":5126,
			"count":4714,
			"type":"VEC3"
		},
		{
			"bufferView":111,
			"componentType":5126,
			"count":4714,
			"type":"VEC2"
		},
		{
			"bufferView":112,
			"componentType":5121,
			"count":4714,
			"type":"VEC4"
		},
		{
			"bufferView":113,
			"componentType":5126,
			"count":4714,
			"type":"VEC4"
		},
		{
			"bufferView":114,
			"componentType":5123,
			"count":19566,
			"type":"SCALAR"
		},
		{
			"bufferView":115,
			"componentType":5126,
			"count":4040,
			"max":[
				-0.0354398675262928,
				0.6148232221603394,
				0.07038964331150055
			],
			"min":[
				-0.1548883020877838,
				0.4905572831630707,
				-0.0037477260921150446
			],
			"type":"VEC3"
		},
		{
			"bufferView":116,
			"componentType":5126,
			"count":4040,
			"type":"VEC3"
		},
		{
			"bufferView":117,
			"componentType":5126,
			"count":4040,
			"type":"VEC2"
		},
		{
			"bufferView":118,
			"componentType":5121,
			"count":4040,
			"type":"VEC4"
		},
		{
			"bufferView":119,
			"componentType":5126,
			"count":4040,
			"type":"VEC4"
		},
		{
			"bufferView":120,
			"componentType":5123,
			"count":15624,
			"type":"SCALAR"
		},
		{
			"bufferView":121,
			"componentType":5126,
			"count":7909,
			"max":[
				0.27956968545913696,
				1.5913946628570557,
				0.059460338205099106
			],
			"min":[
				0.10764434933662415,
				1.4318130016326904,
				-0.12222655862569809
			],
			"type":"VEC3"
		},
		{
			"bufferView":122,
			"componentType":5126,
			"count":7909,
			"type":"VEC3"
		},
		{
			"bufferView":123,
			"componentType":5126,
			"count":7909,
			"type":"VEC2"
		},
		{
			"bufferView":124,
			"componentType":5121,
			"count":7909,
			"type":"VEC4"
		},
		{
			"bufferView":125,
			"componentType":5126,
			"count":7909,
			"type":"VEC4"
		},
		{
			"bufferView":126,
			"componentType":5123,
			"count":35037,
			"type":"SCALAR"
		},
		{
			"bufferView":127,
			"componentType":5126,
			"count":3762,
			"max":[
				0.2734932005405426,
				1.5857442617416382,
				0.05719314515590668
			],
			"min":[
				0.1158866360783577,
				1.4387284517288208,
				-0.12215594947338104
			],
			"type":"VEC3"
		},
		{
			"bufferView":128,
			"componentType":5126,
			"count":3762,
			"type":"VEC3"
		},
		{
			"bufferView":129,
			"componentType":5126,
			"count":3762,
			"type":"VEC2"
		},
		{
			"bufferView":130,
			"componentType":5121,
			"count":3762,
			"type":"VEC4"
		},
		{
			"bufferView":131,
			"componentType":5126,
			"count":3762,
			"type":"VEC4"
		},
		{
			"bufferView":132,
			"componentType":5123,
			"count":11520,
			"type":"SCALAR"
		},
		{
			"bufferView":133,
			"componentType":5126,
			"count":11659,
			"max":[
				0,
				1.5863407850265503,
				0.058523230254650116
			],
			"min":[
				-0.27687525749206543,
				0,
				-0.12186312675476074
			],
			"type":"VEC3"
		},
		{
			"bufferView":134,
			"componentType":5126,
			"count":11659,
			"type":"VEC3"
		},
		{
			"bufferView":135,
			"componentType":5126,
			"count":11659,
			"type":"VEC2"
		},
		{
			"bufferView":136,
			"componentType":5121,
			"count":11659,
			"type":"VEC4"
		},
		{
			"bufferView":137,
			"componentType":5126,
			"count":11659,
			"type":"VEC4"
		},
		{
			"bufferView":138,
			"componentType":5123,
			"count":44616,
			"type":"SCALAR"
		},
		{
			"bufferView":139,
			"componentType":5126,
			"count":7847,
			"max":[
				-0.10496476292610168,
				1.5861222743988037,
				0.05863247066736221
			],
			"min":[
				-0.27717506885528564,
				1.4312585592269897,
				-0.12193578481674194
			],
			"type":"VEC3"
		},
		{
			"bufferView":140,
			"componentType":5126,
			"count":7847,
			"type":"VEC3"
		},
		{
			"bufferView":141,
			"componentType":5126,
			"count":7847,
			"type":"VEC2"
		},
		{
			"bufferView":142,
			"componentType":5121,
			"count":7847,
			"type":"VEC4"
		},
		{
			"bufferView":143,
			"componentType":5126,
			"count":7847,
			"type":"VEC4"
		},
		{
			"bufferView":144,
			"componentType":5123,
			"count":28872,
			"type":"SCALAR"
		},
		{
			"bufferView":145,
			"componentType":5126,
			"count":3574,
			"max":[
				-0.11338703334331512,
				1.5835319757461548,
				0.05648436024785042
			],
			"min":[
				-0.27166885137557983,
				1.4413527250289917,
				-0.12218588590621948
			],
			"type":"VEC3"
		},
		{
			"bufferView":146,
			"componentType":5126,
			"count":3574,
			"type":"VEC3"
		},
		{
			"bufferView":147,
			"componentType":5126,
			"count":3574,
			"type":"VEC2"
		},
		{
			"bufferView":148,
			"componentType":5121,
			"count":3574,
			"type":"VEC4"
		},
		{
			"bufferView":149,
			"componentType":5126,
			"count":3574,
			"type":"VEC4"
		},
		{
			"bufferView":150,
			"componentType":5123,
			"count":11520,
			"type":"SCALAR"
		},
		{
			"bufferView":151,
			"componentType":5126,
			"count":11677,
			"max":[
				0.18723338842391968,
				1.0608636140823364,
				0.110375314950943
			],
			"min":[
				-0.18373078107833862,
				0,
				0
			],
			"type":"VEC3"
		},
		{
			"bufferView":152,
			"componentType":5126,
			"count":11677,
			"type":"VEC3"
		},
		{
			"bufferView":153,
			"componentType":5126,
			"count":11677,
			"type":"VEC2"
		},
		{
			"bufferView":154,
			"componentType":5121,
			"count":11677,
			"type":"VEC4"
		},
		{
			"bufferView":155,
			"componentType":5126,
			"count":11677,
			"type":"VEC4"
		},
		{
			"bufferView":156,
			"componentType":5123,
			"count":46776,
			"type":"SCALAR"
		},
		{
			"bufferView":157,
			"componentType":5126,
			"count":9564,
			"max":[
				0.18771083652973175,
				1.0609341859817505,
				0.11079166829586029
			],
			"min":[
				-0.18421471118927002,
				0.9184325337409973,
				0.018157627433538437
			],
			"type":"VEC3"
		},
		{
			"bufferView":158,
			"componentType":5126,
			"count":9564,
			"type":"VEC3"
		},
		{
			"bufferView":159,
			"componentType":5126,
			"count":9564,
			"type":"VEC2"
		},
		{
			"bufferView":160,
			"componentType":5121,
			"count":9564,
			"type":"VEC4"
		},
		{
			"bufferView":161,
			"componentType":5126,
			"count":9564,
			"type":"VEC4"
		},
		{
			"bufferView":162,
			"componentType":5123,
			"count":38592,
			"type":"SCALAR"
		},
		{
			"bufferView":163,
			"componentType":5126,
			"count":4816,
			"max":[
				0.18843857944011688,
				1.052558183670044,
				0.10962798446416855
			],
			"min":[
				-0.18644151091575623,
				0.9158927798271179,
				0.016835272312164307
			],
			"type":"VEC3"
		},
		{
			"bufferView":164,
			"componentType":5126,
			"count":4816,
			"type":"VEC3"
		},
		{
			"bufferView":165,
			"componentType":5126,
			"count":4816,
			"type":"VEC2"
		},
		{
			"bufferView":166,
			"componentType":5121,
			"count":4816,
			"type":"VEC4"
		},
		{
			"bufferView":167,
			"componentType":5126,
			"count":4816,
			"type":"VEC4"
		},
		{
			"bufferView":168,
			"componentType":5123,
			"count":14976,
			"type":"SCALAR"
		},
		{
			"bufferView":169,
			"componentType":5126,
			"count":17423,
			"max":[
				0.17170840501785278,
				0.13652637600898743,
				0.18121425807476044
			],
			"min":[
				0.04924389347434044,
				-0.007795737124979496,
				-0.10403704643249512
			],
			"type":"VEC3"
		},
		{
			"bufferView":170,
			"componentType":5126,
			"count":17423,
			"type":"VEC3"
		},
		{
			"bufferView":171,
			"componentType":5126,
			"count":17423,
			"type":"VEC2"
		},
		{
			"bufferView":172,
			"componentType":5121,
			"count":17423,
			"type":"VEC4"
		},
		{
			"bufferView":173,
			"componentType":5126,
			"count":17423,
			"type":"VEC4"
		},
		{
			"bufferView":174,
			"componentType":5123,
			"count":64140,
			"type":"SCALAR"
		},
		{
			"bufferView":175,
			"componentType":5126,
			"count":2158,
			"max":[
				0.13454647362232208,
				0.13597358763217926,
				0.00481448182836175
			],
			"min":[
				0.053739309310913086,
				0.12101136147975922,
				-0.09025396406650543
			],
			"type":"VEC3"
		},
		{
			"bufferView":176,
			"componentType":5126,
			"count":2158,
			"type":"VEC3"
		},
		{
			"bufferView":177,
			"componentType":5126,
			"count":2158,
			"type":"VEC2"
		},
		{
			"bufferView":178,
			"componentType":5121,
			"count":2158,
			"type":"VEC4"
		},
		{
			"bufferView":179,
			"componentType":5126,
			"count":2158,
			"type":"VEC4"
		},
		{
			"bufferView":180,
			"componentType":5123,
			"count":9000,
			"type":"SCALAR"
		},
		{
			"bufferView":181,
			"componentType":5126,
			"count":17762,
			"max":[
				-0.04595135897397995,
				0.13622403144836426,
				0.18097706139087677
			],
			"min":[
				-0.16824573278427124,
				-0.007759889587759972,
				-0.10359849780797958
			],
			"type":"VEC3"
		},
		{
			"bufferView":182,
			"componentType":5126,
			"count":17762,
			"type":"VEC3"
		},
		{
			"bufferView":183,
			"componentType":5126,
			"count":17762,
			"type":"VEC2"
		},
		{
			"bufferView":184,
			"componentType":5121,
			"count":17762,
			"type":"VEC4"
		},
		{
			"bufferView":185,
			"componentType":5126,
			"count":17762,
			"type":"VEC4"
		},
		{
			"bufferView":186,
			"componentType":5123,
			"count":64158,
			"type":"SCALAR"
		},
		{
			"bufferView":187,
			"componentType":5126,
			"count":3224,
			"max":[
				0.13218340277671814,
				1.5808253288269043,
				0.16063743829727173
			],
			"min":[
				0.06658340245485306,
				1.321504831314087,
				-0.12616828083992004
			],
			"type":"VEC3"
		},
		{
			"bufferView":188,
			"componentType":5126,
			"count":3224,
			"type":"VEC3"
		},
		{
			"bufferView":189,
			"componentType":5126,
			"count":3224,
			"type":"VEC2"
		},
		{
			"bufferView":190,
			"componentType":5121,
			"count":3224,
			"type":"VEC4"
		},
		{
			"bufferView":191,
			"componentType":5126,
			"count":3224,
			"type":"VEC4"
		},
		{
			"bufferView":192,
			"componentType":5123,
			"count":19224,
			"type":"SCALAR"
		},
		{
			"bufferView":193,
			"componentType":5126,
			"count":3440,
			"max":[
				-0.06316585093736649,
				1.5817099809646606,
				0.15825335681438446
			],
			"min":[
				-0.12857188284397125,
				1.3201669454574585,
				-0.12564750015735626
			],
			"type":"VEC3"
		},
		{
			"bufferView":194,
			"componentType":5126,
			"count":3440,
			"type":"VEC3"
		},
		{
			"bufferView":195,
			"componentType":5126,
			"count":3440,
			"type":"VEC2"
		},
		{
			"bufferView":196,
			"componentType":5121,
			"count":3440,
			"type":"VEC4"
		},
		{
			"bufferView":197,
			"componentType":5126,
			"count":3440,
			"type":"VEC4"
		},
		{
			"bufferView":198,
			"componentType":5123,
			"count":19224,
			"type":"SCALAR"
		},
		{
			"bufferView":199,
			"componentType":5126,
			"count":5852,
			"max":[
				0.5391459465026855,
				1.3105645179748535,
				0.012984640896320343
			],
			"min":[
				0.3586023151874542,
				1.1333494186401367,
				-0.09088312834501266
			],
			"type":"VEC3"
		},
		{
			"bufferView":200,
			"componentType":5126,
			"count":5852,
			"type":"VEC3"
		},
		{
			"bufferView":201,
			"componentType":5126,
			"count":5852,
			"type":"VEC2"
		},
		{
			"bufferView":202,
			"componentType":5121,
			"count":5852,
			"type":"VEC4"
		},
		{
			"bufferView":203,
			"componentType":5126,
			"count":5852,
			"type":"VEC4"
		},
		{
			"bufferView":204,
			"componentType":5123,
			"count":29613,
			"type":"SCALAR"
		},
		{
			"bufferView":205,
			"componentType":5126,
			"count":2845,
			"max":[
				0.43627530336380005,
				1.3111475706100464,
				0.012996627017855644
			],
			"min":[
				0.3588424324989319,
				1.210787296295166,
				-0.09140998125076294
			],
			"type":"VEC3"
		},
		{
			"bufferView":206,
			"componentType":5126,
			"count":2845,
			"type":"VEC3"
		},
		{
			"bufferView":207,
			"componentType":5126,
			"count":2845,
			"type":"VEC2"
		},
		{
			"bufferView":208,
			"componentType":5121,
			"count":2845,
			"type":"VEC4"
		},
		{
			"bufferView":209,
			"componentType":5126,
			"count":2845,
			"type":"VEC4"
		},
		{
			"bufferView":210,
			"componentType":5123,
			"count":12168,
			"type":"SCALAR"
		},
		{
			"bufferView":211,
			"componentType":5126,
			"count":3044,
			"max":[
				0.5342257022857666,
				1.3037837743759155,
				0.013512074016034603
			],
			"min":[
				0.3670407235622406,
				1.1355020999908447,
				-0.09206343442201614
			],
			"type":"VEC3"
		},
		{
			"bufferView":212,
			"componentType":5126,
			"count":3044,
			"type":"VEC3"
		},
		{
			"bufferView":213,
			"componentType":5126,
			"count":3044,
			"type":"VEC2"
		},
		{
			"bufferView":214,
			"componentType":5121,
			"count":3044,
			"type":"VEC4"
		},
		{
			"bufferView":215,
			"componentType":5126,
			"count":3044,
			"type":"VEC4"
		},
		{
			"bufferView":216,
			"componentType":5123,
			"count":9792,
			"type":"SCALAR"
		},
		{
			"bufferView":217,
			"componentType":5126,
			"count":5089,
			"max":[
				-0.35790547728538513,
				1.3093843460083008,
				0.012782123871147633
			],
			"min":[
				-0.5369170904159546,
				1.1323002576828003,
				-0.09083905071020126
			],
			"type":"VEC3"
		},
		{
			"bufferView":218,
			"componentType":5126,
			"count":5089,
			"type":"VEC3"
		},
		{
			"bufferView":219,
			"componentType":5126,
			"count":5089,
			"type":"VEC2"
		},
		{
			"bufferView":220,
			"componentType":5121,
			"count":5089,
			"type":"VEC4"
		},
		{
			"bufferView":221,
			"componentType":5126,
			"count":5089,
			"type":"VEC4"
		},
		{
			"bufferView":222,
			"componentType":5123,
			"count":26658,
			"type":"SCALAR"
		},
		{
			"bufferView":223,
			"componentType":5126,
			"count":2778,
			"max":[
				-0.3582013249397278,
				1.310116171836853,
				0.01311585959047079
			],
			"min":[
				-0.4342643916606903,
				1.2092046737670898,
				-0.09138956665992737
			],
			"type":"VEC3"
		},
		{
			"bufferView":224,
			"componentType":5126,
			"count":2778,
			"type":"VEC3"
		},
		{
			"bufferView":225,
			"componentType":5126,
			"count":2778,
			"type":"VEC2"
		},
		{
			"bufferView":226,
			"componentType":5121,
			"count":2778,
			"type":"VEC4"
		},
		{
			"bufferView":227,
			"componentType":5126,
			"count":2778,
			"type":"VEC4"
		},
		{
			"bufferView":228,
			"componentType":5123,
			"count":12096,
			"type":"SCALAR"
		},
		{
			"bufferView":229,
			"componentType":5126,
			"count":1855,
			"max":[
				-0.4908011555671692,
				1.1919598579406738,
				0.008362858556210995
			],
			"min":[
				-0.5375718474388123,
				1.1319798231124878,
				-0.07207382470369339
			],
			"type":"VEC3"
		},
		{
			"bufferView":230,
			"componentType":5126,
			"count":1855,
			"type":"VEC3"
		},
		{
			"bufferView":231,
			"componentType":5126,
			"count":1855,
			"type":"VEC2"
		},
		{
			"bufferView":232,
			"componentType":5121,
			"count":1855,
			"type":"VEC4"
		},
		{
			"bufferView":233,
			"componentType":5126,
			"count":1855,
			"type":"VEC4"
		},
		{
			"bufferView":234,
			"componentType":5123,
			"count":7848,
			"type":"SCALAR"
		},
		{
			"bufferView":235,
			"componentType":5126,
			"count":2952,
			"max":[
				-0.3678627908229828,
				1.3058834075927734,
				0.015177914872765541
			],
			"min":[
				-0.5330355167388916,
				1.1384588479995728,
				-0.09322255104780197
			],
			"type":"VEC3"
		},
		{
			"bufferView":236,
			"componentType":5126,
			"count":2952,
			"type":"VEC3"
		},
		{
			"bufferView":237,
			"componentType":5126,
			"count":2952,
			"type":"VEC2"
		},
		{
			"bufferView":238,
			"componentType":5121,
			"count":2952,
			"type":"VEC4"
		},
		{
			"bufferView":239,
			"componentType":5126,
			"count":2952,
			"type":"VEC4"
		},
		{
			"bufferView":240,
			"componentType":5123,
			"count":9216,
			"type":"SCALAR"
		}
	],
	"bufferViews":[
		{
			"buffer":0,
			"byteLength":115524,
			"byteOffset":0,
			"target":34962
		},
		{
			"buffer":0,
			"byteLength":115524,
			"byteOffset":115524,
			"target":34962
		},
		{
			"buffer":0,
			"byteLength":77016,
			"byteOffset":231048,
			"target":34962
		},
		{
			"buffer":0,
			"byteLength":38508,
			"byteOffset":308064,
			"target":34962
		},
		{
			"buffer":0,
			"byteLength":154032,
			"byteOffset":346572,
			"target":34962
		},
		{
			"buffer":0,
			"byteLength":89040,
			"byteOffset":500604,
			"target":34963
		},
		{
			"buffer":0,
			"byteLength":4480,
			"byteOffset":589644
		},
		{
			"buffer":0,
			"byteLength":90468,
			"byteOffset":594124,
			"target":34962
		},
		{
			"buffer":0,
			"byteLength":90468,
			"byteOffset":684592,
			"target":34962
		},
		{
			"buffer":0,
			"byteLength":60312,
			"byteOffset":775060,
			"target":34962
		},
		{
			"buffer":0,
			"byteLength":30156,
			"byteOffset":835372,
			"target":34962
		},
		{
			"buffer":0,
			"byteLength":120624,
			"byteOffset":865528,
			"target":34962
		},
		{
			"buffer":0,
			"byteLength":57888,
			"byteOffset":986152,
			"target":34963
		},
		{
			"buffer":0,
			"byteLength":75864,
			"byteOffset":1044040,
			"target":34962
		},
		{
			"buffer":0,
			"byteLength":75864,
			"byteOffset":1119904,
			"target":34962
		},
		{
			"buffer":0,
			"byteLength":50576,
			"byteOffset":1195768,
			"target":34962
		},
		{
			"buffer":0,
			"byteLength":25288,
			"byteOffset":1246344,
			"target":34962
		},
		{
			"buffer":0,
			"byteLength":101152,
			"byteOffset":1271632,
			"target":34962
		},
		{
			"buffer":0,
			"byteLength":53712,
			"byteOffset":1372784,
			"target":34963
		},
		{
			"buffer":0,
			"byteLength":224340,
			"byteOffset":1426496,
			"target":34962
		},
		{
			"buffer":0,
			"byteLength":224340,
			"byteOffset":1650836,
			"target":34962
		},
		{
			"buffer":0,
			"byteLength":149560,
			"byteOffset":1875176,
			"target":34962
		},
		{
			"buffer":0,
			"byteLength":74780,
			"byteOffset":2024736,
			"target":34962
		},
		{
			"buffer":0,
			"byteLength":299120,
			"byteOffset":2099516,
			"target":34962
		},
		{
			"buffer":0,
			"byteLength":161442,
			"byteOffset":2398636,
			"target":34963
		},
		{
			"buffer":0,
			"byteLength":106056,
			"byteOffset":2560080,
			"target":34962
		},
		{
			"buffer":0,
			"byteLength":106056,
			"byteOffset":2666136,
			"target":34962
		},
		{
			"buffer":0,
			"byteLength":70704,
			"byteOffset":2772192,
			"target":34962
		},
		{
			"buffer":0,
			"byteLength":35352,
			"byteOffset":2842896,
			"target":34962
		},
		{
			"buffer":0,
			"byteLength":141408,
			"byteOffset":2878248,
			"target":34962
		},
		{
			"buffer":0,
			"byteLength":72864,
			"byteOffset":3019656,
			"target":34963
		},
		{
			"buffer":0,
			"byteLength":147456,
			"byteOffset":3092520,
			"target":34962
		},
		{
			"buffer":0,
			"byteLength":147456,
			"byteOffset":3239976,
			"target":34962
		},
		{
			"buffer":0,
			"byteLength":98304,
			"byteOffset":3387432,
			"target":34962
		},
		{
			"buffer":0,
			"byteLength":49152,
			"byteOffset":3485736,
			"target":34962
		},
		{
			"buffer":0,
			"byteLength":196608,
			"byteOffset":3534888,
			"target":34962
		},
		{
			"buffer":0,
			"byteLength":102960,
			"byteOffset":3731496,
			"target":34963
		},
		{
			"buffer":0,
			"byteLength":8232,
			"byteOffset":3834456,
			"target":34962
		},
		{
			"buffer":0,
			"byteLength":8232,
			"byteOffset":3842688,
			"target":34962
		},
		{
			"buffer":0,
			"byteLength":5488,
			"byteOffset":3850920,
			"target":34962
		},
		{
			"buffer":0,
			"byteLength":2744,
			"byteOffset":3856408,
			"target":34962
		},
		{
			"buffer":0,
			"byteLength":10976,
			"byteOffset":3859152,
			"target":34962
		},
		{
			"buffer":0,
			"byteLength":8208,
			"byteOffset":3870128,
			"target":34963
		},
		{
			"buffer":0,
			"byteLength":241968,
			"byteOffset":3878336,
			"target":34962
		},
		{
			"buffer":0,
			"byteLength":241968,
			"byteOffset":4120304,
			"target":34962
		},
		{
			"buffer":0,
			"byteLength":161312,
			"byteOffset":4362272,
			"target":34962
		},
		{
			"buffer":0,
			"byteLength":80656,
			"byteOffset":4523584,
			"target":34962
		},
		{
			"buffer":0,
			"byteLength":322624,
			"byteOffset":4604240,
			"target":34962
		},
		{
			"buffer":0,
			"byteLength":241920,
			"byteOffset":4926864,
			"target":34963
		},
		{
			"buffer":0,
			"byteLength":161868,
			"byteOffset":5168784,
			"target":34962
		},
		{
			"buffer":0,
			"byteLength":161868,
			"byteOffset":5330652,
			"target":34962
		},
		{
			"buffer":0,
			"byteLength":107912,
			"byteOffset":5492520,
			"target":34962
		},
		{
			"buffer":0,
			"byteLength":53956,
			"byteOffset":5600432,
			"target":34962
		},
		{
			"buffer":0,
			"byteLength":215824,
			"byteOffset":5654388,
			"target":34962
		},
		{
			"buffer":0,
			"byteLength":144924,
			"byteOffset":5870212,
			"target":34963
		},
		{
			"buffer":0,
			"byteLength":44244,
			"byteOffset":6015136,
			"target":34962
		},
		{
			"buffer":0,
			"byteLength":44244,
			"byteOffset":6059380,
			"target":34962
		},
		{
			"buffer":0,
			"byteLength":29496,
			"byteOffset":6103624,
			"target":34962
		},
		{
			"buffer":0,
			"byteLength":14748,
			"byteOffset":6133120,
			"target":34962
		},
		{
			"buffer":0,
			"byteLength":58992,
			"byteOffset":6147868,
			"target":34962
		},
		{
			"buffer":0,
			"byteLength":30096,
			"byteOffset":6206860,
			"target":34963
		},
		{
			"buffer":0,
			"byteLength":42012,
			"byteOffset":6236956,
			"target":34962
		},
		{
			"buffer":0,
			"byteLength":42012,
			"byteOffset":6278968,
			"target":34962
		},
		{
			"buffer":0,
			"byteLength":28008,
			"byteOffset":6320980,
			"target":34962
		},
		{
			"buffer":0,
			"byteLength":14004,
			"byteOffset":6348988,
			"target":34962
		},
		{
			"buffer":0,
			"byteLength":56016,
			"byteOffset":6362992,
			"target":34962
		},
		{
			"buffer":0,
			"byteLength":28800,
			"byteOffset":6419008,
			"target":34963
		},
		{
			"buffer":0,
			"byteLength":47424,
			"byteOffset":6447808,
			"target":34962
		},
		{
			"buffer":0,
			"byteLength":47424,
			"byteOffset":6495232,
			"target":34962
		},
		{
			"buffer":0,
			"byteLength":31616,
			"byteOffset":6542656,
			"target":34962
		},
		{
			"buffer":0,
			"byteLength":15808,
			"byteOffset":6574272,
			"target":34962
		},
		{
			"buffer":0,
			"byteLength":63232,
			"byteOffset":6590080,
			"target":34962
		},
		{
			"buffer":0,
			"byteLength":25344,
			"byteOffset":6653312,
			"target":34963
		},
		{
			"buffer":0,
			"byteLength":159864,
			"byteOffset":6678656,
			"target":34962
		},
		{
			"buffer":0,
			"byteLength":159864,
			"byteOffset":6838520,
			"target":34962
		},
		{
			"buffer":0,
			"byteLength":106576,
			"byteOffset":6998384,
			"target":34962
		},
		{
			"buffer":0,
			"byteLength":53288,
			"byteOffset":7104960,
			"target":34962
		},
		{
			"buffer":0,
			"byteLength":213152,
			"byteOffset":7158248,
			"target":34962
		},
		{
			"buffer":0,
			"byteLength":141132,
			"byteOffset":7371400,
			"target":34963
		},
		{
			"buffer":0,
			"byteLength":45888,
			"byteOffset":7512532,
			"target":34962
		},
		{
			"buffer":0,
			"byteLength":45888,
			"byteOffset":7558420,
			"target":34962
		},
		{
			"buffer":0,
			"byteLength":30592,
			"byteOffset":7604308,
			"target":34962
		},
		{
			"buffer":0,
			"byteLength":15296,
			"byteOffset":7634900,
			"target":34962
		},
		{
			"buffer":0,
			"byteLength":61184,
			"byteOffset":7650196,
			"target":34962
		},
		{
			"buffer":0,
			"byteLength":28512,
			"byteOffset":7711380,
			"target":34963
		},
		{
			"buffer":0,
			"byteLength":44916,
			"byteOffset":7739892,
			"target":34962
		},
		{
			"buffer":0,
			"byteLength":44916,
			"byteOffset":7784808,
			"target":34962
		},
		{
			"buffer":0,
			"byteLength":29944,
			"byteOffset":7829724,
			"target":34962
		},
		{
			"buffer":0,
			"byteLength":14972,
			"byteOffset":7859668,
			"target":34962
		},
		{
			"buffer":0,
			"byteLength":59888,
			"byteOffset":7874640,
			"target":34962
		},
		{
			"buffer":0,
			"byteLength":30096,
			"byteOffset":7934528,
			"target":34963
		},
		{
			"buffer":0,
			"byteLength":45216,
			"byteOffset":7964624,
			"target":34962
		},
		{
			"buffer":0,
			"byteLength":45216,
			"byteOffset":8009840,
			"target":34962
		},
		{
			"buffer":0,
			"byteLength":30144,
			"byteOffset":8055056,
			"target":34962
		},
		{
			"buffer":0,
			"byteLength":15072,
			"byteOffset":8085200,
			"target":34962
		},
		{
			"buffer":0,
			"byteLength":60288,
			"byteOffset":8100272,
			"target":34962
		},
		{
			"buffer":0,
			"byteLength":24192,
			"byteOffset":8160560,
			"target":34963
		},
		{
			"buffer":0,
			"byteLength":55332,
			"byteOffset":8184752,
			"target":34962
		},
		{
			"buffer":0,
			"byteLength":55332,
			"byteOffset":8240084,
			"target":34962
		},
		{
			"buffer":0,
			"byteLength":36888,
			"byteOffset":8295416,
			"target":34962
		},
		{
			"buffer":0,
			"byteLength":18444,
			"byteOffset":8332304,
			"target":34962
		},
		{
			"buffer":0,
			"byteLength":73776,
			"byteOffset":8350748,
			"target":34962
		},
		{
			"buffer":0,
			"byteLength":38952,
			"byteOffset":8424524,
			"target":34963
		},
		{
			"buffer":0,
			"byteLength":45936,
			"byteOffset":8463476,
			"target":34962
		},
		{
			"buffer":0,
			"byteLength":45936,
			"byteOffset":8509412,
			"target":34962
		},
		{
			"buffer":0,
			"byteLength":30624,
			"byteOffset":8555348,
			"target":34962
		},
		{
			"buffer":0,
			"byteLength":15312,
			"byteOffset":8585972,
			"target":34962
		},
		{
			"buffer":0,
			"byteLength":61248,
			"byteOffset":8601284,
			"target":34962
		},
		{
			"buffer":0,
			"byteLength":31536,
			"byteOffset":8662532,
			"target":34963
		},
		{
			"buffer":0,
			"byteLength":56568,
			"byteOffset":8694068,
			"target":34962
		},
		{
			"buffer":0,
			"byteLength":56568,
			"byteOffset":8750636,
			"target":34962
		},
		{
			"buffer":0,
			"byteLength":37712,
			"byteOffset":8807204,
			"target":34962
		},
		{
			"buffer":0,
			"byteLength":18856,
			"byteOffset":8844916,
			"target":34962
		},
		{
			"buffer":0,
			"byteLength":75424,
			"byteOffset":8863772,
			"target":34962
		},
		{
			"buffer":0,
			"byteLength":39132,
			"byteOffset":8939196,
			"target":34963
		},
		{
			"buffer":0,
			"byteLength":48480,
			"byteOffset":8978328,
			"target":34962
		},
		{
			"buffer":0,
			"byteLength":48480,
			"byteOffset":9026808,
			"target":34962
		},
		{
			"buffer":0,
			"byteLength":32320,
			"byteOffset":9075288,
			"target":34962
		},
		{
			"buffer":0,
			"byteLength":16160,
			"byteOffset":9107608,
			"target":34962
		},
		{
			"buffer":0,
			"byteLength":64640,
			"byteOffset":9123768,
			"target":34962
		},
		{
			"buffer":0,
			"byteLength":31248,
			"byteOffset":9188408,
			"target":34963
		},
		{
			"buffer":0,
			"byteLength":94908,
			"byteOffset":9219656,
			"target":34962
		},
		{
			"buffer":0,
			"byteLength":94908,
			"byteOffset":9314564,
			"target":34962
		},
		{
			"buffer":0,
			"byteLength":63272,
			"byteOffset":9409472,
			"target":34962
		},
		{
			"buffer":0,
			"byteLength":31636,
			"byteOffset":9472744,
			"target":34962
		},
		{
			"buffer":0,
			"byteLength":126544,
			"byteOffset":9504380,
			"target":34962
		},
		{
			"buffer":0,
			"byteLength":70074,
			"byteOffset":9630924,
			"target":34963
		},
		{
			"buffer":0,
			"byteLength":45144,
			"byteOffset":9701000,
			"target":34962
		},
		{
			"buffer":0,
			"byteLength":45144,
			"byteOffset":9746144,
			"target":34962
		},
		{
			"buffer":0,
			"byteLength":30096,
			"byteOffset":9791288,
			"target":34962
		},
		{
			"buffer":0,
			"byteLength":15048,
			"byteOffset":9821384,
			"target":34962
		},
		{
			"buffer":0,
			"byteLength":60192,
			"byteOffset":9836432,
			"target":34962
		},
		{
			"buffer":0,
			"byteLength":23040,
			"byteOffset":9896624,
			"target":34963
		},
		{
			"buffer":0,
			"byteLength":139908,
			"byteOffset":9919664,
			"target":34962
		},
		{
			"buffer":0,
			"byteLength":139908,
			"byteOffset":10059572,
			"target":34962
		},
		{
			"buffer":0,
			"byteLength":93272,
			"byteOffset":10199480,
			"target":34962
		},
		{
			"buffer":0,
			"byteLength":46636,
			"byteOffset":10292752,
			"target":34962
		},
		{
			"buffer":0,
			"byteLength":186544,
			"byteOffset":10339388,
			"target":34962
		},
		{
			"buffer":0,
			"byteLength":89232,
			"byteOffset":10525932,
			"target":34963
		},
		{
			"buffer":0,
			"byteLength":94164,
			"byteOffset":10615164,
			"target":34962
		},
		{
			"buffer":0,
			"byteLength":94164,
			"byteOffset":10709328,
			"target":34962
		},
		{
			"buffer":0,
			"byteLength":62776,
			"byteOffset":10803492,
			"target":34962
		},
		{
			"buffer":0,
			"byteLength":31388,
			"byteOffset":10866268,
			"target":34962
		},
		{
			"buffer":0,
			"byteLength":125552,
			"byteOffset":10897656,
			"target":34962
		},
		{
			"buffer":0,
			"byteLength":57744,
			"byteOffset":11023208,
			"target":34963
		},
		{
			"buffer":0,
			"byteLength":42888,
			"byteOffset":11080952,
			"target":34962
		},
		{
			"buffer":0,
			"byteLength":42888,
			"byteOffset":11123840,
			"target":34962
		},
		{
			"buffer":0,
			"byteLength":28592,
			"byteOffset":11166728,
			"target":34962
		},
		{
			"buffer":0,
			"byteLength":14296,
			"byteOffset":11195320,
			"target":34962
		},
		{
			"buffer":0,
			"byteLength":57184,
			"byteOffset":11209616,
			"target":34962
		},
		{
			"buffer":0,
			"byteLength":23040,
			"byteOffset":11266800,
			"target":34963
		},
		{
			"buffer":0,
			"byteLength":140124,
			"byteOffset":11289840,
			"target":34962
		},
		{
			"buffer":0,
			"byteLength":140124,
			"byteOffset":11429964,
			"target":34962
		},
		{
			"buffer":0,
			"byteLength":93416,
			"byteOffset":11570088,
			"target":34962
		},
		{
			"buffer":0,
			"byteLength":46708,
			"byteOffset":11663504,
			"target":34962
		},
		{
			"buffer":0,
			"byteLength":186832,
			"byteOffset":11710212,
			"target":34962
		},
		{
			"buffer":0,
			"byteLength":93552,
			"byteOffset":11897044,
			"target":34963
		},
		{
			"buffer":0,
			"byteLength":114768,
			"byteOffset":11990596,
			"target":34962
		},
		{
			"buffer":0,
			"byteLength":114768,
			"byteOffset":12105364,
			"target":34962
		},
		{
			"buffer":0,
			"byteLength":76512,
			"byteOffset":12220132,
			"target":34962
		},
		{
			"buffer":0,
			"byteLength":38256,
			"byteOffset":12296644,
			"target":34962
		},
		{
			"buffer":0,
			"byteLength":153024,
			"byteOffset":12334900,
			"target":34962
		},
		{
			"buffer":0,
			"byteLength":77184,
			"byteOffset":12487924,
			"target":34963
		},
		{
			"buffer":0,
			"byteLength":57792,
			"byteOffset":12565108,
			"target":34962
		},
		{
			"buffer":0,
			"byteLength":57792,
			"byteOffset":12622900,
			"target":34962
		},
		{
			"buffer":0,
			"byteLength":38528,
			"byteOffset":12680692,
			"target":34962
		},
		{
			"buffer":0,
			"byteLength":19264,
			"byteOffset":12719220,
			"target":34962
		},
		{
			"buffer":0,
			"byteLength":77056,
			"byteOffset":12738484,
			"target":34962
		},
		{
			"buffer":0,
			"byteLength":29952,
			"byteOffset":12815540,
			"target":34963
		},
		{
			"buffer":0,
			"byteLength":209076,
			"byteOffset":12845492,
			"target":34962
		},
		{
			"buffer":0,
			"byteLength":209076,
			"byteOffset":13054568,
			"target":34962
		},
		{
			"buffer":0,
			"byteLength":139384,
			"byteOffset":13263644,
			"target":34962
		},
		{
			"buffer":0,
			"byteLength":69692,
			"byteOffset":13403028,
			"target":34962
		},
		{
			"buffer":0,
			"byteLength":278768,
			"byteOffset":13472720,
			"target":34962
		},
		{
			"buffer":0,
			"byteLength":128280,
			"byteOffset":13751488,
			"target":34963
		},
		{
			"buffer":0,
			"byteLength":25896,
			"byteOffset":13879768,
			"target":34962
		},
		{
			"buffer":0,
			"byteLength":25896,
			"byteOffset":13905664,
			"target":34962
		},
		{
			"buffer":0,
			"byteLength":17264,
			"byteOffset":13931560,
			"target":34962
		},
		{
			"buffer":0,
			"byteLength":8632,
			"byteOffset":13948824,
			"target":34962
		},
		{
			"buffer":0,
			"byteLength":34528,
			"byteOffset":13957456,
			"target":34962
		},
		{
			"buffer":0,
			"byteLength":18000,
			"byteOffset":13991984,
			"target":34963
		},
		{
			"buffer":0,
			"byteLength":213144,
			"byteOffset":14009984,
			"target":34962
		},
		{
			"buffer":0,
			"byteLength":213144,
			"byteOffset":14223128,
			"target":34962
		},
		{
			"buffer":0,
			"byteLength":142096,
			"byteOffset":14436272,
			"target":34962
		},
		{
			"buffer":0,
			"byteLength":71048,
			"byteOffset":14578368,
			"target":34962
		},
		{
			"buffer":0,
			"byteLength":284192,
			"byteOffset":14649416,
			"target":34962
		},
		{
			"buffer":0,
			"byteLength":128316,
			"byteOffset":14933608,
			"target":34963
		},
		{
			"buffer":0,
			"byteLength":38688,
			"byteOffset":15061924,
			"target":34962
		},
		{
			"buffer":0,
			"byteLength":38688,
			"byteOffset":15100612,
			"target":34962
		},
		{
			"buffer":0,
			"byteLength":25792,
			"byteOffset":15139300,
			"target":34962
		},
		{
			"buffer":0,
			"byteLength":12896,
			"byteOffset":15165092,
			"target":34962
		},
		{
			"buffer":0,
			"byteLength":51584,
			"byteOffset":15177988,
			"target":34962
		},
		{
			"buffer":0,
			"byteLength":38448,
			"byteOffset":15229572,
			"target":34963
		},
		{
			"buffer":0,
			"byteLength":41280,
			"byteOffset":15268020,
			"target":34962
		},
		{
			"buffer":0,
			"byteLength":41280,
			"byteOffset":15309300,
			"target":34962
		},
		{
			"buffer":0,
			"byteLength":27520,
			"byteOffset":15350580,
			"target":34962
		},
		{
			"buffer":0,
			"byteLength":13760,
			"byteOffset":15378100,
			"target":34962
		},
		{
			"buffer":0,
			"byteLength":55040,
			"byteOffset":15391860,
			"target":34962
		},
		{
			"buffer":0,
			"byteLength":38448,
			"byteOffset":15446900,
			"target":34963
		},
		{
			"buffer":0,
			"byteLength":70224,
			"byteOffset":15485348,
			"target":34962
		},
		{
			"buffer":0,
			"byteLength":70224,
			"byteOffset":15555572,
			"target":34962
		},
		{
			"buffer":0,
			"byteLength":46816,
			"byteOffset":15625796,
			"target":34962
		},
		{
			"buffer":0,
			"byteLength":23408,
			"byteOffset":15672612,
			"target":34962
		},
		{
			"buffer":0,
			"byteLength":93632,
			"byteOffset":15696020,
			"target":34962
		},
		{
			"buffer":0,
			"byteLength":59226,
			"byteOffset":15789652,
			"target":34963
		},
		{
			"buffer":0,
			"byteLength":34140,
			"byteOffset":15848880,
			"target":34962
		},
		{
			"buffer":0,
			"byteLength":34140,
			"byteOffset":15883020,
			"target":34962
		},
		{
			"buffer":0,
			"byteLength":22760,
			"byteOffset":15917160,
			"target":34962
		},
		{
			"buffer":0,
			"byteLength":11380,
			"byteOffset":15939920,
			"target":34962
		},
		{
			"buffer":0,
			"byteLength":45520,
			"byteOffset":15951300,
			"target":34962
		},
		{
			"buffer":0,
			"byteLength":24336,
			"byteOffset":15996820,
			"target":34963
		},
		{
			"buffer":0,
			"byteLength":36528,
			"byteOffset":16021156,
			"target":34962
		},
		{
			"buffer":0,
			"byteLength":36528,
			"byteOffset":16057684,
			"target":34962
		},
		{
			"buffer":0,
			"byteLength":24352,
			"byteOffset":16094212,
			"target":34962
		},
		{
			"buffer":0,
			"byteLength":12176,
			"byteOffset":16118564,
			"target":34962
		},
		{
			"buffer":0,
			"byteLength":48704,
			"byteOffset":16130740,
			"target":34962
		},
		{
			"buffer":0,
			"byteLength":19584,
			"byteOffset":16179444,
			"target":34963
		},
		{
			"buffer":0,
			"byteLength":61068,
			"byteOffset":16199028,
			"target":34962
		},
		{
			"buffer":0,
			"byteLength":61068,
			"byteOffset":16260096,
			"target":34962
		},
		{
			"buffer":0,
			"byteLength":40712,
			"byteOffset":16321164,
			"target":34962
		},
		{
			"buffer":0,
			"byteLength":20356,
			"byteOffset":16361876,
			"target":34962
		},
		{
			"buffer":0,
			"byteLength":81424,
			"byteOffset":16382232,
			"target":34962
		},
		{
			"buffer":0,
			"byteLength":53316,
			"byteOffset":16463656,
			"target":34963
		},
		{
			"buffer":0,
			"byteLength":33336,
			"byteOffset":16516972,
			"target":34962
		},
		{
			"buffer":0,
			"byteLength":33336,
			"byteOffset":16550308,
			"target":34962
		},
		{
			"buffer":0,
			"byteLength":22224,
			"byteOffset":16583644,
			"target":34962
		},
		{
			"buffer":0,
			"byteLength":11112,
			"byteOffset":16605868,
			"target":34962
		},
		{
			"buffer":0,
			"byteLength":44448,
			"byteOffset":16616980,
			"target":34962
		},
		{
			"buffer":0,
			"byteLength":24192,
			"byteOffset":16661428,
			"target":34963
		},
		{
			"buffer":0,
			"byteLength":22260,
			"byteOffset":16685620,
			"target":34962
		},
		{
			"buffer":0,
			"byteLength":22260,
			"byteOffset":16707880,
			"target":34962
		},
		{
			"buffer":0,
			"byteLength":14840,
			"byteOffset":16730140,
			"target":34962
		},
		{
			"buffer":0,
			"byteLength":7420,
			"byteOffset":16744980,
			"target":34962
		},
		{
			"buffer":0,
			"byteLength":29680,
			"byteOffset":16752400,
			"target":34962
		},
		{
			"buffer":0,
			"byteLength":15696,
			"byteOffset":16782080,
			"target":34963
		},
		{
			"buffer":0,
			"byteLength":35424,
			"byteOffset":16797776,
			"target":34962
		},
		{
			"buffer":0,
			"byteLength":35424,
			"byteOffset":16833200,
			"target":34962
		},
		{
			"buffer":0,
			"byteLength":23616,
			"byteOffset":16868624,
			"target":34962
		},
		{
			"buffer":0,
			"byteLength":11808,
			"byteOffset":16892240,
			"target":34962
		},
		{
			"buffer":0,
			"byteLength":47232,
			"byteOffset":16904048,
			"target":34962
		},
		{
			"buffer":0,
			"byteLength":18432,
			"byteOffset":16951280,
			"target":34963
		}
	],
	"samplers":[
		{
			"magFilter":9729,
			"minFilter":9987
		}
	],
	"buffers":[
		{
			"byteLength":16969712,
			"uri":"heroine_outfit_warden.bin"
		}
	]
}
