{
	"asset":{
		"generator":"Khronos glTF Blender I/O v4.5.51",
		"version":"2.0"
	},
	"scene":0,
	"scenes":[
		{
			"name":"Scene",
			"nodes":[
				103
			]
		}
	],
	"nodes":[
		{
			"name":"Head",
			"rotation":[
				-0.11761949956417084,
				-2.2141905731132283e-07,
				-3.010525233548833e-06,
				0.9930587410926819
			],
			"translation":[
				6.661338147750939e-15,
				0.08259861171245575,
				1.1175870007207322e-08
			]
		},
		{
			"children":[
				0
			],
			"name":"neck_01",
			"rotation":[
				0.2231902927160263,
				-6.007262687290904e-09,
				3.88361840464313e-08,
				0.9747748970985413
			],
			"translation":[
				-4.440892098500626e-15,
				0.26398828625679016,
				1.862645149230957e-08
			]
		},
		{
			"name":"index_04_leaf_l",
			"rotation":[
				-5.704350769519806e-09,
				1,
				-4.7439248085368035e-09,
				3.5353004932403564e-06
			],
			"scale":[
				1,
				0.9999999403953552,
				1
			],
			"translation":[
				1.1874362826347351e-08,
				0.030100101605057716,
				-1.910957507789135e-07
			]
		},
		{
			"children":[
				2
			],
			"name":"index_03_l",
			"rotation":[
				0.012105108238756657,
				-4.237862185618724e-07,
				0.004006620962172747,
				0.9999186992645264
			],
			"scale":[
				0.9999999403953552,
				1,
				0.9999999403953552
			],
			"translation":[
				-6.51925802230835e-09,
				0.02818247862160206,
				1.2776581570506096e-08
			]
		},
		{
			"children":[
				3
			],
			"name":"index_02_l",
			"rotation":[
				0.10989626497030258,
				1.5561427346710843e-07,
				-0.030358633026480675,
				0.993479311466217
			],
			"scale":[
				1,
				0.9999998807907104,
				1
			],
			"translation":[
				7.450580596923828e-09,
				0.03089151158928871,
				8.792267180979252e-08
			]
		},
		{
			"children":[
				4
			],
			"name":"index_01_l",
			"rotation":[
				-0.00943039171397686,
				0.7070736885070801,
				0.003526271553710103,
				0.7070682048797607
			],
			"scale":[
				0.9999998211860657,
				0.9999998211860657,
				0.9999999403953552
			],
			"translation":[
				0.00601259246468544,
				0.1281808316707611,
				0.02604752779006958
			]
		},
		{
			"name":"middle_04_leaf_l",
			"rotation":[
				2.3283064365386963e-09,
				1,
				-9.546056389808655e-09,
				3.6526471376419067e-06
			],
			"translation":[
				7.450580596923828e-09,
				0.03443717584013939,
				8.195638656616211e-08
			]
		},
		{
			"children":[
				6
			],
			"name":"middle_03_l",
			"rotation":[
				0.0005137118278071284,
				-6.389206532730896e-07,
				0.010132299736142159,
				0.9999485611915588
			],
			"scale":[
				0.9999999403953552,
				1,
				1
			],
			"translation":[
				0,
				0.031105799600481987,
				3.306195139884949e-08
			]
		},
		{
			"children":[
				7
			],
			"name":"middle_02_l",
			"rotation":[
				0.11376678943634033,
				0.00017226197815034539,
				-0.04893263056874275,
				0.9923017621040344
			],
			"scale":[
				0.9999999403953552,
				1.0000001192092896,
				0.9999999403953552
			],
			"translation":[
				7.450580596923828e-09,
				0.03485651686787605,
				9.033828973770142e-08
			]
		},
		{
			"children":[
				8
			],
			"name":"middle_01_l",
			"rotation":[
				-0.007998891174793243,
				0.7071942090988159,
				0.001128928386606276,
				0.7069733142852783
			],
			"scale":[
				0.9999999403953552,
				0.9999999403953552,
				1
			],
			"translation":[
				2.1420419216156006e-07,
				0.12831149995326996,
				-2.421438694000244e-08
			]
		},
		{
			"name":"pinky_04_leaf_l",
			"rotation":[
				2.591405063867569e-07,
				1,
				7.42729810099263e-07,
				4.369881935417652e-06
			],
			"scale":[
				1,
				1,
				0.9999999403953552
			],
			"translation":[
				1.862645149230957e-09,
				0.02816423401236534,
				2.8870999813079834e-08
			]
		},
		{
			"children":[
				10
			],
			"name":"pinky_03_l",
			"rotation":[
				-0.017429951578378677,
				-1.0290284080838319e-05,
				0.004625735804438591,
				0.9998373985290527
			],
			"translation":[
				-1.0244548320770264e-08,
				0.02304605394601822,
				-3.3527612686157227e-08
			]
		},
		{
			"children":[
				11
			],
			"name":"pinky_02_l",
			"rotation":[
				-0.015049012377858162,
				1.2427484762156382e-05,
				-0.007742131594568491,
				0.9998568296432495
			],
			"scale":[
				0.9999999403953552,
				0.9999998211860657,
				0.9999999403953552
			],
			"translation":[
				1.3504177331924438e-08,
				0.02458452805876732,
				8.381903171539307e-08
			]
		},
		{
			"children":[
				12
			],
			"name":"pinky_01_l",
			"rotation":[
				-0.011546679772436619,
				0.6985994577407837,
				-0.13425475358963013,
				0.7027098536491394
			],
			"scale":[
				0.9999998807907104,
				1.0000001192092896,
				1
			],
			"translation":[
				-0.003249170258641243,
				0.11280001699924469,
				-0.04492819309234619
			]
		},
		{
			"name":"ring_04_leaf_l",
			"rotation":[
				1.8626449271863521e-09,
				1,
				5.592592060565948e-07,
				4.133180482313037e-06
			],
			"scale":[
				1,
				0.9999999403953552,
				1
			],
			"translation":[
				-5.122274160385132e-09,
				0.03182276710867882,
				-1.6763806343078613e-07
			]
		},
		{
			"children":[
				14
			],
			"name":"ring_03_l",
			"rotation":[
				-0.034807611256837845,
				3.8098620279924944e-05,
				-0.011716693639755249,
				0.9993253946304321
			],
			"scale":[
				1,
				1.0000001192092896,
				0.9999999403953552
			],
			"translation":[
				-1.30385160446167e-08,
				0.027127576991915703,
				2.514570951461792e-08
			]
		},
		{
			"children":[
				15
			],
			"name":"ring_02_l",
			"rotation":[
				0.12512251734733582,
				8.260376489488408e-07,
				-0.04683397710323334,
				0.9910353422164917
			],
			"scale":[
				1,
				0.9999999403953552,
				0.9999999403953552
			],
			"translation":[
				7.450580596923828e-09,
				0.030405884608626366,
				-5.774199962615967e-08
			]
		},
		{
			"children":[
				16
			],
			"name":"ring_01_l",
			"rotation":[
				-0.03600794076919556,
				0.7065655589103699,
				-0.023554200306534767,
				0.7063382863998413
			],
			"scale":[
				0.9999998807907104,
				0.9999998211860657,
				0.9999998211860657
			],
			"translation":[
				-0.0022219279780983925,
				0.12319976091384888,
				-0.023185059428215027
			]
		},
		{
			"name":"thumb_04_leaf_l",
			"rotation":[
				-8.666064132967222e-08,
				0.5061784386634827,
				-6.911253649377613e-07,
				0.8624287843704224
			],
			"scale":[
				0.9999999403953552,
				1,
				1
			],
			"translation":[
				2.0489096641540527e-08,
				0.04086242616176605,
				3.026798367500305e-08
			]
		},
		{
			"children":[
				18
			],
			"name":"thumb_03_l",
			"rotation":[
				0.038206856697797775,
				6.0704936913680285e-05,
				-0.003949312027543783,
				0.9992620348930359
			],
			"scale":[
				0.9999999403953552,
				1,
				1
			],
			"translation":[
				8.009374141693115e-08,
				0.030296513810753822,
				5.960464477539063e-08
			]
		},
		{
			"children":[
				19
			],
			"name":"thumb_02_l",
			"rotation":[
				0.08123720437288284,
				-6.545388168888167e-05,
				0.03416353464126587,
				0.996109127998352
			],
			"scale":[
				0.9999998807907104,
				0.9999998807907104,
				1
			],
			"translation":[
				-2.0954757928848267e-08,
				0.06359592080116272,
				-4.0978193283081055e-08
			]
		},
		{
			"children":[
				20
			],
			"name":"thumb_01_l",
			"rotation":[
				0.19879724085330963,
				0.9399301409721375,
				0.26572659611701965,
				0.08000247925519943
			],
			"scale":[
				1,
				1.0000004768371582,
				0.9999998807907104
			],
			"translation":[
				0.014041760936379433,
				0.033058807253837585,
				0.02252725511789322
			]
		},
		{
			"children":[
				5,
				9,
				13,
				17,
				21
			],
			"name":"hand_l",
			"rotation":[
				-0.031026145443320274,
				-0.00039722936344332993,
				-0.04603857174515724,
				0.998457670211792
			],
			"scale":[
				1,
				0.9999999403953552,
				0.9999999403953552
			],
			"translation":[
				-1.2479722499847412e-07,
				0.2155425101518631,
				-2.60770320892334e-08
			]
		},
		{
			"children":[
				22
			],
			"name":"lowerarm_l",
			"rotation":[
				0.08169202506542206,
				-0.002163646975532174,
				0.12474946677684784,
				0.9888171553611755
			],
			"scale":[
				0.9999999403953552,
				0.9999999403953552,
				0.9999998807907104
			],
			"translation":[
				-7.776543498039246e-08,
				0.2526191771030426,
				7.450580596923828e-09
			]
		},
		{
			"children":[
				23
			],
			"name":"upperarm_l",
			"rotation":[
				-0.309012770652771,
				0.7203134298324585,
				-0.09680739045143127,
				0.613423228263855
			],
			"scale":[
				0.9999998807907104,
				0.9999995827674866,
				0.9999998807907104
			],
			"translation":[
				-3.0573573894798756e-08,
				0.16089306771755219,
				-5.3085386753082275e-08
			]
		},
		{
			"children":[
				24
			],
			"name":"clavicle_l",
			"rotation":[
				-0.5739023685455322,
				-0.43809181451797485,
				-0.555611789226532,
				0.4123193919658661
			],
			"translation":[
				0.03674304485321045,
				0.20328763127326965,
				-0.020137686282396317
			]
		},
		{
			"name":"index_04_leaf_r",
			"rotation":[
				7.450580596923828e-08,
				-1,
				-7.455236641362717e-07,
				3.772787522393628e-06
			],
			"scale":[
				1,
				1,
				1.0000001192092896
			],
			"translation":[
				-4.470348358154297e-08,
				0.030100125819444656,
				2.6542693376541138e-08
			]
		},
		{
			"children":[
				26
			],
			"name":"index_03_r",
			"rotation":[
				-0.04849317669868469,
				-5.970544236788555e-08,
				-0.03197126463055611,
				0.9983116984367371
			],
			"translation":[
				-4.190951585769653e-09,
				0.025925416499376297,
				-4.2869942262768745e-08
			]
		},
		{
			"children":[
				27
			],
			"name":"index_02_r",
			"rotation":[
				0.053899090737104416,
				6.099721190366836e-07,
				0.0012244933750480413,
				0.9985456466674805
			],
			"translation":[
				1.2398231774568558e-08,
				0.025076476857066154,
				-6.292248144745827e-08
			]
		},
		{
			"children":[
				28
			],
			"name":"index_01_r",
			"rotation":[
				0.01883687824010849,
				-0.7063117623329163,
				0.04360330104827881,
				0.7063056230545044
			],
			"scale":[
				0.9999999403953552,
				1,
				1
			],
			"translation":[
				-0.007182867266237736,
				0.13896213471889496,
				0.022565681487321854
			]
		},
		{
			"name":"middle_04_leaf_r",
			"rotation":[
				1.0803342576082287e-07,
				-1,
				6.100162863731384e-08,
				3.6507842651190003e-06
			],
			"scale":[
				1,
				0.9999999403953552,
				1.0000001192092896
			],
			"translation":[
				-9.313225746154785e-09,
				0.034437306225299835,
				3.306195139884949e-08
			]
		},
		{
			"children":[
				30
			],
			"name":"middle_03_r",
			"rotation":[
				-0.01961713843047619,
				-2.2268040993367322e-05,
				0.01453420426696539,
				0.9997019171714783
			],
			"scale":[
				0.9999999403953552,
				1,
				0.9999999403953552
			],
			"translation":[
				-1.862645149230957e-09,
				0.0318969190120697,
				3.4924596548080444e-08
			]
		},
		{
			"children":[
				31
			],
			"name":"middle_02_r",
			"rotation":[
				0.012513923458755016,
				-1.849291038524825e-05,
				-0.014413032680749893,
				0.9998177886009216
			],
			"scale":[
				1.0000001192092896,
				1,
				1.0000001192092896
			],
			"translation":[
				-9.313225746154785e-09,
				0.02895512245595455,
				-1.4994293451309204e-07
			]
		},
		{
			"children":[
				32
			],
			"name":"middle_01_r",
			"rotation":[
				-0.0008581651491113007,
				-0.7037793397903442,
				0.08184970915317535,
				0.7056872844696045
			],
			"scale":[
				0.9999999403953552,
				0.9999998211860657,
				0.9999999403953552
			],
			"translation":[
				-8.66129994392395e-08,
				0.13515622913837433,
				1.862645149230957e-08
			]
		},
		{
			"name":"pinky_04_leaf_r",
			"rotation":[
				9.313225746154785e-10,
				-1,
				-2.7008359992919395e-08,
				3.77558171749115e-06
			],
			"scale":[
				1,
				0.9999997019767761,
				1
			],
			"translation":[
				-4.842877388000488e-08,
				0.02816421166062355,
				7.450580596923828e-09
			]
		},
		{
			"children":[
				34
			],
			"name":"pinky_03_r",
			"rotation":[
				-0.04854918271303177,
				2.9768805688945577e-05,
				0.00458739697933197,
				0.9988102912902832
			],
			"scale":[
				1,
				0.9999999403953552,
				0.9999998807907104
			],
			"translation":[
				-1.1175870895385742e-08,
				0.020910026505589485,
				-6.798654794692993e-08
			]
		},
		{
			"children":[
				35
			],
			"name":"pinky_02_r",
			"rotation":[
				0.014203323051333427,
				1.1767256182793062e-05,
				0.02742159552872181,
				0.9995230436325073
			],
			"scale":[
				1,
				0.9999999403953552,
				0.9999999403953552
			],
			"translation":[
				9.313225746154785e-10,
				0.02278725430369377,
				2.421438694000244e-08
			]
		},
		{
			"children":[
				36
			],
			"name":"pinky_01_r",
			"rotation":[
				-0.028429139405488968,
				-0.6997609734535217,
				0.12398549169301987,
				0.7029609084129333
			],
			"scale":[
				0.9999998807907104,
				0.9999998211860657,
				0.9999998807907104
			],
			"translation":[
				0.0014907028526067734,
				0.12021058797836304,
				-0.04615413397550583
			]
		},
		{
			"name":"ring_04_leaf_r",
			"rotation":[
				2.062879644881832e-07,
				-1,
				-7.338821887969971e-07,
				3.5339037367521087e-06
			],
			"scale":[
				0.9999999403953552,
				1,
				1
			],
			"translation":[
				3.725290298461914e-09,
				0.031822726130485535,
				-6.51925802230835e-09
			]
		},
		{
			"children":[
				38
			],
			"name":"ring_03_r",
			"rotation":[
				-0.01863565295934677,
				-1.9874332792824134e-05,
				-0.0043523130007088184,
				0.99981689453125
			],
			"scale":[
				1,
				0.9999998807907104,
				0.9999999403953552
			],
			"translation":[
				-1.1175870895385742e-08,
				0.027077876031398773,
				7.450580596923828e-08
			]
		},
		{
			"children":[
				39
			],
			"name":"ring_02_r",
			"rotation":[
				0.027483073994517326,
				-2.3664566128900333e-07,
				-0.00174393889028579,
				0.999620795249939
			],
			"scale":[
				1,
				0.9999999403953552,
				1
			],
			"translation":[
				-2.0489096641540527e-08,
				0.02871740236878395,
				6.984919309616089e-08
			]
		},
		{
			"children":[
				40
			],
			"name":"ring_01_r",
			"rotation":[
				-0.029861100018024445,
				-0.7029565572738647,
				0.09575458616018295,
				0.7041246891021729
			],
			"scale":[
				0.9999999403953552,
				1,
				0.9999999403953552
			],
			"translation":[
				0.001923925243318081,
				0.12688565254211426,
				-0.023495782166719437
			]
		},
		{
			"name":"thumb_04_leaf_r",
			"rotation":[
				7.370201160483703e-08,
				-0.5061777830123901,
				-4.751484894427449e-08,
				0.862429141998291
			],
			"translation":[
				2.60770320892334e-08,
				0.04086232930421829,
				-7.916241884231567e-08
			]
		},
		{
			"children":[
				42
			],
			"name":"thumb_03_r",
			"rotation":[
				0.010224630124866962,
				-9.307137952418998e-05,
				0.07255624979734421,
				0.9973118901252747
			],
			"translation":[
				2.7939677238464355e-09,
				0.02526702545583248,
				-3.725290298461914e-08
			]
		},
		{
			"children":[
				43
			],
			"name":"thumb_02_r",
			"rotation":[
				0.05516009032726288,
				7.162708061514422e-05,
				0.005940041970461607,
				0.9984598755836487
			],
			"scale":[
				1.0000001192092896,
				0.9999999403953552,
				0.9999999403953552
			],
			"translation":[
				-1.0617077350616455e-07,
				0.07067813724279404,
				7.450580596923828e-09
			]
		},
		{
			"children":[
				44
			],
			"name":"thumb_01_r",
			"rotation":[
				0.2504635453224182,
				-0.9378892183303833,
				-0.23243092000484467,
				0.06006409227848053
			],
			"scale":[
				0.9999999403953552,
				0.9999998807907104,
				1
			],
			"translation":[
				-0.006966069340705872,
				0.0337512381374836,
				0.024693407118320465
			]
		},
		{
			"children":[
				29,
				33,
				37,
				41,
				45
			],
			"name":"hand_r",
			"rotation":[
				-0.02897755242884159,
				0.0004170025058556348,
				0.04835359379649162,
				0.9984097480773926
			],
			"translation":[
				-2.4633482098579407e-07,
				0.21606512367725372,
				-5.21540641784668e-08
			]
		},
		{
			"children":[
				46
			],
			"name":"lowerarm_r",
			"rotation":[
				0.08376288414001465,
				0.002205439144745469,
				-0.12716363370418549,
				0.9883361458778381
			],
			"scale":[
				1,
				1,
				1.0000001192092896
			],
			"translation":[
				3.818422555923462e-08,
				0.25064903497695923,
				-3.725290298461914e-09
			]
		},
		{
			"children":[
				47
			],
			"name":"upperarm_r",
			"rotation":[
				-0.3119966387748718,
				-0.7200558185577393,
				0.09840615838766098,
				0.6119590997695923
			],
			"scale":[
				0.9999999403953552,
				0.9999999403953552,
				1
			],
			"translation":[
				1.2965756468474865e-08,
				0.1608930230140686,
				-5.21540641784668e-08
			]
		},
		{
			"children":[
				48
			],
			"name":"clavicle_r",
			"rotation":[
				-0.5739057064056396,
				0.43808916211128235,
				0.5556118488311768,
				0.41231730580329895
			],
			"scale":[
				0.9999998807907104,
				0.9999998211860657,
				0.9999998807907104
			],
			"translation":[
				-0.03674301505088806,
				0.20328809320926666,
				-0.020137496292591095
			]
		},
		{
			"name":"breast_l",
			"rotation":[
				0.8276686072349548,
				-6.548595621325148e-08,
				5.933883784337013e-08,
				0.5612172484397888
			],
			"scale":[
				1,
				0.9999999403953552,
				0.9999999403953552
			],
			"translation":[
				0.09149465709924698,
				0.02670389972627163,
				0.07059912383556366
			]
		},
		{
			"name":"breast_r",
			"rotation":[
				0.8276686668395996,
				-6.548590647525998e-08,
				5.933885560693852e-08,
				0.5612170696258545
			],
			"scale":[
				1,
				0.9999999403953552,
				1
			],
			"translation":[
				-0.08786919713020325,
				0.028753157705068588,
				0.07116828113794327
			]
		},
		{
			"children":[
				1,
				25,
				49,
				50,
				51
			],
			"name":"spine_03",
			"rotation":[
				-0.15560832619667053,
				-5.241359346541685e-09,
				-9.067619544111949e-09,
				0.9878188371658325
			],
			"scale":[
				1,
				0.9999999403953552,
				1
			],
			"translation":[
				-4.2782617726278005e-16,
				0.11817018687725067,
				-1.862645149230957e-09
			]
		},
		{
			"children":[
				52
			],
			"name":"spine_02",
			"rotation":[
				-0.018412182107567787,
				-6.344914282863101e-08,
				-3.766788658765563e-09,
				0.9998304843902588
			],
			"translation":[
				-1.571225788365993e-15,
				0.04734303057193756,
				7.2177499532699585e-09
			]
		},
		{
			"children":[
				53
			],
			"name":"spine_01",
			"rotation":[
				-0.16446825861930847,
				1.1722862325314054e-07,
				-2.4440698354055712e-08,
				0.9863823652267456
			],
			"translation":[
				1.24683249835833e-16,
				0.10225912183523178,
				1.1175870895385742e-08
			]
		},
		{
			"name":"ball_leaf_l",
			"rotation":[
				-3.359400579938665e-08,
				-6.461050361394882e-08,
				4.6566128730773926e-09,
				1
			],
			"translation":[
				-5.995389074087143e-09,
				0.07889994978904724,
				-4.394678398966789e-09
			]
		},
		{
			"children":[
				55
			],
			"name":"ball_l",
			"rotation":[
				0.017003396525979042,
				-0.9840686917304993,
				0.17689868807792664,
				0.005153439473360777
			],
			"scale":[
				0.9999999403953552,
				0.9999993443489075,
				1
			],
			"translation":[
				4.0745362639427185e-09,
				0.13257987797260284,
				4.190951585769653e-09
			]
		},
		{
			"children":[
				56
			],
			"name":"foot_l",
			"rotation":[
				-0.5259309411048889,
				-0.013976658694446087,
				-0.021548721939325333,
				0.8501393795013428
			],
			"scale":[
				0.9999999403953552,
				0.9999998807907104,
				0.9999998807907104
			],
			"translation":[
				9.677023626863956e-09,
				0.45252469182014465,
				4.132743924856186e-09
			]
		},
		{
			"children":[
				57
			],
			"name":"calf_l",
			"rotation":[
				0.038200005888938904,
				-0.00152471917681396,
				0.0380624383687973,
				0.9985437989234924
			],
			"scale":[
				1,
				1.0000001192092896,
				1
			],
			"translation":[
				-6.9776433520019054e-09,
				0.4935515522956848,
				8.675851859152317e-08
			]
		},
		{
			"children":[
				58
			],
			"name":"thigh_l",
			"rotation":[
				0.9831892251968384,
				0.02927211858332157,
				-0.0036092603113502264,
				0.18019181489944458
			],
			"scale":[
				1,
				1,
				1.0000011920928955
			],
			"translation":[
				0.07348603755235672,
				-0.030424252152442932,
				-0.013960655778646469
			]
		},
		{
			"name":"ball_leaf_r",
			"rotation":[
				5.609308573184535e-08,
				-6.711343303322792e-08,
				-4.656612873077393e-10,
				1
			],
			"translation":[
				-4.773028194904327e-09,
				0.07890014350414276,
				1.1059455573558807e-09
			]
		},
		{
			"children":[
				60
			],
			"name":"ball_r",
			"rotation":[
				0.017126688733696938,
				0.9840770363807678,
				-0.1768653392791748,
				0.004218255635350943
			],
			"scale":[
				1,
				0.9999999403953552,
				0.9999998807907104
			],
			"translation":[
				-5.704350769519806e-09,
				0.132900670170784,
				2.1187588572502136e-08
			]
		},
		{
			"children":[
				61
			],
			"name":"foot_r",
			"rotation":[
				-0.5289507508277893,
				0.013429847545921803,
				0.022409554570913315,
				0.8482503294944763
			],
			"scale":[
				0.9999999403953552,
				0.9999999403953552,
				0.9999999403953552
			],
			"translation":[
				6.170012056827545e-09,
				0.45272567868232727,
				1.5352270565927029e-09
			]
		},
		{
			"children":[
				62
			],
			"name":"calf_r",
			"rotation":[
				0.0408739298582077,
				0.0012973396806046367,
				-0.03902268037199974,
				0.9984011650085449
			],
			"scale":[
				0.9999999403953552,
				0.9999999403953552,
				1
			],
			"translation":[
				-7.254129741340876e-09,
				0.4935506582260132,
				9.569339454174042e-08
			]
		},
		{
			"children":[
				63
			],
			"name":"thigh_r",
			"rotation":[
				0.9831891655921936,
				-0.029272256419062614,
				0.0036091753281652927,
				0.18019215762615204
			],
			"scale":[
				0.9999999403953552,
				0.9999998807907104,
				0.999998927116394
			],
			"translation":[
				-0.07348602265119553,
				-0.030424252152442932,
				-0.013960659503936768
			]
		},
		{
			"name":"glute_l",
			"rotation":[
				-0.8960705399513245,
				-2.7964134119429218e-08,
				-2.3932640758062007e-08,
				0.44391173124313354
			],
			"scale":[
				1,
				0.9999999403953552,
				0.9999998807907104
			],
			"translation":[
				0.08805271238088608,
				-0.08445273339748383,
				-0.03423186019062996
			]
		},
		{
			"name":"glute_r",
			"rotation":[
				-0.8960707187652588,
				-2.7964123461288182e-08,
				-2.3932656745273562e-08,
				0.4439113140106201
			],
			"scale":[
				1,
				1.0000001192092896,
				1.0000001192092896
			],
			"translation":[
				-0.07445123046636581,
				-0.08491348475217819,
				-0.033823803067207336
			]
		},
		{
			"children":[
				54,
				59,
				64,
				65,
				66
			],
			"name":"pelvis",
			"rotation":[
				0.8221108913421631,
				8.480421698209284e-09,
				1.2252897363396187e-08,
				0.5693274140357971
			],
			"scale":[
				1,
				0.9999999403953552,
				0.9999998807907104
			],
			"translation":[
				2.2872988225675073e-12,
				4.172325134277344e-07,
				1.0722957849502563
			]
		},
		{
			"children":[
				67
			],
			"name":"root",
			"rotation":[
				-0.7071067690849304,
				0,
				0,
				0.7071067690849304
			]
		},
		{
			"name":"neutral_bone",
			"rotation":[
				-0.7071067690849304,
				0,
				0,
				0.7071067690849304
			]
		},
		{
			"mesh":0,
			"name":"ranger.belt",
			"skin":0
		},
		{
			"mesh":1,
			"name":"ranger.boot_l",
			"skin":0
		},
		{
			"mesh":2,
			"name":"ranger.boot_r",
			"skin":0
		},
		{
			"mesh":3,
			"name":"ranger.bracer_l",
			"skin":0
		},
		{
			"mesh":4,
			"name":"ranger.bracer_l_rivets",
			"skin":0
		},
		{
			"mesh":5,
			"name":"ranger.bracer_l_trim",
			"skin":0
		},
		{
			"mesh":6,
			"name":"ranger.bracer_r",
			"skin":0
		},
		{
			"mesh":7,
			"name":"ranger.bracer_r_rivets",
			"skin":0
		},
		{
			"mesh":8,
			"name":"ranger.bracer_r_trim",
			"skin":0
		},
		{
			"mesh":9,
			"name":"ranger.buckle",
			"skin":0
		},
		{
			"mesh":10,
			"name":"ranger.collar",
			"skin":0
		},
		{
			"mesh":11,
			"name":"ranger.collar_trim",
			"skin":0
		},
		{
			"mesh":12,
			"name":"ranger.corset",
			"skin":0
		},
		{
			"mesh":13,
			"name":"ranger.corset_trim",
			"skin":0
		},
		{
			"mesh":14,
			"name":"ranger.cuff_l",
			"skin":0
		},
		{
			"mesh":15,
			"name":"ranger.cuff_r",
			"skin":0
		},
		{
			"mesh":16,
			"name":"ranger.cups",
			"skin":0
		},
		{
			"mesh":17,
			"name":"ranger.glove_l",
			"skin":0
		},
		{
			"mesh":18,
			"name":"ranger.glove_r",
			"skin":0
		},
		{
			"mesh":19,
			"name":"ranger.halter",
			"skin":0
		},
		{
			"mesh":20,
			"name":"ranger.laces",
			"skin":0
		},
		{
			"mesh":21,
			"name":"ranger.lacing",
			"skin":0
		},
		{
			"mesh":22,
			"name":"ranger.pauldron0",
			"skin":0
		},
		{
			"mesh":23,
			"name":"ranger.pauldron0_trim",
			"skin":0
		},
		{
			"mesh":24,
			"name":"ranger.pauldron1",
			"skin":0
		},
		{
			"mesh":25,
			"name":"ranger.pauldron1_trim",
			"skin":0
		},
		{
			"mesh":26,
			"name":"ranger.pauldron2",
			"skin":0
		},
		{
			"mesh":27,
			"name":"ranger.pauldron2_trim",
			"skin":0
		},
		{
			"mesh":28,
			"name":"ranger.pouch",
			"skin":0
		},
		{
			"mesh":29,
			"name":"ranger.suit",
			"skin":0
		},
		{
			"mesh":30,
			"name":"ranger.thighbuckle",
			"skin":0
		},
		{
			"mesh":31,
			"name":"ranger.thighstrap",
			"skin":0
		},
		{
			"mesh":32,
			"name":"ranger.upper",
			"skin":0
		},
		{
			"children":[
				70,
				71,
				72,
				73,
				74,
				75,
				76,
				77,
				78,
				79,
				80,
				81,
				82,
				83,
				84,
				85,
				86,
				87,
				88,
				89,
				90,
				91,
				92,
				93,
				94,
				95,
				96,
				97,
				98,
				99,
				100,
				101,
				102,
				68,
				69
			],
			"name":"Armature"
		}
	],
	"materials":[
		{
			"doubleSided":true,
			"name":"brownleather",
			"normalTexture":{
				"index":0
			},
			"pbrMetallicRoughness":{
				"baseColorTexture":{
					"index":1
				},
				"metallicFactor":0,
				"metallicRoughnessTexture":{
					"index":2
				}
			}
		},
		{
			"doubleSided":true,
			"name":"bronze",
			"normalTexture":{
				"index":3
			},
			"pbrMetallicRoughness":{
				"baseColorTexture":{
					"index":4
				},
				"metallicRoughnessTexture":{
					"index":5
				},
				"roughnessFactor":0.41999998688697815
			}
		},
		{
			"doubleSided":true,
			"name":"darksteel",
			"normalTexture":{
				"index":6
			},
			"pbrMetallicRoughness":{
				"baseColorTexture":{
					"index":7
				},
				"metallicRoughnessTexture":{
					"index":8
				}
			}
		},
		{
			"doubleSided":true,
			"name":"greenleather",
			"normalTexture":{
				"index":9
			},
			"pbrMetallicRoughness":{
				"baseColorTexture":{
					"index":10
				},
				"metallicFactor":0,
				"metallicRoughnessTexture":{
					"index":11
				}
			}
		},
		{
			"doubleSided":true,
			"name":"darkleather",
			"normalTexture":{
				"index":12
			},
			"pbrMetallicRoughness":{
				"baseColorTexture":{
					"index":13
				},
				"metallicFactor":0,
				"metallicRoughnessTexture":{
					"index":14
				}
			}
		}
	],
	"meshes":[
		{
			"name":"ranger.belt",
			"primitives":[
				{
					"attributes":{
						"POSITION":0,
						"NORMAL":1,
						"TEXCOORD_0":2,
						"JOINTS_0":3,
						"WEIGHTS_0":4
					},
					"indices":5,
					"material":0
				}
			]
		},
		{
			"name":"ranger.boot_l",
			"primitives":[
				{
					"attributes":{
						"POSITION":7,
						"NORMAL":8,
						"TEXCOORD_0":9,
						"JOINTS_0":10,
						"WEIGHTS_0":11
					},
					"indices":12,
					"material":0
				}
			]
		},
		{
			"name":"ranger.boot_r",
			"primitives":[
				{
					"attributes":{
						"POSITION":13,
						"NORMAL":14,
						"TEXCOORD_0":15,
						"JOINTS_0":16,
						"WEIGHTS_0":17
					},
					"indices":18,
					"material":0
				}
			]
		},
		{
			"name":"ranger.bracer_l",
			"primitives":[
				{
					"attributes":{
						"POSITION":19,
						"NORMAL":20,
						"TEXCOORD_0":21,
						"JOINTS_0":22,
						"WEIGHTS_0":23
					},
					"indices":24,
					"material":1
				}
			]
		},
		{
			"name":"ranger.bracer_l_rivets",
			"primitives":[
				{
					"attributes":{
						"POSITION":25,
						"NORMAL":26,
						"TEXCOORD_0":27,
						"JOINTS_0":28,
						"WEIGHTS_0":29
					},
					"indices":30,
					"material":2
				}
			]
		},
		{
			"name":"ranger.bracer_l_trim",
			"primitives":[
				{
					"attributes":{
						"POSITION":31,
						"NORMAL":32,
						"TEXCOORD_0":33,
						"JOINTS_0":34,
						"WEIGHTS_0":35
					},
					"indices":36,
					"material":0
				}
			]
		},
		{
			"name":"ranger.bracer_r",
			"primitives":[
				{
					"attributes":{
						"POSITION":37,
						"NORMAL":38,
						"TEXCOORD_0":39,
						"JOINTS_0":40,
						"WEIGHTS_0":41
					},
					"indices":42,
					"material":1
				}
			]
		},
		{
			"name":"ranger.bracer_r_rivets",
			"primitives":[
				{
					"attributes":{
						"POSITION":43,
						"NORMAL":44,
						"TEXCOORD_0":45,
						"JOINTS_0":46,
						"WEIGHTS_0":47
					},
					"indices":48,
					"material":2
				}
			]
		},
		{
			"name":"ranger.bracer_r_trim",
			"primitives":[
				{
					"attributes":{
						"POSITION":49,
						"NORMAL":50,
						"TEXCOORD_0":51,
						"JOINTS_0":52,
						"WEIGHTS_0":53
					},
					"indices":54,
					"material":0
				}
			]
		},
		{
			"name":"ranger.buckle",
			"primitives":[
				{
					"attributes":{
						"POSITION":55,
						"NORMAL":56,
						"TEXCOORD_0":57,
						"JOINTS_0":58,
						"WEIGHTS_0":59
					},
					"indices":60,
					"material":1
				}
			]
		},
		{
			"name":"ranger.collar",
			"primitives":[
				{
					"attributes":{
						"POSITION":61,
						"NORMAL":62,
						"TEXCOORD_0":63,
						"JOINTS_0":64,
						"WEIGHTS_0":65
					},
					"indices":66,
					"material":3
				}
			]
		},
		{
			"name":"ranger.collar_trim",
			"primitives":[
				{
					"attributes":{
						"POSITION":67,
						"NORMAL":68,
						"TEXCOORD_0":69,
						"JOINTS_0":70,
						"WEIGHTS_0":71
					},
					"indices":72,
					"material":0
				}
			]
		},
		{
			"name":"ranger.corset",
			"primitives":[
				{
					"attributes":{
						"POSITION":73,
						"NORMAL":74,
						"TEXCOORD_0":75,
						"JOINTS_0":76,
						"WEIGHTS_0":77
					},
					"indices":78,
					"material":0
				}
			]
		},
		{
			"name":"ranger.corset_trim",
			"primitives":[
				{
					"attributes":{
						"POSITION":79,
						"NORMAL":80,
						"TEXCOORD_0":81,
						"JOINTS_0":82,
						"WEIGHTS_0":83
					},
					"indices":84,
					"material":4
				}
			]
		},
		{
			"name":"ranger.cuff_l",
			"primitives":[
				{
					"attributes":{
						"POSITION":85,
						"NORMAL":86,
						"TEXCOORD_0":87,
						"JOINTS_0":88,
						"WEIGHTS_0":89
					},
					"indices":90,
					"material":0
				}
			]
		},
		{
			"name":"ranger.cuff_r",
			"primitives":[
				{
					"attributes":{
						"POSITION":91,
						"NORMAL":92,
						"TEXCOORD_0":93,
						"JOINTS_0":94,
						"WEIGHTS_0":95
					},
					"indices":96,
					"material":0
				}
			]
		},
		{
			"name":"ranger.cups",
			"primitives":[
				{
					"attributes":{
						"POSITION":97,
						"NORMAL":98,
						"TEXCOORD_0":99,
						"JOINTS_0":100,
						"WEIGHTS_0":101
					},
					"indices":102,
					"material":3
				}
			]
		},
		{
			"name":"ranger.glove_l",
			"primitives":[
				{
					"attributes":{
						"POSITION":103,
						"NORMAL":104,
						"TEXCOORD_0":105,
						"JOINTS_0":106,
						"WEIGHTS_0":107
					},
					"indices":108,
					"material":4
				}
			]
		},
		{
			"name":"ranger.glove_r",
			"primitives":[
				{
					"attributes":{
						"POSITION":109,
						"NORMAL":110,
						"TEXCOORD_0":111,
						"JOINTS_0":112,
						"WEIGHTS_0":113
					},
					"indices":114,
					"material":4
				}
			]
		},
		{
			"name":"ranger.halter",
			"primitives":[
				{
					"attributes":{
						"POSITION":115,
						"NORMAL":116,
						"TEXCOORD_0":117,
						"JOINTS_0":118,
						"WEIGHTS_0":119
					},
					"indices":120,
					"material":0
				}
			]
		},
		{
			"name":"ranger.laces",
			"primitives":[
				{
					"attributes":{
						"POSITION":121,
						"NORMAL":122,
						"TEXCOORD_0":123,
						"JOINTS_0":124,
						"WEIGHTS_0":125
					},
					"indices":126,
					"material":4
				}
			]
		},
		{
			"name":"ranger.lacing",
			"primitives":[
				{
					"attributes":{
						"POSITION":127,
						"NORMAL":128,
						"TEXCOORD_0":129,
						"JOINTS_0":130,
						"WEIGHTS_0":131
					},
					"indices":132,
					"material":4
				}
			]
		},
		{
			"name":"ranger.pauldron0",
			"primitives":[
				{
					"attributes":{
						"POSITION":133,
						"NORMAL":134,
						"TEXCOORD_0":135,
						"JOINTS_0":136,
						"WEIGHTS_0":137
					},
					"indices":138,
					"material":1
				}
			]
		},
		{
			"name":"ranger.pauldron0_trim",
			"primitives":[
				{
					"attributes":{
						"POSITION":139,
						"NORMAL":140,
						"TEXCOORD_0":141,
						"JOINTS_0":142,
						"WEIGHTS_0":143
					},
					"indices":144,
					"material":0
				}
			]
		},
		{
			"name":"ranger.pauldron1",
			"primitives":[
				{
					"attributes":{
						"POSITION":145,
						"NORMAL":146,
						"TEXCOORD_0":147,
						"JOINTS_0":148,
						"WEIGHTS_0":149
					},
					"indices":150,
					"material":1
				}
			]
		},
		{
			"name":"ranger.pauldron1_trim",
			"primitives":[
				{
					"attributes":{
						"POSITION":151,
						"NORMAL":152,
						"TEXCOORD_0":153,
						"JOINTS_0":154,
						"WEIGHTS_0":155
					},
					"indices":156,
					"material":0
				}
			]
		},
		{
			"name":"ranger.pauldron2",
			"primitives":[
				{
					"attributes":{
						"POSITION":157,
						"NORMAL":158,
						"TEXCOORD_0":159,
						"JOINTS_0":160,
						"WEIGHTS_0":161
					},
					"indices":162,
					"material":1
				}
			]
		},
		{
			"name":"ranger.pauldron2_trim",
			"primitives":[
				{
					"attributes":{
						"POSITION":163,
						"NORMAL":164,
						"TEXCOORD_0":165,
						"JOINTS_0":166,
						"WEIGHTS_0":167
					},
					"indices":168,
					"material":0
				}
			]
		},
		{
			"name":"ranger.pouch",
			"primitives":[
				{
					"attributes":{
						"POSITION":169,
						"NORMAL":170,
						"TEXCOORD_0":171,
						"JOINTS_0":172,
						"WEIGHTS_0":173
					},
					"indices":174,
					"material":0
				}
			]
		},
		{
			"name":"ranger.suit",
			"primitives":[
				{
					"attributes":{
						"POSITION":175,
						"NORMAL":176,
						"TEXCOORD_0":177,
						"JOINTS_0":178,
						"WEIGHTS_0":179
					},
					"indices":180,
					"material":3
				}
			]
		},
		{
			"name":"ranger.thighbuckle",
			"primitives":[
				{
					"attributes":{
						"POSITION":181,
						"NORMAL":182,
						"TEXCOORD_0":183,
						"JOINTS_0":184,
						"WEIGHTS_0":185
					},
					"indices":186,
					"material":1
				}
			]
		},
		{
			"name":"ranger.thighstrap",
			"primitives":[
				{
					"attributes":{
						"POSITION":187,
						"NORMAL":188,
						"TEXCOORD_0":189,
						"JOINTS_0":190,
						"WEIGHTS_0":191
					},
					"indices":192,
					"material":0
				}
			]
		},
		{
			"name":"ranger.upper",
			"primitives":[
				{
					"attributes":{
						"POSITION":193,
						"NORMAL":194,
						"TEXCOORD_0":195,
						"JOINTS_0":196,
						"WEIGHTS_0":197
					},
					"indices":198,
					"material":3
				}
			]
		}
	],
	"textures":[
		{
			"sampler":0,
			"source":0
		},
		{
			"sampler":0,
			"source":1
		},
		{
			"sampler":0,
			"source":2
		},
		{
			"sampler":0,
			"source":3
		},
		{
			"sampler":0,
			"source":4
		},
		{
			"sampler":0,
			"source":5
		},
		{
			"sampler":0,
			"source":6
		},
		{
			"sampler":0,
			"source":7
		},
		{
			"sampler":0,
			"source":8
		},
		{
			"sampler":0,
			"source":9
		},
		{
			"sampler":0,
			"source":10
		},
		{
			"sampler":0,
			"source":11
		},
		{
			"sampler":0,
			"source":12
		},
		{
			"sampler":0,
			"source":13
		},
		{
			"sampler":0,
			"source":14
		}
	],
	"images":[
		{
			"mimeType":"image/jpeg",
			"name":"Leather037_nor",
			"uri":"outfit_tex/Leather037_nor.jpg"
		},
		{
			"mimeType":"image/jpeg",
			"name":"outfit_brownleather_diff",
			"uri":"outfit_tex/outfit_brownleather_diff.jpg"
		},
		{
			"mimeType":"image/png",
			"name":"Leather037_rough",
			"uri":"outfit_tex/Leather037_rough.png"
		},
		{
			"mimeType":"image/jpeg",
			"name":"Metal048C_nor",
			"uri":"outfit_tex/Metal048C_nor.jpg"
		},
		{
			"mimeType":"image/jpeg",
			"name":"outfit_bronze_diff",
			"uri":"outfit_tex/outfit_bronze_diff.jpg"
		},
		{
			"mimeType":"image/png",
			"name":"Metal048C_metal",
			"uri":"outfit_tex/Metal048C_metal.png"
		},
		{
			"mimeType":"image/jpeg",
			"name":"Metal046B_nor",
			"uri":"outfit_tex/Metal046B_nor.jpg"
		},
		{
			"mimeType":"image/jpeg",
			"name":"outfit_darksteel_diff",
			"uri":"outfit_tex/outfit_darksteel_diff.jpg"
		},
		{
			"mimeType":"image/png",
			"name":"Metal046B_metal-Metal046B_rough",
			"uri":"outfit_tex/Metal046B_metal-Metal046B_rough.png"
		},
		{
			"mimeType":"image/jpeg",
			"name":"Leather026_nor",
			"uri":"outfit_tex/Leather026_nor.jpg"
		},
		{
			"mimeType":"image/jpeg",
			"name":"outfit_greenleather_diff",
			"uri":"outfit_tex/outfit_greenleather_diff.jpg"
		},
		{
			"mimeType":"image/png",
			"name":"Leather026_rough",
			"uri":"outfit_tex/Leather026_rough.png"
		},
		{
			"mimeType":"image/jpeg",
			"name":"Leather034C_nor",
			"uri":"outfit_tex/Leather034C_nor.jpg"
		},
		{
			"mimeType":"image/jpeg",
			"name":"outfit_darkleather_diff",
			"uri":"outfit_tex/outfit_darkleather_diff.jpg"
		},
		{
			"mimeType":"image/png",
			"name":"Leather034C_rough",
			"uri":"outfit_tex/Leather034C_rough.png"
		}
	],
	"skins":[
		{
			"inverseBindMatrices":6,
			"joints":[
				68,
				67,
				54,
				53,
				52,
				1,
				0,
				25,
				24,
				23,
				22,
				5,
				4,
				3,
				2,
				9,
				8,
				7,
				6,
				13,
				12,
				11,
				10,
				17,
				16,
				15,
				14,
				21,
				20,
				19,
				18,
				49,
				48,
				47,
				46,
				29,
				28,
				27,
				26,
				33,
				32,
				31,
				30,
				37,
				36,
				35,
				34,
				41,
				40,
				39,
				38,
				45,
				44,
				43,
				42,
				50,
				51,
				59,
				58,
				57,
				56,
				55,
				64,
				63,
				62,
				61,
				60,
				65,
				66,
				69
			],
			"name":"Armature"
		}
	],
	"accessors":[
		{
			"bufferView":0,
			"componentType":5126,
			"count":10009,
			"max":[
				0.2151290625333786,
				1.0547940731048584,
				0.11444789171218872
			],
			"min":[
				-0.19393981993198395,
				0.9447628259658813,
				-0.1696862131357193
			],
			"type":"VEC3"
		},
		{
			"bufferView":1,
			"componentType":5126,
			"count":10009,
			"type":"VEC3"
		},
		{
			"bufferView":2,
			"componentType":5126,
			"count":10009,
			"type":"VEC2"
		},
		{
			"bufferView":3,
			"componentType":5121,
			"count":10009,
			"type":"VEC4"
		},
		{
			"bufferView":4,
			"componentType":5126,
			"count":10009,
			"type":"VEC4"
		},
		{
			"bufferView":5,
			"componentType":5123,
			"count":50760,
			"type":"SCALAR"
		},
		{
			"bufferView":6,
			"componentType":5126,
			"count":70,
			"type":"MAT4"
		},
		{
			"bufferView":7,
			"componentType":5126,
			"count":24583,
			"max":[
				0.18132147192955017,
				0.5920659303665161,
				0.1815434694290161
			],
			"min":[
				0.025037359446287155,
				-0.008072180673480034,
				-0.13612627983093262
			],
			"type":"VEC3"
		},
		{
			"bufferView":8,
			"componentType":5126,
			"count":24583,
			"type":"VEC3"
		},
		{
			"bufferView":9,
			"componentType":5126,
			"count":24583,
			"type":"VEC2"
		},
		{
			"bufferView":10,
			"componentType":5121,
			"count":24583,
			"type":"VEC4"
		},
		{
			"bufferView":11,
			"componentType":5126,
			"count":24583,
			"type":"VEC4"
		},
		{
			"bufferView":12,
			"componentType":5123,
			"count":117588,
			"type":"SCALAR"
		},
		{
			"bufferView":13,
			"componentType":5126,
			"count":24855,
			"max":[
				-0.021467287093400955,
				0.5917388200759888,
				0.18177783489227295
			],
			"min":[
				-0.1781640201807022,
				-0.008015128783881664,
				-0.1359088271856308
			],
			"type":"VEC3"
		},
		{
			"bufferView":14,
			"componentType":5126,
			"count":24855,
			"type":"VEC3"
		},
		{
			"bufferView":15,
			"componentType":5126,
			"count":24855,
			"type":"VEC2"
		},
		{
			"bufferView":16,
			"componentType":5121,
			"count":24855,
			"type":"VEC4"
		},
		{
			"bufferView":17,
			"componentType":5126,
			"count":24855,
			"type":"VEC4"
		},
		{
			"bufferView":18,
			"componentType":5123,
			"count":117222,
			"type":"SCALAR"
		},
		{
			"bufferView":19,
			"componentType":5126,
			"count":5064,
			"max":[
				0.5365124940872192,
				1.3190079927444458,
				0.01397465355694294
			],
			"min":[
				0.35112640261650085,
				1.1350053548812866,
				-0.0919511616230011
			],
			"type":"VEC3"
		},
		{
			"bufferView":20,
			"componentType":5126,
			"count":5064,
			"type":"VEC3"
		},
		{
			"bufferView":21,
			"componentType":5126,
			"count":5064,
			"type":"VEC2"
		},
		{
			"bufferView":22,
			"componentType":5121,
			"count":5064,
			"type":"VEC4"
		},
		{
			"bufferView":23,
			"componentType":5126,
			"count":5064,
			"type":"VEC4"
		},
		{
			"bufferView":24,
			"componentType":5123,
			"count":27018,
			"type":"SCALAR"
		},
		{
			"bufferView":25,
			"componentType":5126,
			"count":3388,
			"max":[
				0.5313935875892639,
				1.3127284049987793,
				0.01466325856745243
			],
			"min":[
				0.358926922082901,
				1.1367179155349731,
				-0.09289900213479996
			],
			"type":"VEC3"
		},
		{
			"bufferView":26,
			"componentType":5126,
			"count":3388,
			"type":"VEC3"
		},
		{
			"bufferView":27,
			"componentType":5126,
			"count":3388,
			"type":"VEC2"
		},
		{
			"bufferView":28,
			"componentType":5121,
			"count":3388,
			"type":"VEC4"
		},
		{
			"bufferView":29,
			"componentType":5126,
			"count":3388,
			"type":"VEC4"
		},
		{
			"bufferView":30,
			"componentType":5123,
			"count":10368,
			"type":"SCALAR"
		},
		{
			"bufferView":31,
			"componentType":5126,
			"count":5043,
			"max":[
				0.5374409556388855,
				1.3197953701019287,
				0.014026490971446037
			],
			"min":[
				0.3507535457611084,
				1.134554386138916,
				-0.09327545762062073
			],
			"type":"VEC3"
		},
		{
			"bufferView":32,
			"componentType":5126,
			"count":5043,
			"type":"VEC3"
		},
		{
			"bufferView":33,
			"componentType":5126,
			"count":5043,
			"type":"VEC2"
		},
		{
			"bufferView":34,
			"componentType":5121,
			"count":5043,
			"type":"VEC4"
		},
		{
			"bufferView":35,
			"componentType":5126,
			"count":5043,
			"type":"VEC4"
		},
		{
			"bufferView":36,
			"componentType":5123,
			"count":23382,
			"type":"SCALAR"
		},
		{
			"bufferView":37,
			"componentType":5126,
			"count":4721,
			"max":[
				-0.34886878728866577,
				1.3176209926605225,
				0.013781623914837837
			],
			"min":[
				-0.5336915254592896,
				1.1337504386901855,
				-0.09196098893880844
			],
			"type":"VEC3"
		},
		{
			"bufferView":38,
			"componentType":5126,
			"count":4721,
			"type":"VEC3"
		},
		{
			"bufferView":39,
			"componentType":5126,
			"count":4721,
			"type":"VEC2"
		},
		{
			"bufferView":40,
			"componentType":5121,
			"count":4721,
			"type":"VEC4"
		},
		{
			"bufferView":41,
			"componentType":5126,
			"count":4721,
			"type":"VEC4"
		},
		{
			"bufferView":42,
			"componentType":5123,
			"count":25842,
			"type":"SCALAR"
		},
		{
			"bufferView":43,
			"componentType":5126,
			"count":2886,
			"max":[
				-0.35589495301246643,
				1.3093479871749878,
				0.016522325575351715
			],
			"min":[
				-0.5257185101509094,
				1.137107253074646,
				-0.0932985320687294
			],
			"type":"VEC3"
		},
		{
			"bufferView":44,
			"componentType":5126,
			"count":2886,
			"type":"VEC3"
		},
		{
			"bufferView":45,
			"componentType":5126,
			"count":2886,
			"type":"VEC2"
		},
		{
			"bufferView":46,
			"componentType":5121,
			"count":2886,
			"type":"VEC4"
		},
		{
			"bufferView":47,
			"componentType":5126,
			"count":2886,
			"type":"VEC4"
		},
		{
			"bufferView":48,
			"componentType":5123,
			"count":9216,
			"type":"SCALAR"
		},
		{
			"bufferView":49,
			"componentType":5126,
			"count":4214,
			"max":[
				-0.34834372997283936,
				1.317842960357666,
				0.014173540286719799
			],
			"min":[
				-0.5348246693611145,
				1.1331169605255127,
				-0.0936429426074028
			],
			"type":"VEC3"
		},
		{
			"bufferView":50,
			"componentType":5126,
			"count":4214,
			"type":"VEC3"
		},
		{
			"bufferView":51,
			"componentType":5126,
			"count":4214,
			"type":"VEC2"
		},
		{
			"bufferView":52,
			"componentType":5121,
			"count":4214,
			"type":"VEC4"
		},
		{
			"bufferView":53,
			"componentType":5126,
			"count":4214,
			"type":"VEC4"
		},
		{
			"bufferView":54,
			"componentType":5123,
			"count":21264,
			"type":"SCALAR"
		},
		{
			"bufferView":55,
			"componentType":5126,
			"count":700,
			"max":[
				0.057393115013837814,
				1.00680673122406,
				0.11284009367227554
			],
			"min":[
				0.012124011293053627,
				0.9646034240722656,
				0.08907277882099152
			],
			"type":"VEC3"
		},
		{
			"bufferView":56,
			"componentType":5126,
			"count":700,
			"type":"VEC3"
		},
		{
			"bufferView":57,
			"componentType":5126,
			"count":700,
			"type":"VEC2"
		},
		{
			"bufferView":58,
			"componentType":5121,
			"count":700,
			"type":"VEC4"
		},
		{
			"bufferView":59,
			"componentType":5126,
			"count":700,
			"type":"VEC4"
		},
		{
			"bufferView":60,
			"componentType":5123,
			"count":3174,
			"type":"SCALAR"
		},
		{
			"bufferView":61,
			"componentType":5126,
			"count":12533,
			"max":[
				0.11612426489591599,
				1.6150215864181519,
				0.028886519372463226
			],
			"min":[
				0.012185315601527691,
				1.5718660354614258,
				-0.09693431854248047
			],
			"type":"VEC3"
		},
		{
			"bufferView":62,
			"componentType":5126,
			"count":12533,
			"type":"VEC3"
		},
		{
			"bufferView":63,
			"componentType":5126,
			"count":12533,
			"type":"VEC2"
		},
		{
			"bufferView":64,
			"componentType":5121,
			"count":12533,
			"type":"VEC4"
		},
		{
			"bufferView":65,
			"componentType":5126,
			"count":12533,
			"type":"VEC4"
		},
		{
			"bufferView":66,
			"componentType":5123,
			"count":39747,
			"type":"SCALAR"
		},
		{
			"bufferView":67,
			"componentType":5126,
			"count":9925,
			"max":[
				0.11677513271570206,
				1.615136742591858,
				0.029338421300053596
			],
			"min":[
				0.010997618548572063,
				1.575483798980713,
				-0.09657725691795349
			],
			"type":"VEC3"
		},
		{
			"bufferView":68,
			"componentType":5126,
			"count":9925,
			"type":"VEC3"
		},
		{
			"bufferView":69,
			"componentType":5126,
			"count":9925,
			"type":"VEC2"
		},
		{
			"bufferView":70,
			"componentType":5121,
			"count":9925,
			"type":"VEC4"
		},
		{
			"bufferView":71,
			"componentType":5126,
			"count":9925,
			"type":"VEC4"
		},
		{
			"bufferView":72,
			"componentType":5123,
			"count":25368,
			"type":"SCALAR"
		},
		{
			"bufferView":73,
			"componentType":5126,
			"count":26520,
			"max":[
				0.18503078818321228,
				1.3788269758224487,
				0.12844179570674896
			],
			"min":[
				-0.1819297820329666,
				1.001322865486145,
				-0.1541205793619156
			],
			"type":"VEC3"
		},
		{
			"bufferView":74,
			"componentType":5126,
			"count":26520,
			"type":"VEC3"
		},
		{
			"bufferView":75,
			"componentType":5126,
			"count":26520,
			"type":"VEC2"
		},
		{
			"bufferView":76,
			"componentType":5121,
			"count":26520,
			"type":"VEC4"
		},
		{
			"bufferView":77,
			"componentType":5126,
			"count":26520,
			"type":"VEC4"
		},
		{
			"bufferView":78,
			"componentType":5123,
			"count":135816,
			"type":"SCALAR"
		},
		{
			"bufferView":79,
			"componentType":5126,
			"count":15176,
			"max":[
				0.18548883497714996,
				1.3775500059127808,
				0.12646524608135223
			],
			"min":[
				-0.1830804944038391,
				1.0027165412902832,
				-0.15527130663394928
			],
			"type":"VEC3"
		},
		{
			"bufferView":80,
			"componentType":5126,
			"count":15176,
			"type":"VEC3"
		},
		{
			"bufferView":81,
			"componentType":5126,
			"count":15176,
			"type":"VEC2"
		},
		{
			"bufferView":82,
			"componentType":5121,
			"count":15176,
			"type":"VEC4"
		},
		{
			"bufferView":83,
			"componentType":5126,
			"count":15176,
			"type":"VEC4"
		},
		{
			"bufferView":84,
			"componentType":5123,
			"count":66414,
			"type":"SCALAR"
		},
		{
			"bufferView":85,
			"componentType":5126,
			"count":6657,
			"max":[
				0.1706598997116089,
				0.6174943447113037,
				0.06949113309383392
			],
			"min":[
				0.01464749313890934,
				0.5268340110778809,
				-0.09950873255729675
			],
			"type":"VEC3"
		},
		{
			"bufferView":86,
			"componentType":5126,
			"count":6657,
			"type":"VEC3"
		},
		{
			"bufferView":87,
			"componentType":5126,
			"count":6657,
			"type":"VEC2"
		},
		{
			"bufferView":88,
			"componentType":5121,
			"count":6657,
			"type":"VEC4"
		},
		{
			"bufferView":89,
			"componentType":5126,
			"count":6657,
			"type":"VEC4"
		},
		{
			"bufferView":90,
			"componentType":5123,
			"count":32856,
			"type":"SCALAR"
		},
		{
			"bufferView":91,
			"componentType":5126,
			"count":6490,
			"max":[
				-0.010983939282596111,
				0.619512140750885,
				0.06995337456464767
			],
			"min":[
				-0.16715072095394135,
				0.5255761742591858,
				-0.09916884452104568
			],
			"type":"VEC3"
		},
		{
			"bufferView":92,
			"componentType":5126,
			"count":6490,
			"type":"VEC3"
		},
		{
			"bufferView":93,
			"componentType":5126,
			"count":6490,
			"type":"VEC2"
		},
		{
			"bufferView":94,
			"componentType":5121,
			"count":6490,
			"type":"VEC4"
		},
		{
			"bufferView":95,
			"componentType":5126,
			"count":6490,
			"type":"VEC4"
		},
		{
			"bufferView":96,
			"componentType":5123,
			"count":32748,
			"type":"SCALAR"
		},
		{
			"bufferView":97,
			"componentType":5126,
			"count":20164,
			"max":[
				0.172528937458992,
				1.4831489324569702,
				0.18383929133415222
			],
			"min":[
				-0.172528937458992,
				1.3537784814834595,
				0.08391496539115906
			],
			"type":"VEC3"
		},
		{
			"bufferView":98,
			"componentType":5126,
			"count":20164,
			"type":"VEC3"
		},
		{
			"bufferView":99,
			"componentType":5126,
			"count":20164,
			"type":"VEC2"
		},
		{
			"bufferView":100,
			"componentType":5121,
			"count":20164,
			"type":"VEC4"
		},
		{
			"bufferView":101,
			"componentType":5126,
			"count":20164,
			"type":"VEC4"
		},
		{
			"bufferView":102,
			"componentType":5123,
			"count":120960,
			"type":"SCALAR"
		},
		{
			"bufferView":103,
			"componentType":5126,
			"count":14727,
			"max":[
				0.6479099988937378,
				1.203737497329712,
				0.041127078235149384
			],
			"min":[
				0.48213815689086914,
				1.031198263168335,
				-0.08258084207773209
			],
			"type":"VEC3"
		},
		{
			"bufferView":104,
			"componentType":5126,
			"count":14727,
			"type":"VEC3"
		},
		{
			"bufferView":105,
			"componentType":5126,
			"count":14727,
			"type":"VEC2"
		},
		{
			"bufferView":106,
			"componentType":5121,
			"count":14727,
			"type":"VEC4"
		},
		{
			"bufferView":107,
			"componentType":5126,
			"count":14727,
			"type":"VEC4"
		},
		{
			"bufferView":108,
			"componentType":5123,
			"count":53241,
			"type":"SCALAR"
		},
		{
			"bufferView":109,
			"componentType":5126,
			"count":11668,
			"max":[
				-0.4804682731628418,
				1.199888825416565,
				0.04417801648378372
			],
			"min":[
				-0.6469244956970215,
				1.0349427461624146,
				-0.0836247131228447
			],
			"type":"VEC3"
		},
		{
			"bufferView":110,
			"componentType":5126,
			"count":11668,
			"type":"VEC3"
		},
		{
			"bufferView":111,
			"componentType":5126,
			"count":11668,
			"type":"VEC2"
		},
		{
			"bufferView":112,
			"componentType":5121,
			"count":11668,
			"type":"VEC4"
		},
		{
			"bufferView":113,
			"componentType":5126,
			"count":11668,
			"type":"VEC4"
		},
		{
			"bufferView":114,
			"componentType":5123,
			"count":45681,
			"type":"SCALAR"
		},
		{
			"bufferView":115,
			"componentType":5126,
			"count":11925,
			"max":[
				0.025279300287365913,
				1.6042083501815796,
				0.15345850586891174
			],
			"min":[
				-0.1180855855345726,
				1.4385931491851807,
				0.019897444173693657
			],
			"type":"VEC3"
		},
		{
			"bufferView":116,
			"componentType":5126,
			"count":11925,
			"type":"VEC3"
		},
		{
			"bufferView":117,
			"componentType":5126,
			"count":11925,
			"type":"VEC2"
		},
		{
			"bufferView":118,
			"componentType":5121,
			"count":11925,
			"type":"VEC4"
		},
		{
			"bufferView":119,
			"componentType":5126,
			"count":11925,
			"type":"VEC4"
		},
		{
			"bufferView":120,
			"componentType":5123,
			"count":26580,
			"type":"SCALAR"
		},
		{
			"bufferView":121,
			"componentType":5126,
			"count":1106,
			"max":[
				-0.08341287821531296,
				0.47546935081481934,
				0.020833566784858704
			],
			"min":[
				-0.12120233476161957,
				0.21826519072055817,
				0.005247165448963642
			],
			"type":"VEC3"
		},
		{
			"bufferView":122,
			"componentType":5126,
			"count":1106,
			"type":"VEC3"
		},
		{
			"bufferView":123,
			"componentType":5126,
			"count":1106,
			"type":"VEC2"
		},
		{
			"bufferView":124,
			"componentType":5121,
			"count":1106,
			"type":"VEC4"
		},
		{
			"bufferView":125,
			"componentType":5126,
			"count":1106,
			"type":"VEC4"
		},
		{
			"bufferView":126,
			"componentType":5123,
			"count":2976,
			"type":"SCALAR"
		},
		{
			"bufferView":127,
			"componentType":5126,
			"count":8071,
			"max":[
				0.022160768508911133,
				1.2799040079116821,
				0.13236790895462036
			],
			"min":[
				-0.023058980703353882,
				1.0706467628479004,
				0.10857030749320984
			],
			"type":"VEC3"
		},
		{
			"bufferView":128,
			"componentType":5126,
			"count":8071,
			"type":"VEC3"
		},
		{
			"bufferView":129,
			"componentType":5126,
			"count":8071,
			"type":"VEC2"
		},
		{
			"bufferView":130,
			"componentType":5121,
			"count":8071,
			"type":"VEC4"
		},
		{
			"bufferView":131,
			"componentType":5126,
			"count":8071,
			"type":"VEC4"
		},
		{
			"bufferView":132,
			"componentType":5123,
			"count":28926,
			"type":"SCALAR"
		},
		{
			"bufferView":133,
			"componentType":5126,
			"count":17812,
			"max":[
				0.27355557680130005,
				1.6053675413131714,
				0.06847549974918365
			],
			"min":[
				0.10098952800035477,
				1.4751602411270142,
				-0.1490863710641861
			],
			"type":"VEC3"
		},
		{
			"bufferView":134,
			"componentType":5126,
			"count":17812,
			"type":"VEC3"
		},
		{
			"bufferView":135,
			"componentType":5126,
			"count":17812,
			"type":"VEC2"
		},
		{
			"bufferView":136,
			"componentType":5121,
			"count":17812,
			"type":"VEC4"
		},
		{
			"bufferView":137,
			"componentType":5126,
			"count":17812,
			"type":"VEC4"
		},
		{
			"bufferView":138,
			"componentType":5123,
			"count":57588,
			"type":"SCALAR"
		},
		{
			"bufferView":139,
			"componentType":5126,
			"count":12687,
			"max":[
				0.2742186486721039,
				1.6028282642364502,
				0.06917338818311691
			],
			"min":[
				0.10114669054746628,
				1.4744350910186768,
				-0.13225595653057098
			],
			"type":"VEC3"
		},
		{
			"bufferView":140,
			"componentType":5126,
			"count":12687,
			"type":"VEC3"
		},
		{
			"bufferView":141,
			"componentType":5126,
			"count":12687,
			"type":"VEC2"
		},
		{
			"bufferView":142,
			"componentType":5121,
			"count":12687,
			"type":"VEC4"
		},
		{
			"bufferView":143,
			"componentType":5126,
			"count":12687,
			"type":"VEC4"
		},
		{
			"bufferView":144,
			"componentType":5123,
			"count":40131,
			"type":"SCALAR"
		},
		{
			"bufferView":145,
			"componentType":5126,
			"count":11267,
			"max":[
				0.28367188572883606,
				1.5845160484313965,
				0.056589480489492416
			],
			"min":[
				0.1573878973722458,
				1.427694320678711,
				-0.12123290449380875
			],
			"type":"VEC3"
		},
		{
			"bufferView":146,
			"componentType":5126,
			"count":11267,
			"type":"VEC3"
		},
		{
			"bufferView":147,
			"componentType":5126,
			"count":11267,
			"type":"VEC2"
		},
		{
			"bufferView":148,
			"componentType":5121,
			"count":11267,
			"type":"VEC4"
		},
		{
			"bufferView":149,
			"componentType":5126,
			"count":11267,
			"type":"VEC4"
		},
		{
			"bufferView":150,
			"componentType":5123,
			"count":45348,
			"type":"SCALAR"
		},
		{
			"bufferView":151,
			"componentType":5126,
			"count":10233,
			"max":[
				0.28577589988708496,
				1.5858129262924194,
				0.05741620436310768
			],
			"min":[
				0.15853773057460785,
				1.430234670639038,
				-0.12195243686437607
			],
			"type":"VEC3"
		},
		{
			"bufferView":152,
			"componentType":5126,
			"count":10233,
			"type":"VEC3"
		},
		{
			"bufferView":153,
			"componentType":5126,
			"count":10233,
			"type":"VEC2"
		},
		{
			"bufferView":154,
			"componentType":5121,
			"count":10233,
			"type":"VEC4"
		},
		{
			"bufferView":155,
			"componentType":5126,
			"count":10233,
			"type":"VEC4"
		},
		{
			"bufferView":156,
			"componentType":5123,
			"count":39306,
			"type":"SCALAR"
		},
		{
			"bufferView":157,
			"componentType":5126,
			"count":9254,
			"max":[
				0.3197692036628723,
				1.541919469833374,
				0.043468356132507324
			],
			"min":[
				0.17687773704528809,
				1.3943604230880737,
				-0.1058913990855217
			],
			"type":"VEC3"
		},
		{
			"bufferView":158,
			"componentType":5126,
			"count":9254,
			"type":"VEC3"
		},
		{
			"bufferView":159,
			"componentType":5126,
			"count":9254,
			"type":"VEC2"
		},
		{
			"bufferView":160,
			"componentType":5121,
			"count":9254,
			"type":"VEC4"
		},
		{
			"bufferView":161,
			"componentType":5126,
			"count":9254,
			"type":"VEC4"
		},
		{
			"bufferView":162,
			"componentType":5123,
			"count":34218,
			"type":"SCALAR"
		},
		{
			"bufferView":163,
			"componentType":5126,
			"count":6586,
			"max":[
				0.32014697790145874,
				1.5424680709838867,
				0.04370877891778946
			],
			"min":[
				0.17692244052886963,
				1.3951681852340698,
				-0.10642027854919434
			],
			"type":"VEC3"
		},
		{
			"bufferView":164,
			"componentType":5126,
			"count":6586,
			"type":"VEC3"
		},
		{
			"bufferView":165,
			"componentType":5126,
			"count":6586,
			"type":"VEC2"
		},
		{
			"bufferView":166,
			"componentType":5121,
			"count":6586,
			"type":"VEC4"
		},
		{
			"bufferView":167,
			"componentType":5126,
			"count":6586,
			"type":"VEC4"
		},
		{
			"bufferView":168,
			"componentType":5123,
			"count":29244,
			"type":"SCALAR"
		},
		{
			"bufferView":169,
			"componentType":5126,
			"count":1504,
			"max":[
				0.2462233603000641,
				1.0119959115982056,
				0.06193704158067703
			],
			"min":[
				0.1982785314321518,
				0.8880041241645813,
				-0.04193704575300217
			],
			"type":"VEC3"
		},
		{
			"bufferView":170,
			"componentType":5126,
			"count":1504,
			"type":"VEC3"
		},
		{
			"bufferView":171,
			"componentType":5126,
			"count":1504,
			"type":"VEC2"
		},
		{
			"bufferView":172,
			"componentType":5121,
			"count":1504,
			"type":"VEC4"
		},
		{
			"bufferView":173,
			"componentType":5126,
			"count":1504,
			"type":"VEC4"
		},
		{
			"bufferView":174,
			"componentType":5123,
			"count":6912,
			"type":"SCALAR"
		},
		{
			"bufferView":175,
			"componentType":5126,
			"count":34171,
			"max":[
				0.20676718652248383,
				1.066201090812683,
				0.11418589949607849
			],
			"min":[
				-0.1855229288339615,
				0.49833983182907104,
				-0.15718404948711395
			],
			"type":"VEC3"
		},
		{
			"bufferView":176,
			"componentType":5126,
			"count":34171,
			"type":"VEC3"
		},
		{
			"bufferView":177,
			"componentType":5126,
			"count":34171,
			"type":"VEC2"
		},
		{
			"bufferView":178,
			"componentType":5121,
			"count":34171,
			"type":"VEC4"
		},
		{
			"bufferView":179,
			"componentType":5126,
			"count":34171,
			"type":"VEC4"
		},
		{
			"bufferView":180,
			"componentType":5123,
			"count":172629,
			"type":"SCALAR"
		},
		{
			"bufferView":181,
			"componentType":5126,
			"count":684,
			"max":[
				-0.06857826560735703,
				0.9165652990341187,
				0.10919089615345001
			],
			"min":[
				-0.0936037227511406,
				0.8931166529655457,
				0.09041010588407516
			],
			"type":"VEC3"
		},
		{
			"bufferView":182,
			"componentType":5126,
			"count":684,
			"type":"VEC3"
		},
		{
			"bufferView":183,
			"componentType":5126,
			"count":684,
			"type":"VEC2"
		},
		{
			"bufferView":184,
			"componentType":5121,
			"count":684,
			"type":"VEC4"
		},
		{
			"bufferView":185,
			"componentType":5126,
			"count":684,
			"type":"VEC4"
		},
		{
			"bufferView":186,
			"componentType":5123,
			"count":2742,
			"type":"SCALAR"
		},
		{
			"bufferView":187,
			"componentType":5126,
			"count":6830,
			"max":[
				0.00531263742595911,
				0.9263461232185364,
				0.11449392884969711
			],
			"min":[
				-0.20482571423053741,
				0.877711296081543,
				-0.14096234738826752
			],
			"type":"VEC3"
		},
		{
			"bufferView":188,
			"componentType":5126,
			"count":6830,
			"type":"VEC3"
		},
		{
			"bufferView":189,
			"componentType":5126,
			"count":6830,
			"type":"VEC2"
		},
		{
			"bufferView":190,
			"componentType":5121,
			"count":6830,
			"type":"VEC4"
		},
		{
			"bufferView":191,
			"componentType":5126,
			"count":6830,
			"type":"VEC4"
		},
		{
			"bufferView":192,
			"componentType":5123,
			"count":33462,
			"type":"SCALAR"
		},
		{
			"bufferView":193,
			"componentType":5126,
			"count":89987,
			"max":[
				0.4531446397304535,
				1.5832501649856567,
				0.16249984502792358
			],
			"min":[
				-0.006633846089243889,
				1.2742938995361328,
				-0.16537432372570038
			],
			"type":"VEC3"
		},
		{
			"bufferView":194,
			"componentType":5126,
			"count":89987,
			"type":"VEC3"
		},
		{
			"bufferView":195,
			"componentType":5126,
			"count":89987,
			"type":"VEC2"
		},
		{
			"bufferView":196,
			"componentType":5121,
			"count":89987,
			"type":"VEC4"
		},
		{
			"bufferView":197,
			"componentType":5126,
			"count":89987,
			"type":"VEC4"
		},
		{
			"bufferView":198,
			"componentType":5125,
			"count":229707,
			"type":"SCALAR"
		}
	],
	"bufferViews":[
		{
			"buffer":0,
			"byteLength":120108,
			"byteOffset":0,
			"target":34962
		},
		{
			"buffer":0,
			"byteLength":120108,
			"byteOffset":120108,
			"target":34962
		},
		{
			"buffer":0,
			"byteLength":80072,
			"byteOffset":240216,
			"target":34962
		},
		{
			"buffer":0,
			"byteLength":40036,
			"byteOffset":320288,
			"target":34962
		},
		{
			"buffer":0,
			"byteLength":160144,
			"byteOffset":360324,
			"target":34962
		},
		{
			"buffer":0,
			"byteLength":101520,
			"byteOffset":520468,
			"target":34963
		},
		{
			"buffer":0,
			"byteLength":4480,
			"byteOffset":621988
		},
		{
			"buffer":0,
			"byteLength":294996,
			"byteOffset":626468,
			"target":34962
		},
		{
			"buffer":0,
			"byteLength":294996,
			"byteOffset":921464,
			"target":34962
		},
		{
			"buffer":0,
			"byteLength":196664,
			"byteOffset":1216460,
			"target":34962
		},
		{
			"buffer":0,
			"byteLength":98332,
			"byteOffset":1413124,
			"target":34962
		},
		{
			"buffer":0,
			"byteLength":393328,
			"byteOffset":1511456,
			"target":34962
		},
		{
			"buffer":0,
			"byteLength":235176,
			"byteOffset":1904784,
			"target":34963
		},
		{
			"buffer":0,
			"byteLength":298260,
			"byteOffset":2139960,
			"target":34962
		},
		{
			"buffer":0,
			"byteLength":298260,
			"byteOffset":2438220,
			"target":34962
		},
		{
			"buffer":0,
			"byteLength":198840,
			"byteOffset":2736480,
			"target":34962
		},
		{
			"buffer":0,
			"byteLength":99420,
			"byteOffset":2935320,
			"target":34962
		},
		{
			"buffer":0,
			"byteLength":397680,
			"byteOffset":3034740,
			"target":34962
		},
		{
			"buffer":0,
			"byteLength":234444,
			"byteOffset":3432420,
			"target":34963
		},
		{
			"buffer":0,
			"byteLength":60768,
			"byteOffset":3666864,
			"target":34962
		},
		{
			"buffer":0,
			"byteLength":60768,
			"byteOffset":3727632,
			"target":34962
		},
		{
			"buffer":0,
			"byteLength":40512,
			"byteOffset":3788400,
			"target":34962
		},
		{
			"buffer":0,
			"byteLength":20256,
			"byteOffset":3828912,
			"target":34962
		},
		{
			"buffer":0,
			"byteLength":81024,
			"byteOffset":3849168,
			"target":34962
		},
		{
			"buffer":0,
			"byteLength":54036,
			"byteOffset":3930192,
			"target":34963
		},
		{
			"buffer":0,
			"byteLength":40656,
			"byteOffset":3984228,
			"target":34962
		},
		{
			"buffer":0,
			"byteLength":40656,
			"byteOffset":4024884,
			"target":34962
		},
		{
			"buffer":0,
			"byteLength":27104,
			"byteOffset":4065540,
			"target":34962
		},
		{
			"buffer":0,
			"byteLength":13552,
			"byteOffset":4092644,
			"target":34962
		},
		{
			"buffer":0,
			"byteLength":54208,
			"byteOffset":4106196,
			"target":34962
		},
		{
			"buffer":0,
			"byteLength":20736,
			"byteOffset":4160404,
			"target":34963
		},
		{
			"buffer":0,
			"byteLength":60516,
			"byteOffset":4181140,
			"target":34962
		},
		{
			"buffer":0,
			"byteLength":60516,
			"byteOffset":4241656,
			"target":34962
		},
		{
			"buffer":0,
			"byteLength":40344,
			"byteOffset":4302172,
			"target":34962
		},
		{
			"buffer":0,
			"byteLength":20172,
			"byteOffset":4342516,
			"target":34962
		},
		{
			"buffer":0,
			"byteLength":80688,
			"byteOffset":4362688,
			"target":34962
		},
		{
			"buffer":0,
			"byteLength":46764,
			"byteOffset":4443376,
			"target":34963
		},
		{
			"buffer":0,
			"byteLength":56652,
			"byteOffset":4490140,
			"target":34962
		},
		{
			"buffer":0,
			"byteLength":56652,
			"byteOffset":4546792,
			"target":34962
		},
		{
			"buffer":0,
			"byteLength":37768,
			"byteOffset":4603444,
			"target":34962
		},
		{
			"buffer":0,
			"byteLength":18884,
			"byteOffset":4641212,
			"target":34962
		},
		{
			"buffer":0,
			"byteLength":75536,
			"byteOffset":4660096,
			"target":34962
		},
		{
			"buffer":0,
			"byteLength":51684,
			"byteOffset":4735632,
			"target":34963
		},
		{
			"buffer":0,
			"byteLength":34632,
			"byteOffset":4787316,
			"target":34962
		},
		{
			"buffer":0,
			"byteLength":34632,
			"byteOffset":4821948,
			"target":34962
		},
		{
			"buffer":0,
			"byteLength":23088,
			"byteOffset":4856580,
			"target":34962
		},
		{
			"buffer":0,
			"byteLength":11544,
			"byteOffset":4879668,
			"target":34962
		},
		{
			"buffer":0,
			"byteLength":46176,
			"byteOffset":4891212,
			"target":34962
		},
		{
			"buffer":0,
			"byteLength":18432,
			"byteOffset":4937388,
			"target":34963
		},
		{
			"buffer":0,
			"byteLength":50568,
			"byteOffset":4955820,
			"target":34962
		},
		{
			"buffer":0,
			"byteLength":50568,
			"byteOffset":5006388,
			"target":34962
		},
		{
			"buffer":0,
			"byteLength":33712,
			"byteOffset":5056956,
			"target":34962
		},
		{
			"buffer":0,
			"byteLength":16856,
			"byteOffset":5090668,
			"target":34962
		},
		{
			"buffer":0,
			"byteLength":67424,
			"byteOffset":5107524,
			"target":34962
		},
		{
			"buffer":0,
			"byteLength":42528,
			"byteOffset":5174948,
			"target":34963
		},
		{
			"buffer":0,
			"byteLength":8400,
			"byteOffset":5217476,
			"target":34962
		},
		{
			"buffer":0,
			"byteLength":8400,
			"byteOffset":5225876,
			"target":34962
		},
		{
			"buffer":0,
			"byteLength":5600,
			"byteOffset":5234276,
			"target":34962
		},
		{
			"buffer":0,
			"byteLength":2800,
			"byteOffset":5239876,
			"target":34962
		},
		{
			"buffer":0,
			"byteLength":11200,
			"byteOffset":5242676,
			"target":34962
		},
		{
			"buffer":0,
			"byteLength":6348,
			"byteOffset":5253876,
			"target":34963
		},
		{
			"buffer":0,
			"byteLength":150396,
			"byteOffset":5260224,
			"target":34962
		},
		{
			"buffer":0,
			"byteLength":150396,
			"byteOffset":5410620,
			"target":34962
		},
		{
			"buffer":0,
			"byteLength":100264,
			"byteOffset":5561016,
			"target":34962
		},
		{
			"buffer":0,
			"byteLength":50132,
			"byteOffset":5661280,
			"target":34962
		},
		{
			"buffer":0,
			"byteLength":200528,
			"byteOffset":5711412,
			"target":34962
		},
		{
			"buffer":0,
			"byteLength":79494,
			"byteOffset":5911940,
			"target":34963
		},
		{
			"buffer":0,
			"byteLength":119100,
			"byteOffset":5991436,
			"target":34962
		},
		{
			"buffer":0,
			"byteLength":119100,
			"byteOffset":6110536,
			"target":34962
		},
		{
			"buffer":0,
			"byteLength":79400,
			"byteOffset":6229636,
			"target":34962
		},
		{
			"buffer":0,
			"byteLength":39700,
			"byteOffset":6309036,
			"target":34962
		},
		{
			"buffer":0,
			"byteLength":158800,
			"byteOffset":6348736,
			"target":34962
		},
		{
			"buffer":0,
			"byteLength":50736,
			"byteOffset":6507536,
			"target":34963
		},
		{
			"buffer":0,
			"byteLength":318240,
			"byteOffset":6558272,
			"target":34962
		},
		{
			"buffer":0,
			"byteLength":318240,
			"byteOffset":6876512,
			"target":34962
		},
		{
			"buffer":0,
			"byteLength":212160,
			"byteOffset":7194752,
			"target":34962
		},
		{
			"buffer":0,
			"byteLength":106080,
			"byteOffset":7406912,
			"target":34962
		},
		{
			"buffer":0,
			"byteLength":424320,
			"byteOffset":7512992,
			"target":34962
		},
		{
			"buffer":0,
			"byteLength":271632,
			"byteOffset":7937312,
			"target":34963
		},
		{
			"buffer":0,
			"byteLength":182112,
			"byteOffset":8208944,
			"target":34962
		},
		{
			"buffer":0,
			"byteLength":182112,
			"byteOffset":8391056,
			"target":34962
		},
		{
			"buffer":0,
			"byteLength":121408,
			"byteOffset":8573168,
			"target":34962
		},
		{
			"buffer":0,
			"byteLength":60704,
			"byteOffset":8694576,
			"target":34962
		},
		{
			"buffer":0,
			"byteLength":242816,
			"byteOffset":8755280,
			"target":34962
		},
		{
			"buffer":0,
			"byteLength":132828,
			"byteOffset":8998096,
			"target":34963
		},
		{
			"buffer":0,
			"byteLength":79884,
			"byteOffset":9130924,
			"target":34962
		},
		{
			"buffer":0,
			"byteLength":79884,
			"byteOffset":9210808,
			"target":34962
		},
		{
			"buffer":0,
			"byteLength":53256,
			"byteOffset":9290692,
			"target":34962
		},
		{
			"buffer":0,
			"byteLength":26628,
			"byteOffset":9343948,
			"target":34962
		},
		{
			"buffer":0,
			"byteLength":106512,
			"byteOffset":9370576,
			"target":34962
		},
		{
			"buffer":0,
			"byteLength":65712,
			"byteOffset":9477088,
			"target":34963
		},
		{
			"buffer":0,
			"byteLength":77880,
			"byteOffset":9542800,
			"target":34962
		},
		{
			"buffer":0,
			"byteLength":77880,
			"byteOffset":9620680,
			"target":34962
		},
		{
			"buffer":0,
			"byteLength":51920,
			"byteOffset":9698560,
			"target":34962
		},
		{
			"buffer":0,
			"byteLength":25960,
			"byteOffset":9750480,
			"target":34962
		},
		{
			"buffer":0,
			"byteLength":103840,
			"byteOffset":9776440,
			"target":34962
		},
		{
			"buffer":0,
			"byteLength":65496,
			"byteOffset":9880280,
			"target":34963
		},
		{
			"buffer":0,
			"byteLength":241968,
			"byteOffset":9945776,
			"target":34962
		},
		{
			"buffer":0,
			"byteLength":241968,
			"byteOffset":10187744,
			"target":34962
		},
		{
			"buffer":0,
			"byteLength":161312,
			"byteOffset":10429712,
			"target":34962
		},
		{
			"buffer":0,
			"byteLength":80656,
			"byteOffset":10591024,
			"target":34962
		},
		{
			"buffer":0,
			"byteLength":322624,
			"byteOffset":10671680,
			"target":34962
		},
		{
			"buffer":0,
			"byteLength":241920,
			"byteOffset":10994304,
			"target":34963
		},
		{
			"buffer":0,
			"byteLength":176724,
			"byteOffset":11236224,
			"target":34962
		},
		{
			"buffer":0,
			"byteLength":176724,
			"byteOffset":11412948,
			"target":34962
		},
		{
			"buffer":0,
			"byteLength":117816,
			"byteOffset":11589672,
			"target":34962
		},
		{
			"buffer":0,
			"byteLength":58908,
			"byteOffset":11707488,
			"target":34962
		},
		{
			"buffer":0,
			"byteLength":235632,
			"byteOffset":11766396,
			"target":34962
		},
		{
			"buffer":0,
			"byteLength":106482,
			"byteOffset":12002028,
			"target":34963
		},
		{
			"buffer":0,
			"byteLength":140016,
			"byteOffset":12108512,
			"target":34962
		},
		{
			"buffer":0,
			"byteLength":140016,
			"byteOffset":12248528,
			"target":34962
		},
		{
			"buffer":0,
			"byteLength":93344,
			"byteOffset":12388544,
			"target":34962
		},
		{
			"buffer":0,
			"byteLength":46672,
			"byteOffset":12481888,
			"target":34962
		},
		{
			"buffer":0,
			"byteLength":186688,
			"byteOffset":12528560,
			"target":34962
		},
		{
			"buffer":0,
			"byteLength":91362,
			"byteOffset":12715248,
			"target":34963
		},
		{
			"buffer":0,
			"byteLength":143100,
			"byteOffset":12806612,
			"target":34962
		},
		{
			"buffer":0,
			"byteLength":143100,
			"byteOffset":12949712,
			"target":34962
		},
		{
			"buffer":0,
			"byteLength":95400,
			"byteOffset":13092812,
			"target":34962
		},
		{
			"buffer":0,
			"byteLength":47700,
			"byteOffset":13188212,
			"target":34962
		},
		{
			"buffer":0,
			"byteLength":190800,
			"byteOffset":13235912,
			"target":34962
		},
		{
			"buffer":0,
			"byteLength":53160,
			"byteOffset":13426712,
			"target":34963
		},
		{
			"buffer":0,
			"byteLength":13272,
			"byteOffset":13479872,
			"target":34962
		},
		{
			"buffer":0,
			"byteLength":13272,
			"byteOffset":13493144,
			"target":34962
		},
		{
			"buffer":0,
			"byteLength":8848,
			"byteOffset":13506416,
			"target":34962
		},
		{
			"buffer":0,
			"byteLength":4424,
			"byteOffset":13515264,
			"target":34962
		},
		{
			"buffer":0,
			"byteLength":17696,
			"byteOffset":13519688,
			"target":34962
		},
		{
			"buffer":0,
			"byteLength":5952,
			"byteOffset":13537384,
			"target":34963
		},
		{
			"buffer":0,
			"byteLength":96852,
			"byteOffset":13543336,
			"target":34962
		},
		{
			"buffer":0,
			"byteLength":96852,
			"byteOffset":13640188,
			"target":34962
		},
		{
			"buffer":0,
			"byteLength":64568,
			"byteOffset":13737040,
			"target":34962
		},
		{
			"buffer":0,
			"byteLength":32284,
			"byteOffset":13801608,
			"target":34962
		},
		{
			"buffer":0,
			"byteLength":129136,
			"byteOffset":13833892,
			"target":34962
		},
		{
			"buffer":0,
			"byteLength":57852,
			"byteOffset":13963028,
			"target":34963
		},
		{
			"buffer":0,
			"byteLength":213744,
			"byteOffset":14020880,
			"target":34962
		},
		{
			"buffer":0,
			"byteLength":213744,
			"byteOffset":14234624,
			"target":34962
		},
		{
			"buffer":0,
			"byteLength":142496,
			"byteOffset":14448368,
			"target":34962
		},
		{
			"buffer":0,
			"byteLength":71248,
			"byteOffset":14590864,
			"target":34962
		},
		{
			"buffer":0,
			"byteLength":284992,
			"byteOffset":14662112,
			"target":34962
		},
		{
			"buffer":0,
			"byteLength":115176,
			"byteOffset":14947104,
			"target":34963
		},
		{
			"buffer":0,
			"byteLength":152244,
			"byteOffset":15062280,
			"target":34962
		},
		{
			"buffer":0,
			"byteLength":152244,
			"byteOffset":15214524,
			"target":34962
		},
		{
			"buffer":0,
			"byteLength":101496,
			"byteOffset":15366768,
			"target":34962
		},
		{
			"buffer":0,
			"byteLength":50748,
			"byteOffset":15468264,
			"target":34962
		},
		{
			"buffer":0,
			"byteLength":202992,
			"byteOffset":15519012,
			"target":34962
		},
		{
			"buffer":0,
			"byteLength":80262,
			"byteOffset":15722004,
			"target":34963
		},
		{
			"buffer":0,
			"byteLength":135204,
			"byteOffset":15802268,
			"target":34962
		},
		{
			"buffer":0,
			"byteLength":135204,
			"byteOffset":15937472,
			"target":34962
		},
		{
			"buffer":0,
			"byteLength":90136,
			"byteOffset":16072676,
			"target":34962
		},
		{
			"buffer":0,
			"byteLength":45068,
			"byteOffset":16162812,
			"target":34962
		},
		{
			"buffer":0,
			"byteLength":180272,
			"byteOffset":16207880,
			"target":34962
		},
		{
			"buffer":0,
			"byteLength":90696,
			"byteOffset":16388152,
			"target":34963
		},
		{
			"buffer":0,
			"byteLength":122796,
			"byteOffset":16478848,
			"target":34962
		},
		{
			"buffer":0,
			"byteLength":122796,
			"byteOffset":16601644,
			"target":34962
		},
		{
			"buffer":0,
			"byteLength":81864,
			"byteOffset":16724440,
			"target":34962
		},
		{
			"buffer":0,
			"byteLength":40932,
			"byteOffset":16806304,
			"target":34962
		},
		{
			"buffer":0,
			"byteLength":163728,
			"byteOffset":16847236,
			"target":34962
		},
		{
			"buffer":0,
			"byteLength":78612,
			"byteOffset":17010964,
			"target":34963
		},
		{
			"buffer":0,
			"byteLength":111048,
			"byteOffset":17089576,
			"target":34962
		},
		{
			"buffer":0,
			"byteLength":111048,
			"byteOffset":17200624,
			"target":34962
		},
		{
			"buffer":0,
			"byteLength":74032,
			"byteOffset":17311672,
			"target":34962
		},
		{
			"buffer":0,
			"byteLength":37016,
			"byteOffset":17385704,
			"target":34962
		},
		{
			"buffer":0,
			"byteLength":148064,
			"byteOffset":17422720,
			"target":34962
		},
		{
			"buffer":0,
			"byteLength":68436,
			"byteOffset":17570784,
			"target":34963
		},
		{
			"buffer":0,
			"byteLength":79032,
			"byteOffset":17639220,
			"target":34962
		},
		{
			"buffer":0,
			"byteLength":79032,
			"byteOffset":17718252,
			"target":34962
		},
		{
			"buffer":0,
			"byteLength":52688,
			"byteOffset":17797284,
			"target":34962
		},
		{
			"buffer":0,
			"byteLength":26344,
			"byteOffset":17849972,
			"target":34962
		},
		{
			"buffer":0,
			"byteLength":105376,
			"byteOffset":17876316,
			"target":34962
		},
		{
			"buffer":0,
			"byteLength":58488,
			"byteOffset":17981692,
			"target":34963
		},
		{
			"buffer":0,
			"byteLength":18048,
			"byteOffset":18040180,
			"target":34962
		},
		{
			"buffer":0,
			"byteLength":18048,
			"byteOffset":18058228,
			"target":34962
		},
		{
			"buffer":0,
			"byteLength":12032,
			"byteOffset":18076276,
			"target":34962
		},
		{
			"buffer":0,
			"byteLength":6016,
			"byteOffset":18088308,
			"target":34962
		},
		{
			"buffer":0,
			"byteLength":24064,
			"byteOffset":18094324,
			"target":34962
		},
		{
			"buffer":0,
			"byteLength":13824,
			"byteOffset":18118388,
			"target":34963
		},
		{
			"buffer":0,
			"byteLength":410052,
			"byteOffset":18132212,
			"target":34962
		},
		{
			"buffer":0,
			"byteLength":410052,
			"byteOffset":18542264,
			"target":34962
		},
		{
			"buffer":0,
			"byteLength":273368,
			"byteOffset":18952316,
			"target":34962
		},
		{
			"buffer":0,
			"byteLength":136684,
			"byteOffset":19225684,
			"target":34962
		},
		{
			"buffer":0,
			"byteLength":546736,
			"byteOffset":19362368,
			"target":34962
		},
		{
			"buffer":0,
			"byteLength":345258,
			"byteOffset":19909104,
			"target":34963
		},
		{
			"buffer":0,
			"byteLength":8208,
			"byteOffset":20254364,
			"target":34962
		},
		{
			"buffer":0,
			"byteLength":8208,
			"byteOffset":20262572,
			"target":34962
		},
		{
			"buffer":0,
			"byteLength":5472,
			"byteOffset":20270780,
			"target":34962
		},
		{
			"buffer":0,
			"byteLength":2736,
			"byteOffset":20276252,
			"target":34962
		},
		{
			"buffer":0,
			"byteLength":10944,
			"byteOffset":20278988,
			"target":34962
		},
		{
			"buffer":0,
			"byteLength":5484,
			"byteOffset":20289932,
			"target":34963
		},
		{
			"buffer":0,
			"byteLength":81960,
			"byteOffset":20295416,
			"target":34962
		},
		{
			"buffer":0,
			"byteLength":81960,
			"byteOffset":20377376,
			"target":34962
		},
		{
			"buffer":0,
			"byteLength":54640,
			"byteOffset":20459336,
			"target":34962
		},
		{
			"buffer":0,
			"byteLength":27320,
			"byteOffset":20513976,
			"target":34962
		},
		{
			"buffer":0,
			"byteLength":109280,
			"byteOffset":20541296,
			"target":34962
		},
		{
			"buffer":0,
			"byteLength":66924,
			"byteOffset":20650576,
			"target":34963
		},
		{
			"buffer":0,
			"byteLength":1079844,
			"byteOffset":20717500,
			"target":34962
		},
		{
			"buffer":0,
			"byteLength":1079844,
			"byteOffset":21797344,
			"target":34962
		},
		{
			"buffer":0,
			"byteLength":719896,
			"byteOffset":22877188,
			"target":34962
		},
		{
			"buffer":0,
			"byteLength":359948,
			"byteOffset":23597084,
			"target":34962
		},
		{
			"buffer":0,
			"byteLength":1439792,
			"byteOffset":23957032,
			"target":34962
		},
		{
			"buffer":0,
			"byteLength":918828,
			"byteOffset":25396824,
			"target":34963
		}
	],
	"samplers":[
		{
			"magFilter":9729,
			"minFilter":9987
		}
	],
	"buffers":[
		{
			"byteLength":26315652,
			"uri":"heroine_outfit_ranger.bin"
		}
	]
}
