{
	"asset":{
		"generator":"Khronos glTF Blender I/O v4.5.51",
		"version":"2.0"
	},
	"scene":0,
	"scenes":[
		{
			"name":"Scene",
			"nodes":[
				100
			]
		}
	],
	"nodes":[
		{
			"name":"Head",
			"rotation":[
				-0.11761949956417084,
				-2.2141905731132283e-07,
				-3.010525233548833e-06,
				0.9930587410926819
			],
			"translation":[
				6.661338147750939e-15,
				0.08259861171245575,
				1.1175870007207322e-08
			]
		},
		{
			"children":[
				0
			],
			"name":"neck_01",
			"rotation":[
				0.2231902927160263,
				-6.007262687290904e-09,
				3.88361840464313e-08,
				0.9747748970985413
			],
			"translation":[
				-4.440892098500626e-15,
				0.26398828625679016,
				1.862645149230957e-08
			]
		},
		{
			"name":"index_04_leaf_l",
			"rotation":[
				-5.704350769519806e-09,
				1,
				-4.7439248085368035e-09,
				3.5353004932403564e-06
			],
			"scale":[
				1,
				0.9999999403953552,
				1
			],
			"translation":[
				1.1874362826347351e-08,
				0.030100101605057716,
				-1.910957507789135e-07
			]
		},
		{
			"children":[
				2
			],
			"name":"index_03_l",
			"rotation":[
				0.012105108238756657,
				-4.237862185618724e-07,
				0.004006620962172747,
				0.9999186992645264
			],
			"scale":[
				0.9999999403953552,
				1,
				0.9999999403953552
			],
			"translation":[
				-6.51925802230835e-09,
				0.02818247862160206,
				1.2776581570506096e-08
			]
		},
		{
			"children":[
				3
			],
			"name":"index_02_l",
			"rotation":[
				0.10989626497030258,
				1.5561427346710843e-07,
				-0.030358633026480675,
				0.993479311466217
			],
			"scale":[
				1,
				0.9999998807907104,
				1
			],
			"translation":[
				7.450580596923828e-09,
				0.03089151158928871,
				8.792267180979252e-08
			]
		},
		{
			"children":[
				4
			],
			"name":"index_01_l",
			"rotation":[
				-0.00943039171397686,
				0.7070736885070801,
				0.003526271553710103,
				0.7070682048797607
			],
			"scale":[
				0.9999998211860657,
				0.9999998211860657,
				0.9999999403953552
			],
			"translation":[
				0.00601259246468544,
				0.1281808316707611,
				0.02604752779006958
			]
		},
		{
			"name":"middle_04_leaf_l",
			"rotation":[
				2.3283064365386963e-09,
				1,
				-9.546056389808655e-09,
				3.6526471376419067e-06
			],
			"translation":[
				7.450580596923828e-09,
				0.03443717584013939,
				8.195638656616211e-08
			]
		},
		{
			"children":[
				6
			],
			"name":"middle_03_l",
			"rotation":[
				0.0005137118278071284,
				-6.389206532730896e-07,
				0.010132299736142159,
				0.9999485611915588
			],
			"scale":[
				0.9999999403953552,
				1,
				1
			],
			"translation":[
				0,
				0.031105799600481987,
				3.306195139884949e-08
			]
		},
		{
			"children":[
				7
			],
			"name":"middle_02_l",
			"rotation":[
				0.11376678943634033,
				0.00017226197815034539,
				-0.04893263056874275,
				0.9923017621040344
			],
			"scale":[
				0.9999999403953552,
				1.0000001192092896,
				0.9999999403953552
			],
			"translation":[
				7.450580596923828e-09,
				0.03485651686787605,
				9.033828973770142e-08
			]
		},
		{
			"children":[
				8
			],
			"name":"middle_01_l",
			"rotation":[
				-0.007998891174793243,
				0.7071942090988159,
				0.001128928386606276,
				0.7069733142852783
			],
			"scale":[
				0.9999999403953552,
				0.9999999403953552,
				1
			],
			"translation":[
				2.1420419216156006e-07,
				0.12831149995326996,
				-2.421438694000244e-08
			]
		},
		{
			"name":"pinky_04_leaf_l",
			"rotation":[
				2.591405063867569e-07,
				1,
				7.42729810099263e-07,
				4.369881935417652e-06
			],
			"scale":[
				1,
				1,
				0.9999999403953552
			],
			"translation":[
				1.862645149230957e-09,
				0.02816423401236534,
				2.8870999813079834e-08
			]
		},
		{
			"children":[
				10
			],
			"name":"pinky_03_l",
			"rotation":[
				-0.017429951578378677,
				-1.0290284080838319e-05,
				0.004625735804438591,
				0.9998373985290527
			],
			"translation":[
				-1.0244548320770264e-08,
				0.02304605394601822,
				-3.3527612686157227e-08
			]
		},
		{
			"children":[
				11
			],
			"name":"pinky_02_l",
			"rotation":[
				-0.015049012377858162,
				1.2427484762156382e-05,
				-0.007742131594568491,
				0.9998568296432495
			],
			"scale":[
				0.9999999403953552,
				0.9999998211860657,
				0.9999999403953552
			],
			"translation":[
				1.3504177331924438e-08,
				0.02458452805876732,
				8.381903171539307e-08
			]
		},
		{
			"children":[
				12
			],
			"name":"pinky_01_l",
			"rotation":[
				-0.011546679772436619,
				0.6985994577407837,
				-0.13425475358963013,
				0.7027098536491394
			],
			"scale":[
				0.9999998807907104,
				1.0000001192092896,
				1
			],
			"translation":[
				-0.003249170258641243,
				0.11280001699924469,
				-0.04492819309234619
			]
		},
		{
			"name":"ring_04_leaf_l",
			"rotation":[
				1.8626449271863521e-09,
				1,
				5.592592060565948e-07,
				4.133180482313037e-06
			],
			"scale":[
				1,
				0.9999999403953552,
				1
			],
			"translation":[
				-5.122274160385132e-09,
				0.03182276710867882,
				-1.6763806343078613e-07
			]
		},
		{
			"children":[
				14
			],
			"name":"ring_03_l",
			"rotation":[
				-0.034807611256837845,
				3.8098620279924944e-05,
				-0.011716693639755249,
				0.9993253946304321
			],
			"scale":[
				1,
				1.0000001192092896,
				0.9999999403953552
			],
			"translation":[
				-1.30385160446167e-08,
				0.027127576991915703,
				2.514570951461792e-08
			]
		},
		{
			"children":[
				15
			],
			"name":"ring_02_l",
			"rotation":[
				0.12512251734733582,
				8.260376489488408e-07,
				-0.04683397710323334,
				0.9910353422164917
			],
			"scale":[
				1,
				0.9999999403953552,
				0.9999999403953552
			],
			"translation":[
				7.450580596923828e-09,
				0.030405884608626366,
				-5.774199962615967e-08
			]
		},
		{
			"children":[
				16
			],
			"name":"ring_01_l",
			"rotation":[
				-0.03600794076919556,
				0.7065655589103699,
				-0.023554200306534767,
				0.7063382863998413
			],
			"scale":[
				0.9999998807907104,
				0.9999998211860657,
				0.9999998211860657
			],
			"translation":[
				-0.0022219279780983925,
				0.12319976091384888,
				-0.023185059428215027
			]
		},
		{
			"name":"thumb_04_leaf_l",
			"rotation":[
				-8.666064132967222e-08,
				0.5061784386634827,
				-6.911253649377613e-07,
				0.8624287843704224
			],
			"scale":[
				0.9999999403953552,
				1,
				1
			],
			"translation":[
				2.0489096641540527e-08,
				0.04086242616176605,
				3.026798367500305e-08
			]
		},
		{
			"children":[
				18
			],
			"name":"thumb_03_l",
			"rotation":[
				0.038206856697797775,
				6.0704936913680285e-05,
				-0.003949312027543783,
				0.9992620348930359
			],
			"scale":[
				0.9999999403953552,
				1,
				1
			],
			"translation":[
				8.009374141693115e-08,
				0.030296513810753822,
				5.960464477539063e-08
			]
		},
		{
			"children":[
				19
			],
			"name":"thumb_02_l",
			"rotation":[
				0.08123720437288284,
				-6.545388168888167e-05,
				0.03416353464126587,
				0.996109127998352
			],
			"scale":[
				0.9999998807907104,
				0.9999998807907104,
				1
			],
			"translation":[
				-2.0954757928848267e-08,
				0.06359592080116272,
				-4.0978193283081055e-08
			]
		},
		{
			"children":[
				20
			],
			"name":"thumb_01_l",
			"rotation":[
				0.19879724085330963,
				0.9399301409721375,
				0.26572659611701965,
				0.08000247925519943
			],
			"scale":[
				1,
				1.0000004768371582,
				0.9999998807907104
			],
			"translation":[
				0.014041760936379433,
				0.033058807253837585,
				0.02252725511789322
			]
		},
		{
			"children":[
				5,
				9,
				13,
				17,
				21
			],
			"name":"hand_l",
			"rotation":[
				-0.031026145443320274,
				-0.00039722936344332993,
				-0.04603857174515724,
				0.998457670211792
			],
			"scale":[
				1,
				0.9999999403953552,
				0.9999999403953552
			],
			"translation":[
				-1.2479722499847412e-07,
				0.2155425101518631,
				-2.60770320892334e-08
			]
		},
		{
			"children":[
				22
			],
			"name":"lowerarm_l",
			"rotation":[
				0.08169202506542206,
				-0.002163646975532174,
				0.12474946677684784,
				0.9888171553611755
			],
			"scale":[
				0.9999999403953552,
				0.9999999403953552,
				0.9999998807907104
			],
			"translation":[
				-7.776543498039246e-08,
				0.2526191771030426,
				7.450580596923828e-09
			]
		},
		{
			"children":[
				23
			],
			"name":"upperarm_l",
			"rotation":[
				-0.309012770652771,
				0.7203134298324585,
				-0.09680739045143127,
				0.613423228263855
			],
			"scale":[
				0.9999998807907104,
				0.9999995827674866,
				0.9999998807907104
			],
			"translation":[
				-3.0573573894798756e-08,
				0.16089306771755219,
				-5.3085386753082275e-08
			]
		},
		{
			"children":[
				24
			],
			"name":"clavicle_l",
			"rotation":[
				-0.5739023685455322,
				-0.43809181451797485,
				-0.555611789226532,
				0.4123193919658661
			],
			"translation":[
				0.03674304485321045,
				0.20328763127326965,
				-0.020137686282396317
			]
		},
		{
			"name":"index_04_leaf_r",
			"rotation":[
				7.450580596923828e-08,
				-1,
				-7.455236641362717e-07,
				3.772787522393628e-06
			],
			"scale":[
				1,
				1,
				1.0000001192092896
			],
			"translation":[
				-4.470348358154297e-08,
				0.030100125819444656,
				2.6542693376541138e-08
			]
		},
		{
			"children":[
				26
			],
			"name":"index_03_r",
			"rotation":[
				-0.04849317669868469,
				-5.970544236788555e-08,
				-0.03197126463055611,
				0.9983116984367371
			],
			"translation":[
				-4.190951585769653e-09,
				0.025925416499376297,
				-4.2869942262768745e-08
			]
		},
		{
			"children":[
				27
			],
			"name":"index_02_r",
			"rotation":[
				0.053899090737104416,
				6.099721190366836e-07,
				0.0012244933750480413,
				0.9985456466674805
			],
			"translation":[
				1.2398231774568558e-08,
				0.025076476857066154,
				-6.292248144745827e-08
			]
		},
		{
			"children":[
				28
			],
			"name":"index_01_r",
			"rotation":[
				0.01883687824010849,
				-0.7063117623329163,
				0.04360330104827881,
				0.7063056230545044
			],
			"scale":[
				0.9999999403953552,
				1,
				1
			],
			"translation":[
				-0.007182867266237736,
				0.13896213471889496,
				0.022565681487321854
			]
		},
		{
			"name":"middle_04_leaf_r",
			"rotation":[
				1.0803342576082287e-07,
				-1,
				6.100162863731384e-08,
				3.6507842651190003e-06
			],
			"scale":[
				1,
				0.9999999403953552,
				1.0000001192092896
			],
			"translation":[
				-9.313225746154785e-09,
				0.034437306225299835,
				3.306195139884949e-08
			]
		},
		{
			"children":[
				30
			],
			"name":"middle_03_r",
			"rotation":[
				-0.01961713843047619,
				-2.2268040993367322e-05,
				0.01453420426696539,
				0.9997019171714783
			],
			"scale":[
				0.9999999403953552,
				1,
				0.9999999403953552
			],
			"translation":[
				-1.862645149230957e-09,
				0.0318969190120697,
				3.4924596548080444e-08
			]
		},
		{
			"children":[
				31
			],
			"name":"middle_02_r",
			"rotation":[
				0.012513923458755016,
				-1.849291038524825e-05,
				-0.014413032680749893,
				0.9998177886009216
			],
			"scale":[
				1.0000001192092896,
				1,
				1.0000001192092896
			],
			"translation":[
				-9.313225746154785e-09,
				0.02895512245595455,
				-1.4994293451309204e-07
			]
		},
		{
			"children":[
				32
			],
			"name":"middle_01_r",
			"rotation":[
				-0.0008581651491113007,
				-0.7037793397903442,
				0.08184970915317535,
				0.7056872844696045
			],
			"scale":[
				0.9999999403953552,
				0.9999998211860657,
				0.9999999403953552
			],
			"translation":[
				-8.66129994392395e-08,
				0.13515622913837433,
				1.862645149230957e-08
			]
		},
		{
			"name":"pinky_04_leaf_r",
			"rotation":[
				9.313225746154785e-10,
				-1,
				-2.7008359992919395e-08,
				3.77558171749115e-06
			],
			"scale":[
				1,
				0.9999997019767761,
				1
			],
			"translation":[
				-4.842877388000488e-08,
				0.02816421166062355,
				7.450580596923828e-09
			]
		},
		{
			"children":[
				34
			],
			"name":"pinky_03_r",
			"rotation":[
				-0.04854918271303177,
				2.9768805688945577e-05,
				0.00458739697933197,
				0.9988102912902832
			],
			"scale":[
				1,
				0.9999999403953552,
				0.9999998807907104
			],
			"translation":[
				-1.1175870895385742e-08,
				0.020910026505589485,
				-6.798654794692993e-08
			]
		},
		{
			"children":[
				35
			],
			"name":"pinky_02_r",
			"rotation":[
				0.014203323051333427,
				1.1767256182793062e-05,
				0.02742159552872181,
				0.9995230436325073
			],
			"scale":[
				1,
				0.9999999403953552,
				0.9999999403953552
			],
			"translation":[
				9.313225746154785e-10,
				0.02278725430369377,
				2.421438694000244e-08
			]
		},
		{
			"children":[
				36
			],
			"name":"pinky_01_r",
			"rotation":[
				-0.028429139405488968,
				-0.6997609734535217,
				0.12398549169301987,
				0.7029609084129333
			],
			"scale":[
				0.9999998807907104,
				0.9999998211860657,
				0.9999998807907104
			],
			"translation":[
				0.0014907028526067734,
				0.12021058797836304,
				-0.04615413397550583
			]
		},
		{
			"name":"ring_04_leaf_r",
			"rotation":[
				2.062879644881832e-07,
				-1,
				-7.338821887969971e-07,
				3.5339037367521087e-06
			],
			"scale":[
				0.9999999403953552,
				1,
				1
			],
			"translation":[
				3.725290298461914e-09,
				0.031822726130485535,
				-6.51925802230835e-09
			]
		},
		{
			"children":[
				38
			],
			"name":"ring_03_r",
			"rotation":[
				-0.01863565295934677,
				-1.9874332792824134e-05,
				-0.0043523130007088184,
				0.99981689453125
			],
			"scale":[
				1,
				0.9999998807907104,
				0.9999999403953552
			],
			"translation":[
				-1.1175870895385742e-08,
				0.027077876031398773,
				7.450580596923828e-08
			]
		},
		{
			"children":[
				39
			],
			"name":"ring_02_r",
			"rotation":[
				0.027483073994517326,
				-2.3664566128900333e-07,
				-0.00174393889028579,
				0.999620795249939
			],
			"scale":[
				1,
				0.9999999403953552,
				1
			],
			"translation":[
				-2.0489096641540527e-08,
				0.02871740236878395,
				6.984919309616089e-08
			]
		},
		{
			"children":[
				40
			],
			"name":"ring_01_r",
			"rotation":[
				-0.029861100018024445,
				-0.7029565572738647,
				0.09575458616018295,
				0.7041246891021729
			],
			"scale":[
				0.9999999403953552,
				1,
				0.9999999403953552
			],
			"translation":[
				0.001923925243318081,
				0.12688565254211426,
				-0.023495782166719437
			]
		},
		{
			"name":"thumb_04_leaf_r",
			"rotation":[
				7.370201160483703e-08,
				-0.5061777830123901,
				-4.751484894427449e-08,
				0.862429141998291
			],
			"translation":[
				2.60770320892334e-08,
				0.04086232930421829,
				-7.916241884231567e-08
			]
		},
		{
			"children":[
				42
			],
			"name":"thumb_03_r",
			"rotation":[
				0.010224630124866962,
				-9.307137952418998e-05,
				0.07255624979734421,
				0.9973118901252747
			],
			"translation":[
				2.7939677238464355e-09,
				0.02526702545583248,
				-3.725290298461914e-08
			]
		},
		{
			"children":[
				43
			],
			"name":"thumb_02_r",
			"rotation":[
				0.05516009032726288,
				7.162708061514422e-05,
				0.005940041970461607,
				0.9984598755836487
			],
			"scale":[
				1.0000001192092896,
				0.9999999403953552,
				0.9999999403953552
			],
			"translation":[
				-1.0617077350616455e-07,
				0.07067813724279404,
				7.450580596923828e-09
			]
		},
		{
			"children":[
				44
			],
			"name":"thumb_01_r",
			"rotation":[
				0.2504635453224182,
				-0.9378892183303833,
				-0.23243092000484467,
				0.06006409227848053
			],
			"scale":[
				0.9999999403953552,
				0.9999998807907104,
				1
			],
			"translation":[
				-0.006966069340705872,
				0.0337512381374836,
				0.024693407118320465
			]
		},
		{
			"children":[
				29,
				33,
				37,
				41,
				45
			],
			"name":"hand_r",
			"rotation":[
				-0.02897755242884159,
				0.0004170025058556348,
				0.04835359379649162,
				0.9984097480773926
			],
			"translation":[
				-2.4633482098579407e-07,
				0.21606512367725372,
				-5.21540641784668e-08
			]
		},
		{
			"children":[
				46
			],
			"name":"lowerarm_r",
			"rotation":[
				0.08376288414001465,
				0.002205439144745469,
				-0.12716363370418549,
				0.9883361458778381
			],
			"scale":[
				1,
				1,
				1.0000001192092896
			],
			"translation":[
				3.818422555923462e-08,
				0.25064903497695923,
				-3.725290298461914e-09
			]
		},
		{
			"children":[
				47
			],
			"name":"upperarm_r",
			"rotation":[
				-0.3119966387748718,
				-0.7200558185577393,
				0.09840615838766098,
				0.6119590997695923
			],
			"scale":[
				0.9999999403953552,
				0.9999999403953552,
				1
			],
			"translation":[
				1.2965756468474865e-08,
				0.1608930230140686,
				-5.21540641784668e-08
			]
		},
		{
			"children":[
				48
			],
			"name":"clavicle_r",
			"rotation":[
				-0.5739057064056396,
				0.43808916211128235,
				0.5556118488311768,
				0.41231730580329895
			],
			"scale":[
				0.9999998807907104,
				0.9999998211860657,
				0.9999998807907104
			],
			"translation":[
				-0.03674301505088806,
				0.20328809320926666,
				-0.020137496292591095
			]
		},
		{
			"name":"breast_l",
			"rotation":[
				0.8276686072349548,
				-6.548595621325148e-08,
				5.933883784337013e-08,
				0.5612172484397888
			],
			"scale":[
				1,
				0.9999999403953552,
				0.9999999403953552
			],
			"translation":[
				0.09149465709924698,
				0.02670389972627163,
				0.07059912383556366
			]
		},
		{
			"name":"breast_r",
			"rotation":[
				0.8276686668395996,
				-6.548590647525998e-08,
				5.933885560693852e-08,
				0.5612170696258545
			],
			"scale":[
				1,
				0.9999999403953552,
				1
			],
			"translation":[
				-0.08786919713020325,
				0.028753157705068588,
				0.07116828113794327
			]
		},
		{
			"children":[
				1,
				25,
				49,
				50,
				51
			],
			"name":"spine_03",
			"rotation":[
				-0.15560832619667053,
				-5.241359346541685e-09,
				-9.067619544111949e-09,
				0.9878188371658325
			],
			"scale":[
				1,
				0.9999999403953552,
				1
			],
			"translation":[
				-4.2782617726278005e-16,
				0.11817018687725067,
				-1.862645149230957e-09
			]
		},
		{
			"children":[
				52
			],
			"name":"spine_02",
			"rotation":[
				-0.018412182107567787,
				-6.344914282863101e-08,
				-3.766788658765563e-09,
				0.9998304843902588
			],
			"translation":[
				-1.571225788365993e-15,
				0.04734303057193756,
				7.2177499532699585e-09
			]
		},
		{
			"children":[
				53
			],
			"name":"spine_01",
			"rotation":[
				-0.16446825861930847,
				1.1722862325314054e-07,
				-2.4440698354055712e-08,
				0.9863823652267456
			],
			"translation":[
				1.24683249835833e-16,
				0.10225912183523178,
				1.1175870895385742e-08
			]
		},
		{
			"name":"ball_leaf_l",
			"rotation":[
				-3.359400579938665e-08,
				-6.461050361394882e-08,
				4.6566128730773926e-09,
				1
			],
			"translation":[
				-5.995389074087143e-09,
				0.07889994978904724,
				-4.394678398966789e-09
			]
		},
		{
			"children":[
				55
			],
			"name":"ball_l",
			"rotation":[
				0.017003396525979042,
				-0.9840686917304993,
				0.17689868807792664,
				0.005153439473360777
			],
			"scale":[
				0.9999999403953552,
				0.9999993443489075,
				1
			],
			"translation":[
				4.0745362639427185e-09,
				0.13257987797260284,
				4.190951585769653e-09
			]
		},
		{
			"children":[
				56
			],
			"name":"foot_l",
			"rotation":[
				-0.5259309411048889,
				-0.013976658694446087,
				-0.021548721939325333,
				0.8501393795013428
			],
			"scale":[
				0.9999999403953552,
				0.9999998807907104,
				0.9999998807907104
			],
			"translation":[
				9.677023626863956e-09,
				0.45252469182014465,
				4.132743924856186e-09
			]
		},
		{
			"children":[
				57
			],
			"name":"calf_l",
			"rotation":[
				0.038200005888938904,
				-0.00152471917681396,
				0.0380624383687973,
				0.9985437989234924
			],
			"scale":[
				1,
				1.0000001192092896,
				1
			],
			"translation":[
				-6.9776433520019054e-09,
				0.4935515522956848,
				8.675851859152317e-08
			]
		},
		{
			"children":[
				58
			],
			"name":"thigh_l",
			"rotation":[
				0.9831892251968384,
				0.02927211858332157,
				-0.0036092603113502264,
				0.18019181489944458
			],
			"scale":[
				1,
				1,
				1.0000011920928955
			],
			"translation":[
				0.07348603755235672,
				-0.030424252152442932,
				-0.013960655778646469
			]
		},
		{
			"name":"ball_leaf_r",
			"rotation":[
				5.609308573184535e-08,
				-6.711343303322792e-08,
				-4.656612873077393e-10,
				1
			],
			"translation":[
				-4.773028194904327e-09,
				0.07890014350414276,
				1.1059455573558807e-09
			]
		},
		{
			"children":[
				60
			],
			"name":"ball_r",
			"rotation":[
				0.017126688733696938,
				0.9840770363807678,
				-0.1768653392791748,
				0.004218255635350943
			],
			"scale":[
				1,
				0.9999999403953552,
				0.9999998807907104
			],
			"translation":[
				-5.704350769519806e-09,
				0.132900670170784,
				2.1187588572502136e-08
			]
		},
		{
			"children":[
				61
			],
			"name":"foot_r",
			"rotation":[
				-0.5289507508277893,
				0.013429847545921803,
				0.022409554570913315,
				0.8482503294944763
			],
			"scale":[
				0.9999999403953552,
				0.9999999403953552,
				0.9999999403953552
			],
			"translation":[
				6.170012056827545e-09,
				0.45272567868232727,
				1.5352270565927029e-09
			]
		},
		{
			"children":[
				62
			],
			"name":"calf_r",
			"rotation":[
				0.0408739298582077,
				0.0012973396806046367,
				-0.03902268037199974,
				0.9984011650085449
			],
			"scale":[
				0.9999999403953552,
				0.9999999403953552,
				1
			],
			"translation":[
				-7.254129741340876e-09,
				0.4935506582260132,
				9.569339454174042e-08
			]
		},
		{
			"children":[
				63
			],
			"name":"thigh_r",
			"rotation":[
				0.9831891655921936,
				-0.029272256419062614,
				0.0036091753281652927,
				0.18019215762615204
			],
			"scale":[
				0.9999999403953552,
				0.9999998807907104,
				0.999998927116394
			],
			"translation":[
				-0.07348602265119553,
				-0.030424252152442932,
				-0.013960659503936768
			]
		},
		{
			"name":"glute_l",
			"rotation":[
				-0.8960705399513245,
				-2.7964134119429218e-08,
				-2.3932640758062007e-08,
				0.44391173124313354
			],
			"scale":[
				1,
				0.9999999403953552,
				0.9999998807907104
			],
			"translation":[
				0.08805271238088608,
				-0.08445273339748383,
				-0.03423186019062996
			]
		},
		{
			"name":"glute_r",
			"rotation":[
				-0.8960707187652588,
				-2.7964123461288182e-08,
				-2.3932656745273562e-08,
				0.4439113140106201
			],
			"scale":[
				1,
				1.0000001192092896,
				1.0000001192092896
			],
			"translation":[
				-0.07445123046636581,
				-0.08491348475217819,
				-0.033823803067207336
			]
		},
		{
			"children":[
				54,
				59,
				64,
				65,
				66
			],
			"name":"pelvis",
			"rotation":[
				0.8221108913421631,
				8.480421698209284e-09,
				1.2252897363396187e-08,
				0.5693274140357971
			],
			"scale":[
				1,
				0.9999999403953552,
				0.9999998807907104
			],
			"translation":[
				2.2872988225675073e-12,
				4.172325134277344e-07,
				1.0722957849502563
			]
		},
		{
			"children":[
				67
			],
			"name":"root",
			"rotation":[
				-0.7071067690849304,
				0,
				0,
				0.7071067690849304
			]
		},
		{
			"mesh":0,
			"name":"arcanist.boot_l",
			"skin":0
		},
		{
			"mesh":1,
			"name":"arcanist.boot_l_bind",
			"skin":0
		},
		{
			"mesh":2,
			"name":"arcanist.boot_r",
			"skin":0
		},
		{
			"mesh":3,
			"name":"arcanist.boot_r_bind",
			"skin":0
		},
		{
			"mesh":4,
			"name":"arcanist.choker",
			"skin":0
		},
		{
			"mesh":5,
			"name":"arcanist.corset",
			"skin":0
		},
		{
			"mesh":6,
			"name":"arcanist.corset_bind",
			"skin":0
		},
		{
			"mesh":7,
			"name":"arcanist.corset_bind24",
			"skin":0
		},
		{
			"mesh":8,
			"name":"arcanist.corset_bind25",
			"skin":0
		},
		{
			"mesh":9,
			"name":"arcanist.corset_bind35",
			"skin":0
		},
		{
			"mesh":10,
			"name":"arcanist.cuff_l",
			"skin":0
		},
		{
			"mesh":11,
			"name":"arcanist.cuff_l_bind",
			"skin":0
		},
		{
			"mesh":12,
			"name":"arcanist.cuff_l_bind1",
			"skin":0
		},
		{
			"mesh":13,
			"name":"arcanist.cuff_r",
			"skin":0
		},
		{
			"mesh":14,
			"name":"arcanist.cuff_r_bind",
			"skin":0
		},
		{
			"mesh":15,
			"name":"arcanist.cuff_r_bind1",
			"skin":0
		},
		{
			"mesh":16,
			"name":"arcanist.glove_l",
			"skin":0
		},
		{
			"mesh":17,
			"name":"arcanist.glove_r",
			"skin":0
		},
		{
			"mesh":18,
			"name":"arcanist.glove_r_bind",
			"skin":0
		},
		{
			"mesh":19,
			"name":"arcanist.hat_band",
			"skin":0
		},
		{
			"mesh":20,
			"name":"arcanist.hat_brim",
			"skin":0
		},
		{
			"mesh":21,
			"name":"arcanist.hat_cap",
			"skin":0
		},
		{
			"mesh":22,
			"name":"arcanist.hat_crown",
			"skin":0
		},
		{
			"mesh":23,
			"name":"arcanist.lace_l",
			"skin":0
		},
		{
			"mesh":24,
			"name":"arcanist.lace_l_trim",
			"skin":0
		},
		{
			"mesh":25,
			"name":"arcanist.lace_r",
			"skin":0
		},
		{
			"mesh":26,
			"name":"arcanist.lace_r_trim",
			"skin":0
		},
		{
			"mesh":27,
			"name":"arcanist.stocking_l",
			"skin":0
		},
		{
			"mesh":28,
			"name":"arcanist.stocking_r",
			"skin":0
		},
		{
			"mesh":29,
			"name":"arcanist.thong",
			"skin":0
		},
		{
			"mesh":30,
			"name":"arcanist.thong_trim",
			"skin":0
		},
		{
			"children":[
				69,
				70,
				71,
				72,
				73,
				74,
				75,
				76,
				77,
				78,
				79,
				80,
				81,
				82,
				83,
				84,
				85,
				86,
				87,
				88,
				89,
				90,
				91,
				92,
				93,
				94,
				95,
				96,
				97,
				98,
				99,
				68
			],
			"name":"Armature"
		}
	],
	"materials":[
		{
			"doubleSided":true,
			"name":"blackleather",
			"normalTexture":{
				"index":0
			},
			"pbrMetallicRoughness":{
				"baseColorTexture":{
					"index":1
				},
				"metallicFactor":0,
				"metallicRoughnessTexture":{
					"index":2
				}
			}
		},
		{
			"doubleSided":true,
			"name":"darkpurple",
			"normalTexture":{
				"index":3
			},
			"pbrMetallicRoughness":{
				"baseColorTexture":{
					"index":4
				},
				"metallicFactor":0,
				"roughnessFactor":0.3499999940395355
			}
		},
		{
			"doubleSided":true,
			"name":"plumleather",
			"normalTexture":{
				"index":5
			},
			"pbrMetallicRoughness":{
				"baseColorTexture":{
					"index":6
				},
				"metallicFactor":0,
				"metallicRoughnessTexture":{
					"index":7
				}
			}
		},
		{
			"doubleSided":true,
			"name":"satin",
			"normalTexture":{
				"index":8
			},
			"pbrMetallicRoughness":{
				"baseColorTexture":{
					"index":9
				},
				"metallicRoughnessTexture":{
					"index":10
				},
				"roughnessFactor":0.30000001192092896
			}
		},
		{
			"alphaMode":"BLEND",
			"doubleSided":true,
			"name":"stocking",
			"normalTexture":{
				"index":11
			},
			"pbrMetallicRoughness":{
				"baseColorFactor":[
					1,
					1,
					1,
					0.41999998688697815
				],
				"baseColorTexture":{
					"index":12
				},
				"metallicRoughnessTexture":{
					"index":13
				},
				"roughnessFactor":0.44999998807907104
			}
		}
	],
	"meshes":[
		{
			"name":"arcanist.boot_l",
			"primitives":[
				{
					"attributes":{
						"POSITION":0,
						"NORMAL":1,
						"TEXCOORD_0":2,
						"JOINTS_0":3,
						"WEIGHTS_0":4
					},
					"indices":5,
					"material":0
				}
			]
		},
		{
			"name":"arcanist.boot_l_bind",
			"primitives":[
				{
					"attributes":{
						"POSITION":7,
						"NORMAL":8,
						"TEXCOORD_0":9,
						"JOINTS_0":10,
						"WEIGHTS_0":11
					},
					"indices":12,
					"material":1
				}
			]
		},
		{
			"name":"arcanist.boot_r",
			"primitives":[
				{
					"attributes":{
						"POSITION":13,
						"NORMAL":14,
						"TEXCOORD_0":15,
						"JOINTS_0":16,
						"WEIGHTS_0":17
					},
					"indices":18,
					"material":0
				}
			]
		},
		{
			"name":"arcanist.boot_r_bind",
			"primitives":[
				{
					"attributes":{
						"POSITION":19,
						"NORMAL":20,
						"TEXCOORD_0":21,
						"JOINTS_0":22,
						"WEIGHTS_0":23
					},
					"indices":24,
					"material":1
				}
			]
		},
		{
			"name":"arcanist.choker",
			"primitives":[
				{
					"attributes":{
						"POSITION":25,
						"NORMAL":26,
						"TEXCOORD_0":27,
						"JOINTS_0":28,
						"WEIGHTS_0":29
					},
					"indices":30,
					"material":0
				}
			]
		},
		{
			"name":"arcanist.corset",
			"primitives":[
				{
					"attributes":{
						"POSITION":31,
						"NORMAL":32,
						"TEXCOORD_0":33,
						"JOINTS_0":34,
						"WEIGHTS_0":35
					},
					"indices":36,
					"material":2
				}
			]
		},
		{
			"name":"arcanist.corset_bind",
			"primitives":[
				{
					"attributes":{
						"POSITION":37,
						"NORMAL":38,
						"TEXCOORD_0":39,
						"JOINTS_0":40,
						"WEIGHTS_0":41
					},
					"indices":42,
					"material":1
				}
			]
		},
		{
			"name":"arcanist.corset_bind24",
			"primitives":[
				{
					"attributes":{
						"POSITION":43,
						"NORMAL":44,
						"TEXCOORD_0":45,
						"JOINTS_0":46,
						"WEIGHTS_0":47
					},
					"indices":48,
					"material":1
				}
			]
		},
		{
			"name":"arcanist.corset_bind25",
			"primitives":[
				{
					"attributes":{
						"POSITION":49,
						"NORMAL":50,
						"TEXCOORD_0":51,
						"JOINTS_0":52,
						"WEIGHTS_0":53
					},
					"indices":54,
					"material":1
				}
			]
		},
		{
			"name":"arcanist.corset_bind35",
			"primitives":[
				{
					"attributes":{
						"POSITION":55,
						"NORMAL":56,
						"TEXCOORD_0":57,
						"JOINTS_0":58,
						"WEIGHTS_0":59
					},
					"indices":60,
					"material":1
				}
			]
		},
		{
			"name":"arcanist.cuff_l",
			"primitives":[
				{
					"attributes":{
						"POSITION":61,
						"NORMAL":62,
						"TEXCOORD_0":63,
						"JOINTS_0":64,
						"WEIGHTS_0":65
					},
					"indices":66,
					"material":0
				}
			]
		},
		{
			"name":"arcanist.cuff_l_bind",
			"primitives":[
				{
					"attributes":{
						"POSITION":67,
						"NORMAL":68,
						"TEXCOORD_0":69,
						"JOINTS_0":70,
						"WEIGHTS_0":71
					},
					"indices":72,
					"material":1
				}
			]
		},
		{
			"name":"arcanist.cuff_l_bind1",
			"primitives":[
				{
					"attributes":{
						"POSITION":73,
						"NORMAL":74,
						"TEXCOORD_0":75,
						"JOINTS_0":76,
						"WEIGHTS_0":77
					},
					"indices":78,
					"material":1
				}
			]
		},
		{
			"name":"arcanist.cuff_r",
			"primitives":[
				{
					"attributes":{
						"POSITION":79,
						"NORMAL":80,
						"TEXCOORD_0":81,
						"JOINTS_0":82,
						"WEIGHTS_0":83
					},
					"indices":84,
					"material":0
				}
			]
		},
		{
			"name":"arcanist.cuff_r_bind",
			"primitives":[
				{
					"attributes":{
						"POSITION":85,
						"NORMAL":86,
						"TEXCOORD_0":87,
						"JOINTS_0":88,
						"WEIGHTS_0":89
					},
					"indices":90,
					"material":1
				}
			]
		},
		{
			"name":"arcanist.cuff_r_bind1",
			"primitives":[
				{
					"attributes":{
						"POSITION":91,
						"NORMAL":92,
						"TEXCOORD_0":93,
						"JOINTS_0":94,
						"WEIGHTS_0":95
					},
					"indices":96,
					"material":1
				}
			]
		},
		{
			"name":"arcanist.glove_l",
			"primitives":[
				{
					"attributes":{
						"POSITION":97,
						"NORMAL":98,
						"TEXCOORD_0":99,
						"JOINTS_0":100,
						"WEIGHTS_0":101
					},
					"indices":102,
					"material":0
				}
			]
		},
		{
			"name":"arcanist.glove_r",
			"primitives":[
				{
					"attributes":{
						"POSITION":103,
						"NORMAL":104,
						"TEXCOORD_0":105,
						"JOINTS_0":106,
						"WEIGHTS_0":107
					},
					"indices":108,
					"material":0
				}
			]
		},
		{
			"name":"arcanist.glove_r_bind",
			"primitives":[
				{
					"attributes":{
						"POSITION":109,
						"NORMAL":110,
						"TEXCOORD_0":111,
						"JOINTS_0":112,
						"WEIGHTS_0":113
					},
					"indices":114,
					"material":1
				}
			]
		},
		{
			"name":"arcanist.hat_band",
			"primitives":[
				{
					"attributes":{
						"POSITION":115,
						"NORMAL":116,
						"TEXCOORD_0":117,
						"JOINTS_0":118,
						"WEIGHTS_0":119
					},
					"indices":120,
					"material":1
				}
			]
		},
		{
			"name":"arcanist.hat_brim",
			"primitives":[
				{
					"attributes":{
						"POSITION":121,
						"NORMAL":122,
						"TEXCOORD_0":123,
						"JOINTS_0":124,
						"WEIGHTS_0":125
					},
					"indices":126,
					"material":2
				}
			]
		},
		{
			"name":"arcanist.hat_cap",
			"primitives":[
				{
					"attributes":{
						"POSITION":127,
						"NORMAL":128,
						"TEXCOORD_0":129,
						"JOINTS_0":130,
						"WEIGHTS_0":131
					},
					"indices":132,
					"material":2
				}
			]
		},
		{
			"name":"arcanist.hat_crown",
			"primitives":[
				{
					"attributes":{
						"POSITION":133,
						"NORMAL":134,
						"TEXCOORD_0":135,
						"JOINTS_0":136,
						"WEIGHTS_0":137
					},
					"indices":138,
					"material":2
				}
			]
		},
		{
			"name":"arcanist.lace_l",
			"primitives":[
				{
					"attributes":{
						"POSITION":139,
						"NORMAL":140,
						"TEXCOORD_0":141,
						"JOINTS_0":142,
						"WEIGHTS_0":143
					},
					"indices":144,
					"material":3
				}
			]
		},
		{
			"name":"arcanist.lace_l_trim",
			"primitives":[
				{
					"attributes":{
						"POSITION":145,
						"NORMAL":146,
						"TEXCOORD_0":147,
						"JOINTS_0":148,
						"WEIGHTS_0":149
					},
					"indices":150,
					"material":3
				}
			]
		},
		{
			"name":"arcanist.lace_r",
			"primitives":[
				{
					"attributes":{
						"POSITION":151,
						"NORMAL":152,
						"TEXCOORD_0":153,
						"JOINTS_0":154,
						"WEIGHTS_0":155
					},
					"indices":156,
					"material":3
				}
			]
		},
		{
			"name":"arcanist.lace_r_trim",
			"primitives":[
				{
					"attributes":{
						"POSITION":157,
						"NORMAL":158,
						"TEXCOORD_0":159,
						"JOINTS_0":160,
						"WEIGHTS_0":161
					},
					"indices":162,
					"material":3
				}
			]
		},
		{
			"name":"arcanist.stocking_l",
			"primitives":[
				{
					"attributes":{
						"POSITION":163,
						"NORMAL":164,
						"TEXCOORD_0":165,
						"JOINTS_0":166,
						"WEIGHTS_0":167
					},
					"indices":168,
					"material":4
				}
			]
		},
		{
			"name":"arcanist.stocking_r",
			"primitives":[
				{
					"attributes":{
						"POSITION":169,
						"NORMAL":170,
						"TEXCOORD_0":171,
						"JOINTS_0":172,
						"WEIGHTS_0":173
					},
					"indices":174,
					"material":4
				}
			]
		},
		{
			"name":"arcanist.thong",
			"primitives":[
				{
					"attributes":{
						"POSITION":175,
						"NORMAL":176,
						"TEXCOORD_0":177,
						"JOINTS_0":178,
						"WEIGHTS_0":179
					},
					"indices":180,
					"material":2
				}
			]
		},
		{
			"name":"arcanist.thong_trim",
			"primitives":[
				{
					"attributes":{
						"POSITION":181,
						"NORMAL":182,
						"TEXCOORD_0":183,
						"JOINTS_0":184,
						"WEIGHTS_0":185
					},
					"indices":186,
					"material":1
				}
			]
		}
	],
	"textures":[
		{
			"sampler":0,
			"source":0
		},
		{
			"sampler":0,
			"source":1
		},
		{
			"sampler":0,
			"source":2
		},
		{
			"sampler":0,
			"source":0
		},
		{
			"sampler":0,
			"source":3
		},
		{
			"sampler":0,
			"source":0
		},
		{
			"sampler":0,
			"source":4
		},
		{
			"sampler":0,
			"source":2
		},
		{
			"sampler":0,
			"source":5
		},
		{
			"sampler":0,
			"source":6
		},
		{
			"sampler":0,
			"source":7
		},
		{
			"sampler":0,
			"source":5
		},
		{
			"sampler":0,
			"source":8
		},
		{
			"sampler":0,
			"source":7
		}
	],
	"images":[
		{
			"mimeType":"image/jpeg",
			"name":"Leather026_nor",
			"uri":"outfit_tex/Leather026_nor.jpg"
		},
		{
			"mimeType":"image/jpeg",
			"name":"outfit_blackleather_diff",
			"uri":"outfit_tex/outfit_blackleather_diff.jpg"
		},
		{
			"mimeType":"image/png",
			"name":"Leather026_rough",
			"uri":"outfit_tex/Leather026_rough.png"
		},
		{
			"mimeType":"image/jpeg",
			"name":"outfit_darkpurple_diff",
			"uri":"outfit_tex/outfit_darkpurple_diff.jpg"
		},
		{
			"mimeType":"image/jpeg",
			"name":"outfit_plumleather_diff",
			"uri":"outfit_tex/outfit_plumleather_diff.jpg"
		},
		{
			"mimeType":"image/jpeg",
			"name":"rough_linen_nor",
			"uri":"outfit_tex/rough_linen_nor.jpg"
		},
		{
			"mimeType":"image/jpeg",
			"name":"outfit_satin_diff",
			"uri":"outfit_tex/outfit_satin_diff.jpg"
		},
		{
			"mimeType":"image/png",
			"name":"rough_linen_metal",
			"uri":"outfit_tex/rough_linen_metal.png"
		},
		{
			"mimeType":"image/jpeg",
			"name":"outfit_stocking_diff",
			"uri":"outfit_tex/outfit_stocking_diff.jpg"
		}
	],
	"skins":[
		{
			"inverseBindMatrices":6,
			"joints":[
				68,
				67,
				54,
				53,
				52,
				1,
				0,
				25,
				24,
				23,
				22,
				5,
				4,
				3,
				2,
				9,
				8,
				7,
				6,
				13,
				12,
				11,
				10,
				17,
				16,
				15,
				14,
				21,
				20,
				19,
				18,
				49,
				48,
				47,
				46,
				29,
				28,
				27,
				26,
				33,
				32,
				31,
				30,
				37,
				36,
				35,
				34,
				41,
				40,
				39,
				38,
				45,
				44,
				43,
				42,
				50,
				51,
				59,
				58,
				57,
				56,
				55,
				64,
				63,
				62,
				61,
				60,
				65,
				66
			],
			"name":"Armature"
		}
	],
	"accessors":[
		{
			"bufferView":0,
			"componentType":5126,
			"count":24835,
			"max":[
				0.18132147192955017,
				0.6071022748947144,
				0.18154367804527283
			],
			"min":[
				0.025500118732452393,
				-0.008072180673480034,
				-0.136126309633255
			],
			"type":"VEC3"
		},
		{
			"bufferView":1,
			"componentType":5126,
			"count":24835,
			"type":"VEC3"
		},
		{
			"bufferView":2,
			"componentType":5126,
			"count":24835,
			"type":"VEC2"
		},
		{
			"bufferView":3,
			"componentType":5121,
			"count":24835,
			"type":"VEC4"
		},
		{
			"bufferView":4,
			"componentType":5126,
			"count":24835,
			"type":"VEC4"
		},
		{
			"bufferView":5,
			"componentType":5123,
			"count":118251,
			"type":"SCALAR"
		},
		{
			"bufferView":6,
			"componentType":5126,
			"count":69,
			"type":"MAT4"
		},
		{
			"bufferView":7,
			"componentType":5126,
			"count":3955,
			"max":[
				0.1599452644586563,
				0.6087445020675659,
				0.057604335248470306
			],
			"min":[
				0.02502467855811119,
				0.5651721358299255,
				-0.08801919966936111
			],
			"type":"VEC3"
		},
		{
			"bufferView":8,
			"componentType":5126,
			"count":3955,
			"type":"VEC3"
		},
		{
			"bufferView":9,
			"componentType":5126,
			"count":3955,
			"type":"VEC2"
		},
		{
			"bufferView":10,
			"componentType":5121,
			"count":3955,
			"type":"VEC4"
		},
		{
			"bufferView":11,
			"componentType":5126,
			"count":3955,
			"type":"VEC4"
		},
		{
			"bufferView":12,
			"componentType":5123,
			"count":15696,
			"type":"SCALAR"
		},
		{
			"bufferView":13,
			"componentType":5126,
			"count":25191,
			"max":[
				-0.021719936281442642,
				0.6064860820770264,
				0.18177783489227295
			],
			"min":[
				-0.17816397547721863,
				-0.00801512785255909,
				-0.135908842086792
			],
			"type":"VEC3"
		},
		{
			"bufferView":14,
			"componentType":5126,
			"count":25191,
			"type":"VEC3"
		},
		{
			"bufferView":15,
			"componentType":5126,
			"count":25191,
			"type":"VEC2"
		},
		{
			"bufferView":16,
			"componentType":5121,
			"count":25191,
			"type":"VEC4"
		},
		{
			"bufferView":17,
			"componentType":5126,
			"count":25191,
			"type":"VEC4"
		},
		{
			"bufferView":18,
			"componentType":5123,
			"count":118077,
			"type":"SCALAR"
		},
		{
			"bufferView":19,
			"componentType":5126,
			"count":3954,
			"max":[
				-0.021310821175575256,
				0.6081297397613525,
				0.0575375109910965
			],
			"min":[
				-0.15644590556621552,
				0.5642349123954773,
				-0.08816589415073395
			],
			"type":"VEC3"
		},
		{
			"bufferView":20,
			"componentType":5126,
			"count":3954,
			"type":"VEC3"
		},
		{
			"bufferView":21,
			"componentType":5126,
			"count":3954,
			"type":"VEC2"
		},
		{
			"bufferView":22,
			"componentType":5121,
			"count":3954,
			"type":"VEC4"
		},
		{
			"bufferView":23,
			"componentType":5126,
			"count":3954,
			"type":"VEC4"
		},
		{
			"bufferView":24,
			"componentType":5123,
			"count":15696,
			"type":"SCALAR"
		},
		{
			"bufferView":25,
			"componentType":5126,
			"count":1338,
			"max":[
				0.09963851422071457,
				1.6249616146087646,
				-0.007406740449368954
			],
			"min":[
				-0.062669537961483,
				1.6084007024765015,
				-0.16323260962963104
			],
			"type":"VEC3"
		},
		{
			"bufferView":26,
			"componentType":5126,
			"count":1338,
			"type":"VEC3"
		},
		{
			"bufferView":27,
			"componentType":5126,
			"count":1338,
			"type":"VEC2"
		},
		{
			"bufferView":28,
			"componentType":5121,
			"count":1338,
			"type":"VEC4"
		},
		{
			"bufferView":29,
			"componentType":5126,
			"count":1338,
			"type":"VEC4"
		},
		{
			"bufferView":30,
			"componentType":5123,
			"count":3876,
			"type":"SCALAR"
		},
		{
			"bufferView":31,
			"componentType":5126,
			"count":154812,
			"max":[
				0.4973614811897278,
				1.6083173751831055,
				0.17382608354091644
			],
			"min":[
				-0.495766282081604,
				0.9265651702880859,
				-0.13413006067276
			],
			"type":"VEC3"
		},
		{
			"bufferView":32,
			"componentType":5126,
			"count":154812,
			"type":"VEC3"
		},
		{
			"bufferView":33,
			"componentType":5126,
			"count":154812,
			"type":"VEC2"
		},
		{
			"bufferView":34,
			"componentType":5121,
			"count":154812,
			"type":"VEC4"
		},
		{
			"bufferView":35,
			"componentType":5126,
			"count":154812,
			"type":"VEC4"
		},
		{
			"bufferView":36,
			"componentType":5125,
			"count":536805,
			"type":"SCALAR"
		},
		{
			"bufferView":37,
			"componentType":5126,
			"count":11355,
			"max":[
				0.1546718329191208,
				1.1459883451461792,
				0.10280638188123703
			],
			"min":[
				-0.14969314634799957,
				0.9282994270324707,
				-0.11678239703178406
			],
			"type":"VEC3"
		},
		{
			"bufferView":38,
			"componentType":5126,
			"count":11355,
			"type":"VEC3"
		},
		{
			"bufferView":39,
			"componentType":5126,
			"count":11355,
			"type":"VEC2"
		},
		{
			"bufferView":40,
			"componentType":5121,
			"count":11355,
			"type":"VEC4"
		},
		{
			"bufferView":41,
			"componentType":5126,
			"count":11355,
			"type":"VEC4"
		},
		{
			"bufferView":42,
			"componentType":5123,
			"count":40032,
			"type":"SCALAR"
		},
		{
			"bufferView":43,
			"componentType":5126,
			"count":1241,
			"max":[
				-0.06521309167146683,
				1.5022053718566895,
				0.10347019135951996
			],
			"min":[
				-0.08798045665025711,
				1.4831918478012085,
				0.08699090778827667
			],
			"type":"VEC3"
		},
		{
			"bufferView":44,
			"componentType":5126,
			"count":1241,
			"type":"VEC3"
		},
		{
			"bufferView":45,
			"componentType":5126,
			"count":1241,
			"type":"VEC2"
		},
		{
			"bufferView":46,
			"componentType":5121,
			"count":1241,
			"type":"VEC4"
		},
		{
			"bufferView":47,
			"componentType":5126,
			"count":1241,
			"type":"VEC4"
		},
		{
			"bufferView":48,
			"componentType":5123,
			"count":2736,
			"type":"SCALAR"
		},
		{
			"bufferView":49,
			"componentType":5126,
			"count":1232,
			"max":[
				-0.06898809224367142,
				1.499436855316162,
				0.10501036792993546
			],
			"min":[
				-0.08110934495925903,
				1.489298701286316,
				0.09595905244350433
			],
			"type":"VEC3"
		},
		{
			"bufferView":50,
			"componentType":5126,
			"count":1232,
			"type":"VEC3"
		},
		{
			"bufferView":51,
			"componentType":5126,
			"count":1232,
			"type":"VEC2"
		},
		{
			"bufferView":52,
			"componentType":5121,
			"count":1232,
			"type":"VEC4"
		},
		{
			"bufferView":53,
			"componentType":5126,
			"count":1232,
			"type":"VEC4"
		},
		{
			"bufferView":54,
			"componentType":5123,
			"count":2736,
			"type":"SCALAR"
		},
		{
			"bufferView":55,
			"componentType":5126,
			"count":1436,
			"max":[
				-0.025218432769179344,
				1.5742905139923096,
				-0.10572786629199982
			],
			"min":[
				-0.040428727865219116,
				1.5588687658309937,
				-0.1218286082148552
			],
			"type":"VEC3"
		},
		{
			"bufferView":56,
			"componentType":5126,
			"count":1436,
			"type":"VEC3"
		},
		{
			"bufferView":57,
			"componentType":5126,
			"count":1436,
			"type":"VEC2"
		},
		{
			"bufferView":58,
			"componentType":5121,
			"count":1436,
			"type":"VEC4"
		},
		{
			"bufferView":59,
			"componentType":5126,
			"count":1436,
			"type":"VEC4"
		},
		{
			"bufferView":60,
			"componentType":5123,
			"count":2880,
			"type":"SCALAR"
		},
		{
			"bufferView":61,
			"componentType":5126,
			"count":6199,
			"max":[
				0.16622309386730194,
				0.6231884956359863,
				0.06581179797649384
			],
			"min":[
				0.019589530304074287,
				0.5613831281661987,
				-0.09245966374874115
			],
			"type":"VEC3"
		},
		{
			"bufferView":62,
			"componentType":5126,
			"count":6199,
			"type":"VEC3"
		},
		{
			"bufferView":63,
			"componentType":5126,
			"count":6199,
			"type":"VEC2"
		},
		{
			"bufferView":64,
			"componentType":5121,
			"count":6199,
			"type":"VEC4"
		},
		{
			"bufferView":65,
			"componentType":5126,
			"count":6199,
			"type":"VEC4"
		},
		{
			"bufferView":66,
			"componentType":5123,
			"count":28926,
			"type":"SCALAR"
		},
		{
			"bufferView":67,
			"componentType":5126,
			"count":4044,
			"max":[
				0.16675329208374023,
				0.6248486042022705,
				0.06636066734790802
			],
			"min":[
				0.01908736675977707,
				0.6121375560760498,
				-0.09296147525310516
			],
			"type":"VEC3"
		},
		{
			"bufferView":68,
			"componentType":5126,
			"count":4044,
			"type":"VEC3"
		},
		{
			"bufferView":69,
			"componentType":5126,
			"count":4044,
			"type":"VEC2"
		},
		{
			"bufferView":70,
			"componentType":5121,
			"count":4044,
			"type":"VEC4"
		},
		{
			"bufferView":71,
			"componentType":5126,
			"count":4044,
			"type":"VEC4"
		},
		{
			"bufferView":72,
			"componentType":5123,
			"count":16560,
			"type":"SCALAR"
		},
		{
			"bufferView":73,
			"componentType":5126,
			"count":3801,
			"max":[
				0.1638237088918686,
				0.5783565640449524,
				0.05281679332256317
			],
			"min":[
				0.02114761993288994,
				0.5603120923042297,
				-0.09232970327138901
			],
			"type":"VEC3"
		},
		{
			"bufferView":74,
			"componentType":5126,
			"count":3801,
			"type":"VEC3"
		},
		{
			"bufferView":75,
			"componentType":5126,
			"count":3801,
			"type":"VEC2"
		},
		{
			"bufferView":76,
			"componentType":5121,
			"count":3801,
			"type":"VEC4"
		},
		{
			"bufferView":77,
			"componentType":5126,
			"count":3801,
			"type":"VEC4"
		},
		{
			"bufferView":78,
			"componentType":5123,
			"count":15336,
			"type":"SCALAR"
		},
		{
			"bufferView":79,
			"componentType":5126,
			"count":5660,
			"max":[
				-0.016236305236816406,
				0.6216506958007812,
				0.06623037904500961
			],
			"min":[
				-0.16253256797790527,
				0.5604232549667358,
				-0.09234271943569183
			],
			"type":"VEC3"
		},
		{
			"bufferView":80,
			"componentType":5126,
			"count":5660,
			"type":"VEC3"
		},
		{
			"bufferView":81,
			"componentType":5126,
			"count":5660,
			"type":"VEC2"
		},
		{
			"bufferView":82,
			"componentType":5121,
			"count":5660,
			"type":"VEC4"
		},
		{
			"bufferView":83,
			"componentType":5126,
			"count":5660,
			"type":"VEC4"
		},
		{
			"bufferView":84,
			"componentType":5123,
			"count":28158,
			"type":"SCALAR"
		},
		{
			"bufferView":85,
			"componentType":5126,
			"count":3721,
			"max":[
				-0.017412876710295677,
				0.5802422165870667,
				0.05232470482587814
			],
			"min":[
				-0.16026654839515686,
				0.5602043867111206,
				-0.0923711434006691
			],
			"type":"VEC3"
		},
		{
			"bufferView":86,
			"componentType":5126,
			"count":3721,
			"type":"VEC3"
		},
		{
			"bufferView":87,
			"componentType":5126,
			"count":3721,
			"type":"VEC2"
		},
		{
			"bufferView":88,
			"componentType":5121,
			"count":3721,
			"type":"VEC4"
		},
		{
			"bufferView":89,
			"componentType":5126,
			"count":3721,
			"type":"VEC4"
		},
		{
			"bufferView":90,
			"componentType":5123,
			"count":15192,
			"type":"SCALAR"
		},
		{
			"bufferView":91,
			"componentType":5126,
			"count":3955,
			"max":[
				-0.015630777925252914,
				0.6233015656471252,
				0.06670383363962173
			],
			"min":[
				-0.16300708055496216,
				0.6102190613746643,
				-0.09281237423419952
			],
			"type":"VEC3"
		},
		{
			"bufferView":92,
			"componentType":5126,
			"count":3955,
			"type":"VEC3"
		},
		{
			"bufferView":93,
			"componentType":5126,
			"count":3955,
			"type":"VEC2"
		},
		{
			"bufferView":94,
			"componentType":5121,
			"count":3955,
			"type":"VEC4"
		},
		{
			"bufferView":95,
			"componentType":5126,
			"count":3955,
			"type":"VEC4"
		},
		{
			"bufferView":96,
			"componentType":5123,
			"count":16560,
			"type":"SCALAR"
		},
		{
			"bufferView":97,
			"componentType":5126,
			"count":14443,
			"max":[
				0.685241162776947,
				1.2382891178131104,
				0.06955717504024506
			],
			"min":[
				0.4348239302635193,
				0.987474262714386,
				-0.0897965356707573
			],
			"type":"VEC3"
		},
		{
			"bufferView":98,
			"componentType":5126,
			"count":14443,
			"type":"VEC3"
		},
		{
			"bufferView":99,
			"componentType":5126,
			"count":14443,
			"type":"VEC2"
		},
		{
			"bufferView":100,
			"componentType":5121,
			"count":14443,
			"type":"VEC4"
		},
		{
			"bufferView":101,
			"componentType":5126,
			"count":14443,
			"type":"VEC4"
		},
		{
			"bufferView":102,
			"componentType":5123,
			"count":49869,
			"type":"SCALAR"
		},
		{
			"bufferView":103,
			"componentType":5126,
			"count":12260,
			"max":[
				-0.43692314624786377,
				1.233766794204712,
				0.06967674195766449
			],
			"min":[
				-0.6826653480529785,
				0.9876534938812256,
				-0.0899365022778511
			],
			"type":"VEC3"
		},
		{
			"bufferView":104,
			"componentType":5126,
			"count":12260,
			"type":"VEC3"
		},
		{
			"bufferView":105,
			"componentType":5126,
			"count":12260,
			"type":"VEC2"
		},
		{
			"bufferView":106,
			"componentType":5121,
			"count":12260,
			"type":"VEC4"
		},
		{
			"bufferView":107,
			"componentType":5126,
			"count":12260,
			"type":"VEC4"
		},
		{
			"bufferView":108,
			"componentType":5123,
			"count":46206,
			"type":"SCALAR"
		},
		{
			"bufferView":109,
			"componentType":5126,
			"count":2758,
			"max":[
				-0.4343303143978119,
				1.2343199253082275,
				-0.0014462033286690712
			],
			"min":[
				-0.48912063241004944,
				1.171221375465393,
				-0.0753331184387207
			],
			"type":"VEC3"
		},
		{
			"bufferView":110,
			"componentType":5126,
			"count":2758,
			"type":"VEC3"
		},
		{
			"bufferView":111,
			"componentType":5126,
			"count":2758,
			"type":"VEC2"
		},
		{
			"bufferView":112,
			"componentType":5121,
			"count":2758,
			"type":"VEC4"
		},
		{
			"bufferView":113,
			"componentType":5126,
			"count":2758,
			"type":"VEC4"
		},
		{
			"bufferView":114,
			"componentType":5123,
			"count":8352,
			"type":"SCALAR"
		},
		{
			"bufferView":115,
			"componentType":5126,
			"count":1024,
			"max":[
				0.11740661412477493,
				1.8609371185302734,
				0.14396795630455017
			],
			"min":[
				-0.12874238193035126,
				1.8323570489883423,
				-0.1452808380126953
			],
			"type":"VEC3"
		},
		{
			"bufferView":116,
			"componentType":5126,
			"count":1024,
			"type":"VEC3"
		},
		{
			"bufferView":117,
			"componentType":5126,
			"count":1024,
			"type":"VEC2"
		},
		{
			"bufferView":118,
			"componentType":5121,
			"count":1024,
			"type":"VEC4"
		},
		{
			"bufferView":119,
			"componentType":5126,
			"count":1024,
			"type":"VEC4"
		},
		{
			"bufferView":120,
			"componentType":5123,
			"count":6144,
			"type":"SCALAR"
		},
		{
			"bufferView":121,
			"componentType":5126,
			"count":2432,
			"max":[
				0.31621724367141724,
				1.838995337486267,
				0.3454582393169403
			],
			"min":[
				-0.3297417461872101,
				1.805265188217163,
				-0.3450051248073578
			],
			"type":"VEC3"
		},
		{
			"bufferView":122,
			"componentType":5126,
			"count":2432,
			"type":"VEC3"
		},
		{
			"bufferView":123,
			"componentType":5126,
			"count":2432,
			"type":"VEC2"
		},
		{
			"bufferView":124,
			"componentType":5121,
			"count":2432,
			"type":"VEC4"
		},
		{
			"bufferView":125,
			"componentType":5126,
			"count":2432,
			"type":"VEC4"
		},
		{
			"bufferView":126,
			"componentType":5123,
			"count":14592,
			"type":"SCALAR"
		},
		{
			"bufferView":127,
			"componentType":5126,
			"count":386,
			"max":[
				0.11227190494537354,
				1.8340240716934204,
				0.138739675283432
			],
			"min":[
				-0.12376842647790909,
				1.832024097442627,
				-0.13927814364433289
			],
			"type":"VEC3"
		},
		{
			"bufferView":128,
			"componentType":5126,
			"count":386,
			"type":"VEC3"
		},
		{
			"bufferView":129,
			"componentType":5126,
			"count":386,
			"type":"VEC2"
		},
		{
			"bufferView":130,
			"componentType":5121,
			"count":386,
			"type":"VEC4"
		},
		{
			"bufferView":131,
			"componentType":5126,
			"count":386,
			"type":"VEC4"
		},
		{
			"bufferView":132,
			"componentType":5123,
			"count":2304,
			"type":"SCALAR"
		},
		{
			"bufferView":133,
			"componentType":5126,
			"count":9645,
			"max":[
				0.11504936218261719,
				2.0917134284973145,
				0.1415027678012848
			],
			"min":[
				-0.12656646966934204,
				1.8320244550704956,
				-0.1419428139925003
			],
			"type":"VEC3"
		},
		{
			"bufferView":134,
			"componentType":5126,
			"count":9645,
			"type":"VEC3"
		},
		{
			"bufferView":135,
			"componentType":5126,
			"count":9645,
			"type":"VEC2"
		},
		{
			"bufferView":136,
			"componentType":5121,
			"count":9645,
			"type":"VEC4"
		},
		{
			"bufferView":137,
			"componentType":5126,
			"count":9645,
			"type":"VEC4"
		},
		{
			"bufferView":138,
			"componentType":5123,
			"count":38130,
			"type":"SCALAR"
		},
		{
			"bufferView":139,
			"componentType":5126,
			"count":4292,
			"max":[
				0.2056058645248413,
				0.8716917634010315,
				0.11214888840913773
			],
			"min":[
				-0.001216601813212037,
				0.8412553071975708,
				-0.10609641671180725
			],
			"type":"VEC3"
		},
		{
			"bufferView":140,
			"componentType":5126,
			"count":4292,
			"type":"VEC3"
		},
		{
			"bufferView":141,
			"componentType":5126,
			"count":4292,
			"type":"VEC2"
		},
		{
			"bufferView":142,
			"componentType":5121,
			"count":4292,
			"type":"VEC4"
		},
		{
			"bufferView":143,
			"componentType":5126,
			"count":4292,
			"type":"VEC4"
		},
		{
			"bufferView":144,
			"componentType":5123,
			"count":24960,
			"type":"SCALAR"
		},
		{
			"bufferView":145,
			"componentType":5126,
			"count":3936,
			"max":[
				0.20596732199192047,
				0.8719492554664612,
				0.11098702251911163
			],
			"min":[
				-0.001792437513358891,
				0.840828001499176,
				-0.10660158097743988
			],
			"type":"VEC3"
		},
		{
			"bufferView":146,
			"componentType":5126,
			"count":3936,
			"type":"VEC3"
		},
		{
			"bufferView":147,
			"componentType":5126,
			"count":3936,
			"type":"VEC2"
		},
		{
			"bufferView":148,
			"componentType":5121,
			"count":3936,
			"type":"VEC4"
		},
		{
			"bufferView":149,
			"componentType":5126,
			"count":3936,
			"type":"VEC4"
		},
		{
			"bufferView":150,
			"componentType":5123,
			"count":23040,
			"type":"SCALAR"
		},
		{
			"bufferView":151,
			"componentType":5126,
			"count":4264,
			"max":[
				0.002589847194030881,
				0.8719713091850281,
				0.11220227181911469
			],
			"min":[
				-0.20207548141479492,
				0.8413084745407104,
				-0.1060897633433342
			],
			"type":"VEC3"
		},
		{
			"bufferView":152,
			"componentType":5126,
			"count":4264,
			"type":"VEC3"
		},
		{
			"bufferView":153,
			"componentType":5126,
			"count":4264,
			"type":"VEC2"
		},
		{
			"bufferView":154,
			"componentType":5121,
			"count":4264,
			"type":"VEC4"
		},
		{
			"bufferView":155,
			"componentType":5126,
			"count":4264,
			"type":"VEC4"
		},
		{
			"bufferView":156,
			"componentType":5123,
			"count":24960,
			"type":"SCALAR"
		},
		{
			"bufferView":157,
			"componentType":5126,
			"count":3936,
			"max":[
				0.0035846391692757607,
				0.872559130191803,
				0.11144142597913742
			],
			"min":[
				-0.20273329317569733,
				0.8409695029258728,
				-0.10655411332845688
			],
			"type":"VEC3"
		},
		{
			"bufferView":158,
			"componentType":5126,
			"count":3936,
			"type":"VEC3"
		},
		{
			"bufferView":159,
			"componentType":5126,
			"count":3936,
			"type":"VEC2"
		},
		{
			"bufferView":160,
			"componentType":5121,
			"count":3936,
			"type":"VEC4"
		},
		{
			"bufferView":161,
			"componentType":5126,
			"count":3936,
			"type":"VEC4"
		},
		{
			"bufferView":162,
			"componentType":5123,
			"count":23040,
			"type":"SCALAR"
		},
		{
			"bufferView":163,
			"componentType":5126,
			"count":14146,
			"max":[
				0.2012346088886261,
				0.8678264617919922,
				0.1744055598974228
			],
			"min":[
				0.002834256738424301,
				-0.0012210330460220575,
				-0.1286909282207489
			],
			"type":"VEC3"
		},
		{
			"bufferView":164,
			"componentType":5126,
			"count":14146,
			"type":"VEC3"
		},
		{
			"bufferView":165,
			"componentType":5126,
			"count":14146,
			"type":"VEC2"
		},
		{
			"bufferView":166,
			"componentType":5121,
			"count":14146,
			"type":"VEC4"
		},
		{
			"bufferView":167,
			"componentType":5126,
			"count":14146,
			"type":"VEC4"
		},
		{
			"bufferView":168,
			"componentType":5123,
			"count":69555,
			"type":"SCALAR"
		},
		{
			"bufferView":169,
			"componentType":5126,
			"count":14011,
			"max":[
				-0.0012764468556270003,
				0.8637704253196716,
				0.17428889870643616
			],
			"min":[
				-0.19807779788970947,
				-0.0010672459611669183,
				-0.128757044672966
			],
			"type":"VEC3"
		},
		{
			"bufferView":170,
			"componentType":5126,
			"count":14011,
			"type":"VEC3"
		},
		{
			"bufferView":171,
			"componentType":5126,
			"count":14011,
			"type":"VEC2"
		},
		{
			"bufferView":172,
			"componentType":5121,
			"count":14011,
			"type":"VEC4"
		},
		{
			"bufferView":173,
			"componentType":5126,
			"count":14011,
			"type":"VEC4"
		},
		{
			"bufferView":174,
			"componentType":5123,
			"count":69222,
			"type":"SCALAR"
		},
		{
			"bufferView":175,
			"componentType":5126,
			"count":1604,
			"max":[
				0.014571848325431347,
				1.0829312801361084,
				0.04571349173784256
			],
			"min":[
				-0.008502365089952946,
				0.9165210127830505,
				-0.1286589652299881
			],
			"type":"VEC3"
		},
		{
			"bufferView":176,
			"componentType":5126,
			"count":1604,
			"type":"VEC3"
		},
		{
			"bufferView":177,
			"componentType":5126,
			"count":1604,
			"type":"VEC2"
		},
		{
			"bufferView":178,
			"componentType":5121,
			"count":1604,
			"type":"VEC4"
		},
		{
			"bufferView":179,
			"componentType":5126,
			"count":1604,
			"type":"VEC4"
		},
		{
			"bufferView":180,
			"componentType":5123,
			"count":9558,
			"type":"SCALAR"
		},
		{
			"bufferView":181,
			"componentType":5126,
			"count":2032,
			"max":[
				0.011569617316126823,
				1.074718713760376,
				0.03654500097036362
			],
			"min":[
				-0.00835457444190979,
				0.9163205623626709,
				-0.1285940408706665
			],
			"type":"VEC3"
		},
		{
			"bufferView":182,
			"componentType":5126,
			"count":2032,
			"type":"VEC3"
		},
		{
			"bufferView":183,
			"componentType":5126,
			"count":2032,
			"type":"VEC2"
		},
		{
			"bufferView":184,
			"componentType":5121,
			"count":2032,
			"type":"VEC4"
		},
		{
			"bufferView":185,
			"componentType":5126,
			"count":2032,
			"type":"VEC4"
		},
		{
			"bufferView":186,
			"componentType":5123,
			"count":12168,
			"type":"SCALAR"
		}
	],
	"bufferViews":[
		{
			"buffer":0,
			"byteLength":298020,
			"byteOffset":0,
			"target":34962
		},
		{
			"buffer":0,
			"byteLength":298020,
			"byteOffset":298020,
			"target":34962
		},
		{
			"buffer":0,
			"byteLength":198680,
			"byteOffset":596040,
			"target":34962
		},
		{
			"buffer":0,
			"byteLength":99340,
			"byteOffset":794720,
			"target":34962
		},
		{
			"buffer":0,
			"byteLength":397360,
			"byteOffset":894060,
			"target":34962
		},
		{
			"buffer":0,
			"byteLength":236502,
			"byteOffset":1291420,
			"target":34963
		},
		{
			"buffer":0,
			"byteLength":4416,
			"byteOffset":1527924
		},
		{
			"buffer":0,
			"byteLength":47460,
			"byteOffset":1532340,
			"target":34962
		},
		{
			"buffer":0,
			"byteLength":47460,
			"byteOffset":1579800,
			"target":34962
		},
		{
			"buffer":0,
			"byteLength":31640,
			"byteOffset":1627260,
			"target":34962
		},
		{
			"buffer":0,
			"byteLength":15820,
			"byteOffset":1658900,
			"target":34962
		},
		{
			"buffer":0,
			"byteLength":63280,
			"byteOffset":1674720,
			"target":34962
		},
		{
			"buffer":0,
			"byteLength":31392,
			"byteOffset":1738000,
			"target":34963
		},
		{
			"buffer":0,
			"byteLength":302292,
			"byteOffset":1769392,
			"target":34962
		},
		{
			"buffer":0,
			"byteLength":302292,
			"byteOffset":2071684,
			"target":34962
		},
		{
			"buffer":0,
			"byteLength":201528,
			"byteOffset":2373976,
			"target":34962
		},
		{
			"buffer":0,
			"byteLength":100764,
			"byteOffset":2575504,
			"target":34962
		},
		{
			"buffer":0,
			"byteLength":403056,
			"byteOffset":2676268,
			"target":34962
		},
		{
			"buffer":0,
			"byteLength":236154,
			"byteOffset":3079324,
			"target":34963
		},
		{
			"buffer":0,
			"byteLength":47448,
			"byteOffset":3315480,
			"target":34962
		},
		{
			"buffer":0,
			"byteLength":47448,
			"byteOffset":3362928,
			"target":34962
		},
		{
			"buffer":0,
			"byteLength":31632,
			"byteOffset":3410376,
			"target":34962
		},
		{
			"buffer":0,
			"byteLength":15816,
			"byteOffset":3442008,
			"target":34962
		},
		{
			"buffer":0,
			"byteLength":63264,
			"byteOffset":3457824,
			"target":34962
		},
		{
			"buffer":0,
			"byteLength":31392,
			"byteOffset":3521088,
			"target":34963
		},
		{
			"buffer":0,
			"byteLength":16056,
			"byteOffset":3552480,
			"target":34962
		},
		{
			"buffer":0,
			"byteLength":16056,
			"byteOffset":3568536,
			"target":34962
		},
		{
			"buffer":0,
			"byteLength":10704,
			"byteOffset":3584592,
			"target":34962
		},
		{
			"buffer":0,
			"byteLength":5352,
			"byteOffset":3595296,
			"target":34962
		},
		{
			"buffer":0,
			"byteLength":21408,
			"byteOffset":3600648,
			"target":34962
		},
		{
			"buffer":0,
			"byteLength":7752,
			"byteOffset":3622056,
			"target":34963
		},
		{
			"buffer":0,
			"byteLength":1857744,
			"byteOffset":3629808,
			"target":34962
		},
		{
			"buffer":0,
			"byteLength":1857744,
			"byteOffset":5487552,
			"target":34962
		},
		{
			"buffer":0,
			"byteLength":1238496,
			"byteOffset":7345296,
			"target":34962
		},
		{
			"buffer":0,
			"byteLength":619248,
			"byteOffset":8583792,
			"target":34962
		},
		{
			"buffer":0,
			"byteLength":2476992,
			"byteOffset":9203040,
			"target":34962
		},
		{
			"buffer":0,
			"byteLength":2147220,
			"byteOffset":11680032,
			"target":34963
		},
		{
			"buffer":0,
			"byteLength":136260,
			"byteOffset":13827252,
			"target":34962
		},
		{
			"buffer":0,
			"byteLength":136260,
			"byteOffset":13963512,
			"target":34962
		},
		{
			"buffer":0,
			"byteLength":90840,
			"byteOffset":14099772,
			"target":34962
		},
		{
			"buffer":0,
			"byteLength":45420,
			"byteOffset":14190612,
			"target":34962
		},
		{
			"buffer":0,
			"byteLength":181680,
			"byteOffset":14236032,
			"target":34962
		},
		{
			"buffer":0,
			"byteLength":80064,
			"byteOffset":14417712,
			"target":34963
		},
		{
			"buffer":0,
			"byteLength":14892,
			"byteOffset":14497776,
			"target":34962
		},
		{
			"buffer":0,
			"byteLength":14892,
			"byteOffset":14512668,
			"target":34962
		},
		{
			"buffer":0,
			"byteLength":9928,
			"byteOffset":14527560,
			"target":34962
		},
		{
			"buffer":0,
			"byteLength":4964,
			"byteOffset":14537488,
			"target":34962
		},
		{
			"buffer":0,
			"byteLength":19856,
			"byteOffset":14542452,
			"target":34962
		},
		{
			"buffer":0,
			"byteLength":5472,
			"byteOffset":14562308,
			"target":34963
		},
		{
			"buffer":0,
			"byteLength":14784,
			"byteOffset":14567780,
			"target":34962
		},
		{
			"buffer":0,
			"byteLength":14784,
			"byteOffset":14582564,
			"target":34962
		},
		{
			"buffer":0,
			"byteLength":9856,
			"byteOffset":14597348,
			"target":34962
		},
		{
			"buffer":0,
			"byteLength":4928,
			"byteOffset":14607204,
			"target":34962
		},
		{
			"buffer":0,
			"byteLength":19712,
			"byteOffset":14612132,
			"target":34962
		},
		{
			"buffer":0,
			"byteLength":5472,
			"byteOffset":14631844,
			"target":34963
		},
		{
			"buffer":0,
			"byteLength":17232,
			"byteOffset":14637316,
			"target":34962
		},
		{
			"buffer":0,
			"byteLength":17232,
			"byteOffset":14654548,
			"target":34962
		},
		{
			"buffer":0,
			"byteLength":11488,
			"byteOffset":14671780,
			"target":34962
		},
		{
			"buffer":0,
			"byteLength":5744,
			"byteOffset":14683268,
			"target":34962
		},
		{
			"buffer":0,
			"byteLength":22976,
			"byteOffset":14689012,
			"target":34962
		},
		{
			"buffer":0,
			"byteLength":5760,
			"byteOffset":14711988,
			"target":34963
		},
		{
			"buffer":0,
			"byteLength":74388,
			"byteOffset":14717748,
			"target":34962
		},
		{
			"buffer":0,
			"byteLength":74388,
			"byteOffset":14792136,
			"target":34962
		},
		{
			"buffer":0,
			"byteLength":49592,
			"byteOffset":14866524,
			"target":34962
		},
		{
			"buffer":0,
			"byteLength":24796,
			"byteOffset":14916116,
			"target":34962
		},
		{
			"buffer":0,
			"byteLength":99184,
			"byteOffset":14940912,
			"target":34962
		},
		{
			"buffer":0,
			"byteLength":57852,
			"byteOffset":15040096,
			"target":34963
		},
		{
			"buffer":0,
			"byteLength":48528,
			"byteOffset":15097948,
			"target":34962
		},
		{
			"buffer":0,
			"byteLength":48528,
			"byteOffset":15146476,
			"target":34962
		},
		{
			"buffer":0,
			"byteLength":32352,
			"byteOffset":15195004,
			"target":34962
		},
		{
			"buffer":0,
			"byteLength":16176,
			"byteOffset":15227356,
			"target":34962
		},
		{
			"buffer":0,
			"byteLength":64704,
			"byteOffset":15243532,
			"target":34962
		},
		{
			"buffer":0,
			"byteLength":33120,
			"byteOffset":15308236,
			"target":34963
		},
		{
			"buffer":0,
			"byteLength":45612,
			"byteOffset":15341356,
			"target":34962
		},
		{
			"buffer":0,
			"byteLength":45612,
			"byteOffset":15386968,
			"target":34962
		},
		{
			"buffer":0,
			"byteLength":30408,
			"byteOffset":15432580,
			"target":34962
		},
		{
			"buffer":0,
			"byteLength":15204,
			"byteOffset":15462988,
			"target":34962
		},
		{
			"buffer":0,
			"byteLength":60816,
			"byteOffset":15478192,
			"target":34962
		},
		{
			"buffer":0,
			"byteLength":30672,
			"byteOffset":15539008,
			"target":34963
		},
		{
			"buffer":0,
			"byteLength":67920,
			"byteOffset":15569680,
			"target":34962
		},
		{
			"buffer":0,
			"byteLength":67920,
			"byteOffset":15637600,
			"target":34962
		},
		{
			"buffer":0,
			"byteLength":45280,
			"byteOffset":15705520,
			"target":34962
		},
		{
			"buffer":0,
			"byteLength":22640,
			"byteOffset":15750800,
			"target":34962
		},
		{
			"buffer":0,
			"byteLength":90560,
			"byteOffset":15773440,
			"target":34962
		},
		{
			"buffer":0,
			"byteLength":56316,
			"byteOffset":15864000,
			"target":34963
		},
		{
			"buffer":0,
			"byteLength":44652,
			"byteOffset":15920316,
			"target":34962
		},
		{
			"buffer":0,
			"byteLength":44652,
			"byteOffset":15964968,
			"target":34962
		},
		{
			"buffer":0,
			"byteLength":29768,
			"byteOffset":16009620,
			"target":34962
		},
		{
			"buffer":0,
			"byteLength":14884,
			"byteOffset":16039388,
			"target":34962
		},
		{
			"buffer":0,
			"byteLength":59536,
			"byteOffset":16054272,
			"target":34962
		},
		{
			"buffer":0,
			"byteLength":30384,
			"byteOffset":16113808,
			"target":34963
		},
		{
			"buffer":0,
			"byteLength":47460,
			"byteOffset":16144192,
			"target":34962
		},
		{
			"buffer":0,
			"byteLength":47460,
			"byteOffset":16191652,
			"target":34962
		},
		{
			"buffer":0,
			"byteLength":31640,
			"byteOffset":16239112,
			"target":34962
		},
		{
			"buffer":0,
			"byteLength":15820,
			"byteOffset":16270752,
			"target":34962
		},
		{
			"buffer":0,
			"byteLength":63280,
			"byteOffset":16286572,
			"target":34962
		},
		{
			"buffer":0,
			"byteLength":33120,
			"byteOffset":16349852,
			"target":34963
		},
		{
			"buffer":0,
			"byteLength":173316,
			"byteOffset":16382972,
			"target":34962
		},
		{
			"buffer":0,
			"byteLength":173316,
			"byteOffset":16556288,
			"target":34962
		},
		{
			"buffer":0,
			"byteLength":115544,
			"byteOffset":16729604,
			"target":34962
		},
		{
			"buffer":0,
			"byteLength":57772,
			"byteOffset":16845148,
			"target":34962
		},
		{
			"buffer":0,
			"byteLength":231088,
			"byteOffset":16902920,
			"target":34962
		},
		{
			"buffer":0,
			"byteLength":99738,
			"byteOffset":17134008,
			"target":34963
		},
		{
			"buffer":0,
			"byteLength":147120,
			"byteOffset":17233748,
			"target":34962
		},
		{
			"buffer":0,
			"byteLength":147120,
			"byteOffset":17380868,
			"target":34962
		},
		{
			"buffer":0,
			"byteLength":98080,
			"byteOffset":17527988,
			"target":34962
		},
		{
			"buffer":0,
			"byteLength":49040,
			"byteOffset":17626068,
			"target":34962
		},
		{
			"buffer":0,
			"byteLength":196160,
			"byteOffset":17675108,
			"target":34962
		},
		{
			"buffer":0,
			"byteLength":92412,
			"byteOffset":17871268,
			"target":34963
		},
		{
			"buffer":0,
			"byteLength":33096,
			"byteOffset":17963680,
			"target":34962
		},
		{
			"buffer":0,
			"byteLength":33096,
			"byteOffset":17996776,
			"target":34962
		},
		{
			"buffer":0,
			"byteLength":22064,
			"byteOffset":18029872,
			"target":34962
		},
		{
			"buffer":0,
			"byteLength":11032,
			"byteOffset":18051936,
			"target":34962
		},
		{
			"buffer":0,
			"byteLength":44128,
			"byteOffset":18062968,
			"target":34962
		},
		{
			"buffer":0,
			"byteLength":16704,
			"byteOffset":18107096,
			"target":34963
		},
		{
			"buffer":0,
			"byteLength":12288,
			"byteOffset":18123800,
			"target":34962
		},
		{
			"buffer":0,
			"byteLength":12288,
			"byteOffset":18136088,
			"target":34962
		},
		{
			"buffer":0,
			"byteLength":8192,
			"byteOffset":18148376,
			"target":34962
		},
		{
			"buffer":0,
			"byteLength":4096,
			"byteOffset":18156568,
			"target":34962
		},
		{
			"buffer":0,
			"byteLength":16384,
			"byteOffset":18160664,
			"target":34962
		},
		{
			"buffer":0,
			"byteLength":12288,
			"byteOffset":18177048,
			"target":34963
		},
		{
			"buffer":0,
			"byteLength":29184,
			"byteOffset":18189336,
			"target":34962
		},
		{
			"buffer":0,
			"byteLength":29184,
			"byteOffset":18218520,
			"target":34962
		},
		{
			"buffer":0,
			"byteLength":19456,
			"byteOffset":18247704,
			"target":34962
		},
		{
			"buffer":0,
			"byteLength":9728,
			"byteOffset":18267160,
			"target":34962
		},
		{
			"buffer":0,
			"byteLength":38912,
			"byteOffset":18276888,
			"target":34962
		},
		{
			"buffer":0,
			"byteLength":29184,
			"byteOffset":18315800,
			"target":34963
		},
		{
			"buffer":0,
			"byteLength":4632,
			"byteOffset":18344984,
			"target":34962
		},
		{
			"buffer":0,
			"byteLength":4632,
			"byteOffset":18349616,
			"target":34962
		},
		{
			"buffer":0,
			"byteLength":3088,
			"byteOffset":18354248,
			"target":34962
		},
		{
			"buffer":0,
			"byteLength":1544,
			"byteOffset":18357336,
			"target":34962
		},
		{
			"buffer":0,
			"byteLength":6176,
			"byteOffset":18358880,
			"target":34962
		},
		{
			"buffer":0,
			"byteLength":4608,
			"byteOffset":18365056,
			"target":34963
		},
		{
			"buffer":0,
			"byteLength":115740,
			"byteOffset":18369664,
			"target":34962
		},
		{
			"buffer":0,
			"byteLength":115740,
			"byteOffset":18485404,
			"target":34962
		},
		{
			"buffer":0,
			"byteLength":77160,
			"byteOffset":18601144,
			"target":34962
		},
		{
			"buffer":0,
			"byteLength":38580,
			"byteOffset":18678304,
			"target":34962
		},
		{
			"buffer":0,
			"byteLength":154320,
			"byteOffset":18716884,
			"target":34962
		},
		{
			"buffer":0,
			"byteLength":76260,
			"byteOffset":18871204,
			"target":34963
		},
		{
			"buffer":0,
			"byteLength":51504,
			"byteOffset":18947464,
			"target":34962
		},
		{
			"buffer":0,
			"byteLength":51504,
			"byteOffset":18998968,
			"target":34962
		},
		{
			"buffer":0,
			"byteLength":34336,
			"byteOffset":19050472,
			"target":34962
		},
		{
			"buffer":0,
			"byteLength":17168,
			"byteOffset":19084808,
			"target":34962
		},
		{
			"buffer":0,
			"byteLength":68672,
			"byteOffset":19101976,
			"target":34962
		},
		{
			"buffer":0,
			"byteLength":49920,
			"byteOffset":19170648,
			"target":34963
		},
		{
			"buffer":0,
			"byteLength":47232,
			"byteOffset":19220568,
			"target":34962
		},
		{
			"buffer":0,
			"byteLength":47232,
			"byteOffset":19267800,
			"target":34962
		},
		{
			"buffer":0,
			"byteLength":31488,
			"byteOffset":19315032,
			"target":34962
		},
		{
			"buffer":0,
			"byteLength":15744,
			"byteOffset":19346520,
			"target":34962
		},
		{
			"buffer":0,
			"byteLength":62976,
			"byteOffset":19362264,
			"target":34962
		},
		{
			"buffer":0,
			"byteLength":46080,
			"byteOffset":19425240,
			"target":34963
		},
		{
			"buffer":0,
			"byteLength":51168,
			"byteOffset":19471320,
			"target":34962
		},
		{
			"buffer":0,
			"byteLength":51168,
			"byteOffset":19522488,
			"target":34962
		},
		{
			"buffer":0,
			"byteLength":34112,
			"byteOffset":19573656,
			"target":34962
		},
		{
			"buffer":0,
			"byteLength":17056,
			"byteOffset":19607768,
			"target":34962
		},
		{
			"buffer":0,
			"byteLength":68224,
			"byteOffset":19624824,
			"target":34962
		},
		{
			"buffer":0,
			"byteLength":49920,
			"byteOffset":19693048,
			"target":34963
		},
		{
			"buffer":0,
			"byteLength":47232,
			"byteOffset":19742968,
			"target":34962
		},
		{
			"buffer":0,
			"byteLength":47232,
			"byteOffset":19790200,
			"target":34962
		},
		{
			"buffer":0,
			"byteLength":31488,
			"byteOffset":19837432,
			"target":34962
		},
		{
			"buffer":0,
			"byteLength":15744,
			"byteOffset":19868920,
			"target":34962
		},
		{
			"buffer":0,
			"byteLength":62976,
			"byteOffset":19884664,
			"target":34962
		},
		{
			"buffer":0,
			"byteLength":46080,
			"byteOffset":19947640,
			"target":34963
		},
		{
			"buffer":0,
			"byteLength":169752,
			"byteOffset":19993720,
			"target":34962
		},
		{
			"buffer":0,
			"byteLength":169752,
			"byteOffset":20163472,
			"target":34962
		},
		{
			"buffer":0,
			"byteLength":113168,
			"byteOffset":20333224,
			"target":34962
		},
		{
			"buffer":0,
			"byteLength":56584,
			"byteOffset":20446392,
			"target":34962
		},
		{
			"buffer":0,
			"byteLength":226336,
			"byteOffset":20502976,
			"target":34962
		},
		{
			"buffer":0,
			"byteLength":139110,
			"byteOffset":20729312,
			"target":34963
		},
		{
			"buffer":0,
			"byteLength":168132,
			"byteOffset":20868424,
			"target":34962
		},
		{
			"buffer":0,
			"byteLength":168132,
			"byteOffset":21036556,
			"target":34962
		},
		{
			"buffer":0,
			"byteLength":112088,
			"byteOffset":21204688,
			"target":34962
		},
		{
			"buffer":0,
			"byteLength":56044,
			"byteOffset":21316776,
			"target":34962
		},
		{
			"buffer":0,
			"byteLength":224176,
			"byteOffset":21372820,
			"target":34962
		},
		{
			"buffer":0,
			"byteLength":138444,
			"byteOffset":21596996,
			"target":34963
		},
		{
			"buffer":0,
			"byteLength":19248,
			"byteOffset":21735440,
			"target":34962
		},
		{
			"buffer":0,
			"byteLength":19248,
			"byteOffset":21754688,
			"target":34962
		},
		{
			"buffer":0,
			"byteLength":12832,
			"byteOffset":21773936,
			"target":34962
		},
		{
			"buffer":0,
			"byteLength":6416,
			"byteOffset":21786768,
			"target":34962
		},
		{
			"buffer":0,
			"byteLength":25664,
			"byteOffset":21793184,
			"target":34962
		},
		{
			"buffer":0,
			"byteLength":19116,
			"byteOffset":21818848,
			"target":34963
		},
		{
			"buffer":0,
			"byteLength":24384,
			"byteOffset":21837964,
			"target":34962
		},
		{
			"buffer":0,
			"byteLength":24384,
			"byteOffset":21862348,
			"target":34962
		},
		{
			"buffer":0,
			"byteLength":16256,
			"byteOffset":21886732,
			"target":34962
		},
		{
			"buffer":0,
			"byteLength":8128,
			"byteOffset":21902988,
			"target":34962
		},
		{
			"buffer":0,
			"byteLength":32512,
			"byteOffset":21911116,
			"target":34962
		},
		{
			"buffer":0,
			"byteLength":24336,
			"byteOffset":21943628,
			"target":34963
		}
	],
	"samplers":[
		{
			"magFilter":9729,
			"minFilter":9987
		}
	],
	"buffers":[
		{
			"byteLength":21967964,
			"uri":"heroine_outfit_arcanist.bin"
		}
	]
}
