{"asset":{"generator":"Khronos glTF Blender I/O v4.2.83","version":"2.0"},"scene":0,"scenes":[{"name":"Scene","nodes":[0,1,2,3,4,5,6]}],"nodes":[{"mesh":0,"name":"Well_MI_UnevenBrick"},{"mesh":1,"name":"Well_MI_WellWater"},{"mesh":2,"name":"Well_MI_RockTrim"},{"mesh":3,"name":"Well_MI_WoodTrim"},{"mesh":4,"name":"Well_MI_Rope"},{"mesh":5,"name":"Well_MI_Iron"},{"mesh":6,"name":"Well_MI_RoundTiles"}],"materials":[{"doubleSided":true,"name":"MI_UnevenBrick","normalTexture":{"index":2},"pbrMetallicRoughness":{"baseColorTexture":{"index":0},"metallicFactor":0,"metallicRoughnessTexture":{"index":1}}},{"name":"MI_WellWater","pbrMetallicRoughness":{"baseColorFactor":[0.02,0.035,0.04,1],"metallicFactor":0,"roughnessFactor":0.08}},{"doubleSided":true,"name":"MI_RockTrim","normalTexture":{"index":5},"pbrMetallicRoughness":{"baseColorTexture":{"index":3},"metallicRoughnessTexture":{"index":4}}},{"doubleSided":true,"name":"MI_WoodTrim","normalTexture":{"index":8},"pbrMetallicRoughness":{"baseColorTexture":{"index":6},"metallicFactor":0,"metallicRoughnessTexture":{"index":7}}},{"name":"MI_Rope","pbrMetallicRoughness":{"baseColorFactor":[0.17,0.12,0.07,1],"metallicFactor":0,"roughnessFactor":0.95}},{"name":"MI_Iron","pbrMetallicRoughness":{"baseColorFactor":[0.16,0.15,0.14,1],"metallicFactor":0.7,"roughnessFactor":0.55}},{"doubleSided":true,"name":"MI_RoundTiles","normalTexture":{"index":11},"pbrMetallicRoughness":{"baseColorTexture":{"index":9},"metallicFactor":0,"metallicRoughnessTexture":{"index":10}}}],"meshes":[{"name":"Cone","primitives":[{"attributes":{"POSITION":0,"NORMAL":1,"TEXCOORD_0":2},"indices":3,"material":0}]},{"name":"Circle","primitives":[{"attributes":{"POSITION":4,"NORMAL":5,"TEXCOORD_0":6},"indices":7,"material":1}]},{"name":"Cube","primitives":[{"attributes":{"POSITION":8,"NORMAL":9,"TEXCOORD_0":10},"indices":11,"material":2}]},{"name":"Cube.013","primitives":[{"attributes":{"POSITION":12,"NORMAL":13,"TEXCOORD_0":14},"indices":15,"material":3}]},{"name":"Cone.003","primitives":[{"attributes":{"POSITION":16,"NORMAL":17,"TEXCOORD_0":18},"indices":19,"material":4}]},{"name":"Cone.004","primitives":[{"attributes":{"POSITION":20,"NORMAL":21,"TEXCOORD_0":22},"indices":23,"material":5}]},{"name":"Grid","primitives":[{"attributes":{"POSITION":24,"NORMAL":25,"TEXCOORD_0":26},"indices":27,"material":6}]}],"accessors":[{"bufferView":0,"componentType":5126,"count":224,"max":[1,0.7799999713897705,1],"min":[-1,0,-1],"type":"VEC3"},{"bufferView":1,"componentType":5126,"count":224,"type":"VEC3"},{"bufferView":2,"componentType":5126,"count":224,"type":"VEC2"},{"bufferView":3,"componentType":5123,"count":336,"type":"SCALAR"},{"bufferView":4,"componentType":5126,"count":28,"max":[0.7200000286102295,0.41999998688697815,0.7200000286102295],"min":[-0.7200000286102295,0.41999998688697815,-0.7200000286102295],"type":"VEC3"},{"bufferView":5,"componentType":5126,"count":28,"type":"VEC3"},{"bufferView":6,"componentType":5126,"count":28,"type":"VEC2"},{"bufferView":7,"componentType":5123,"count":78,"type":"SCALAR"},{"bufferView":8,"componentType":5126,"count":2808,"max":[1.130271315574646,0.9071286916732788,1.1337943077087402],"min":[-1.1200721263885498,0.7612618803977966,-1.133765697479248],"type":"VEC3"},{"bufferView":9,"componentType":5126,"count":2808,"type":"VEC3"},{"bufferView":10,"componentType":5126,"count":2808,"type":"VEC2"},{"bufferView":11,"componentType":5123,"count":4212,"type":"SCALAR"},{"bufferView":12,"componentType":5126,"count":2100,"max":[1.409999966621399,3.5202441215515137,1.078727126121521],"min":[-1.409999966621399,0.8600000143051147,-1.078727126121521],"type":"VEC3"},{"bufferView":13,"componentType":5126,"count":2100,"type":"VEC3"},{"bufferView":14,"componentType":5126,"count":2100,"type":"VEC2"},{"bufferView":15,"componentType":5123,"count":3204,"type":"SCALAR"},{"bufferView":16,"componentType":5126,"count":120,"max":[0.2800000011920929,1.8421167135238647,0.11500000208616257],"min":[-0.18000000715255737,1.2400000095367432,-0.11500000208616257],"type":"VEC3"},{"bufferView":17,"componentType":5126,"count":120,"type":"VEC3"},{"bufferView":18,"componentType":5126,"count":120,"type":"VEC2"},{"bufferView":19,"componentType":5123,"count":216,"type":"SCALAR"},{"bufferView":20,"componentType":5126,"count":448,"max":[1.4300000667572021,1.7599999904632568,0.18400000035762787],"min":[-0.07200000435113907,0.906000018119812,-0.18400000035762787],"type":"VEC3"},{"bufferView":21,"componentType":5126,"count":448,"type":"VEC3"},{"bufferView":22,"componentType":5126,"count":448,"type":"VEC2"},{"bufferView":23,"componentType":5123,"count":756,"type":"SCALAR"},{"bufferView":24,"componentType":5126,"count":2378,"max":[1.409999966621399,3.5013294219970703,1.0089999437332153],"min":[-1.409999966621399,2.796374559402466,-1.0089999437332153],"type":"VEC3"},{"bufferView":25,"componentType":5126,"count":2378,"type":"VEC3"},{"bufferView":26,"componentType":5126,"count":2378,"type":"VEC2"},{"bufferView":27,"componentType":5123,"count":3636,"type":"SCALAR"}],"bufferViews":[{"buffer":0,"byteLength":2688,"byteOffset":0,"target":34962},{"buffer":0,"byteLength":2688,"byteOffset":2688,"target":34962},{"buffer":0,"byteLength":1792,"byteOffset":5376,"target":34962},{"buffer":0,"byteLength":672,"byteOffset":7168,"target":34963},{"buffer":0,"byteLength":336,"byteOffset":7840,"target":34962},{"buffer":0,"byteLength":336,"byteOffset":8176,"target":34962},{"buffer":0,"byteLength":224,"byteOffset":8512,"target":34962},{"buffer":0,"byteLength":156,"byteOffset":8736,"target":34963},{"buffer":0,"byteLength":33696,"byteOffset":8892,"target":34962},{"buffer":0,"byteLength":33696,"byteOffset":42588,"target":34962},{"buffer":0,"byteLength":22464,"byteOffset":76284,"target":34962},{"buffer":0,"byteLength":8424,"byteOffset":98748,"target":34963},{"buffer":0,"byteLength":25200,"byteOffset":107172,"target":34962},{"buffer":0,"byteLength":25200,"byteOffset":132372,"target":34962},{"buffer":0,"byteLength":16800,"byteOffset":157572,"target":34962},{"buffer":0,"byteLength":6408,"byteOffset":174372,"target":34963},{"buffer":0,"byteLength":1440,"byteOffset":180780,"target":34962},{"buffer":0,"byteLength":1440,"byteOffset":182220,"target":34962},{"buffer":0,"byteLength":960,"byteOffset":183660,"target":34962},{"buffer":0,"byteLength":432,"byteOffset":184620,"target":34963},{"buffer":0,"byteLength":5376,"byteOffset":185052,"target":34962},{"buffer":0,"byteLength":5376,"byteOffset":190428,"target":34962},{"buffer":0,"byteLength":3584,"byteOffset":195804,"target":34962},{"buffer":0,"byteLength":1512,"byteOffset":199388,"target":34963},{"buffer":0,"byteLength":28536,"byteOffset":200900,"target":34962},{"buffer":0,"byteLength":28536,"byteOffset":229436,"target":34962},{"buffer":0,"byteLength":19024,"byteOffset":257972,"target":34962},{"buffer":0,"byteLength":7272,"byteOffset":276996,"target":34963}],"buffers":[{"byteLength":284268,"uri":"Well.bin"}],"textures":[{"sampler":0,"extensions":{"KHR_texture_basisu":{"source":0}}},{"sampler":1,"extensions":{"KHR_texture_basisu":{"source":1}}},{"sampler":2,"extensions":{"KHR_texture_basisu":{"source":2}}},{"sampler":3,"extensions":{"KHR_texture_basisu":{"source":3}}},{"sampler":4,"extensions":{"KHR_texture_basisu":{"source":4}}},{"sampler":5,"extensions":{"KHR_texture_basisu":{"source":5}}},{"sampler":6,"extensions":{"KHR_texture_basisu":{"source":6}}},{"sampler":7,"extensions":{"KHR_texture_basisu":{"source":7}}},{"sampler":8,"extensions":{"KHR_texture_basisu":{"source":8}}},{"sampler":9,"extensions":{"KHR_texture_basisu":{"source":9}}},{"sampler":10,"extensions":{"KHR_texture_basisu":{"source":10}}},{"sampler":11,"extensions":{"KHR_texture_basisu":{"source":11}}}],"images":[{"mimeType":"image/ktx2","name":"T_UnevenBrick_BaseColor","uri":"../village/T_UnevenBrick_BaseColor.ktx2"},{"mimeType":"image/ktx2","name":"T_UnevenBrick_Roughness","uri":"../village/T_UnevenBrick_Roughness.ktx2"},{"mimeType":"image/ktx2","name":"T_UnevenBrick_Normal","uri":"../village/T_UnevenBrick_Normal.ktx2"},{"mimeType":"image/ktx2","name":"T_RockTrim_BaseColor","uri":"../village/T_RockTrim_BaseColor.ktx2"},{"mimeType":"image/ktx2","name":"T_RockTrim_ORM","uri":"../village/T_RockTrim_ORM.ktx2"},{"mimeType":"image/ktx2","name":"T_RockTrim_Normal","uri":"../village/T_RockTrim_Normal.ktx2"},{"mimeType":"image/ktx2","name":"T_WoodTrim_BaseColor","uri":"../village/T_WoodTrim_BaseColor.ktx2"},{"mimeType":"image/ktx2","name":"T_WoodTrim_Roughness","uri":"../village/T_WoodTrim_Roughness.ktx2"},{"mimeType":"image/ktx2","name":"T_WoodTrim_Normal","uri":"../village/T_WoodTrim_Normal.ktx2"},{"mimeType":"image/ktx2","name":"T_RoundTiles_BaseColor","uri":"../village/T_RoundTiles_BaseColor.ktx2"},{"mimeType":"image/ktx2","name":"T_RoundTiles_Roughness","uri":"../village/T_RoundTiles_Roughness.ktx2"},{"mimeType":"image/ktx2","name":"T_RoundTiles_Normal","uri":"../village/T_RoundTiles_Normal.ktx2"}],"samplers":[{"magFilter":9729,"minFilter":9987},{"magFilter":9729,"minFilter":9987},{"magFilter":9729,"minFilter":9987},{"magFilter":9729,"minFilter":9987},{"magFilter":9729,"minFilter":9987},{"magFilter":9729,"minFilter":9987},{"magFilter":9729,"minFilter":9987},{"magFilter":9729,"minFilter":9987},{"magFilter":9729,"minFilter":9987},{"magFilter":9729,"minFilter":9987},{"magFilter":9729,"minFilter":9987},{"magFilter":9729,"minFilter":9987}],"extensionsUsed":["KHR_texture_basisu"],"extensionsRequired":["KHR_texture_basisu"]}