{"asset":{"generator":"Khronos glTF Blender I/O v4.0.44","version":"2.0"},"scene":0,"scenes":[{"name":"Scene","nodes":[0]}],"nodes":[{"mesh":0,"name":"BookGroup_Small_3"}],"materials":[{"doubleSided":true,"name":"MI_Trim_Props_Vertex","normalTexture":{"index":0},"pbrMetallicRoughness":{"baseColorTexture":{"index":1},"metallicRoughnessTexture":{"index":2}}}],"meshes":[{"name":"Cube.149","primitives":[{"attributes":{"COLOR_0":0,"POSITION":1,"NORMAL":2,"TEXCOORD_0":3},"indices":4,"material":0}]}],"textures":[{"sampler":0,"extensions":{"KHR_texture_basisu":{"source":0}}},{"sampler":0,"extensions":{"KHR_texture_basisu":{"source":1}}},{"sampler":0,"extensions":{"KHR_texture_basisu":{"source":2}}}],"images":[{"mimeType":"image/ktx2","name":"T_Trim_Props_Normal","uri":"T_Trim_Props_Normal.ktx2"},{"mimeType":"image/ktx2","name":"T_Trim_Props_BaseColor","uri":"T_Trim_Props_BaseColor.ktx2"},{"mimeType":"image/ktx2","name":"T_Trim_Props_ORM","uri":"T_Trim_Props_ORM.ktx2"}],"accessors":[{"bufferView":0,"componentType":5123,"count":180,"normalized":true,"type":"VEC4"},{"bufferView":1,"componentType":5126,"count":180,"max":[0.1409546434879303,0.2762168049812317,0.10473066568374634],"min":[-0.10385950654745102,-0.0011350593995302916,-0.13251370191574097],"type":"VEC3"},{"bufferView":2,"componentType":5126,"count":180,"type":"VEC3"},{"bufferView":3,"componentType":5126,"count":180,"type":"VEC2"},{"bufferView":4,"componentType":5123,"count":390,"type":"SCALAR"}],"bufferViews":[{"buffer":0,"byteLength":1440,"byteOffset":0,"target":34962},{"buffer":0,"byteLength":2160,"byteOffset":1440,"target":34962},{"buffer":0,"byteLength":2160,"byteOffset":3600,"target":34962},{"buffer":0,"byteLength":1440,"byteOffset":5760,"target":34962},{"buffer":0,"byteLength":780,"byteOffset":7200,"target":34963}],"samplers":[{"magFilter":9729,"minFilter":9987}],"buffers":[{"byteLength":7980,"uri":"BookGroup_Small_3.bin"}],"extensionsUsed":["KHR_texture_basisu"],"extensionsRequired":["KHR_texture_basisu"]}